<svg width="375" height="205" viewBox="0 0 375 205" fill="none" xmlns="http://www.w3.org/2000/svg">
<circle cx="59" cy="-35" r="240" fill="#F3ECFF" style="mix-blend-mode:multiply"/>
<circle cx="174" cy="135" r="60" fill="#E7C6FF" style="mix-blend-mode:overlay"/>
<circle cx="248" cy="121" r="60" fill="#551981" style="mix-blend-mode:overlay"/>
<path d="M133.917 133.333H126.083C124.35 133.333 122.933 134.733 122.933 136.467V138.033C122.933 139.767 124.333 141.167 126.067 141.167H133.917C135.65 141.167 137.05 139.767 137.05 138.033V136.467C137.067 134.733 135.65 133.333 133.917 133.333Z" fill="#9667E0"/>
<path d="M138.733 138.033C138.733 140.683 136.567 142.85 133.917 142.85H126.083C123.433 142.85 121.267 140.683 121.267 138.033C121.267 137.1 120.267 136.517 119.433 136.95C117.083 138.2 115.483 140.683 115.483 143.533V159.217C115.483 163.317 118.833 166.667 122.933 166.667H137.067C141.167 166.667 144.517 163.317 144.517 159.217V143.533C144.517 140.683 142.917 138.2 140.567 136.95C139.733 136.517 138.733 137.1 138.733 138.033ZM135.567 151.217L128.9 157.883C128.65 158.133 128.333 158.25 128.017 158.25C127.7 158.25 127.383 158.133 127.133 157.883L124.633 155.383C124.15 154.9 124.15 154.1 124.633 153.617C125.117 153.133 125.917 153.133 126.4 153.617L128.017 155.233L133.8 149.45C134.283 148.967 135.083 148.967 135.567 149.45C136.05 149.933 136.05 150.733 135.567 151.217Z" fill="#9667E0"/>
<path d="M162.809 168.288C161.273 168.288 160.025 167.808 159.065 166.848C158.137 165.888 157.673 164.448 157.673 162.528C157.673 161.728 157.801 160.688 158.057 159.408L163.193 135.36L170.297 134.4L164.777 160.32C164.649 160.8 164.585 161.312 164.585 161.856C164.585 162.496 164.729 162.96 165.017 163.248C165.337 163.504 165.849 163.632 166.553 163.632C167.481 163.632 168.345 163.248 169.145 162.48C169.945 161.68 170.521 160.656 170.873 159.408H172.889C171.705 162.864 170.185 165.216 168.329 166.464C166.473 167.68 164.633 168.288 162.809 168.288ZM179.349 141.408C178.293 141.408 177.397 141.04 176.661 140.304C175.925 139.568 175.557 138.672 175.557 137.616C175.557 136.56 175.925 135.664 176.661 134.928C177.397 134.16 178.293 133.776 179.349 133.776C180.405 133.776 181.301 134.16 182.037 134.928C182.805 135.664 183.189 136.56 183.189 137.616C183.189 138.672 182.805 139.568 182.037 140.304C181.301 141.04 180.405 141.408 179.349 141.408ZM176.085 168.288C174.549 168.288 173.301 167.808 172.341 166.848C171.413 165.888 170.949 164.448 170.949 162.528C170.949 161.728 171.077 160.688 171.333 159.408L174.597 144H181.509L178.053 160.32C177.925 160.8 177.861 161.312 177.861 161.856C177.861 162.496 178.005 162.96 178.293 163.248C178.613 163.504 179.125 163.632 179.829 163.632C180.757 163.632 181.621 163.248 182.421 162.48C183.221 161.68 183.797 160.656 184.149 159.408H186.165C184.981 162.864 183.461 165.216 181.605 166.464C179.749 167.68 177.909 168.288 176.085 168.288ZM201.938 168.288C199.986 168.288 198.546 167.776 197.618 166.752C196.722 165.696 196.274 164.4 196.274 162.864C196.274 162.192 196.354 161.44 196.514 160.608C196.674 159.744 196.834 158.912 196.994 158.112C197.186 157.312 197.314 156.8 197.378 156.576C197.634 155.456 197.874 154.352 198.098 153.264C198.322 152.176 198.434 151.296 198.434 150.624C198.434 148.992 197.858 148.176 196.706 148.176C195.874 148.176 195.138 148.592 194.498 149.424C193.858 150.224 193.346 151.28 192.962 152.592L189.698 168H182.786L187.874 144H194.786L194.258 146.496C195.858 144.704 197.73 143.808 199.874 143.808C201.506 143.808 202.802 144.256 203.762 145.152C204.722 146.048 205.202 147.408 205.202 149.232C205.202 150.16 205.09 151.2 204.866 152.352C204.642 153.472 204.322 154.848 203.906 156.48C203.65 157.472 203.41 158.448 203.186 159.408C202.994 160.336 202.898 161.072 202.898 161.616C202.898 162.256 203.042 162.752 203.33 163.104C203.618 163.456 204.114 163.632 204.818 163.632C205.778 163.632 206.546 163.296 207.122 162.624C207.698 161.92 208.274 160.848 208.85 159.408H210.866C209.682 162.928 208.306 165.296 206.738 166.512C205.202 167.696 203.602 168.288 201.938 168.288ZM216.093 168.288C213.757 168.288 211.933 167.68 210.621 166.464C209.309 165.216 208.653 163.28 208.653 160.656C208.653 158.448 209.085 156.016 209.949 153.36C210.813 150.704 212.221 148.416 214.173 146.496C216.125 144.544 218.605 143.568 221.613 143.568C225.133 143.568 226.893 145.104 226.893 148.176C226.893 149.968 226.381 151.616 225.357 153.12C224.333 154.624 222.973 155.84 221.277 156.768C219.581 157.664 217.773 158.176 215.853 158.304C215.789 159.008 215.757 159.488 215.757 159.744C215.757 162.4 216.749 163.728 218.733 163.728C219.629 163.728 220.589 163.488 221.613 163.008C222.637 162.528 223.565 161.92 224.397 161.184C223.533 165.92 220.765 168.288 216.093 168.288ZM216.189 156C217.405 155.968 218.541 155.568 219.597 154.8C220.685 154.032 221.549 153.056 222.189 151.872C222.861 150.656 223.197 149.392 223.197 148.08C223.197 146.768 222.797 146.112 221.997 146.112C220.877 146.112 219.757 147.136 218.637 149.184C217.549 151.2 216.733 153.472 216.189 156ZM244.423 168.336C241.255 168.336 238.855 167.568 237.223 166.032C235.623 164.464 234.823 162.16 234.823 159.12C234.823 157.616 235.047 155.936 235.495 154.08L240.391 134.592C237.639 135.328 235.495 136.64 233.959 138.528C232.423 140.384 231.655 142.432 231.655 144.672C231.655 146.24 232.071 147.76 232.903 149.232C231.079 149.232 229.655 148.784 228.631 147.888C227.639 146.992 227.143 145.728 227.143 144.096C227.143 142.016 227.975 140.032 229.639 138.144C231.335 136.224 233.575 134.688 236.359 133.536C239.143 132.384 242.087 131.808 245.191 131.808C246.279 131.808 247.175 131.888 247.879 132.048L242.023 154.224C241.479 156.24 241.207 157.968 241.207 159.408C241.207 162.448 242.455 163.968 244.951 163.968C248.535 163.968 251.015 160.672 252.391 154.08L257.191 131.904H263.959L259.303 154.08C258.279 158.784 256.503 162.336 253.975 164.736C251.479 167.136 248.295 168.336 244.423 168.336ZM265.87 142.224H272.782L272.014 145.824C273.614 144.448 275.486 143.76 277.63 143.76C279.422 143.76 280.846 144.352 281.902 145.536C282.958 146.72 283.486 148.656 283.486 151.344C283.486 153.872 283.118 156.432 282.382 159.024C281.646 161.584 280.398 163.776 278.638 165.6C276.878 167.392 274.558 168.288 271.678 168.288C269.63 168.288 268.27 167.712 267.598 166.56L265.102 178.272L257.854 180L265.87 142.224ZM270.19 164.112C271.726 164.112 272.99 163.392 273.982 161.952C275.006 160.512 275.742 158.8 276.19 156.816C276.67 154.8 276.91 152.928 276.91 151.2C276.91 148.544 276.11 147.216 274.51 147.216C273.934 147.216 273.342 147.424 272.734 147.84C272.158 148.256 271.646 148.832 271.198 149.568L268.366 163.008C268.622 163.744 269.23 164.112 270.19 164.112ZM290.435 168.192C289.379 168.192 288.483 167.824 287.747 167.088C287.011 166.352 286.643 165.456 286.643 164.4C286.643 163.344 287.011 162.448 287.747 161.712C288.483 160.944 289.379 160.56 290.435 160.56C291.491 160.56 292.387 160.944 293.123 161.712C293.891 162.448 294.275 163.344 294.275 164.4C294.275 165.456 293.891 166.352 293.123 167.088C292.387 167.824 291.491 168.192 290.435 168.192ZM303.525 168.192C302.469 168.192 301.573 167.824 300.837 167.088C300.101 166.352 299.733 165.456 299.733 164.4C299.733 163.344 300.101 162.448 300.837 161.712C301.573 160.944 302.469 160.56 303.525 160.56C304.581 160.56 305.477 160.944 306.213 161.712C306.981 162.448 307.365 163.344 307.365 164.4C307.365 165.456 306.981 166.352 306.213 167.088C305.477 167.824 304.581 168.192 303.525 168.192ZM316.614 168.192C315.558 168.192 314.662 167.824 313.926 167.088C313.19 166.352 312.822 165.456 312.822 164.4C312.822 163.344 313.19 162.448 313.926 161.712C314.662 160.944 315.558 160.56 316.614 160.56C317.67 160.56 318.566 160.944 319.302 161.712C320.07 162.448 320.454 163.344 320.454 164.4C320.454 165.456 320.07 166.352 319.302 167.088C318.566 167.824 317.67 168.192 316.614 168.192Z" fill="#9667E0"/>
</svg>
