<svg width="14" height="13" viewBox="0 0 14 13" fill="none" xmlns="http://www.w3.org/2000/svg">
<g clip-path="url(#clip0_412_1225)">
<path d="M12.341 6.30642C12.4709 6.21705 12.5673 6.09238 12.6166 5.94989C12.666 5.8074 12.6657 5.65423 12.616 5.51187C12.5663 5.3695 12.4695 5.24507 12.3393 5.15603C12.2091 5.06699 12.0519 5.01779 11.8899 5.01535L8.74291 4.90561C8.72744 4.90462 8.71261 4.89953 8.7002 4.89094C8.68779 4.88235 8.67834 4.87063 8.67298 4.8572L7.58553 2.14596C7.53089 2.00802 7.43165 1.88891 7.30125 1.80476C7.17085 1.72061 7.01559 1.67548 6.85648 1.67548C6.69737 1.67548 6.5421 1.72061 6.4117 1.80476C6.2813 1.88891 6.18207 2.00802 6.12743 2.14596L5.04347 4.86688C5.03811 4.88031 5.02866 4.89203 5.01625 4.90062C5.00385 4.90921 4.98901 4.91431 4.97354 4.91529L1.82657 5.02503C1.66453 5.02748 1.50739 5.07667 1.37718 5.16571C1.24696 5.25475 1.1502 5.37918 1.10046 5.52155C1.05072 5.66392 1.05049 5.81709 1.09982 5.95958C1.14914 6.10207 1.24554 6.22673 1.3755 6.3161L3.84413 8.10745C3.85648 8.11643 3.86571 8.12855 3.87069 8.14232C3.87566 8.15609 3.87615 8.1709 3.8721 8.18492L3.02242 10.9639C2.97838 11.1055 2.98265 11.2561 3.03463 11.3952C3.08661 11.5344 3.18379 11.6555 3.31293 11.7419C3.44208 11.8283 3.59693 11.8759 3.75641 11.8782C3.9159 11.8805 4.07228 11.8374 4.20428 11.7547L6.81277 10.1409C6.82562 10.1327 6.84086 10.1283 6.85648 10.1283C6.87209 10.1283 6.88734 10.1327 6.90019 10.1409L9.50868 11.7547C9.63889 11.8402 9.79471 11.8861 9.9545 11.8861C10.1143 11.8861 10.2701 11.8402 10.4003 11.7547C10.5295 11.6691 10.6268 11.5487 10.6787 11.41C10.7307 11.2712 10.7348 11.1211 10.6905 10.9801L9.83386 8.19137C9.82933 8.17737 9.82958 8.16242 9.83458 8.14856C9.83959 8.1347 9.84911 8.1226 9.86184 8.11391L12.341 6.30642Z" fill="#43259D"/>
</g>
<defs>
<clipPath id="clip0_412_1225">
<rect width="12.5879" height="11.6196" fill="white" transform="translate(0.452393 0.890396)"/>
</clipPath>
</defs>
</svg>
