<svg width="40" height="40" viewBox="0 0 40 40" fill="none" xmlns="http://www.w3.org/2000/svg">
<path d="M23.9167 3.33333H16.0833C14.35 3.33333 12.9333 4.73333 12.9333 6.46666V8.03333C12.9333 9.76666 14.3333 11.1667 16.0667 11.1667H23.9167C25.65 11.1667 27.05 9.76666 27.05 8.03333V6.46666C27.0667 4.73333 25.65 3.33333 23.9167 3.33333Z" fill="#9667E0"/>
<path d="M28.7334 8.03333C28.7334 10.6833 26.5667 12.85 23.9167 12.85H16.0834C13.4334 12.85 11.2667 10.6833 11.2667 8.03333C11.2667 7.1 10.2667 6.51666 9.4334 6.95C7.0834 8.2 5.4834 10.6833 5.4834 13.5333V29.2167C5.4834 33.3167 8.8334 36.6667 12.9334 36.6667H27.0667C31.1667 36.6667 34.5167 33.3167 34.5167 29.2167V13.5333C34.5167 10.6833 32.9167 8.2 30.5667 6.95C29.7334 6.51666 28.7334 7.1 28.7334 8.03333ZM25.5667 21.2167L18.9001 27.8833C18.6501 28.1333 18.3334 28.25 18.0167 28.25C17.7001 28.25 17.3834 28.1333 17.1334 27.8833L14.6334 25.3833C14.1501 24.9 14.1501 24.1 14.6334 23.6167C15.1167 23.1333 15.9167 23.1333 16.4001 23.6167L18.0167 25.2333L23.8001 19.45C24.2834 18.9667 25.0834 18.9667 25.5667 19.45C26.0501 19.9333 26.0501 20.7333 25.5667 21.2167Z" fill="#9667E0"/>
</svg>
