<svg width="25" height="25" viewBox="0 0 25 25" fill="none" xmlns="http://www.w3.org/2000/svg">
<path d="M13.0498 8.36278C13.0498 8.16387 12.9708 7.97311 12.8301 7.83246C12.6895 7.69181 12.4987 7.61279 12.2998 7.61279C12.1009 7.61279 11.9101 7.69181 11.7695 7.83246C11.6288 7.97311 11.5498 8.16387 11.5498 8.36278V13.4057L9.40634 16.9756C9.3039 17.1463 9.27345 17.3507 9.3217 17.5438C9.36994 17.7369 9.49292 17.9029 9.66359 18.0054C9.83425 18.1078 10.0386 18.1382 10.2317 18.09C10.4249 18.0418 10.5909 17.9188 10.6933 17.7481L12.9433 13.9982C13.0131 13.8817 13.0499 13.7485 13.0498 13.6127V8.36278Z" fill="black" fill-opacity="0.7"/>
<path d="M10.0497 0.113037C9.85083 0.113037 9.66006 0.192053 9.51941 0.332703C9.37876 0.473353 9.29974 0.664115 9.29974 0.863024C9.29974 1.06193 9.37876 1.2527 9.51941 1.39334C9.66006 1.53399 9.85083 1.61301 10.0497 1.61301H10.7997V3.21798C8.75716 3.51308 6.84681 4.40347 5.30734 5.77795C3.76786 7.15242 2.66751 8.95002 2.14373 10.9462C1.61995 12.9424 1.69597 15.0487 2.3623 17.0019C3.02862 18.9551 4.25571 20.6687 5.89027 21.9287L4.98727 22.8316C4.84644 22.9723 4.76725 23.1631 4.76711 23.3621C4.76697 23.5611 4.84589 23.752 4.98652 23.8929C5.12715 24.0337 5.31797 24.1129 5.51699 24.113C5.71601 24.1132 5.90694 24.0343 6.04776 23.8936L7.16676 22.7746C8.73427 23.6545 10.5022 24.1153 12.2997 24.1126C14.0973 24.1153 15.8652 23.6545 17.4327 22.7746L18.5517 23.8936C18.6925 24.0343 18.8834 24.1132 19.0825 24.113C19.2815 24.1129 19.4723 24.0337 19.6129 23.8929C19.7535 23.752 19.8325 23.5611 19.8323 23.3621C19.8322 23.1631 19.753 22.9723 19.6122 22.8316L18.7107 21.9287C20.3453 20.6686 21.5723 18.9549 22.2386 17.0016C22.9048 15.0482 22.9807 12.9419 22.4568 10.9456C21.9328 8.9494 20.8323 7.15182 19.2926 5.77744C17.7529 4.40307 15.8424 3.51284 13.7997 3.21798V1.61301H14.5497C14.7486 1.61301 14.9394 1.53399 15.08 1.39334C15.2207 1.2527 15.2997 1.06193 15.2997 0.863024C15.2997 0.664115 15.2207 0.473353 15.08 0.332703C14.9394 0.192053 14.7486 0.113037 14.5497 0.113037L10.0497 0.113037ZM11.6067 4.63996C12.0681 4.60488 12.5314 4.60488 12.9927 4.63996C15.3127 4.81913 17.4731 5.88988 19.0207 7.62753C20.5682 9.36519 21.3826 11.6347 21.293 13.9598C21.2033 16.285 20.2166 18.485 18.5398 20.0984C16.8631 21.7117 14.6266 22.6129 12.2997 22.6129C9.97283 22.6129 7.73637 21.7117 6.0596 20.0984C4.38284 18.485 3.39612 16.285 3.30647 13.9598C3.21681 11.6347 4.0312 9.36519 5.57876 7.62753C7.12631 5.88988 9.28674 4.81913 11.6067 4.63996ZM0.299805 5.36295C0.299805 6.49243 0.799301 7.50641 1.5898 8.1934C2.74741 5.91336 4.6002 4.06059 6.88026 2.90299C6.37908 2.32629 5.7137 1.91645 4.97318 1.72831C4.23266 1.54017 3.45234 1.58272 2.73667 1.85026C2.021 2.11779 1.40413 2.59756 0.968625 3.22532C0.533122 3.85309 0.29977 4.59891 0.299805 5.36295H0.299805ZM20.5497 1.61301C19.4202 1.61301 18.4062 2.1125 17.7192 2.90299C19.9992 4.06059 21.852 5.91336 23.0096 8.1934C23.5863 7.69222 23.9962 7.02685 24.1843 6.28634C24.3725 5.54583 24.3299 4.76552 24.0624 4.04985C23.7948 3.33419 23.3151 2.71732 22.6873 2.28182C22.0595 1.84633 21.3137 1.61298 20.5497 1.61301Z" fill="black" fill-opacity="0.7"/>
</svg>
