<svg width="51" height="51" viewBox="0 0 51 51" fill="none" xmlns="http://www.w3.org/2000/svg">
<path d="M44.416 23.0324C43.8171 19.8032 41.0046 17.3466 37.6018 17.3466C36.5341 17.3466 35.5272 17.607 34.6244 18.041C33.114 15.949 30.666 14.5688 27.8796 14.5688C23.2789 14.5688 19.5462 18.3015 19.5462 22.9021C19.5462 22.9455 19.5636 22.9976 19.5636 23.041C16.3865 23.6834 13.9907 26.4785 13.9907 29.8466C13.9907 33.6834 17.0983 36.791 20.9351 36.791H43.1574C46.9942 36.791 50.1018 33.6834 50.1018 29.8466C50.1018 26.4438 47.6539 23.6226 44.416 23.0324ZM10.8744 26.0185C7.62785 22.7719 7.62785 17.4855 10.8744 14.2303C13.8778 11.2268 18.6088 11.0358 21.8726 13.5879C23.6088 12.4681 25.6574 11.791 27.8796 11.791C27.9403 11.791 27.9924 11.8084 28.0532 11.8084L28.8258 9.49069C29.1209 8.60527 28.2789 7.77194 27.3935 8.06708L20.857 10.2459L17.7754 4.0827C17.3588 3.24937 16.1695 3.24937 15.7528 4.0827L12.6713 10.2459L6.13479 8.06708C5.24938 7.77194 4.41604 8.61395 4.71118 9.49937L6.89 16.0358L0.726807 19.1174C-0.106527 19.5341 -0.106527 20.7233 0.726807 21.14L6.89 24.2216L4.71118 30.758C4.41604 31.6435 5.25806 32.4768 6.14347 32.1903L11.2824 30.4803C11.265 30.2719 11.2216 30.0723 11.2216 29.8553C11.2216 28.7702 11.4213 27.7285 11.7598 26.739C11.4473 26.5046 11.1435 26.2876 10.8744 26.0185ZM16.9334 20.9837C17.3067 18.857 18.3049 16.956 19.7025 15.4282C18.8518 14.89 17.8449 14.5688 16.7685 14.5688C13.7042 14.5688 11.2129 17.0601 11.2129 20.1244C11.2129 21.7476 11.9247 23.1973 13.0445 24.2129C14.0254 22.8327 15.3535 21.7042 16.9334 20.9837ZM45.6313 39.7511C44.9716 39.3778 44.1209 39.5949 43.739 40.2719L40.5619 45.8275C40.1799 46.4959 40.4143 47.3379 41.0827 47.7199C41.2997 47.8414 41.5341 47.9021 41.7685 47.9021C42.2459 47.9021 42.7147 47.6504 42.9751 47.199L46.1522 41.6435C46.5254 40.9751 46.2997 40.133 45.6313 39.7511ZM37.298 39.7511C36.6383 39.3778 35.7876 39.5949 35.4056 40.2719L32.2285 45.8275C31.8466 46.4959 32.081 47.3379 32.7494 47.7199C32.9664 47.8414 33.2008 47.9021 33.4351 47.9021C33.9126 47.9021 34.3813 47.6504 34.6417 47.199L37.8188 41.6435C38.1921 40.9751 37.9664 40.133 37.298 39.7511ZM28.9647 39.7511C28.3049 39.3778 27.4542 39.5949 27.0723 40.2719L23.8952 45.8275C23.5133 46.4959 23.7476 47.3379 24.416 47.7199C24.6331 47.8414 24.8674 47.9021 25.1018 47.9021C25.5792 47.9021 26.048 47.6504 26.3084 47.199L29.4855 41.6435C29.8587 40.9751 29.6331 40.133 28.9647 39.7511ZM20.6313 39.7511C19.9716 39.3778 19.1209 39.5949 18.739 40.2719L15.5619 45.8275C15.1799 46.4959 15.4143 47.3379 16.0827 47.7199C16.2997 47.8414 16.5341 47.9021 16.7685 47.9021C17.2459 47.9021 17.7147 47.6504 17.9751 47.199L21.1522 41.6435C21.5254 40.9751 21.2997 40.133 20.6313 39.7511Z" fill="black"/>
</svg>
