<svg width="14" height="12" viewBox="0 0 14 12" fill="none" xmlns="http://www.w3.org/2000/svg">
<path d="M12.3295 5.73595C12.4594 5.64659 12.5558 5.52192 12.6052 5.37943C12.6545 5.23694 12.6543 5.08377 12.6045 4.9414C12.5548 4.79903 12.458 4.67461 12.3278 4.58556C12.1976 4.49652 12.0404 4.44733 11.8784 4.44489L8.73144 4.33515C8.71597 4.33416 8.70113 4.32907 8.68872 4.32047C8.67632 4.31188 8.66686 4.30017 8.66151 4.28673L7.57405 1.57549C7.51941 1.43755 7.42018 1.31845 7.28978 1.23429C7.15938 1.15014 7.00411 1.10501 6.845 1.10501C6.6859 1.10501 6.53063 1.15014 6.40023 1.23429C6.26983 1.31845 6.17059 1.43755 6.11595 1.57549L5.032 4.29641C5.02664 4.30985 5.01719 4.32157 5.00478 4.33016C4.99237 4.33875 4.97754 4.34384 4.96206 4.34483L1.81509 4.45457C1.65306 4.45701 1.49592 4.5062 1.3657 4.59525C1.23548 4.68429 1.13872 4.80872 1.08898 4.95109C1.03924 5.09345 1.03902 5.24662 1.08834 5.38911C1.13767 5.5316 1.23407 5.65627 1.36402 5.74564L3.83265 7.53699C3.84501 7.54596 3.85424 7.55809 3.85921 7.57185C3.86418 7.58562 3.86467 7.60043 3.86062 7.61445L3.01094 10.3935C2.96691 10.535 2.97118 10.6856 3.02316 10.8248C3.07514 10.964 3.17231 11.085 3.30146 11.1714C3.4306 11.2578 3.58545 11.3054 3.74494 11.3077C3.90442 11.31 4.0608 11.2669 4.1928 11.1843L6.8013 9.57042C6.81414 9.56223 6.82939 9.55784 6.845 9.55784C6.86062 9.55784 6.87586 9.56223 6.88871 9.57042L9.4972 11.1843C9.62742 11.2697 9.78324 11.3157 9.94302 11.3157C10.1028 11.3157 10.2586 11.2697 10.3888 11.1843C10.518 11.0987 10.6153 10.9782 10.6673 10.8395C10.7192 10.7008 10.7234 10.5506 10.6791 10.4096L9.82239 7.62091C9.81785 7.60691 9.8181 7.59196 9.82311 7.57809C9.82811 7.56423 9.83763 7.55213 9.85036 7.54344L12.3295 5.73595Z" fill="#FBBC05"/>
</svg>
