<svg width="214" height="72" viewBox="0 0 214 72" fill="none" xmlns="http://www.w3.org/2000/svg">
<path d="M23.9167 19.3333H16.0833C14.35 19.3333 12.9333 20.7333 12.9333 22.4667V24.0333C12.9333 25.7667 14.3333 27.1667 16.0667 27.1667H23.9167C25.65 27.1667 27.05 25.7667 27.05 24.0333V22.4667C27.0667 20.7333 25.65 19.3333 23.9167 19.3333Z" fill="white"/>
<path d="M28.7334 24.0333C28.7334 26.6833 26.5667 28.85 23.9167 28.85H16.0834C13.4334 28.85 11.2667 26.6833 11.2667 24.0333C11.2667 23.1 10.2667 22.5167 9.4334 22.95C7.0834 24.2 5.4834 26.6833 5.4834 29.5333V45.2167C5.4834 49.3167 8.8334 52.6667 12.9334 52.6667H27.0667C31.1667 52.6667 34.5167 49.3167 34.5167 45.2167V29.5333C34.5167 26.6833 32.9167 24.2 30.5667 22.95C29.7334 22.5167 28.7334 23.1 28.7334 24.0333ZM25.5667 37.2167L18.9001 43.8833C18.6501 44.1333 18.3334 44.25 18.0167 44.25C17.7001 44.25 17.3834 44.1333 17.1334 43.8833L14.6334 41.3833C14.1501 40.9 14.1501 40.1 14.6334 39.6167C15.1167 39.1333 15.9167 39.1333 16.4001 39.6167L18.0167 41.2333L23.8001 35.45C24.2834 34.9667 25.0834 34.9667 25.5667 35.45C26.0501 35.9333 26.0501 36.7333 25.5667 37.2167Z" fill="white"/>
<path d="M52.8086 54.288C51.2726 54.288 50.0246 53.808 49.0646 52.848C48.1366 51.888 47.6726 50.448 47.6726 48.528C47.6726 47.728 47.8006 46.688 48.0566 45.408L53.1926 21.36L60.2966 20.4L54.7766 46.32C54.6486 46.8 54.5846 47.312 54.5846 47.856C54.5846 48.496 54.7286 48.96 55.0166 49.248C55.3366 49.504 55.8486 49.632 56.5526 49.632C57.4806 49.632 58.3446 49.248 59.1446 48.48C59.9446 47.68 60.5206 46.656 60.8726 45.408H62.8886C61.7046 48.864 60.1846 51.216 58.3286 52.464C56.4726 53.68 54.6326 54.288 52.8086 54.288ZM69.3494 27.408C68.2934 27.408 67.3974 27.04 66.6614 26.304C65.9254 25.568 65.5574 24.672 65.5574 23.616C65.5574 22.56 65.9254 21.664 66.6614 20.928C67.3974 20.16 68.2934 19.776 69.3494 19.776C70.4054 19.776 71.3014 20.16 72.0374 20.928C72.8054 21.664 73.1894 22.56 73.1894 23.616C73.1894 24.672 72.8054 25.568 72.0374 26.304C71.3014 27.04 70.4054 27.408 69.3494 27.408ZM66.0854 54.288C64.5494 54.288 63.3014 53.808 62.3414 52.848C61.4134 51.888 60.9494 50.448 60.9494 48.528C60.9494 47.728 61.0774 46.688 61.3334 45.408L64.5974 30H71.5094L68.0534 46.32C67.9254 46.8 67.8614 47.312 67.8614 47.856C67.8614 48.496 68.0054 48.96 68.2934 49.248C68.6134 49.504 69.1254 49.632 69.8294 49.632C70.7574 49.632 71.6214 49.248 72.4214 48.48C73.2214 47.68 73.7974 46.656 74.1494 45.408H76.1654C74.9814 48.864 73.4614 51.216 71.6054 52.464C69.7494 53.68 67.9094 54.288 66.0854 54.288ZM91.9383 54.288C89.9863 54.288 88.5463 53.776 87.6183 52.752C86.7223 51.696 86.2743 50.4 86.2743 48.864C86.2743 48.192 86.3543 47.44 86.5143 46.608C86.6743 45.744 86.8343 44.912 86.9943 44.112C87.1863 43.312 87.3143 42.8 87.3783 42.576C87.6343 41.456 87.8743 40.352 88.0983 39.264C88.3223 38.176 88.4343 37.296 88.4343 36.624C88.4343 34.992 87.8583 34.176 86.7063 34.176C85.8743 34.176 85.1383 34.592 84.4983 35.424C83.8583 36.224 83.3463 37.28 82.9623 38.592L79.6983 54H72.7863L77.8743 30H84.7863L84.2583 32.496C85.8583 30.704 87.7303 29.808 89.8743 29.808C91.5063 29.808 92.8023 30.256 93.7623 31.152C94.7223 32.048 95.2023 33.408 95.2023 35.232C95.2023 36.16 95.0903 37.2 94.8663 38.352C94.6423 39.472 94.3223 40.848 93.9063 42.48C93.6503 43.472 93.4103 44.448 93.1863 45.408C92.9943 46.336 92.8983 47.072 92.8983 47.616C92.8983 48.256 93.0423 48.752 93.3303 49.104C93.6183 49.456 94.1143 49.632 94.8183 49.632C95.7783 49.632 96.5463 49.296 97.1223 48.624C97.6983 47.92 98.2743 46.848 98.8503 45.408H100.866C99.6823 48.928 98.3063 51.296 96.7383 52.512C95.2023 53.696 93.6023 54.288 91.9383 54.288ZM106.093 54.288C103.757 54.288 101.933 53.68 100.621 52.464C99.3087 51.216 98.6527 49.28 98.6527 46.656C98.6527 44.448 99.0847 42.016 99.9487 39.36C100.813 36.704 102.221 34.416 104.173 32.496C106.125 30.544 108.605 29.568 111.613 29.568C115.133 29.568 116.893 31.104 116.893 34.176C116.893 35.968 116.381 37.616 115.357 39.12C114.333 40.624 112.973 41.84 111.277 42.768C109.581 43.664 107.773 44.176 105.853 44.304C105.789 45.008 105.757 45.488 105.757 45.744C105.757 48.4 106.749 49.728 108.733 49.728C109.629 49.728 110.589 49.488 111.613 49.008C112.637 48.528 113.565 47.92 114.397 47.184C113.533 51.92 110.765 54.288 106.093 54.288ZM106.189 42C107.405 41.968 108.541 41.568 109.597 40.8C110.685 40.032 111.549 39.056 112.189 37.872C112.861 36.656 113.197 35.392 113.197 34.08C113.197 32.768 112.797 32.112 111.997 32.112C110.877 32.112 109.757 33.136 108.637 35.184C107.549 37.2 106.733 39.472 106.189 42ZM134.423 54.336C131.255 54.336 128.855 53.568 127.223 52.032C125.623 50.464 124.823 48.16 124.823 45.12C124.823 43.616 125.047 41.936 125.495 40.08L130.391 20.592C127.639 21.328 125.495 22.64 123.959 24.528C122.423 26.384 121.655 28.432 121.655 30.672C121.655 32.24 122.071 33.76 122.903 35.232C121.079 35.232 119.655 34.784 118.631 33.888C117.639 32.992 117.143 31.728 117.143 30.096C117.143 28.016 117.975 26.032 119.639 24.144C121.335 22.224 123.575 20.688 126.359 19.536C129.143 18.384 132.087 17.808 135.191 17.808C136.279 17.808 137.175 17.888 137.879 18.048L132.023 40.224C131.479 42.24 131.207 43.968 131.207 45.408C131.207 48.448 132.455 49.968 134.951 49.968C138.535 49.968 141.015 46.672 142.391 40.08L147.191 17.904H153.959L149.303 40.08C148.279 44.784 146.503 48.336 143.975 50.736C141.479 53.136 138.295 54.336 134.423 54.336ZM155.87 28.224H162.782L162.014 31.824C163.614 30.448 165.486 29.76 167.63 29.76C169.422 29.76 170.846 30.352 171.902 31.536C172.958 32.72 173.486 34.656 173.486 37.344C173.486 39.872 173.118 42.432 172.382 45.024C171.646 47.584 170.398 49.776 168.638 51.6C166.878 53.392 164.558 54.288 161.678 54.288C159.63 54.288 158.27 53.712 157.598 52.56L155.102 64.272L147.854 66L155.87 28.224ZM160.19 50.112C161.726 50.112 162.99 49.392 163.982 47.952C165.006 46.512 165.742 44.8 166.19 42.816C166.67 40.8 166.91 38.928 166.91 37.2C166.91 34.544 166.11 33.216 164.51 33.216C163.934 33.216 163.342 33.424 162.734 33.84C162.158 34.256 161.646 34.832 161.198 35.568L158.366 49.008C158.622 49.744 159.23 50.112 160.19 50.112ZM180.435 54.192C179.379 54.192 178.483 53.824 177.747 53.088C177.011 52.352 176.643 51.456 176.643 50.4C176.643 49.344 177.011 48.448 177.747 47.712C178.483 46.944 179.379 46.56 180.435 46.56C181.491 46.56 182.387 46.944 183.123 47.712C183.891 48.448 184.275 49.344 184.275 50.4C184.275 51.456 183.891 52.352 183.123 53.088C182.387 53.824 181.491 54.192 180.435 54.192ZM193.525 54.192C192.469 54.192 191.573 53.824 190.837 53.088C190.101 52.352 189.733 51.456 189.733 50.4C189.733 49.344 190.101 48.448 190.837 47.712C191.573 46.944 192.469 46.56 193.525 46.56C194.581 46.56 195.477 46.944 196.213 47.712C196.981 48.448 197.365 49.344 197.365 50.4C197.365 51.456 196.981 52.352 196.213 53.088C195.477 53.824 194.581 54.192 193.525 54.192ZM206.614 54.192C205.558 54.192 204.662 53.824 203.926 53.088C203.19 52.352 202.822 51.456 202.822 50.4C202.822 49.344 203.19 48.448 203.926 47.712C204.662 46.944 205.558 46.56 206.614 46.56C207.67 46.56 208.566 46.944 209.302 47.712C210.07 48.448 210.454 49.344 210.454 50.4C210.454 51.456 210.07 52.352 209.302 53.088C208.566 53.824 207.67 54.192 206.614 54.192Z" fill="white"/>
</svg>
