<svg width="27" height="27" viewBox="0 0 27 27" fill="none" xmlns="http://www.w3.org/2000/svg">
<path d="M13.2998 14.5167C15.7851 14.5167 17.7998 12.9049 17.7998 10.9167C17.7998 8.92849 15.7851 7.31671 13.2998 7.31671C10.8145 7.31671 8.7998 8.92849 8.7998 10.9167C8.7998 12.9049 10.8145 14.5167 13.2998 14.5167Z" stroke="black" stroke-opacity="0.7" stroke-width="2" stroke-linecap="round" stroke-linejoin="round"/>
<path d="M13.2998 1.31671C10.1172 1.31671 7.06496 2.32814 4.81452 4.12849C2.56409 5.92884 1.2998 8.37063 1.2998 10.9167C1.2998 13.1871 1.9028 14.6727 3.5498 16.3167L13.2998 25.3167L23.0498 16.3167C24.6968 14.6727 25.2998 13.1871 25.2998 10.9167C25.2998 8.37063 24.0355 5.92884 21.7851 4.12849C19.5347 2.32814 16.4824 1.31671 13.2998 1.31671V1.31671Z" stroke="black" stroke-opacity="0.7" stroke-width="2" stroke-linecap="round" stroke-linejoin="round"/>
</svg>
