<svg width="241" height="262" viewBox="0 0 241 262" fill="none" xmlns="http://www.w3.org/2000/svg">
<path d="M202.647 141.862L160.58 125.956C159.889 125.695 159.256 125.3 158.718 124.794C158.179 124.288 157.746 123.68 157.442 123.007C157.139 122.333 156.971 121.606 156.949 120.868C156.926 120.129 157.05 119.394 157.312 118.703L179.326 60.4807C179.854 59.0849 180.914 57.9559 182.275 57.3419C183.635 56.728 185.183 56.6795 186.579 57.2069L213.261 67.2943L225.858 96.388L209.9 138.611C209.368 140.003 208.305 141.127 206.946 141.736C205.586 142.345 204.04 142.391 202.647 141.862Z" fill="#F5F5F5"/>
<path d="M213.26 67.2949L207.06 83.6811C206.816 84.324 206.702 85.0087 206.723 85.6959C206.744 86.3831 206.9 87.0595 207.183 87.6863C207.465 88.3131 207.868 88.8781 208.369 89.3491C208.87 89.82 209.459 90.1877 210.102 90.431L225.858 96.3886L213.26 67.2949Z" fill="#EBEBEB"/>
<path d="M206.729 85.2018C206.729 85.2018 205.023 89.1003 209.043 92.1427C209.195 92.2561 209.353 92.3604 209.517 92.455C211.438 93.6118 224.07 101.131 224.186 100.825L225.851 96.4171L210.096 90.4595C210.096 90.4595 206.22 88.8111 206.729 85.2018Z" fill="#E0E0E0"/>
<path d="M203.785 81.6794C203.704 81.8934 199.285 80.4127 193.912 78.3825C188.538 76.3523 184.247 74.5303 184.328 74.3337C184.409 74.137 188.828 75.6004 194.201 77.6306C199.574 79.6608 203.866 81.4538 203.785 81.6794Z" fill="#E0E0E0"/>
<path d="M212.85 95.7001C212.769 95.9083 205.539 93.3865 196.695 90.026C187.851 86.6655 180.742 83.7966 180.823 83.5826C180.904 83.3685 188.134 85.8962 196.984 89.2625C205.834 92.6288 212.913 95.4861 212.85 95.7001Z" fill="#E0E0E0"/>
<path d="M212.809 104.526C212.728 104.735 204.85 101.953 195.208 98.3029C185.566 94.6532 177.816 91.5298 177.897 91.3215C177.978 91.1133 185.855 93.8954 195.497 97.5452C205.139 101.195 212.913 104.312 212.809 104.526Z" fill="#E0E0E0"/>
<path d="M210.051 111.825C209.97 112.034 202.092 109.251 192.45 105.602C182.808 101.952 175.058 98.8054 175.139 98.6203C175.22 98.4353 183.097 101.194 192.739 104.838C202.381 108.482 210.132 111.611 210.051 111.825Z" fill="#E0E0E0"/>
<path d="M207.29 119.126C207.209 119.334 199.325 116.552 189.689 112.902C180.053 109.253 172.297 106.129 172.372 105.921C172.447 105.713 180.331 108.495 189.978 112.139C199.626 115.783 207.365 118.912 207.29 119.126Z" fill="#E0E0E0"/>
<path d="M204.527 126.425C204.452 126.633 196.568 123.845 186.932 120.201C177.296 116.557 169.534 113.428 169.615 113.22C169.696 113.011 177.573 115.794 187.215 119.437C196.857 123.081 204.608 126.211 204.527 126.425Z" fill="#E0E0E0"/>
<path d="M62.3951 81.4181L6.93736 100.839C5.01988 101.511 4.00981 103.609 4.6813 105.527L32.5062 184.982C33.1777 186.9 35.2765 187.91 37.194 187.238L92.6517 167.817C94.5692 167.146 95.5793 165.047 94.9078 163.13L67.0829 83.6742C66.4114 81.7567 64.3126 80.7467 62.3951 81.4181Z" fill="#EBEBEB"/>
<path d="M63.1077 86.3565L9.46228 105.143L37.0406 183.894L90.6859 165.108L63.1077 86.3565Z" fill="#E0E0E0"/>
<path d="M62.146 85.9855L8.50061 104.772L35.5532 182.022L89.1985 163.236L62.146 85.9855Z" fill="#FAFAFA"/>
<path d="M89.1861 163.234L62.0647 86.0118L62.1631 86.0581L8.52773 104.85L8.57978 104.746C18.6903 133.759 28.1009 160.556 35.6144 181.998L35.5276 181.957L89.1919 163.234L35.5681 182.096H35.5045V182.033C27.9852 160.591 18.6035 133.794 8.43518 104.787V104.706H8.51037L62.1515 85.9308H62.2267V86.0003L89.1861 163.234Z" fill="#E0E0E0"/>
<path d="M70.1659 169.898C70.1659 169.898 82.1099 159.822 84.1806 149.33C82.9821 150.993 81.4591 152.396 79.7036 153.455C77.948 154.514 75.9963 155.206 73.966 155.49C73.966 155.49 73.7289 166.48 70.1659 169.898Z" fill="#E0E0E0"/>
<path d="M26.8306 121.984L24.0083 122.973C22.9772 123.334 22.4341 124.462 22.7952 125.493L23.7835 128.316C24.1446 129.347 25.2732 129.89 26.3043 129.529L29.1266 128.541C30.1577 128.179 30.7008 127.051 30.3397 126.02L29.3514 123.197C28.9903 122.166 27.8617 121.623 26.8306 121.984Z" fill="#EBEBEB"/>
<path d="M26.4887 126.847C26.4691 126.858 26.4473 126.863 26.4251 126.863C26.403 126.863 26.3812 126.858 26.3615 126.847L25.0659 126.096C25.0345 126.072 25.0129 126.037 25.0053 125.998C24.9976 125.959 25.0044 125.919 25.0243 125.885C25.0442 125.851 25.0758 125.825 25.1133 125.813C25.1508 125.801 25.1915 125.802 25.2278 125.818L26.3846 126.477L27.7497 123.585C27.7696 123.547 27.8032 123.517 27.8438 123.502C27.8845 123.487 27.9293 123.488 27.9695 123.504C27.989 123.514 28.0066 123.527 28.021 123.543C28.0354 123.559 28.0465 123.578 28.0535 123.598C28.0605 123.619 28.0633 123.64 28.0618 123.662C28.0603 123.684 28.0545 123.705 28.0446 123.724L26.6044 126.801C26.5896 126.817 26.5716 126.829 26.5516 126.837C26.5316 126.845 26.5102 126.848 26.4887 126.847Z" fill="white"/>
<path d="M63.5286 110.027C63.5286 110.073 56.5877 112.555 47.9753 115.568C39.3629 118.582 32.3584 120.988 32.3584 120.947C32.3584 120.907 39.2992 118.42 47.9175 115.406C56.5357 112.393 63.517 109.987 63.5286 110.027Z" fill="#E0E0E0"/>
<path d="M47.1744 121.144C47.1744 121.144 46.9951 121.225 46.6712 121.352L45.2715 121.873C44.1147 122.301 42.4489 122.885 40.6443 123.521C38.8397 124.158 37.1739 124.725 36.017 125.124L34.6 125.592C34.4284 125.655 34.2525 125.705 34.0736 125.743C34.2354 125.658 34.4036 125.586 34.5768 125.529L35.9766 125.014C37.1334 124.58 38.7992 123.996 40.6038 123.36C42.4084 122.723 44.0742 122.162 45.231 121.757L46.6481 121.289C46.8191 121.226 46.9952 121.177 47.1744 121.144Z" fill="#E0E0E0"/>
<path d="M64.2641 112.156C64.2641 112.196 57.3232 114.677 48.705 117.691C40.0868 120.704 33.0881 123.116 33.0881 123.07C33.0881 123.024 40.029 120.548 48.653 117.535C57.277 114.521 64.2641 112.109 64.2641 112.156Z" fill="#E0E0E0"/>
<path d="M30.8614 133.494L28.0391 134.483C27.008 134.844 26.4648 135.972 26.8259 137.003L27.8143 139.826C28.1754 140.857 29.3039 141.4 30.335 141.039L33.1573 140.051C34.1884 139.69 34.7316 138.561 34.3705 137.53L33.3822 134.708C33.0211 133.676 31.8925 133.133 30.8614 133.494Z" fill="#EBEBEB"/>
<path d="M30.5215 138.358C30.5008 138.368 30.478 138.373 30.4549 138.373C30.4319 138.373 30.4091 138.368 30.3884 138.358L29.0986 137.606C29.0799 137.596 29.0635 137.582 29.0503 137.565C29.0372 137.548 29.0276 137.529 29.0222 137.508C29.0168 137.488 29.0157 137.466 29.0188 137.445C29.022 137.424 29.0295 137.404 29.0407 137.386C29.0509 137.367 29.0648 137.351 29.0816 137.338C29.0983 137.325 29.1176 137.315 29.1382 137.31C29.1587 137.304 29.1802 137.303 29.2013 137.306C29.2223 137.309 29.2425 137.317 29.2605 137.328L30.4173 137.988L31.7824 135.067C31.8012 135.029 31.8337 134.999 31.8734 134.984C31.9131 134.969 31.9571 134.97 31.9964 134.986C32.0355 135.003 32.066 135.036 32.0811 135.076C32.0963 135.116 32.095 135.161 32.0774 135.2L30.6371 138.283C30.6243 138.303 30.6073 138.32 30.5874 138.333C30.5674 138.346 30.545 138.354 30.5215 138.358Z" fill="white"/>
<path d="M67.5623 121.537C67.5623 121.584 60.6215 124.059 52.0032 127.079C43.385 130.098 36.3864 132.498 36.3864 132.458C36.3864 132.417 43.3272 129.93 51.9454 126.917C60.5636 123.903 67.5507 121.497 67.5623 121.537Z" fill="#E0E0E0"/>
<path d="M51.2024 132.653C51.2024 132.653 51.0231 132.734 50.6934 132.862L49.2995 133.382C48.1427 133.81 46.4768 134.394 44.6722 135.031C42.8676 135.667 41.2018 136.234 40.045 136.633L38.6279 137.101C38.4564 137.164 38.2805 137.214 38.1016 137.252C38.2626 137.165 38.431 137.094 38.6048 137.038L40.0045 136.523C41.1613 136.089 42.8271 135.505 44.6317 134.869C46.4364 134.232 48.1022 133.671 49.259 133.266L50.6761 132.798C50.847 132.735 51.0231 132.686 51.2024 132.653Z" fill="#E0E0E0"/>
<path d="M68.3114 123.678C68.3114 123.718 61.3706 126.2 52.7524 129.213C44.1342 132.227 37.1355 134.639 37.1355 134.592C37.1355 134.546 44.0763 132.071 52.6946 129.057C61.3128 126.044 68.3114 123.62 68.3114 123.678Z" fill="#E0E0E0"/>
<path d="M34.8971 145.004L32.0749 145.993C31.0438 146.354 30.5006 147.482 30.8617 148.514L31.85 151.336C32.2111 152.367 33.3397 152.91 34.3708 152.549L37.1931 151.561C38.2242 151.2 38.7674 150.071 38.4063 149.04L37.4179 146.218C37.0568 145.186 35.9282 144.643 34.8971 145.004Z" fill="#EBEBEB"/>
<path d="M34.5503 149.867C34.5296 149.877 34.5068 149.883 34.4837 149.883C34.4607 149.883 34.4379 149.877 34.4172 149.867L33.1216 149.127C33.1005 149.118 33.0815 149.104 33.066 149.087C33.0505 149.07 33.0387 149.05 33.0315 149.029C33.0243 149.007 33.0218 148.984 33.0242 148.961C33.0266 148.938 33.0338 148.916 33.0454 148.896C33.0569 148.876 33.0726 148.859 33.0913 148.846C33.11 148.832 33.1313 148.823 33.1538 148.819C33.1764 148.814 33.1996 148.815 33.2219 148.82C33.2443 148.825 33.2653 148.835 33.2836 148.849L34.4404 149.508L35.8054 146.587C35.8135 146.567 35.8256 146.549 35.8411 146.533C35.8565 146.518 35.8749 146.506 35.8952 146.497C35.9155 146.489 35.9372 146.485 35.959 146.486C35.9809 146.486 36.0024 146.491 36.0224 146.5C36.0423 146.509 36.0602 146.522 36.075 146.538C36.0898 146.554 36.1012 146.573 36.1085 146.594C36.1158 146.614 36.1188 146.636 36.1174 146.658C36.116 146.68 36.1102 146.701 36.1004 146.72L34.6602 149.803C34.6319 149.837 34.5931 149.859 34.5503 149.867Z" fill="white"/>
<path d="M71.5912 133.048C71.5912 133.094 64.6504 135.57 56.0322 138.589C47.414 141.608 40.4153 144.009 40.4153 143.962C40.4153 143.916 47.3561 141.441 55.9801 138.427C64.6041 135.414 71.5739 133.008 71.5912 133.048Z" fill="#E0E0E0"/>
<path d="M55.2361 144.159C55.072 144.243 54.9019 144.314 54.7271 144.373L53.3274 144.894C52.1706 145.322 50.5106 145.906 48.7002 146.542C46.8898 147.178 45.2298 147.739 44.0729 148.144L42.6559 148.613C42.484 148.675 42.3082 148.725 42.1295 148.763C42.2906 148.677 42.459 148.605 42.6327 148.549L44.0325 148.029C45.1893 147.6 46.8551 147.016 48.6597 146.38C50.4643 145.744 52.1301 145.183 53.2869 144.778L54.6982 144.309C54.8745 144.249 55.0541 144.199 55.2361 144.159Z" fill="#E0E0E0"/>
<path d="M72.3622 135.175C72.3622 135.216 65.4214 137.697 56.8032 140.711C48.185 143.724 41.1863 146.136 41.1863 146.09C41.1863 146.044 48.1271 143.568 56.7453 140.549C65.3635 137.53 72.3217 135.129 72.3622 135.175Z" fill="#E0E0E0"/>
<path d="M38.9236 156.512L36.1013 157.5C35.0702 157.861 34.5271 158.99 34.8882 160.021L35.8765 162.843C36.2376 163.875 37.3662 164.418 38.3973 164.057L41.2196 163.068C42.2507 162.707 42.7938 161.579 42.4328 160.547L41.4444 157.725C41.0833 156.694 39.9547 156.151 38.9236 156.512Z" fill="#EBEBEB"/>
<path d="M38.5771 161.377C38.557 161.386 38.5354 161.39 38.5135 161.39C38.4916 161.39 38.47 161.386 38.4499 161.377L37.1542 160.625C37.1174 160.603 37.091 160.567 37.0807 160.525C37.0703 160.483 37.0771 160.439 37.0993 160.402C37.1215 160.366 37.1575 160.339 37.1993 160.329C37.241 160.318 37.2852 160.325 37.322 160.347L38.4788 161.007L39.8438 158.115C39.8615 158.076 39.894 158.045 39.9341 158.03C39.9742 158.015 40.0187 158.016 40.0578 158.034C40.0959 158.053 40.1254 158.085 40.1405 158.125C40.1555 158.165 40.1549 158.209 40.1388 158.248L38.6928 161.331C38.6616 161.36 38.6202 161.377 38.5771 161.377Z" fill="white"/>
<path d="M75.6236 144.557C75.6236 144.603 68.6827 147.079 60.0645 150.092C51.4463 153.106 44.4476 155.518 44.4476 155.472C44.4476 155.425 51.3885 152.95 60.0067 149.936C68.6249 146.923 75.6062 144.499 75.6236 144.557Z" fill="#E0E0E0"/>
<path d="M59.2598 155.67C59.0987 155.756 58.9303 155.828 58.7566 155.884L57.3568 156.405C56.2 156.833 54.5342 157.417 52.7296 158.053C50.925 158.689 49.2592 159.25 48.1024 159.655L46.6853 160.124C46.3498 160.228 46.1589 160.28 46.1589 160.274C46.32 160.188 46.4884 160.116 46.6621 160.06L48.0619 159.54C49.2187 159.111 50.8845 158.527 52.6891 157.891C54.4937 157.255 56.1595 156.694 57.3163 156.289L58.7334 155.82C58.9053 155.758 59.0811 155.708 59.2598 155.67Z" fill="#E0E0E0"/>
<path d="M76.3722 146.687C76.3722 146.727 69.4314 149.209 60.8132 152.222C52.195 155.236 45.1963 157.642 45.1963 157.601C45.1963 157.561 52.1371 155.08 60.7553 152.06C69.3736 149.041 76.3549 146.641 76.3722 146.687Z" fill="#E0E0E0"/>
<path d="M14.574 97.2443L15.9853 101.293C16.38 102.42 17.2061 103.345 18.2819 103.863C19.3578 104.381 20.5955 104.452 21.723 104.058L51.3952 93.6466C51.953 93.4518 52.467 93.149 52.9076 92.7554C53.3483 92.3618 53.707 91.8851 53.9633 91.3527C54.2195 90.8203 54.3683 90.2426 54.4011 89.6527C54.4338 89.0627 54.3499 88.4721 54.1541 87.9146L52.7428 83.8658L14.574 97.2443Z" fill="#E0E0E0"/>
<path d="M34.0559 91.7607C33.2676 92.0381 32.4148 92.0753 31.6055 91.8677C30.7961 91.6601 30.0664 91.217 29.509 90.5945C28.9516 89.972 28.5914 89.1981 28.474 88.3708C28.3566 87.5435 28.4874 86.7 28.8497 85.947C29.212 85.194 29.7895 84.5655 30.5092 84.1409C31.229 83.7164 32.0585 83.515 32.8927 83.5621C33.727 83.6093 34.5285 83.9029 35.1958 84.4058C35.8631 84.9087 36.3662 85.5984 36.6413 86.3874C37.0094 87.4428 36.944 88.6012 36.4593 89.6085C35.9746 90.6157 35.1103 91.3897 34.0559 91.7607ZM31.8001 85.3231C31.314 85.4928 30.8891 85.8029 30.5792 86.2142C30.2694 86.6255 30.0885 87.1194 30.0594 87.6335C30.0303 88.1476 30.1544 88.6588 30.4159 89.1024C30.6774 89.5459 31.0646 89.902 31.5285 90.1254C31.9925 90.3489 32.5122 90.4297 33.0221 90.3577C33.532 90.2857 34.009 90.064 34.3929 89.7208C34.7767 89.3776 35.0502 88.9283 35.1786 88.4296C35.307 87.931 35.2847 87.4054 35.1144 86.9195C34.8862 86.2686 34.409 85.7348 33.7876 85.4355C33.1661 85.1362 32.4513 85.0957 31.8001 85.3231Z" fill="#E0E0E0"/>
<path d="M57.767 102.277C57.767 102.352 49.9701 105.169 40.2934 108.553C30.6167 111.936 22.7504 114.626 22.7215 114.551C22.6926 114.476 30.5184 111.659 40.1951 108.275C49.8718 104.891 57.7381 102.179 57.767 102.277Z" fill="#E0E0E0"/>
<path d="M47.7451 103.694C47.7451 103.769 44.3325 105.048 40.0581 106.546C35.7837 108.044 32.2959 109.218 32.267 109.114C32.2381 109.01 35.6854 107.76 39.9598 106.262C44.2342 104.764 47.722 103.619 47.7451 103.694Z" fill="#E0E0E0"/>
<path d="M201.924 220.895C204.054 219.895 206.448 219.605 208.755 220.068C209.993 220.27 211.289 220.646 212.127 221.572C212.966 222.497 213.134 224.14 212.162 224.938C211.535 225.364 210.776 225.555 210.022 225.476C208.211 225.476 206.21 225.135 204.77 226.222C203.943 226.841 203.399 227.87 202.416 228.177C201.921 228.292 201.402 228.241 200.939 228.032C200.476 227.823 200.094 227.468 199.854 227.02C199.386 226.116 199.283 225.066 199.564 224.088C199.686 223.41 199.962 222.769 200.371 222.215C200.78 221.662 201.312 221.21 201.924 220.895Z" fill="#9667E0"/>
<path d="M197.133 211.71C198.406 213.521 200.875 212.925 202.021 211.814C203.166 210.704 203.646 209.102 204.085 207.575C205.092 204.075 206.11 200.408 205.364 196.845C205.178 195.775 204.704 194.775 203.993 193.953C203.63 193.546 203.167 193.24 202.649 193.068C202.132 192.895 201.578 192.861 201.043 192.97C199.794 193.3 199.024 194.52 198.463 195.677C196.814 199.106 195.95 202.861 195.936 206.667C195.936 208.436 196.138 210.287 197.133 211.751" fill="#9667E0"/>
<path d="M193.649 214.314C194.302 213.461 194.737 212.462 194.917 211.402C195.096 210.343 195.014 209.256 194.678 208.235C193.979 206.203 192.734 204.402 191.08 203.03C189.2 201.356 187.011 200.065 184.637 199.229C183.72 198.859 182.733 198.691 181.745 198.738C181.251 198.766 180.771 198.914 180.348 199.17C179.924 199.426 179.57 199.782 179.316 200.207C178.633 201.503 179.316 203.07 179.987 204.348C181.225 206.605 182.641 208.76 184.221 210.792C185.487 212.429 186.939 214.042 188.877 214.783C190.814 215.523 192.816 215.431 193.839 214.094" fill="#9667E0"/>
<path d="M197.055 239.075C197.118 238.806 197.155 238.531 197.164 238.254C197.228 237.676 197.297 236.901 197.384 236.004C197.495 234.895 197.665 233.792 197.893 232.701C198.187 231.374 198.587 230.072 199.09 228.809C199.584 227.547 200.254 226.361 201.08 225.286C201.753 224.41 202.613 223.695 203.596 223.192C204.262 222.861 204.977 222.639 205.713 222.533C205.99 222.523 206.266 222.484 206.535 222.417C206.256 222.387 205.975 222.387 205.696 222.417C204.933 222.479 204.187 222.675 203.492 222.996C202.456 223.483 201.547 224.203 200.837 225.101C199.978 226.193 199.284 227.405 198.778 228.699C198.265 229.98 197.866 231.304 197.587 232.655C197.374 233.76 197.227 234.876 197.147 235.998C197.072 236.953 197.049 237.733 197.037 238.26C197.011 238.531 197.017 238.805 197.055 239.075Z" fill="#263238"/>
<path d="M197.204 237.346C197.221 237.22 197.221 237.091 197.204 236.965V235.889C197.204 234.94 197.204 233.575 197.25 231.84C197.337 228.445 197.626 224.795 198.193 219.647C198.725 214.806 199.443 209.172 200.2 205.511C200.362 204.678 200.524 203.926 200.68 203.273C200.837 202.619 200.952 202.046 201.074 201.589C201.195 201.132 201.259 200.803 201.328 200.525C201.36 200.4 201.383 200.272 201.398 200.143C201.339 200.257 201.295 200.378 201.265 200.502C201.178 200.78 201.074 201.127 200.946 201.555C200.819 201.983 200.657 202.573 200.495 203.226C200.333 203.88 200.142 204.626 199.963 205.459C199.036 209.796 198.339 214.178 197.875 218.589C197.297 223.748 197.054 228.422 197.036 231.846C197.036 233.546 197.036 234.923 197.094 235.895C197.094 236.34 197.141 236.704 197.158 236.988C197.163 237.108 197.178 237.228 197.204 237.346Z" fill="#263238"/>
<path d="M197.227 228.287C197.26 227.902 197.26 227.515 197.227 227.13C197.162 226.094 197.044 225.061 196.875 224.036C196.627 222.514 196.291 221.007 195.868 219.524C195.379 217.699 194.748 215.914 193.983 214.186C192.674 211 190.798 208.078 188.447 205.562C188.037 205.132 187.601 204.728 187.14 204.353C186.943 204.179 186.764 204.012 186.562 203.879L186.058 203.532C185.755 203.299 185.432 203.094 185.093 202.918C186.203 203.786 187.256 204.725 188.245 205.729C190.525 208.264 192.352 211.171 193.647 214.325C194.397 216.042 195.031 217.808 195.544 219.611C195.979 221.08 196.337 222.57 196.614 224.076C196.851 225.366 196.99 226.39 197.071 227.142C197.095 227.527 197.147 227.91 197.227 228.287Z" fill="#263238"/>
<path d="M188.47 244.268L189.379 256.704H205.36L206.262 244.268H188.47Z" fill="#263238"/>
<path d="M208.176 239.364H186.932V244.269H208.176V239.364Z" fill="#263238"/>
<path d="M186.932 256.229V257.583H187.926H207.818V256.229H186.932Z" fill="#455A64"/>
<path d="M188.905 259.978L187.927 257.583H207.061L205.916 259.978H188.905Z" fill="#455A64"/>
<path d="M205.973 248.33C205.973 248.33 205.973 248.376 205.898 248.446L205.661 248.764L204.73 249.955L204.689 250.007L204.649 249.949L202.364 246.791H202.503L200.247 249.978L200.178 250.077L200.097 249.984L197.43 246.803H197.581L197.436 246.988L195.047 249.978L194.972 250.082L194.897 249.978C194.087 248.822 193.33 247.757 192.641 246.791H192.774L190.004 249.949L189.952 250.007L189.911 249.944C189.547 249.331 189.258 248.839 189.044 248.486L188.824 248.099C188.795 248.056 188.771 248.009 188.754 247.96C188.754 247.96 188.789 247.994 188.847 248.081L189.096 248.457L190.004 249.886H189.917L192.647 246.687L192.716 246.606L192.78 246.693L195.053 249.868H194.897L197.297 246.878L197.448 246.693L197.523 246.595L197.598 246.687L200.265 249.874H200.114L202.387 246.699L202.451 246.606L202.52 246.699C203.417 247.989 204.186 249.082 204.759 249.897H204.672L205.644 248.741L205.904 248.44L205.973 248.33Z" fill="#E0E0E0"/>
<path d="M206.488 244.183C206.488 244.241 202.485 244.287 197.546 244.287C192.606 244.287 188.604 244.241 188.604 244.183C188.604 244.125 192.606 244.084 197.546 244.084C202.485 244.084 206.488 244.131 206.488 244.183Z" fill="#455A64"/>
<path d="M207.297 257.723C207.297 257.775 202.942 257.821 197.58 257.821C192.218 257.821 187.863 257.775 187.863 257.723C187.863 257.671 192.212 257.619 197.58 257.619C202.948 257.619 207.297 257.665 207.297 257.723Z" fill="#263238"/>
<path d="M49.6885 218.043C49.6423 218.095 49.2779 217.876 48.873 217.552C48.4681 217.228 48.1731 216.921 48.2194 216.863C48.2657 216.805 48.6243 217.031 49.0291 217.355C49.434 217.679 49.729 217.985 49.6885 218.043Z" fill="#263238"/>
<path d="M60.7918 201.479C60.9493 199.936 60.8219 198.377 60.4159 196.88C59.93 195.405 58.7963 194.058 57.2809 193.74C55.5457 193.381 53.7758 194.474 52.8041 195.955C51.8323 197.436 51.5027 199.229 51.2134 200.97C49.2401 213 48.5132 225.201 49.0444 237.38L56.1241 238.375C59.207 225.667 60.2134 214.556 60.7918 201.479Z" fill="#455A64"/>
<path d="M56.2692 193.664L56.2345 193.78L56.1188 194.098L55.6446 195.324C55.5462 195.59 55.4132 195.902 55.3091 196.209L54.9678 197.279L54.5687 198.511L54.2043 199.917C53.61 202.238 53.1523 204.592 52.8335 206.967C52.4518 209.628 52.2031 212.578 52.0006 215.678C51.642 221.884 51.5842 227.518 51.4222 231.59C51.347 233.632 51.2776 235.28 51.2024 236.414C51.1619 236.992 51.133 237.403 51.1099 237.727C51.1099 237.86 51.1099 237.975 51.1099 238.062C51.1099 238.149 51.1099 238.178 51.1099 238.178C51.1099 238.178 51.1099 238.143 51.1099 238.062C51.1099 237.981 51.1099 237.86 51.1099 237.721C51.1099 237.403 51.1099 236.963 51.1504 236.408C51.1966 235.251 51.2371 233.626 51.2892 231.584C51.4049 227.535 51.4338 221.879 51.7982 215.666C51.9948 212.56 52.2551 209.605 52.6484 206.933C52.9802 204.565 53.4573 202.22 54.0771 199.911L54.4588 198.505C54.6092 198.073 54.748 197.663 54.8753 197.273L55.2455 196.203C55.3554 195.879 55.4942 195.59 55.5983 195.324L56.1188 194.121C56.1728 193.994 56.2191 193.89 56.2577 193.809C56.2535 193.76 56.2574 193.711 56.2692 193.664Z" fill="#263238"/>
<path d="M56.9225 193.694C57.2915 194.13 57.5847 194.624 57.7901 195.157C58.3314 196.62 58.5504 198.183 58.4321 199.738C58.247 203.654 57.8942 209.045 57.4315 215.002C56.9688 220.96 56.4424 226.339 56.0259 230.232C55.8119 232.175 55.6326 233.748 55.4996 234.859C55.4302 235.385 55.3781 235.802 55.3377 236.108L55.2914 236.432C55.2941 236.469 55.2941 236.505 55.2914 236.542C55.2914 236.542 55.2914 236.507 55.2914 236.432C55.2914 236.357 55.2914 236.235 55.2914 236.102C55.2914 235.796 55.355 235.379 55.4013 234.847C55.5112 233.737 55.6616 232.169 55.8466 230.22C56.2168 226.322 56.7085 220.965 57.177 214.985C57.6455 209.004 58.0214 203.642 58.2528 199.738C58.3787 198.201 58.1817 196.654 57.6744 195.198C57.4687 194.675 57.2171 194.172 56.9225 193.694Z" fill="#263238"/>
<path d="M61.835 212.024C61.3704 211.99 60.9157 211.872 60.493 211.677C60.0437 211.56 59.6188 211.364 59.2379 211.098C59.7031 211.129 60.1583 211.246 60.5798 211.445C61.0296 211.561 61.4548 211.757 61.835 212.024Z" fill="#263238"/>
<path d="M62.6903 204.804C62.3067 205.111 61.8747 205.351 61.4121 205.516C60.9822 205.754 60.5146 205.916 60.0297 205.996C60.8407 205.447 61.741 205.044 62.6903 204.804Z" fill="#263238"/>
<path d="M62.2451 198.911C61.5459 199.038 60.8264 198.988 60.1512 198.767C60.4935 198.669 60.8537 198.651 61.2039 198.715C61.5615 198.699 61.9179 198.766 62.2451 198.911Z" fill="#263238"/>
<path d="M54.9329 195.14C54.8751 195.174 54.5627 194.787 54.2446 194.278C54.0131 193.984 53.8492 193.642 53.7645 193.277C53.8224 193.243 54.1347 193.624 54.4586 194.139C54.7825 194.654 55.0081 195.099 54.9329 195.14Z" fill="#263238"/>
<path d="M52.5209 198.702C52.1988 198.818 51.8534 198.854 51.5144 198.806C51.1736 198.839 50.83 198.787 50.5138 198.656C50.8359 198.54 51.1813 198.504 51.5202 198.552C51.8611 198.519 52.2047 198.571 52.5209 198.702Z" fill="#263238"/>
<path d="M50.7856 205.811C50.4154 205.797 50.0535 205.698 49.7272 205.522C49.3701 205.421 49.0401 205.241 48.7612 204.996C49.1314 205.011 49.4934 205.11 49.8197 205.285C50.1768 205.387 50.5068 205.566 50.7856 205.811Z" fill="#263238"/>
<path d="M50.6001 211.821C50.6001 211.89 50.2126 212.035 49.6978 212.139C49.183 212.243 48.7608 212.284 48.7435 212.214C48.7261 212.145 49.1368 212 49.6458 211.896C49.9527 211.792 50.2807 211.767 50.6001 211.821Z" fill="#263238"/>
<path d="M49.803 221.629C49.803 221.699 49.3865 221.832 48.8428 221.93C48.518 222.027 48.1745 222.043 47.8422 221.976C48.1339 221.802 48.4632 221.701 48.8023 221.681C49.1264 221.581 49.4703 221.563 49.803 221.629Z" fill="#263238"/>
<path d="M49.2257 227.045C49.2604 227.102 48.9018 227.357 48.4275 227.623C47.9532 227.889 47.5425 228.028 47.5136 227.964C47.4847 227.901 47.8375 227.652 48.3118 227.386C48.7861 227.12 49.2257 226.981 49.2257 227.045Z" fill="#263238"/>
<path d="M53.6603 233.187C53.6025 233.222 53.2901 232.794 52.9662 232.227C52.732 231.903 52.5702 231.532 52.4919 231.14C52.5498 231.105 52.8621 231.533 53.186 232.1C53.4203 232.424 53.5821 232.795 53.6603 233.187Z" fill="#263238"/>
<path d="M54.9383 222.978C54.9845 223.025 54.6375 223.447 54.1632 223.915C53.6889 224.384 53.2609 224.719 53.2088 224.667C53.1568 224.615 53.5096 224.199 53.9839 223.73C54.4582 223.262 54.8862 222.926 54.9383 222.978Z" fill="#263238"/>
<path d="M54.6586 217.615C54.6065 217.667 54.2884 217.401 53.9413 217.037C53.5943 216.673 53.3629 216.32 53.4092 216.273C53.4555 216.227 53.7794 216.487 54.1264 216.852C54.4735 217.216 54.7106 217.569 54.6586 217.615Z" fill="#263238"/>
<path d="M55.535 210.773C55.587 210.819 55.2978 211.23 54.8872 211.681C54.4765 212.132 54.1063 212.473 54.0543 212.427C54.0022 212.381 54.2914 211.97 54.6963 211.513C55.1012 211.056 55.4829 210.727 55.535 210.773Z" fill="#263238"/>
<path d="M56.0268 205.81C55.9747 205.862 55.5756 205.544 55.1244 205.105C54.6733 204.665 54.3552 204.266 54.4014 204.214C54.4477 204.162 54.8526 204.48 55.3037 204.925C55.7549 205.371 56.073 205.758 56.0268 205.81Z" fill="#263238"/>
<path d="M57.0007 199.091C56.9241 199.456 56.7681 199.799 56.5438 200.097C56.2372 200.618 55.9364 201.011 55.8786 200.976C55.8208 200.942 56.0174 200.49 56.3298 199.97C56.6421 199.449 56.9371 199.056 57.0007 199.091Z" fill="#263238"/>
<path d="M58.8206 192.867C58.8843 192.901 58.705 193.353 58.4215 193.873C58.1381 194.394 57.8431 194.793 57.7969 194.764C57.8519 194.402 57.9884 194.058 58.196 193.757C58.4794 193.231 58.757 192.838 58.8206 192.867Z" fill="#263238"/>
<path d="M60.8906 195.695C60.9195 195.758 60.6361 195.955 60.2544 196.14C59.8726 196.325 59.5429 196.418 59.514 196.354C59.4851 196.291 59.7685 196.094 60.1502 195.909C60.532 195.724 60.8617 195.631 60.8906 195.695Z" fill="#263238"/>
<path d="M60.9373 218.044C59.9765 217.974 59.0666 217.585 58.3518 216.939C58.8022 217.076 59.238 217.256 59.6532 217.477C60.0995 217.622 60.5297 217.812 60.9373 218.044Z" fill="#263238"/>
<path d="M60.0922 222.776C60.0922 222.845 59.6815 222.984 59.1378 223.088C58.8147 223.192 58.4709 223.213 58.1372 223.152C58.4265 222.974 58.7534 222.867 59.0916 222.839C59.6353 222.735 60.0806 222.706 60.0922 222.776Z" fill="#263238"/>
<path d="M59.0569 230.889C59.0164 230.947 58.4785 230.571 57.9811 229.946C57.6498 229.59 57.4167 229.153 57.3043 228.68C57.6276 229.024 57.9198 229.395 58.1777 229.79C58.5039 230.129 58.7982 230.497 59.0569 230.889Z" fill="#263238"/>
<path d="M47.6717 234.604C47.6255 234.552 47.9147 234.228 48.3138 233.887C48.7129 233.546 49.0773 233.308 49.1235 233.366C49.1698 233.424 48.8806 233.736 48.4815 234.084C48.0824 234.431 47.718 234.656 47.6717 234.604Z" fill="#263238"/>
<path d="M44.3965 216.892C43.9338 215.452 43.072 213.775 41.5624 213.752C41.1125 213.776 40.6776 213.921 40.3031 214.171C39.9285 214.422 39.6283 214.768 39.4338 215.175C39.0183 215.977 38.819 216.874 38.8554 217.777C39.0418 224.188 40.1343 230.54 42.1003 236.645H47.6356C47.5685 229.934 46.4763 223.273 44.3965 216.892Z" fill="#455A64"/>
<path d="M34.3944 207.829C34.1206 206.479 33.4016 205.261 32.3528 204.37C31.3039 203.478 29.9859 202.965 28.6104 202.912C26.1637 203.34 25.2151 205.746 24.9259 208.21C24.6367 210.674 25.4002 213.127 26.1579 215.492C28.5795 223.081 31.005 230.672 33.4343 238.264L40.3173 237.512C38.1656 227.344 36.9163 217.916 34.3944 207.829Z" fill="#455A64"/>
<path d="M41.5618 213.752C41.3829 213.998 41.2262 214.259 41.0933 214.533C40.808 215.315 40.7186 216.155 40.833 216.979C40.9371 218.032 41.0586 219.293 41.2379 220.681C41.4172 222.069 41.6659 223.573 41.9783 225.181C42.6029 228.362 43.3086 231.208 43.754 233.279C43.9795 234.314 44.1531 235.158 44.2572 235.743C44.3035 236.014 44.3439 236.234 44.3729 236.419C44.4018 236.604 44.4076 236.656 44.3729 236.656C44.3428 236.584 44.3196 236.508 44.3035 236.431L44.1415 235.766C43.9911 235.147 43.7945 234.32 43.5631 233.319C43.0715 231.248 42.3369 228.408 41.7122 225.221C41.3999 223.625 41.1338 222.098 40.9892 220.698C40.8967 220.004 40.8388 219.333 40.781 218.714C40.7231 218.095 40.6653 217.511 40.6364 216.979C40.5375 216.13 40.657 215.27 40.9834 214.48C41.1211 214.198 41.3184 213.95 41.5618 213.752Z" fill="#263238"/>
<path d="M28.7394 202.717C28.4327 203.067 28.1542 203.44 27.9065 203.833C27.273 204.933 26.9139 206.169 26.8596 207.437C26.8309 209.317 27.1183 211.188 27.7099 212.972C28.2883 215.02 28.9766 217.27 29.6765 219.624C31.0473 224.344 32.2851 228.612 33.1931 231.73L34.2343 235.409C34.35 235.825 34.4367 236.155 34.5061 236.409C34.5439 236.524 34.5691 236.642 34.5813 236.762C34.5283 236.655 34.4857 236.542 34.4541 236.427C34.3789 236.172 34.269 235.848 34.1417 235.432C33.8699 234.547 33.4881 233.303 33.0254 231.782L29.4335 219.693C28.7394 217.328 28.0858 215.066 27.4843 213.03C26.8951 211.22 26.6231 209.322 26.6803 207.42C26.7549 206.127 27.1526 204.874 27.8371 203.776C28.0774 203.375 28.3823 203.018 28.7394 202.717Z" fill="#263238"/>
<path d="M38.8438 236.778C38.7856 236.671 38.7334 236.561 38.6876 236.448C38.6009 236.223 38.4563 235.904 38.3001 235.476C37.9704 234.632 37.5482 233.388 37.1433 231.827C36.7384 230.265 36.2757 228.356 35.8592 226.274C35.4428 224.192 35.0263 221.861 34.5636 219.431C34.1009 217.002 33.5572 214.718 32.9383 212.676C32.4014 210.861 31.7305 209.088 30.9313 207.372C30.3879 206.217 29.7676 205.1 29.0746 204.029C28.8374 203.647 28.6234 203.363 28.4962 203.167C28.4237 203.068 28.3599 202.964 28.3053 202.854C28.3901 202.94 28.4675 203.033 28.5367 203.132C28.6813 203.329 28.9068 203.595 29.1556 203.977C29.8871 205.031 30.5349 206.141 31.0932 207.297C31.9229 209.008 32.6134 210.784 33.1581 212.606C33.8113 214.837 34.3481 217.099 34.7661 219.385C35.223 221.809 35.651 224.122 36.0443 226.234C36.4377 228.345 36.8541 230.213 37.2706 231.78C37.687 233.348 38.0745 234.591 38.3753 235.442C38.5141 235.876 38.6472 236.199 38.7223 236.425C38.776 236.538 38.8167 236.656 38.8438 236.778Z" fill="#263238"/>
<path d="M26.3116 214.359C26.3116 214.422 25.953 214.573 25.4729 214.688C24.9928 214.804 24.5937 214.844 24.5822 214.775C24.5706 214.706 24.935 214.561 25.4151 214.445C25.8952 214.33 26.2943 214.289 26.3116 214.359Z" fill="#263238"/>
<path d="M25.5813 209.664C25.2053 209.769 24.8145 209.812 24.4245 209.791C24.0397 209.845 23.6485 209.833 23.2677 209.756C23.6279 209.584 24.0264 209.509 24.4245 209.536C24.8147 209.479 25.2129 209.523 25.5813 209.664Z" fill="#263238"/>
<path d="M26.3538 205.371C26.3075 205.428 25.9316 205.186 25.5209 204.833C25.1102 204.48 24.8037 204.15 24.85 204.098C24.8962 204.046 25.2664 204.283 25.6829 204.636C26.0993 204.989 26.4001 205.319 26.3538 205.371Z" fill="#263238"/>
<path d="M28.4529 201.403C28.5223 201.403 28.4992 201.756 28.4934 202.155C28.4876 202.554 28.4934 202.895 28.4066 202.907C28.3199 202.919 28.2273 202.583 28.2389 202.149C28.2505 201.715 28.4008 201.386 28.4529 201.403Z" fill="#263238"/>
<path d="M32.74 203.271C32.7978 203.311 32.6301 203.653 32.364 204.029C32.0979 204.404 31.8377 204.682 31.7856 204.642C31.7335 204.601 31.8955 204.266 32.1558 203.884C32.4161 203.502 32.6821 203.23 32.74 203.271Z" fill="#263238"/>
<path d="M35.5244 208.125C35.5244 208.194 35.1948 208.397 34.732 208.587C34.2693 208.778 33.8644 208.877 33.8413 208.813C33.8181 208.749 34.171 208.541 34.6337 208.356C35.0964 208.171 35.5013 208.044 35.5244 208.125Z" fill="#263238"/>
<path d="M37.2102 213.082C36.9041 213.348 36.5252 213.515 36.1228 213.562C35.7372 213.687 35.3244 213.701 34.9313 213.603C35.3024 213.455 35.6914 213.358 36.0881 213.313C36.4513 213.191 36.8281 213.113 37.2102 213.082Z" fill="#263238"/>
<path d="M29.4609 211.67C29.3972 211.67 29.4608 211.306 29.5707 210.901C29.6806 210.496 29.8542 210.19 29.9178 210.213C29.9814 210.236 29.9178 210.577 29.8079 210.982C29.698 211.387 29.5592 211.694 29.4609 211.67Z" fill="#263238"/>
<path d="M30.5439 217.917C30.5673 217.553 30.6742 217.199 30.8563 216.882C31.0934 216.338 31.3364 215.922 31.4 215.951C31.3766 216.315 31.2697 216.67 31.0876 216.986C30.8505 217.53 30.6076 217.958 30.5439 217.917Z" fill="#263238"/>
<path d="M27.8707 219.63C27.5298 219.621 27.1939 219.547 26.8816 219.41C26.3553 219.242 25.9272 219.092 25.9446 219.022C26.2889 218.978 26.6387 219.028 26.9568 219.167C27.4947 219.335 27.8996 219.566 27.8707 219.63Z" fill="#263238"/>
<path d="M29.4102 224.718C29.4507 224.776 29.1557 225.054 28.7566 225.343C28.3575 225.632 27.9873 225.817 27.9468 225.765C27.9063 225.713 28.2013 225.424 28.6062 225.135C29.0111 224.845 29.3697 224.66 29.4102 224.718Z" fill="#263238"/>
<path d="M30.6456 229.797C30.6456 229.861 30.2985 230.011 29.83 230.121C29.3615 230.231 28.974 230.271 28.9566 230.208C28.9393 230.144 29.3037 229.994 29.7722 229.878C30.2407 229.762 30.6282 229.728 30.6456 229.797Z" fill="#263238"/>
<path d="M37.3496 217.328C37.3843 217.385 37.072 217.634 36.6208 217.802C36.1697 217.97 35.7648 217.993 35.7532 217.929C35.7416 217.866 36.1002 217.732 36.5283 217.565C36.9563 217.397 37.3149 217.264 37.3496 217.328Z" fill="#263238"/>
<path d="M38.3068 225.221C38.2779 225.285 37.9077 225.175 37.4797 224.973C37.0517 224.77 36.7278 224.556 36.7567 224.493C36.7856 224.429 37.1616 224.545 37.5896 224.741C38.0176 224.938 38.3415 225.158 38.3068 225.221Z" fill="#263238"/>
<path d="M40.0001 230.879C39.617 230.859 39.2424 230.759 38.9012 230.584C38.3228 230.358 37.8774 230.121 37.9005 230.051C38.2817 230.071 38.6544 230.172 38.9937 230.346C39.5721 230.572 40.0233 230.809 40.0001 230.879Z" fill="#263238"/>
<path d="M30.9178 235.309C30.8831 235.245 31.3342 234.944 31.8548 234.534C32.3754 234.123 32.7802 233.753 32.8323 233.805C32.8843 233.857 32.5547 234.302 32.011 234.73C31.7085 235.022 31.3295 235.223 30.9178 235.309Z" fill="#263238"/>
<path d="M35.3841 232.418C35.3147 232.418 35.2164 232.047 35.0429 231.608C34.8693 231.168 34.6958 230.815 34.7537 230.775C34.8115 230.734 35.1007 231.035 35.28 231.515C35.4593 231.995 35.4535 232.418 35.3841 232.418Z" fill="#263238"/>
<path d="M34.1845 225.633C34.144 225.691 33.8548 225.552 33.5367 225.326C33.2185 225.101 32.9987 224.87 33.0392 224.812C33.0797 224.754 33.3689 224.893 33.687 225.118C34.0052 225.344 34.2423 225.575 34.1845 225.633Z" fill="#263238"/>
<path d="M44.599 214.979C44.6395 215.037 44.3561 215.314 43.9686 215.598C43.581 215.881 43.234 216.072 43.1935 216.014C43.153 215.956 43.4306 215.684 43.8182 215.395C44.2057 215.106 44.599 214.921 44.599 214.979Z" fill="#263238"/>
<path d="M46.1879 219.27C46.1879 219.34 45.7541 219.432 45.2104 219.375C44.6667 219.317 44.256 219.132 44.2734 219.068C44.2907 219.004 44.7187 219.068 45.2393 219.12C45.7599 219.172 46.1821 219.201 46.1879 219.27Z" fill="#263238"/>
<path d="M39.4402 220.235C39.4402 220.299 39.0526 220.444 38.5205 220.478C37.9884 220.513 37.5719 220.426 37.5777 220.357C37.5835 220.287 37.9999 220.264 38.5089 220.23C39.0179 220.195 39.4286 220.166 39.4402 220.235Z" fill="#263238"/>
<path d="M40.0232 216.175C40.0232 216.245 39.6067 216.256 39.1556 216.042C38.7044 215.828 38.4441 215.522 38.4904 215.464C38.5367 215.406 38.849 215.626 39.2597 215.811C39.6703 215.996 40.0289 216.106 40.0232 216.175Z" fill="#263238"/>
<path d="M46.766 223.881C46.7313 223.939 46.3091 223.742 45.8232 223.435C45.3374 223.129 44.9787 222.857 45.0192 222.776C45.0597 222.695 45.4762 222.921 45.962 223.221C46.4479 223.522 46.8065 223.823 46.766 223.881Z" fill="#263238"/>
<path d="M63.2344 235.923H27.2288V242.302H63.2344V235.923Z" fill="#9667E0"/>
<path d="M29.9178 241.042L34.2964 260.112H55.7551L60.5443 241.042H29.9178Z" fill="#9667E0"/>
<path d="M63.2152 242.314C63.2152 242.383 55.1176 242.441 45.0765 242.441C35.0354 242.441 26.9377 242.383 26.9377 242.314C26.9377 242.244 35.0354 242.187 45.0765 242.187C55.1176 242.187 63.2152 242.25 63.2152 242.314Z" fill="#263238"/>
<path d="M43.1905 220.374C43.1327 220.409 42.884 220.125 42.6411 219.732C42.3981 219.339 42.2478 218.992 42.3056 218.957C42.3634 218.922 42.6121 219.206 42.8551 219.599C43.098 219.992 43.2484 220.333 43.1905 220.374Z" fill="#263238"/>
<path d="M43.2058 225.504C43.1885 225.172 43.2541 224.84 43.3967 224.538C43.5645 224.024 43.7611 223.625 43.8247 223.648C43.8425 223.982 43.777 224.316 43.6339 224.619C43.443 225.128 43.2753 225.528 43.2058 225.504Z" fill="#263238"/>
<path d="M44.9637 230.895C44.9001 230.93 44.634 230.496 44.3853 229.935C44.1857 229.609 44.0594 229.244 44.0151 228.865C44.0788 228.83 44.3448 229.264 44.5935 229.825C44.7931 230.151 44.9194 230.516 44.9637 230.895Z" fill="#263238"/>
<path d="M41.1616 235.233C41.1095 235.187 41.3236 234.857 41.6417 234.487C41.9598 234.117 42.2548 233.863 42.3126 233.909C42.3705 233.955 42.1507 234.291 41.8326 234.655C41.5144 235.019 41.2137 235.309 41.1616 235.233Z" fill="#263238"/>
<path d="M40.3655 227.362C40.3655 227.431 40.0069 227.425 39.5904 227.362C39.174 227.298 38.8501 227.177 38.8616 227.107C38.8732 227.038 39.2202 227.044 39.6309 227.107C40.0416 227.171 40.377 227.292 40.3655 227.362Z" fill="#263238"/>
<path d="M165.63 192.067H80.2463V260.156H165.63V192.067Z" fill="#E0E0E0"/>
<g opacity="0.3">
<path d="M86.4622 192.206C96.5148 195.792 107.603 196.562 118.39 196.764C120.628 196.804 122.89 196.799 125.053 197.342C127.216 197.886 129.305 199.118 130.415 201.056C131.624 203.167 131.497 205.81 130.808 208.141C130.12 210.472 128.934 212.63 128.078 214.903C126.563 218.924 126.099 223.267 126.731 227.518C126.925 229.329 127.535 231.07 128.512 232.608C129.007 233.371 129.674 234.009 130.46 234.469C131.245 234.929 132.127 235.198 133.035 235.257C136.28 235.303 138.501 232.116 140.109 229.293C146.709 217.725 153.846 204.596 158.069 191.969L86.4622 192.206Z" fill="black"/>
</g>
<path d="M109.341 259.793C109.254 259.793 109.191 244.702 109.191 226.089C109.191 207.476 109.254 192.38 109.341 192.38C109.428 192.38 109.491 207.47 109.491 226.089C109.491 244.708 109.422 259.793 109.341 259.793Z" fill="#455A64"/>
<path d="M144.329 141.746C144.074 140.045 138.996 134.435 138.996 134.435C138.996 134.435 136.462 124.249 135.699 121.247C135.445 120.379 135.073 119.55 134.594 118.783C132.798 115.792 130.244 113.328 127.191 111.64L120.163 107.689L118.486 103.953L101.608 95.2769L97.0325 103.375C97.0325 103.375 85.9214 106.903 84.4523 109.407C82.9831 111.912 85.181 145.731 85.181 145.731C85.181 145.731 80.5538 165.235 79.5532 169.272C78.5525 173.309 79.8655 178.122 79.8655 178.122L88.1425 167.739C90.7164 164.512 96.3616 163.025 100.416 163.083L135.068 163.239L133.674 153.534L161.71 158.959C161.71 158.959 166.528 149.554 166.915 149.369C167.303 149.184 144.329 141.746 144.329 141.746Z" fill="#9667E0"/>
<path d="M100.89 106.527C100.647 106.278 102.845 113.711 105.609 121.282C107.097 125.373 107.855 129.694 107.848 134.047V161.464L124.46 160.336L121.978 142.278C121.978 142.278 119.954 130.629 119.387 126.198C118.866 122.15 117.073 111.16 117.073 111.16C117.073 111.16 107.848 113.612 100.89 106.527Z" fill="white"/>
<path d="M137.756 148.549C137.73 148.409 137.73 148.266 137.756 148.126C137.794 147.748 137.868 147.374 137.976 147.01C138.327 145.794 138.979 144.685 139.873 143.788C140.771 142.894 141.879 142.238 143.095 141.88C143.459 141.772 143.833 141.698 144.211 141.66C144.348 141.634 144.49 141.634 144.627 141.66C144.627 141.712 144.049 141.775 143.158 142.082C142.002 142.479 140.952 143.135 140.089 144C139.226 144.865 138.572 145.917 138.178 147.074C137.872 147.97 137.808 148.549 137.756 148.549Z" fill="#263238"/>
<path d="M138.61 141.978C139.382 141.525 140.255 141.273 141.149 141.244C142.035 141.121 142.937 141.229 143.769 141.556C143.769 141.649 142.613 141.423 141.172 141.556C139.732 141.689 138.645 142.065 138.61 141.978Z" fill="#263238"/>
<g opacity="0.3">
<path d="M83.5068 156.941L82.0608 158.572C83.5686 160.434 85.612 161.786 87.9142 162.448C90.2346 162.94 92.6055 163.154 94.9765 163.084C95.9371 163.13 96.8993 163.039 97.8338 162.812C98.7766 162.54 99.65 162.008 100.628 161.95C101.283 161.953 101.935 162.047 102.565 162.228C103.199 162.408 103.869 162.418 104.509 162.257C104.825 162.171 105.106 161.986 105.309 161.729C105.512 161.472 105.627 161.156 105.637 160.828C98.4258 158.721 91.0041 157.417 83.5068 156.941Z" fill="black"/>
</g>
<path d="M130.936 159.035L126.888 154.709L118.472 152.597C118.472 152.597 110.791 154.911 110.606 154.911C110.42 154.911 103.919 153.13 103.919 153.13L101.646 161.47L113.359 162.274L126.731 161.736C126.731 161.736 127.431 161.088 127.015 160.643C126.598 160.198 129.253 161.395 129.566 161.406C129.878 161.418 130.48 161.661 130.896 161.164C131.179 160.793 131.561 159.7 130.936 159.035Z" fill="#FFBE9D"/>
<path d="M127.014 160.613C126.56 160.528 126.115 160.4 125.684 160.232C124.874 159.977 123.747 159.653 122.491 159.306C121.236 158.959 120.079 158.728 119.241 158.583C118.782 158.523 118.33 158.417 117.893 158.265C118.356 158.245 118.82 158.28 119.275 158.369C120.382 158.524 121.479 158.74 122.561 159.017C123.644 159.292 124.711 159.632 125.754 160.035C126.197 160.173 126.621 160.368 127.014 160.613Z" fill="#EB996E"/>
<path d="M130.938 159.035C130.307 158.876 129.686 158.682 129.075 158.457C127.919 158.075 126.34 157.601 124.564 157.109C122.788 156.617 121.215 156.056 120.018 155.987C119.373 155.954 118.726 155.979 118.086 156.062C118.242 155.976 118.413 155.917 118.589 155.889C119.062 155.786 119.546 155.747 120.029 155.773C121.267 155.773 122.921 156.299 124.656 156.82C126.392 157.34 128.023 157.82 129.156 158.26C129.735 158.474 130.169 158.671 130.481 158.809C130.644 158.862 130.798 158.938 130.938 159.035Z" fill="#EB996E"/>
<path d="M84.4495 109.408C84.4495 109.408 78.4052 113.613 76.9303 119.663C75.4553 125.713 69.0871 150.44 70.3943 154.136C71.7015 157.832 97.1166 161.465 97.1166 161.465L100.13 148.74L87.2201 145.206C87.2201 145.206 87.3878 133.435 87.5498 128.559C87.7117 123.683 84.4495 109.408 84.4495 109.408Z" fill="#9667E0"/>
<path d="M99.9685 150.654L104.127 151.677L101.623 161.267L97.5392 160.614L99.9685 150.654Z" fill="white"/>
<path d="M70.3049 152.829C70.3049 152.829 70.3049 153.043 70.3685 153.408C70.5091 153.967 70.818 154.47 71.2535 154.848C72.3582 155.878 74.4694 156.734 77.1416 157.214C78.3621 157.619 79.756 157.937 81.2425 158.272C82.729 158.608 84.337 158.949 86.0259 159.29C89.4096 159.984 93.1518 160.713 97.1197 161.453L96.9462 161.563C97.2296 160.407 97.5246 159.14 97.8427 157.873C98.5541 154.981 99.2482 152.135 99.9018 149.457L100.006 149.631L88.5593 146.386C86.9789 145.721 85.2687 145.42 83.5561 145.507C82.2546 145.579 80.976 145.881 79.7791 146.398C79.0185 146.727 78.292 147.13 77.6101 147.601L77.0838 147.982C77.0262 148.029 76.9642 148.07 76.8987 148.104C76.8987 148.104 76.9507 148.046 77.0606 147.954C77.1705 147.861 77.3383 147.716 77.5696 147.543C78.2414 147.045 78.9647 146.62 79.7271 146.276C80.9315 145.73 82.2249 145.407 83.5446 145.322C85.2872 145.211 87.0322 145.5 88.6461 146.166L100.127 149.382L100.266 149.417L100.231 149.556C99.5779 152.234 98.8896 155.056 98.1839 157.977C97.8716 159.238 97.5708 160.488 97.2816 161.662L97.2469 161.801H97.1081C93.1403 161.054 89.4038 160.314 86.0201 159.608C84.3312 159.256 82.729 158.903 81.2367 158.556C79.7444 158.209 78.3447 157.879 77.1185 157.457C74.4116 156.942 72.3004 156.051 71.1841 154.97C70.7414 154.572 70.4375 154.043 70.3165 153.46C70.2748 153.252 70.2709 153.039 70.3049 152.829Z" fill="#263238"/>
<path d="M87.9253 146.067C87.8906 146.108 87.4568 145.709 86.6817 145.194C84.6519 143.835 82.2526 143.134 79.8103 143.187C78.8733 143.187 78.3006 143.314 78.2891 143.262C78.7737 143.087 79.2835 142.991 79.7987 142.979C82.3083 142.797 84.7998 143.521 86.8205 145.02C87.244 145.306 87.6173 145.66 87.9253 146.067Z" fill="#263238"/>
<path d="M89.6227 125.36C89.6439 125.618 89.6439 125.878 89.6227 126.136C89.6227 126.639 89.5706 127.356 89.5012 128.247C89.3566 130.022 89.0963 132.469 88.6278 135.153C88.2617 137.449 87.7262 139.715 87.0257 141.932C86.8868 142.354 86.7364 142.736 86.615 143.089L86.2448 143.921C86.1364 144.159 86.0026 144.384 85.8457 144.592C85.9182 144.344 86.0151 144.104 86.1349 143.875C86.2332 143.626 86.3373 143.343 86.4588 143.031C86.5803 142.718 86.696 142.313 86.8232 141.874C87.4554 139.649 87.9594 137.389 88.3328 135.107C88.7956 132.434 89.0905 129.999 89.2872 128.229C89.374 127.391 89.4492 126.691 89.507 126.136C89.5145 125.873 89.5533 125.613 89.6227 125.36Z" fill="#263238"/>
<path d="M104.359 118.806C104.359 118.806 104.301 118.65 104.162 118.378C103.956 117.993 103.656 117.666 103.289 117.43C103.017 117.243 102.707 117.121 102.381 117.073C102.055 117.025 101.723 117.052 101.409 117.152C101.011 117.288 100.656 117.526 100.378 117.841C100.1 118.157 99.909 118.539 99.824 118.951L99.743 119.361L99.5637 118.98C98.8872 117.528 98.2981 116.037 97.7996 114.514C96.9159 111.979 96.4737 109.31 96.4924 106.625C96.4924 106.11 96.5618 105.648 96.5907 105.237C96.6196 104.826 96.7122 104.485 96.7758 104.207C96.8368 103.915 96.922 103.629 97.0303 103.351C96.833 104.432 96.7228 105.527 96.7006 106.625C96.7482 109.281 97.2148 111.912 98.083 114.422C98.5819 115.932 99.1611 117.415 99.8182 118.864L99.5579 118.899C99.6577 118.444 99.8754 118.023 100.189 117.679C100.503 117.335 100.901 117.079 101.345 116.938C101.69 116.834 102.053 116.812 102.408 116.873C102.762 116.934 103.097 117.077 103.387 117.291C103.763 117.555 104.059 117.917 104.243 118.338C104.294 118.448 104.33 118.565 104.353 118.685C104.364 118.76 104.37 118.806 104.359 118.806Z" fill="#263238"/>
<path d="M118.462 120.108C118.4 119.883 118.355 119.653 118.329 119.42C118.202 118.783 118.161 118.131 118.207 117.483C118.337 116.485 118.834 115.571 119.601 114.92C120.076 114.53 120.67 114.315 121.284 114.313C121.619 114.309 121.951 114.378 122.256 114.515C122.562 114.652 122.834 114.853 123.054 115.105L122.8 115.256L122.25 113.873C121.169 111.149 120.208 108.668 119.526 106.88L118.734 104.746C118.623 104.491 118.54 104.226 118.485 103.954C118.627 104.193 118.747 104.444 118.843 104.706C119.075 105.284 119.37 105.961 119.728 106.805C120.463 108.581 121.464 111.039 122.534 113.746L123.077 115.134L123.43 116.025L122.852 115.279C122.661 115.057 122.423 114.88 122.157 114.76C121.89 114.64 121.6 114.581 121.307 114.585C120.757 114.581 120.222 114.767 119.792 115.111C119.069 115.715 118.587 116.559 118.433 117.488C118.371 118.122 118.382 118.76 118.467 119.391C118.495 119.63 118.493 119.871 118.462 120.108Z" fill="#263238"/>
<path d="M129.19 121.543C129.271 121.543 130.578 130.323 132.111 141.18C133.644 152.037 134.812 160.846 134.731 160.846C134.65 160.846 133.343 152.066 131.81 141.18C130.278 130.294 129.109 121.555 129.19 121.543Z" fill="#263238"/>
<g opacity="0.3">
<path d="M97.9727 114.607C98.043 116.856 98.5314 119.073 99.4129 121.143C100.043 120.362 100.743 119.541 101.726 119.31C102.918 119.026 104.127 119.761 104.989 120.663C104.839 119.761 104.483 118.906 103.948 118.164C103.68 117.8 103.332 117.503 102.931 117.295C102.53 117.087 102.086 116.975 101.634 116.967C101.184 116.978 100.75 117.138 100.401 117.423C100.052 117.708 99.8081 118.101 99.7079 118.54L98.0479 114.648" fill="black"/>
</g>
<path d="M88.2056 120.963C88.1535 120.963 88.1709 120.356 87.9973 119.413C87.7597 118.185 87.2821 117.015 86.5918 115.972C86.2032 115.407 85.7595 114.882 85.2673 114.404C84.8594 114.018 84.4159 113.671 83.9427 113.369C83.1272 112.854 82.5546 112.657 82.5777 112.605C82.7197 112.616 82.8587 112.651 82.9884 112.71C83.1503 112.753 83.3073 112.813 83.4569 112.889C83.6568 112.975 83.8501 113.075 84.0353 113.19C84.5383 113.474 85.0095 113.811 85.4408 114.196C85.9595 114.679 86.4232 115.219 86.8232 115.804C87.5401 116.878 88.0066 118.1 88.1882 119.379C88.2458 119.761 88.2652 120.149 88.2461 120.535C88.2461 120.813 88.2287 120.963 88.2056 120.963Z" fill="#263238"/>
<path d="M121.779 79.7184C121.449 76.6212 119.964 73.7619 117.621 71.7095C115.279 69.657 112.249 68.5619 109.135 68.642H108.493C101.581 69.2204 98.2148 75.4151 98.9899 82.3038L100.887 106.539L101.691 107.522C103.496 109.74 105.984 111.298 108.767 111.954C111.55 112.61 114.471 112.327 117.077 111.149L116.544 103.352C116.544 103.352 123.173 102.149 123.08 95.4972C123.04 92.2697 122.415 85.6644 121.779 79.7184Z" fill="#FFBE9D"/>
<path d="M116.597 103.335C113.511 103.421 110.465 102.617 107.823 101.021C107.823 101.021 109.992 105.758 116.614 104.989L116.597 103.335Z" fill="#EB996E"/>
<path d="M119.674 85.1905C119.681 85.4375 119.592 85.6776 119.426 85.8607C119.26 86.0439 119.03 86.156 118.783 86.1738C118.663 86.1857 118.541 86.1736 118.425 86.138C118.309 86.1025 118.202 86.0443 118.109 85.9668C118.016 85.8893 117.939 85.794 117.883 85.6866C117.827 85.5791 117.793 85.4616 117.783 85.3409C117.775 85.0935 117.863 84.8526 118.029 84.6692C118.195 84.4857 118.426 84.374 118.673 84.3576C118.794 84.3449 118.916 84.3565 119.032 84.3917C119.148 84.4269 119.256 84.4851 119.35 84.5627C119.443 84.6404 119.52 84.736 119.575 84.8438C119.631 84.9516 119.665 85.0695 119.674 85.1905Z" fill="#263238"/>
<path d="M120.097 81.5755C120.021 81.6911 119.269 81.7721 118.361 82.258C117.453 82.7438 116.921 83.3512 116.8 83.3396C116.678 83.328 116.8 83.1719 117.025 82.9C117.371 82.5164 117.782 82.1972 118.24 81.9572C118.677 81.7132 119.155 81.5543 119.651 81.4887C119.992 81.454 120.137 81.5176 120.097 81.5755Z" fill="#263238"/>
<path d="M110.072 85.6934C110.083 85.9416 109.996 86.1841 109.829 86.3682C109.662 86.5524 109.43 86.6632 109.182 86.6767C109.061 86.6894 108.939 86.6778 108.823 86.6426C108.707 86.6074 108.599 86.5492 108.505 86.4716C108.412 86.3939 108.335 86.2983 108.28 86.1905C108.224 86.0827 108.19 85.9648 108.181 85.8438C108.173 85.5964 108.261 85.3555 108.428 85.1721C108.594 84.9886 108.825 84.8769 109.072 84.8605C109.192 84.8478 109.315 84.8594 109.431 84.8946C109.547 84.9298 109.655 84.988 109.748 85.0656C109.841 85.1433 109.918 85.2388 109.974 85.3467C110.03 85.4545 110.063 85.5724 110.072 85.6934Z" fill="#263238"/>
<path d="M109.957 82.9685C109.824 82.9685 109.205 82.581 108.222 82.3381C107.239 82.0951 106.423 82.1472 106.336 82.0662C106.25 81.9852 106.441 81.9505 106.793 81.9216C107.309 81.8889 107.826 81.9377 108.326 82.0662C108.81 82.1812 109.272 82.3767 109.691 82.6446C109.923 82.8297 109.992 82.9569 109.957 82.9685Z" fill="#263238"/>
<path d="M113.937 90.9107C114.473 90.7318 115.028 90.6172 115.591 90.5695C115.851 90.5695 116.094 90.4769 116.135 90.2976C116.151 90.0295 116.084 89.763 115.944 89.5341L115.117 87.5618C113.96 84.7623 113.138 82.4545 113.254 82.414C113.37 82.3735 114.411 84.6003 115.527 87.3998C115.805 88.0939 116.071 88.7533 116.32 89.3837C116.49 89.6939 116.548 90.0539 116.482 90.4017C116.446 90.495 116.389 90.5789 116.316 90.647C116.243 90.7152 116.155 90.7658 116.059 90.795C115.917 90.8397 115.769 90.865 115.62 90.8702C115.063 90.9559 114.497 90.9695 113.937 90.9107Z" fill="#263238"/>
<path d="M109.96 79.0234C109.844 79.2952 108.832 79.1159 107.646 79.1969C106.46 79.2779 105.454 79.5671 105.332 79.3068C105.263 79.1853 105.448 78.9308 105.847 78.6821C106.384 78.3766 106.984 78.1979 107.6 78.1598C108.217 78.1217 108.834 78.2252 109.404 78.4623C109.786 78.6648 109.994 78.8904 109.96 79.0234Z" fill="#263238"/>
<path d="M120.075 79.2508C119.85 79.4879 118.971 79.2508 117.918 79.2508C116.865 79.2508 115.969 79.4301 115.76 79.1872C115.668 79.0715 115.807 78.8343 116.194 78.6088C116.729 78.3286 117.326 78.1911 117.929 78.2097C118.537 78.2055 119.136 78.361 119.665 78.6608C120.046 78.898 120.174 79.1409 120.075 79.2508Z" fill="#263238"/>
<path d="M123.72 73.8065C123.661 73.5029 123.494 73.2312 123.248 73.0426C123.003 72.854 122.698 72.7616 122.389 72.7827C122.722 72.6879 123.032 72.5287 123.303 72.3142C123.438 72.2055 123.539 72.061 123.596 71.8973C123.652 71.7336 123.661 71.5573 123.621 71.3888C123.448 70.874 122.788 70.7641 122.268 70.6195C121.585 70.4209 120.979 70.0171 120.533 69.4627C119.902 68.6645 119.659 67.6234 119.11 66.7615C118.755 66.2052 118.28 65.7355 117.719 65.387C117.159 65.0386 116.528 64.8202 115.872 64.7481C115.216 64.6759 114.552 64.7518 113.929 64.9701C113.306 65.1885 112.74 65.5437 112.273 66.0096C111.763 65.485 111.135 65.0898 110.441 64.8568C109.747 64.6238 109.008 64.5599 108.284 64.6702C107.56 64.7805 106.874 65.0619 106.281 65.491C105.688 65.9202 105.206 66.4846 104.875 67.1375C103.988 66.7675 103.018 66.6428 102.066 66.7765C101.114 66.9103 100.215 67.2975 99.464 67.8977C98.7131 68.4979 98.1372 69.289 97.7969 70.1881C97.4566 71.0872 97.3643 72.0613 97.5296 73.0083L101.671 75.5475C101.705 75.2325 101.805 74.9283 101.965 74.6549C102.124 74.3814 102.341 74.1451 102.599 73.9614C102.857 73.7777 103.151 73.6508 103.461 73.5892C103.772 73.5276 104.092 73.5327 104.401 73.604C105.65 73.9684 106.449 75.4144 107.744 75.5128C108.756 75.588 109.618 74.8071 110.596 74.5468C111.781 74.2287 113.037 74.703 114.107 75.3045C115.177 75.9061 116.2 76.658 117.392 76.9588C118.815 77.2441 120.292 77.0678 121.609 76.4556C122.193 76.2505 122.726 75.921 123.17 75.4896C123.389 75.2732 123.554 75.0075 123.649 74.7147C123.745 74.4219 123.769 74.1105 123.72 73.8065Z" fill="#263238"/>
<path d="M102.369 73.5921L121.34 73.488C120.656 72.213 119.661 71.1309 118.448 70.3415C115.929 68.5006 112.892 67.5026 109.772 67.49C106.678 67.49 100.489 71.4636 98.3083 73.6557C96.5731 75.3909 96.6194 76.889 96.6194 76.889C96.3996 79.353 97.8514 82.0946 98.4703 84.5066C98.7826 85.7444 99.4362 89.4924 99.4362 89.4924C100.477 89.4635 100.842 88.619 100.657 87.5895L100.35 83.5407C101.374 82.6866 102.091 81.5219 102.393 80.2233C102.694 78.9247 102.564 77.5632 102.022 76.3453C101.761 75.9867 101.137 74.3151 102.369 73.5921Z" fill="#263238"/>
<path d="M100.077 83.2764C99.111 79.9216 98.2202 76.3356 99.2498 72.9808H98.6714L98.44 73.1485C97.9052 72.9688 97.327 72.9642 96.7894 73.1352C96.2517 73.3063 95.7825 73.6443 95.4499 74.1C95.1173 74.5558 94.9385 75.1056 94.9395 75.6698C94.9405 76.2341 95.1212 76.7833 95.4555 77.2379C94.8914 77.2329 94.345 77.4341 93.919 77.8037C93.4929 78.1733 93.2166 78.6859 93.1418 79.2449C93.1438 80.0239 93.3577 80.7877 93.7607 81.4544C94.1647 82.1231 94.4119 82.8745 94.4837 83.6524C94.5081 84.0397 94.3949 84.4232 94.1643 84.7353C93.9336 85.0474 93.6002 85.2682 93.2228 85.3586C93.4056 85.7533 93.7188 86.0728 94.1097 86.2635C94.5006 86.4542 94.9452 86.5044 95.3687 86.4056C95.0985 87.0649 94.6474 87.6344 94.0673 88.0482C95.3051 88.8927 96.9998 88.6266 98.3417 87.9499C99.1741 87.615 99.8538 86.9848 100.25 86.18C100.621 85.2487 100.343 84.225 100.077 83.2764Z" fill="#263238"/>
<path d="M99.7652 87.1913C99.6495 87.1451 95.138 85.9593 95.4214 90.4998C95.7048 95.0403 100.193 93.843 100.193 93.71C100.193 93.5769 99.7652 87.1913 99.7652 87.1913Z" fill="#FFBE9D"/>
<path d="M99.1068 92.0616C99.1068 92.0616 99.0316 92.1194 98.8986 92.1888C98.7189 92.278 98.5117 92.2945 98.3202 92.2351C97.8285 92.0847 97.3831 91.3501 97.3137 90.5288C97.2787 90.1364 97.3321 89.7411 97.4699 89.372C97.5068 89.226 97.5788 89.0912 97.6796 88.9793C97.7804 88.8674 97.9069 88.7818 98.0483 88.73C98.1381 88.702 98.2347 88.7057 98.3221 88.7404C98.4095 88.7752 98.4823 88.8389 98.5284 88.9208C98.5978 89.0423 98.5689 89.1348 98.5978 89.1464C98.6267 89.158 98.6903 89.0596 98.6441 88.8746C98.6068 88.7665 98.5384 88.6719 98.4474 88.6027C98.3833 88.558 98.3107 88.5267 98.2342 88.5108C98.1576 88.4949 98.0787 88.4947 98.002 88.5102C97.8179 88.5585 97.6491 88.6528 97.5115 88.7844C97.3739 88.9159 97.272 89.0803 97.2154 89.2621C97.0485 89.6684 96.9792 90.1082 97.013 90.5461C97.0997 91.46 97.5914 92.2814 98.2855 92.4433C98.4086 92.4704 98.5363 92.4699 98.6593 92.4419C98.7823 92.4139 98.8976 92.3591 98.9969 92.2814C99.1068 92.1715 99.1241 92.0673 99.1068 92.0616Z" fill="#EB996E"/>
<path d="M95.052 83.4265C95.052 83.4265 94.9247 83.2529 94.9652 82.8943C95.0137 82.651 95.1149 82.4213 95.2618 82.2214C95.4087 82.0216 95.5977 81.8564 95.8155 81.7375C96.4672 81.4273 97.1763 81.2559 97.8977 81.2343C98.3014 81.2344 98.6994 81.139 99.0592 80.9561C99.4191 80.7732 99.7306 80.5078 99.9684 80.1816C100.346 79.4461 100.472 78.6069 100.327 77.7928C100.217 77.0293 100.015 76.341 99.9164 75.7453C99.7332 75.1069 99.7433 74.4287 99.9453 73.796C99.9493 74.4342 100.021 75.0702 100.159 75.6932C100.287 76.2716 100.512 76.9483 100.651 77.7523C100.826 78.6418 100.691 79.5643 100.269 80.3667C100.018 80.7815 99.6384 81.1025 99.1876 81.2806C98.7839 81.4304 98.3616 81.5238 97.9324 81.5582C97.2484 81.5622 96.5713 81.6957 95.9369 81.9515C95.7383 82.0537 95.5619 82.1942 95.418 82.365C95.274 82.5357 95.1653 82.7333 95.0983 82.9464C95.0723 83.1052 95.0568 83.2656 95.052 83.4265Z" fill="#455A64"/>
<path d="M93.9543 81.4541C93.9543 81.4541 93.856 81.3269 93.8155 81.0434C93.7687 80.6438 93.8476 80.2395 94.0411 79.8866C94.1738 79.6359 94.357 79.4154 94.579 79.2388C94.8385 79.0441 95.1361 78.9062 95.4524 78.8339C95.7592 78.7682 96.0513 78.6466 96.3142 78.4753C96.4304 78.3714 96.5215 78.2424 96.5807 78.0981C96.6398 77.9539 96.6654 77.798 96.6555 77.6424C96.6555 77.3012 96.615 76.9368 96.6265 76.5724C96.6313 76.2243 96.6701 75.8776 96.7422 75.537C96.859 74.9617 97.0805 74.4127 97.3958 73.9175C97.4961 73.7358 97.6402 73.5819 97.8149 73.4698C97.9896 73.3577 98.1894 73.2909 98.3964 73.2755C98.6972 73.2755 98.8245 73.4143 98.8129 73.4259C98.8013 73.4374 98.6625 73.3738 98.408 73.4259C98.2341 73.463 98.0711 73.5397 97.9317 73.6501C97.7923 73.7604 97.6801 73.9014 97.604 74.0621C97.343 74.5473 97.1595 75.0703 97.0603 75.6122C97.0043 75.9331 96.9753 76.2582 96.9736 76.584C96.9736 76.9194 97.0256 77.278 97.0083 77.6714C97.0167 77.8772 96.9778 78.0823 96.8946 78.2708C96.8114 78.4593 96.686 78.6263 96.5282 78.7587C96.2296 78.9586 95.8928 79.0945 95.5391 79.1578C95.2757 79.2029 95.025 79.3036 94.8035 79.4532C94.5821 79.6028 94.3952 79.7979 94.2551 80.0254C94.0175 80.4621 93.9129 80.9587 93.9543 81.4541Z" fill="#455A64"/>
<path d="M120.538 69.4643C120.566 69.4643 120.196 69.713 119.601 69.4354C119.265 69.2535 118.971 69.0032 118.739 68.7008C118.452 68.3246 118.094 68.0083 117.686 67.7696C117.155 67.471 116.548 67.3333 115.94 67.3734C115.332 67.4134 114.749 67.6295 114.262 67.9952C113.683 68.4 113.203 68.9727 112.527 69.447C112.183 69.7022 111.788 69.8816 111.37 69.9733C110.937 70.0492 110.491 70.0072 110.08 69.8518C109.259 69.5569 108.611 69.0536 107.905 68.7991C107.224 68.5377 106.5 68.4063 105.771 68.4116C104.514 68.4101 103.293 68.8273 102.3 69.5973C101.637 70.1154 101.086 70.7628 100.681 71.5003C100.398 72.0266 100.293 72.3505 100.265 72.339C100.236 72.3274 100.265 72.2522 100.311 72.0961C100.376 71.8709 100.457 71.6505 100.554 71.4367C100.927 70.649 101.47 69.9538 102.144 69.4007C103.159 68.5708 104.425 68.1082 105.736 68.0877C106.508 68.0676 107.277 68.1993 107.998 68.4752C108.761 68.7529 109.421 69.2561 110.167 69.5164C110.52 69.6525 110.904 69.6905 111.277 69.6263C111.639 69.5433 111.98 69.3857 112.278 69.1635C112.885 68.7297 113.394 68.1571 114.013 67.7291C114.585 67.3004 115.282 67.0709 115.997 67.0755C116.607 67.08 117.205 67.2434 117.732 67.5498C118.155 67.8192 118.522 68.1666 118.814 68.5736C119.017 68.8708 119.278 69.1228 119.583 69.3139C119.87 69.4847 120.212 69.5385 120.538 69.4643Z" fill="#455A64"/>
<path d="M111.415 92.101C111.56 92.101 111.721 93.038 112.67 93.5875C113.619 94.137 114.631 93.8594 114.666 93.9924C114.7 94.1254 114.463 94.2238 114.029 94.3047C113.462 94.41 112.877 94.3117 112.375 94.0271C111.895 93.7491 111.539 93.298 111.38 92.7662C111.276 92.3671 111.346 92.1068 111.415 92.101Z" fill="#263238"/>
<path d="M171.267 182.477C169.506 180.964 167.221 180.204 164.905 180.36L160.995 192.778C163.858 192.906 166.715 194.381 169.48 193.623C170.584 193.282 171.568 192.633 172.315 191.752C173.062 190.87 173.542 189.794 173.697 188.649C173.817 187.5 173.659 186.34 173.236 185.266C172.813 184.192 172.138 183.235 171.267 182.477Z" fill="#9667E0"/>
<path d="M164.953 180.077C164.953 179.979 165.375 179.898 166.11 179.904C167.203 179.924 168.284 180.129 169.308 180.511C170.873 181.121 172.228 182.172 173.207 183.536C173.805 184.345 174.247 185.259 174.508 186.231C174.791 187.295 174.823 188.41 174.601 189.488C174.385 190.58 173.898 191.601 173.184 192.455C172.5 193.233 171.633 193.829 170.662 194.19C169.084 194.748 167.382 194.858 165.745 194.508C164.692 194.302 163.664 193.982 162.68 193.554C161.992 193.259 161.627 193.039 161.662 192.941C161.697 192.842 162.113 192.871 162.819 192.993C163.524 193.114 164.594 193.34 165.867 193.456C167.31 193.616 168.77 193.417 170.118 192.877C170.857 192.565 171.512 192.081 172.027 191.466C172.567 190.793 172.937 189.999 173.103 189.152C173.262 188.313 173.25 187.45 173.068 186.615C172.886 185.781 172.538 184.991 172.044 184.294C171.247 183.086 170.151 182.106 168.863 181.448C167.95 181.017 166.994 180.684 166.012 180.453C165.346 180.303 164.941 180.181 164.953 180.077Z" fill="#F5F5F5"/>
<path d="M128.726 226.668L120.223 250.493L149.809 261.222C150.665 258.33 137.413 247.109 137.413 247.109L143.487 232.07L128.726 226.668Z" fill="#9667E0"/>
<g opacity="0.6">
<path d="M128.733 242.51C128.417 242.494 128.105 242.594 127.859 242.793C127.612 242.991 127.447 243.274 127.397 243.586C127.368 243.901 127.462 244.214 127.657 244.461C127.853 244.709 128.137 244.872 128.449 244.917C128.786 244.935 129.118 244.826 129.379 244.612C129.64 244.398 129.812 244.094 129.861 243.76C129.861 243.129 129.236 242.406 128.611 242.493" fill="white"/>
</g>
<path d="M120.223 250.492L121.085 248.091L149.184 259.301C149.184 259.301 150.294 260.348 149.809 261.221L120.223 250.492Z" fill="white"/>
<path d="M137.952 247.132C137.894 247.277 137.148 247.08 136.269 247.288C135.389 247.496 134.788 247.965 134.678 247.867C134.568 247.768 135.083 247.005 136.153 246.773C137.223 246.542 138.027 247.01 137.952 247.132Z" fill="#263238"/>
<path d="M140.615 249.544C140.615 249.694 139.881 249.712 139.169 250.122C138.458 250.533 138.082 251.152 137.937 251.094C137.793 251.036 138.001 250.186 138.897 249.66C139.794 249.133 140.615 249.405 140.615 249.544Z" fill="#263238"/>
<path d="M141.002 253.893C140.863 253.893 140.921 253.083 141.581 252.423C142.24 251.764 143.027 251.7 143.044 251.845C143.061 251.99 142.495 252.256 141.962 252.805C141.43 253.355 141.153 253.933 141.002 253.893Z" fill="#263238"/>
<path d="M138.952 243.551C138.842 243.661 138.252 243.221 137.419 242.972C136.587 242.724 135.852 242.758 135.823 242.608C135.794 242.458 136.587 242.163 137.558 242.463C138.53 242.764 139.068 243.464 138.952 243.551Z" fill="#263238"/>
<path d="M139.519 239.786C138.988 239.74 138.479 239.552 138.044 239.243C137.543 238.956 137.08 238.606 136.667 238.201C136.421 237.965 136.191 237.712 135.979 237.444C135.846 237.292 135.737 237.12 135.655 236.935C135.597 236.798 135.587 236.645 135.625 236.502C135.664 236.358 135.75 236.231 135.869 236.142C135.978 236.068 136.102 236.02 136.233 236.002C136.363 235.984 136.496 235.996 136.621 236.038C136.809 236.106 136.986 236.199 137.148 236.316C137.437 236.509 137.708 236.728 137.957 236.969C138.375 237.375 138.727 237.843 138.998 238.358C139.296 238.808 139.447 239.339 139.432 239.879C139.351 239.879 139.178 239.329 138.674 238.549C138.376 238.099 138.022 237.689 137.622 237.328C137.385 237.116 137.131 236.922 136.864 236.75C136.581 236.553 136.315 236.455 136.187 236.565C136.06 236.675 136.124 236.628 136.158 236.744C136.219 236.88 136.298 237.007 136.396 237.12C136.585 237.377 136.792 237.62 137.014 237.849C137.39 238.244 137.802 238.602 138.246 238.919C139.01 239.468 139.554 239.711 139.519 239.786Z" fill="#263238"/>
<path d="M139.261 239.936C139.135 239.412 139.18 238.861 139.388 238.363C139.563 237.806 139.831 237.281 140.181 236.813C140.39 236.538 140.624 236.282 140.88 236.049C141.033 235.884 141.225 235.76 141.438 235.689C141.652 235.618 141.88 235.603 142.101 235.645C142.231 235.697 142.345 235.784 142.428 235.898C142.511 236.012 142.56 236.146 142.569 236.287C142.58 236.481 142.565 236.675 142.523 236.865C142.432 237.334 142.248 237.781 141.982 238.178C141.716 238.576 141.373 238.916 140.973 239.179C140.117 239.757 139.452 239.688 139.458 239.636C139.463 239.583 140.036 239.45 140.753 238.872C141.161 238.54 141.493 238.124 141.725 237.652C141.86 237.377 141.955 237.085 142.008 236.784C142.078 236.454 142.049 236.154 141.922 236.148C141.791 236.143 141.661 236.167 141.541 236.218C141.422 236.269 141.314 236.345 141.227 236.443C140.988 236.646 140.767 236.87 140.568 237.114C140.229 237.528 139.952 237.99 139.747 238.484C139.388 239.358 139.348 239.936 139.261 239.936Z" fill="#263238"/>
<path d="M100.066 163.044C95.5777 163.148 91.3206 163.779 88.2262 167.035C84.1253 171.356 79.0585 177.504 78.7693 181.767C78.3413 188.129 82.1877 190.038 84.9929 191.6C86.2338 192.271 87.6321 192.596 89.0417 192.543L140.913 192.149L142.538 183.363L108.991 175.092L110.385 162.466L100.066 163.044Z" fill="#263238"/>
<path d="M110.414 162.459L126.731 161.707C126.731 161.707 154.922 163.274 160.932 168.787C166.942 174.299 166.195 180.563 164.188 186.573C162.181 192.582 144.523 231.04 144.523 231.04C144.523 231.04 145.957 233.487 145.153 235.928C144.828 236.997 144.23 237.963 143.419 238.732C142.608 239.5 141.611 240.045 140.526 240.312L124.84 234.528C124.84 234.528 122.711 233.776 124.215 231.769C125.719 229.762 126.719 229.392 126.719 229.392V225.383C126.719 225.383 132.231 215.36 132.729 213.983C133.226 212.607 138.513 192.212 138.513 192.212L142.024 186.179C142.024 186.179 133.539 182.188 126.181 179.296L109.003 175.062L110.414 162.459Z" fill="#263238"/>
<path d="M136.881 233.822C136.407 233.546 135.947 233.245 135.505 232.919C133.288 231.484 130.792 230.535 128.182 230.137C127.635 230.084 127.09 230.003 126.551 229.894C127.101 229.831 127.657 229.841 128.205 229.923C130.881 230.209 133.437 231.181 135.626 232.746C136.09 233.048 136.512 233.41 136.881 233.822Z" fill="#455A64"/>
<path d="M144.721 231.068C144.379 230.788 144.074 230.465 143.813 230.108C143.28 229.489 142.575 228.61 141.84 227.604C141.106 226.597 140.469 225.666 140.036 224.978C139.777 224.618 139.56 224.23 139.388 223.821C139.698 224.135 139.974 224.482 140.209 224.856L142.083 227.424C142.783 228.373 143.425 229.229 143.98 229.975C144.266 230.312 144.514 230.678 144.721 231.068Z" fill="#455A64"/>
<path d="M150.446 180.695C150.446 180.742 149.868 180.869 148.96 181.17C146.582 181.954 144.427 183.299 142.678 185.091C142.337 185.485 141.976 185.861 141.596 186.219C141.841 185.752 142.153 185.323 142.522 184.947C143.363 183.996 144.337 183.172 145.414 182.5C146.49 181.823 147.659 181.306 148.884 180.967C149.388 180.798 149.915 180.706 150.446 180.695Z" fill="#455A64"/>
<path d="M134.424 207.928C134.431 207.812 134.452 207.697 134.487 207.586L134.73 206.632L135.667 203.133L138.878 191.617C139.531 189.367 140.086 187.226 140.717 185.283C141.382 183.594 142.389 182.06 143.673 180.777C144.52 179.908 145.459 179.132 146.472 178.464C146.836 178.232 147.12 178.059 147.322 177.955C147.419 177.893 147.522 177.841 147.629 177.798C147.629 177.798 147.235 178.065 146.541 178.556C145.562 179.256 144.651 180.048 143.823 180.922C142.584 182.2 141.616 183.715 140.977 185.376C140.399 187.29 139.82 189.459 139.167 191.698L135.876 203.185C135.448 204.625 135.095 205.799 134.84 206.655C134.719 207.037 134.626 207.349 134.545 207.592C134.52 207.709 134.479 207.822 134.424 207.928Z" fill="#455A64"/>
<path d="M119.992 178.55C119.906 178.55 119.564 175.508 119.223 171.737C118.882 167.965 118.645 164.9 118.76 164.894C118.876 164.888 119.183 167.936 119.524 171.708C119.865 175.479 120.073 178.544 119.992 178.55Z" fill="#455A64"/>
<path d="M92.8305 186.723C92.7842 186.723 92.5355 186.255 92.0207 185.532C91.3561 184.591 90.5594 183.752 89.655 183.039C88.7436 182.335 87.7368 181.765 86.6647 181.344C85.8376 181.02 85.2997 180.899 85.3112 180.847C85.7981 180.87 86.2783 180.969 86.7341 181.142C88.996 181.888 90.9283 183.397 92.2 185.41C92.4808 185.811 92.6938 186.254 92.8305 186.723Z" fill="#455A64"/>
<path d="M102.827 175.619C102.827 175.665 102.109 175.226 100.912 174.676C97.7707 173.249 94.2863 172.751 90.871 173.242C89.5696 173.427 88.7772 173.658 88.7656 173.606C88.9339 173.511 89.1151 173.441 89.3035 173.398C89.8062 173.242 90.3181 173.119 90.8363 173.028C94.2908 172.421 97.8485 172.932 100.993 174.485C101.464 174.718 101.92 174.981 102.358 175.272C102.53 175.365 102.687 175.482 102.827 175.619Z" fill="#455A64"/>
<path d="M141.904 183.345C141.765 183.338 141.627 183.315 141.493 183.276L140.336 183.027L136.114 182.096C132.545 181.298 127.606 180.222 122.128 179.14C116.651 178.059 111.676 177.162 108.073 176.543L103.799 175.809L102.642 175.606C102.505 175.59 102.371 175.557 102.243 175.508C102.38 175.512 102.517 175.523 102.653 175.543L103.81 175.693C104.822 175.832 106.286 176.051 108.096 176.335C111.711 176.913 116.697 177.758 122.18 178.845C127.664 179.933 132.592 181.037 136.154 181.888C137.93 182.316 139.37 182.674 140.359 182.934L141.516 183.235C141.649 183.26 141.778 183.297 141.904 183.345Z" fill="#455A64"/>
<path d="M109.022 176.572C108.965 176.572 108.843 175.89 108.305 174.918C107.991 174.357 107.601 173.842 107.148 173.385C106.577 172.823 105.971 172.297 105.332 171.812C104.156 170.943 102.912 170.169 101.613 169.498C101.063 169.237 100.534 168.935 100.028 168.596C100.61 168.78 101.174 169.018 101.711 169.308C103.054 169.93 104.329 170.688 105.517 171.569C106.164 172.063 106.775 172.602 107.345 173.183C107.81 173.664 108.2 174.212 108.502 174.808C108.71 175.211 108.867 175.639 108.97 176.081C109.018 176.24 109.036 176.407 109.022 176.572Z" fill="#455A64"/>
<path d="M166.798 184.409C166.862 184.479 165.994 185.352 165.318 186.688C164.641 188.024 164.421 189.228 164.334 189.21C164.332 188.275 164.58 187.357 165.051 186.55C165.435 185.695 166.038 184.956 166.798 184.409Z" fill="#263238"/>
<g opacity="0.3">
<path d="M129.671 125.145L133.384 151.3L133.569 151.717C134.44 142.675 133.102 133.556 129.671 125.145Z" fill="black"/>
</g>
<path d="M149.667 140.174L137.595 161.274L107.848 161.922L107.773 163.269L136.577 163.055L137.491 163.02L167.904 163.084L174.052 152.482L181.907 141.226C182.02 141.059 182.086 140.864 182.097 140.663C182.109 140.461 182.064 140.26 181.97 140.081C181.875 139.903 181.734 139.754 181.561 139.65C181.387 139.546 181.189 139.491 180.987 139.491L150.627 139.607C150.431 139.608 150.239 139.661 150.07 139.761C149.902 139.86 149.762 140.003 149.667 140.174Z" fill="#E0E0E0"/>
<path d="M174.05 152.499C174.05 152.499 175.612 153.934 175.369 155.148C175.126 156.363 175.201 157.271 174.05 157.352C174.071 157.797 173.921 158.232 173.631 158.569C173.34 158.906 172.931 159.119 172.488 159.163C172.488 159.163 172.841 161.071 170.62 161.401C170.62 161.401 169.937 163.443 168.538 162.945C167.731 162.671 166.955 162.312 166.224 161.875L165.813 161.135C165.813 161.135 163.748 160.36 164.257 159.197C164.57 158.492 165.634 158.306 165.634 158.306C165.512 158.017 165.46 157.702 165.483 157.388C165.506 157.074 165.603 156.771 165.767 156.502C166.259 155.837 167.867 156.386 167.867 156.386C167.833 155.817 168.015 155.255 168.376 154.813C168.954 154.159 171.488 155.923 171.488 155.923L172.881 154.258L174.05 152.499Z" fill="#FFBE9D"/>
<path d="M170.621 161.401C169.719 161.017 168.859 160.542 168.053 159.984C167.195 159.51 166.388 158.948 165.647 158.307C166.548 158.695 167.408 159.171 168.215 159.73C169.071 160.205 169.877 160.765 170.621 161.401Z" fill="#EB996E"/>
<path d="M172.49 159.161C171.651 158.832 170.851 158.409 170.107 157.901C169.311 157.479 168.564 156.971 167.88 156.385C168.72 156.712 169.52 157.135 170.263 157.646C171.059 158.068 171.806 158.576 172.49 159.161Z" fill="#EB996E"/>
<path d="M169.944 154.975C169.99 154.889 170.945 155.392 172.055 156.097C172.744 156.495 173.406 156.935 174.039 157.416C173.999 157.514 173.004 157.063 171.893 156.352C171.197 155.963 170.544 155.502 169.944 154.975Z" fill="#EB996E"/>
<path d="M181.906 140.3C181.859 140.307 181.81 140.307 181.762 140.3H181.334H179.691L173.653 140.346L153.727 140.392H152.275C152.061 140.372 151.846 140.41 151.651 140.501C151.457 140.593 151.291 140.735 151.17 140.913C150.707 141.738 150.256 142.552 149.817 143.354L147.249 147.981L142.893 155.807C141.655 158.016 140.643 159.809 139.932 161.076C139.59 161.654 139.313 162.152 139.116 162.499L138.896 162.863L138.815 162.985C138.815 162.985 138.815 162.933 138.867 162.846L139.064 162.464L139.833 161.018L142.725 155.703L147.029 147.842C147.839 146.367 148.695 144.817 149.574 143.215L150.933 140.757C151.081 140.537 151.285 140.36 151.524 140.244C151.763 140.128 152.028 140.078 152.292 140.097H153.744L173.67 140.138L179.709 140.19L181.351 140.219H181.779C181.826 140.239 181.869 140.266 181.906 140.3Z" fill="#263238"/>
<path d="M160.506 150.914C160.366 151.117 160.287 151.356 160.279 151.603C160.271 151.85 160.335 152.094 160.462 152.306C160.59 152.517 160.776 152.688 160.997 152.796C161.219 152.905 161.468 152.948 161.713 152.919C161.958 152.89 162.19 152.791 162.38 152.633C162.571 152.476 162.712 152.267 162.787 152.032C162.861 151.796 162.866 151.544 162.802 151.306C162.737 151.068 162.604 150.853 162.421 150.688C162.136 150.466 161.775 150.365 161.417 150.408C161.059 150.45 160.731 150.632 160.506 150.914Z" fill="white"/>
<g opacity="0.3">
<path d="M76.0571 142.764C75.8026 142.868 75.5076 143.042 75.5076 143.342C75.5168 143.454 75.5635 143.56 75.6401 143.641C75.7168 143.723 75.8189 143.777 75.9298 143.793C76.3541 143.733 76.7696 143.623 77.1676 143.464C80.2967 142.775 82.8706 143.435 85.8436 144.621L85.942 144.522C84.762 141.96 79.4234 141.393 76.0571 142.764Z" fill="black"/>
</g>
<path d="M237.206 260.181C237.206 260.262 184.889 260.331 120.369 260.331C55.8476 260.331 3.53101 260.238 3.53101 260.181C3.53101 260.123 55.836 260.03 120.369 260.03C184.901 260.03 237.206 260.071 237.206 260.181Z" fill="#263238"/>
<path d="M59.878 75.7911C59.9763 75.8894 79.1851 69.2898 79.1851 69.2898L71.7815 52.3426L54.7013 58.8959L64.1061 64.2982L59.878 75.7911Z" fill="#455A64"/>
<path d="M68.8901 57.4452V34.3727C68.8901 34.3727 95.3868 29.5256 114.48 29.8148C133.573 30.104 153.233 33.2332 153.233 33.2332V55.3861C153.233 55.3861 93.3913 50.0416 68.8901 57.4452Z" fill="#455A64"/>
<path d="M68.7545 57.4671L79.1658 69.388V55.3849C79.1658 55.3849 70.4608 56.426 68.7545 57.4671Z" fill="#263238"/>
<path d="M68.89 34.3664C68.9767 34.3664 69.0114 39.572 68.9767 45.9345C68.942 52.2969 68.8379 57.5026 68.757 57.5026C68.676 57.5026 68.6355 52.3316 68.6702 45.9345C68.7049 39.5373 68.8032 34.3664 68.89 34.3664Z" fill="#263238"/>
<path d="M162.199 74.0211C162.1 74.1194 142.892 67.5199 142.892 67.5199L150.278 50.5669L167.375 57.1086L157.965 62.5109L162.199 74.0211Z" fill="#455A64"/>
<path d="M153.339 55.6975L142.928 67.6184V54.6275C146.419 54.747 149.897 55.1045 153.339 55.6975Z" fill="#263238"/>
<path d="M153.224 33.2318C153.305 33.2318 153.397 38.2582 153.426 44.4644C153.455 50.6707 153.426 55.697 153.328 55.697C153.229 55.697 153.154 50.6707 153.125 44.4644C153.096 38.2582 153.137 33.2318 153.224 33.2318Z" fill="#263238"/>
<path d="M83.8306 44.4893C83.776 43.8251 83.9184 43.1595 84.2401 42.5757C84.5617 41.992 85.0484 41.5161 85.6391 41.2074C86.2298 40.8988 86.8984 40.7712 87.5613 40.8405C88.2241 40.9099 88.8518 41.1731 89.3659 41.5973L88.5561 42.569C88.3382 42.3701 88.0789 42.2218 87.7969 42.1348C87.5149 42.0478 87.2172 42.0242 86.925 42.0658C86.4065 42.1379 85.9379 42.413 85.6223 42.8306C85.3066 43.2483 85.1698 43.7742 85.2419 44.2927C85.314 44.8112 85.5891 45.2798 86.0067 45.5954C86.4243 45.9111 86.9502 46.0479 87.4687 45.9758C87.7628 45.9372 88.0444 45.8329 88.2927 45.6707C88.541 45.5085 88.7496 45.2925 88.9032 45.0388L89.9212 45.7502C89.544 46.2989 89.0134 46.7241 88.3957 46.9727C87.778 47.2212 87.1007 47.2819 86.4486 47.1473C85.7966 47.0127 85.1987 46.6887 84.7299 46.2159C84.2611 45.7431 83.9423 45.1425 83.8132 44.4893H83.8306Z" fill="white"/>
<path d="M90.1402 43.6215C90.0326 42.9538 90.1279 42.269 90.4138 41.656C90.6997 41.043 91.1631 40.5299 91.7439 40.1833C92.3247 39.8366 92.9962 39.6723 93.6715 39.7117C94.3468 39.751 94.9947 39.9922 95.5313 40.4039C96.068 40.8157 96.4686 41.3791 96.6814 42.0212C96.8942 42.6632 96.9093 43.3544 96.7248 44.0052C96.5404 44.6559 96.1647 45.2363 95.6466 45.6712C95.1285 46.106 94.4918 46.3753 93.8189 46.4442C93.3904 46.5125 92.9524 46.4928 92.5317 46.3862C92.1111 46.2797 91.7166 46.0884 91.3723 45.8243C91.028 45.5601 90.7412 45.2286 90.5294 44.8498C90.3175 44.4711 90.1851 44.0532 90.1402 43.6215ZM95.4095 43.0778C95.3625 42.7026 95.206 42.3494 94.9596 42.0625C94.7132 41.7755 94.3878 41.5675 94.0239 41.4643C93.66 41.3611 93.2738 41.3673 92.9135 41.4821C92.5531 41.597 92.2345 41.8154 91.9975 42.1101C91.7604 42.4048 91.6154 42.7628 91.5805 43.1395C91.5456 43.5161 91.6223 43.8946 91.8011 44.2279C91.98 44.5612 92.253 44.8344 92.5861 45.0136C92.9192 45.1927 93.2976 45.2698 93.6743 45.2353C93.934 45.2182 94.1873 45.1474 94.4182 45.0273C94.6491 44.9072 94.8526 44.7405 95.0157 44.5377C95.1788 44.3349 95.2981 44.1004 95.3659 43.8491C95.4336 43.5978 95.4485 43.3352 95.4095 43.0778Z" fill="white"/>
<path d="M103.776 45.5463L103.527 41.856L101.914 45.0141L101.277 45.0546L99.2819 42.2089L99.519 45.8181L98.1829 45.9049L97.8127 39.7564L98.9696 39.6812L101.515 43.3541L103.533 39.392L104.69 39.3169L105.106 45.4595L103.776 45.5463Z" fill="white"/>
<path d="M111.739 41.3354C111.773 42.712 110.767 43.5912 109.124 43.6491L107.881 43.6838L107.933 45.3843L106.504 45.4248L106.331 39.2301L108.997 39.1549C110.645 39.1317 111.692 39.9588 111.739 41.3354ZM110.293 41.3759C110.293 40.6992 109.824 40.3175 108.951 40.3406L107.794 40.3753L107.858 42.5154L109.014 42.4807C109.882 42.4575 110.31 42.0469 110.293 41.3759Z" fill="white"/>
<path d="M112.849 39.0975H114.271V44.0949H117.36V45.2517H112.849V39.0975Z" fill="white"/>
<path d="M122.884 44.2736V45.4304L118.112 45.2916L118.291 39.1316L122.918 39.2704L122.884 40.4273L119.645 40.3289L119.61 41.6708L122.467 41.7518L122.432 42.8623L119.575 42.7756L119.535 44.2042L122.884 44.2736Z" fill="white"/>
<path d="M125.522 40.5613L123.556 40.4456L123.625 39.2888L128.981 39.6127L128.912 40.7695L126.945 40.648L126.644 45.6396L125.221 45.5529L125.522 40.5613Z" fill="white"/>
<path d="M134.17 45.1198L134.066 46.2766L129.312 45.837L129.89 39.7059L134.517 40.134L134.413 41.2908L131.186 40.9669L131.064 42.303L133.91 42.5633L133.812 43.668L130.96 43.4077L130.833 44.8248L134.17 45.1198Z" fill="white"/>
<path d="M135.951 40.2655L138.721 40.6357C140.717 40.9017 141.925 42.2841 141.683 44.1061C141.44 45.9281 139.901 46.9981 137.906 46.7089L135.135 46.3387L135.951 40.2655ZM137.992 45.5695C138.244 45.6099 138.501 45.5994 138.749 45.5387C138.997 45.4781 139.23 45.3684 139.434 45.2162C139.639 45.064 139.811 44.8723 139.94 44.6525C140.069 44.4327 140.153 44.1893 140.187 43.9365C140.221 43.6838 140.203 43.4269 140.136 43.1809C140.068 42.935 139.953 42.705 139.795 42.5047C139.637 42.3043 139.441 42.1375 139.218 42.0142C138.995 41.8909 138.749 41.8135 138.496 41.7867L137.206 41.6132L136.702 45.3959L137.992 45.5695Z" fill="white"/>
<path d="M165.075 35.3312L166.59 37.1069L170.859 35.3312L169.61 33.4629L165.075 35.3312Z" fill="#455A64"/>
<path d="M163.118 26.8809C163.118 27.3202 162.988 27.7496 162.744 28.1149C162.5 28.4801 162.153 28.7648 161.747 28.9329C161.341 29.101 160.895 29.145 160.464 29.0593C160.033 28.9736 159.637 28.7621 159.327 28.4514C159.016 28.1408 158.805 27.7451 158.719 27.3142C158.633 26.8834 158.677 26.4368 158.845 26.0309C159.013 25.6251 159.298 25.2782 159.663 25.0341C160.029 24.7901 160.458 24.6598 160.897 24.6598C161.486 24.6614 162.05 24.8959 162.466 25.3121C162.882 25.7283 163.117 26.2923 163.118 26.8809Z" fill="#9667E0"/>
<path d="M113.366 60.012C113.365 60.2321 113.298 60.4469 113.174 60.6291C113.051 60.8114 112.876 60.9528 112.672 61.0354C112.468 61.118 112.244 61.1381 112.029 61.0932C111.813 61.0483 111.616 60.9403 111.462 60.7831C111.308 60.6258 111.204 60.4263 111.164 60.2099C111.123 59.9935 111.148 59.77 111.235 59.5677C111.322 59.3655 111.467 59.1936 111.652 59.0739C111.836 58.9543 112.052 58.8922 112.273 58.8957C112.565 58.9002 112.844 59.02 113.049 59.2291C113.253 59.4381 113.367 59.7194 113.366 60.012Z" fill="#9667E0"/>
<path d="M61.6269 43.3191C61.6269 43.4866 61.5771 43.6503 61.4838 43.7894C61.3905 43.9285 61.2579 44.0367 61.1029 44.1003C60.9479 44.1639 60.7775 44.1799 60.6134 44.1464C60.4493 44.1128 60.2989 44.0312 60.1812 43.912C60.0636 43.7927 59.9841 43.6412 59.9528 43.4766C59.9216 43.312 59.9399 43.1419 60.0056 42.9878C60.0713 42.8337 60.1814 42.7026 60.3218 42.6113C60.4621 42.5199 60.6265 42.4723 60.794 42.4746C61.016 42.4776 61.2278 42.5679 61.3837 42.726C61.5396 42.884 61.627 43.0971 61.6269 43.3191Z" fill="#9667E0"/>
<path d="M58.4901 34.0258L60.9772 34.1762L62.1572 29.2829L59.832 29.3813L58.4901 34.0258Z" fill="#455A64"/>
<path d="M136.23 73.0844L137.069 75.4327L142.031 74.5998L141.031 72.5002L136.23 73.0844Z" fill="#9667E0"/>
<path d="M86.0333 59.5321L84.5005 61.4986L87.861 65.2409L89.0988 63.2686L86.0333 59.5321Z" fill="#455A64"/>
<path d="M80.0943 13.3358L85.9651 19.3223L94.2305 16.1989L94.5602 18.2522L90.9799 25.5806L94.2826 31.0523L94.0049 32.6892L86.0056 31.3415L81.2743 36.5298L80.1637 35.6911L79.1862 29.0915L71.7248 25.2046L71.3951 23.695L78.9086 21.6417L80.0943 13.3358Z" fill="#9667E0"/>
<g opacity="0.3">
<path d="M80.0943 13.3358L85.9651 19.3223L94.2305 16.1989L94.5602 18.2522L90.9799 25.5806L94.2826 31.0523L94.0049 32.6892L86.0056 31.3415L81.2743 36.5298L80.1637 35.6911L79.1862 29.0915L71.7248 25.2046L71.3951 23.695L78.9086 21.6417L80.0943 13.3358Z" fill="black"/>
</g>
<path d="M80.0943 11.6513L85.9651 17.6436L94.2305 16.1976L90.3494 23.6359L94.2826 31.051L86.0056 29.6628L80.1637 35.6898L78.9317 27.3897L71.3951 23.6937L78.9086 19.9572L80.0943 11.6513Z" fill="#9667E0"/>
<path d="M140.972 13.3358L135.095 19.3223L126.83 16.1989L126.5 18.2522L130.081 25.5806L126.778 31.0523L127.056 32.6892L135.055 31.3415L139.786 36.5298L140.897 35.6911L141.874 29.0915L149.336 25.2046L149.665 23.695L142.152 21.6417L140.972 13.3358Z" fill="#9667E0"/>
<g opacity="0.3">
<path d="M140.972 13.3358L135.095 19.3223L126.83 16.1989L126.5 18.2522L130.081 25.5806L126.778 31.0523L127.056 32.6892L135.055 31.3415L139.786 36.5298L140.897 35.6911L141.874 29.0915L149.336 25.2046L149.665 23.695L142.152 21.6417L140.972 13.3358Z" fill="black"/>
</g>
<path d="M140.97 11.6513L135.093 17.6436L126.828 16.1976L130.709 23.6359L126.776 31.051L135.053 29.6628L140.895 35.6898L142.127 27.3897L149.663 23.6937L142.15 19.9572L140.97 11.6513Z" fill="#9667E0"/>
<path d="M110.338 2.82547L115.226 12.3749L126.499 11.7097L126.117 14.3357L118.957 21.9186L120.894 29.8485L119.94 31.7399L110.691 27.049L102.946 31.5837L101.911 30.1319L103.23 21.7046L95.6064 14.1217L95.78 12.1609L105.729 12.5137L110.338 2.82547Z" fill="#9667E0"/>
<g opacity="0.3">
<path d="M110.338 2.82547L115.226 12.3749L126.499 11.7097L126.117 14.3357L118.957 21.9186L120.894 29.8485L119.94 31.7399L110.691 27.049L102.946 31.5837L101.911 30.1319L103.23 21.7046L95.6064 14.1217L95.78 12.1609L105.729 12.5137L110.338 2.82547Z" fill="black"/>
</g>
<path d="M110.975 0.778076L115.863 10.3217L126.499 11.7099L118.928 19.3101L120.895 29.8486L111.334 25.0016L101.911 30.1321L103.571 19.5357L95.7804 12.1611L106.371 10.4606L110.975 0.778076Z" fill="#9667E0"/>
<path d="M130.45 86.4459L138.617 87.3482C141.374 83.4446 145.492 80.7135 150.161 79.6916C154.829 78.6696 159.711 79.4308 163.847 81.8254C167.983 84.22 171.074 88.0749 172.512 92.6325C173.95 97.1901 173.632 102.121 171.62 106.456C169.607 110.79 166.046 114.216 161.637 116.059C157.227 117.901 152.288 118.028 147.789 116.414C143.291 114.8 139.559 111.562 137.326 107.337C135.094 103.111 134.523 98.2031 135.725 93.5776L130.45 86.4459Z" fill="#FAFAFA"/>
<path d="M130.45 86.4453C130.768 86.8733 132.422 89.0596 135.8 93.5423H135.679C135.683 93.5328 135.689 93.5243 135.697 93.5175C135.705 93.5107 135.714 93.5057 135.724 93.5029C135.734 93.5001 135.744 93.4996 135.755 93.5014C135.765 93.5033 135.774 93.5073 135.783 93.5134C135.796 93.5215 135.807 93.5337 135.813 93.5482C135.82 93.5628 135.821 93.5789 135.818 93.5943C134.99 96.8392 135.034 100.245 135.945 103.468C136.212 104.435 136.567 105.375 137.003 106.279C137.235 106.741 137.454 107.216 137.703 107.684L138.565 109.055C141.317 113.044 145.48 115.841 150.214 116.881C152.834 117.457 155.547 117.469 158.173 116.916C160.94 116.313 163.541 115.109 165.79 113.387C168.146 111.598 170.04 109.272 171.314 106.603C172.633 103.888 173.284 100.897 173.211 97.8803C173.127 94.994 172.396 92.1634 171.071 89.5976C169.826 87.1652 168.06 85.0365 165.9 83.3624C162.01 80.3552 157.113 78.9556 152.221 79.4524C150.154 79.7004 148.136 80.2581 146.235 81.1066C143.21 82.5046 140.603 84.6702 138.675 87.3881C138.669 87.3992 138.659 87.408 138.648 87.4132C138.636 87.4184 138.624 87.4198 138.611 87.417L130.45 86.4453L138.629 87.2724L138.559 87.3071C140.481 84.5524 143.1 82.3569 146.148 80.9446C148.058 80.0642 150.093 79.4828 152.181 79.221C157.14 78.6959 162.111 80.1002 166.062 83.1426C168.259 84.8365 170.055 86.9954 171.32 89.4645C172.672 92.0673 173.418 94.9425 173.501 97.8745C173.577 100.939 172.918 103.977 171.58 106.736C170.283 109.446 168.358 111.808 165.964 113.624C163.678 115.37 161.036 116.59 158.225 117.199C155.553 117.761 152.792 117.743 150.127 117.147C145.343 116.092 141.139 113.257 138.368 109.217L137.501 107.829C137.252 107.355 137.032 106.869 136.795 106.4C136.36 105.485 136.008 104.533 135.742 103.554C134.835 100.298 134.811 96.8578 135.673 93.5885L135.812 93.6406C135.801 93.6574 135.784 93.6696 135.765 93.675C135.746 93.6803 135.726 93.6784 135.708 93.6695L130.45 86.4453Z" fill="#263238"/>
<path d="M147.207 91.5413C147.213 91.6299 147.213 91.7188 147.207 91.8074C147.207 91.9983 147.207 92.2412 147.207 92.5478C147.207 93.2187 147.207 94.1499 147.242 95.3299C147.242 97.7303 147.282 101.114 147.311 105.163L147.178 105.03H160.788C160.822 104.995 160.504 105.313 160.637 105.174V103.323C160.637 102.716 160.637 102.109 160.637 101.507V97.9848C160.637 95.7059 160.637 93.5484 160.637 91.5645L160.765 91.6975L150.932 91.6281L148.15 91.5992H147.409H147.143H147.38H148.098L150.845 91.5645L160.753 91.5009H160.886V91.6281C160.886 93.612 160.886 95.7695 160.886 98.0484V105.169C161.025 105.035 160.707 105.359 160.736 105.325H147.126H146.993V105.169C146.993 101.085 147.039 97.6782 147.056 95.2605C147.056 94.1037 147.056 93.1667 147.091 92.5073C147.091 92.2123 147.091 91.9751 147.091 91.7901C147.118 91.7023 147.157 91.6187 147.207 91.5413Z" fill="#263238"/>
<path d="M159.347 93.7918C159.544 93.948 157.716 96.5855 155.258 99.6857C154.772 100.305 154.292 100.895 153.846 101.421L153.557 101.774L153.233 101.479C151.105 99.5642 149.665 98.0951 149.792 97.9447C149.919 97.7943 151.591 99.009 153.794 100.837L153.176 100.895C153.598 100.316 154.06 99.7378 154.552 99.1247C157.005 96.0244 159.156 93.6414 159.347 93.7918Z" fill="#9667E0"/>
</svg>
