<svg width="253" height="258" viewBox="0 0 253 258" fill="none" xmlns="http://www.w3.org/2000/svg">
<path d="M34.2998 226.705V231.366H67.1088V226.705H34.2998Z" fill="#E0E0E0"/>
<path d="M38.7754 226.891C38.8861 226.891 38.9794 227.87 38.9794 229.079C38.9794 230.287 38.8861 231.26 38.7754 231.26C38.6647 231.26 38.5656 230.281 38.5656 229.079C38.5656 227.876 38.6589 226.891 38.7754 226.891Z" fill="#FAFAFA"/>
<path d="M38.0588 226.798C38.1753 226.798 38.2628 227.777 38.2628 228.98C38.2628 230.182 38.1753 231.167 38.0588 231.167C37.9422 231.167 37.8548 230.188 37.8548 228.98C37.8548 227.771 37.9422 226.798 38.0588 226.798Z" fill="#FAFAFA"/>
<path d="M64.5739 226.891C64.6904 226.891 64.7837 227.87 64.7837 229.079C64.7837 230.287 64.6904 231.26 64.5739 231.26C64.4573 231.26 64.3699 230.281 64.3699 229.079C64.3699 227.876 64.4631 226.891 64.5739 226.891Z" fill="#FAFAFA"/>
<path d="M63.863 226.798C63.9737 226.798 64.0669 227.777 64.0669 228.98C64.0669 230.182 63.9737 231.167 63.863 231.167C63.7522 231.167 63.6532 230.188 63.6532 228.98C63.6532 227.771 63.7464 226.798 63.863 226.798Z" fill="#FAFAFA"/>
<path d="M59.5738 229.172C59.5738 229.296 55.8151 229.389 51.1822 229.389C46.5493 229.389 42.7905 229.296 42.7905 229.172C42.7905 229.048 46.5493 228.955 51.1822 228.955C55.8151 228.955 59.5738 229.048 59.5738 229.172Z" fill="#FAFAFA"/>
<path d="M34.1602 247.69V257.011H66.9691V247.69H34.1602Z" fill="#E0E0E0"/>
<path d="M67.3885 254.39C67.3885 254.39 67.3361 254.433 67.2137 254.495C67.0913 254.557 66.9107 254.65 66.6659 254.761C65.9528 255.083 65.2051 255.31 64.4398 255.437C63.2135 255.673 61.9483 255.482 60.8326 254.892C60.1424 254.501 59.5539 253.934 59.1193 253.243C58.6204 252.456 58.4129 251.5 58.5365 250.559C58.6082 250.049 58.8097 249.569 59.1193 249.171C59.2851 248.954 59.4961 248.78 59.7358 248.664C59.9754 248.548 60.2372 248.492 60.5004 248.502C60.7713 248.525 61.0347 248.608 61.2743 248.745C61.5139 248.881 61.7246 249.068 61.8932 249.295C62.252 249.745 62.4736 250.301 62.5284 250.888C62.5731 251.492 62.4953 252.1 62.3002 252.67C62.1052 253.24 61.7975 253.759 61.3978 254.191C60.5675 255.125 59.4478 255.708 58.2451 255.834C57.0067 255.96 55.7572 255.795 54.5854 255.35C53.3332 254.934 52.2217 254.139 51.3861 253.063C50.9552 252.485 50.6955 251.784 50.6402 251.049C50.6053 250.667 50.6499 250.281 50.7708 249.919C50.8916 249.557 51.0858 249.228 51.3395 248.954C51.6172 248.671 51.9808 248.502 52.3652 248.477C52.7451 248.466 53.1191 248.579 53.4374 248.799C54.0524 249.228 54.4854 249.895 54.6437 250.659C54.7809 251.404 54.7338 252.175 54.5071 252.895C54.2803 253.615 53.8816 254.26 53.35 254.768C52.3084 255.703 51.0149 256.262 49.6554 256.367C48.3667 256.524 47.0613 256.387 45.8267 255.964C44.6148 255.558 43.5805 254.702 42.9129 253.553C42.5809 253.007 42.3751 252.386 42.3123 251.74C42.2495 251.093 42.3315 250.441 42.5516 249.834C42.6606 249.53 42.8401 249.261 43.0735 249.051C43.3068 248.84 43.5863 248.696 43.8861 248.632C44.1744 248.577 44.4703 248.586 44.7551 248.659C45.0399 248.731 45.3076 248.866 45.5411 249.053C45.9501 249.435 46.2429 249.938 46.3819 250.498C46.521 251.058 46.5002 251.649 46.322 252.196C46.003 253.172 45.4289 254.032 44.667 254.675C43.4049 255.812 41.821 256.466 40.1681 256.534C39.1621 256.572 38.1598 256.385 37.2262 255.984C36.2925 255.584 35.4484 254.979 34.7485 254.21C34.6084 254.056 34.4761 253.895 34.3523 253.726C34.3085 253.67 34.2695 253.61 34.2357 253.547C34.9284 254.36 35.7562 255.03 36.6775 255.524C37.7629 256.091 38.9661 256.355 40.174 256.292C41.7685 256.196 43.2886 255.542 44.498 254.433C45.2079 253.822 45.7411 253.01 46.0365 252.09C46.1908 251.611 46.2084 251.094 46.0871 250.605C45.9658 250.115 45.7109 249.674 45.3546 249.339C45.1589 249.184 44.9353 249.073 44.6978 249.013C44.4603 248.953 44.2138 248.946 43.9735 248.991C43.7298 249.045 43.5032 249.165 43.3154 249.338C43.1277 249.512 42.985 249.734 42.9013 249.983C42.7097 250.53 42.642 251.118 42.7038 251.699C42.7655 252.279 42.955 252.836 43.2567 253.324C43.8824 254.386 44.8462 255.173 45.9724 255.542C47.1537 255.941 48.4012 256.067 49.632 255.914C50.9044 255.813 52.115 255.291 53.0936 254.421C53.5736 253.961 53.9333 253.377 54.1376 252.725C54.3419 252.073 54.3837 251.376 54.2591 250.702C54.1277 250.047 53.7621 249.471 53.2393 249.097C53.0035 248.911 52.714 248.82 52.4211 248.838C52.1283 248.856 51.8507 248.983 51.6367 249.196C51.4248 249.424 51.2628 249.699 51.162 250.001C51.0613 250.303 51.0244 250.625 51.054 250.944C51.103 251.595 51.3322 252.216 51.7125 252.729C52.4979 253.737 53.5398 254.484 54.7137 254.879C55.8325 255.307 57.0259 255.47 58.2102 255.356C59.3187 255.243 60.3523 254.711 61.1239 253.857C61.4918 253.465 61.7763 252.994 61.9582 252.475C62.1402 251.957 62.2154 251.403 62.1787 250.851C62.159 250.349 61.9801 249.87 61.671 249.49C61.3619 249.111 60.941 248.854 60.4771 248.762C60.2611 248.755 60.0464 248.8 59.8494 248.895C59.6524 248.989 59.4784 249.13 59.3407 249.308C59.0565 249.66 58.869 250.089 58.7987 250.547C58.6795 251.415 58.8686 252.299 59.3291 253.026C59.7332 253.688 60.2833 254.235 60.9316 254.619C62.0083 255.207 63.2334 255.413 64.4281 255.208C65.1842 255.098 65.9268 254.9 66.6426 254.619C67.1321 254.489 67.3827 254.371 67.3885 254.39Z" fill="#FAFAFA"/>
<path d="M37.0912 231.496V247.671H66.9689V231.496H37.0912Z" fill="#EBEBEB"/>
<path d="M42.0564 232.054C42.1671 232.054 42.2603 235.555 42.2603 239.881C42.2603 244.207 42.1671 247.709 42.0564 247.709C41.9457 247.709 41.8466 244.207 41.8466 239.881C41.8466 235.555 41.9398 232.054 42.0564 232.054Z" fill="#E0E0E0"/>
<path d="M44.3232 231.849C44.4339 231.849 44.5271 235.313 44.5271 239.577C44.5271 243.841 44.4339 247.306 44.3232 247.306C44.2124 247.306 44.1134 243.847 44.1134 239.577C44.1134 235.307 44.2066 231.849 44.3232 231.849Z" fill="#E0E0E0"/>
<path d="M63.5949 231.353C63.7056 231.353 63.7989 234.997 63.7989 239.497C63.7989 243.996 63.7056 247.634 63.5949 247.634C63.4842 247.634 63.3851 243.99 63.3851 239.497C63.3851 235.004 63.4783 231.353 63.5949 231.353Z" fill="#E0E0E0"/>
<path d="M60.9318 231.552C61.0425 231.552 61.1357 235.097 61.1357 239.478C61.1357 243.86 61.0425 247.405 60.9318 247.405C60.8211 247.405 60.722 243.86 60.722 239.478C60.722 235.097 60.8152 231.552 60.9318 231.552Z" fill="#E0E0E0"/>
<path d="M221.766 196.189C224.866 194.484 228.508 194.267 231.952 194.868C233.799 195.197 235.722 195.779 236.981 197.261C238.24 198.742 238.473 201.332 237.034 202.597C236.171 203.353 234.977 203.471 233.858 203.452C231.165 203.421 228.182 202.919 226.031 204.642C224.802 205.621 223.986 207.257 222.535 207.741C221.084 208.224 219.481 207.313 218.724 205.937C218.023 204.502 217.869 202.836 218.292 201.283C218.464 200.207 218.867 199.187 219.469 198.304C220.071 197.42 220.857 196.696 221.766 196.189Z" fill="#EBEBEB"/>
<path d="M214.668 181.618C216.562 184.494 220.245 183.539 221.952 181.785C223.66 180.032 224.382 177.484 225.035 175.055C226.538 169.514 228.048 163.695 226.935 158.049C226.668 156.336 225.96 154.736 224.889 153.426C224.348 152.78 223.657 152.295 222.885 152.021C222.113 151.747 221.287 151.693 220.489 151.864C218.636 152.391 217.482 154.343 216.649 156.159C214.194 161.59 212.906 167.535 212.879 173.561C212.879 176.363 213.182 179.3 214.668 181.618Z" fill="#EBEBEB"/>
<path d="M209.487 185.746C211.544 183.149 211.935 179.362 211.02 176.115C210.105 172.867 208.036 170.091 205.653 167.835C202.848 165.18 199.584 163.131 196.043 161.805C194.673 161.218 193.2 160.952 191.725 161.024C190.987 161.069 190.271 161.306 189.639 161.713C189.008 162.12 188.479 162.686 188.1 163.36C187.086 165.412 188.059 167.897 189.108 169.93C190.957 173.503 193.065 176.918 195.414 180.143C197.308 182.74 199.493 185.299 202.354 186.471C205.215 187.642 208.234 187.5 209.761 185.374" fill="#EBEBEB"/>
<path d="M214.54 225.013C214.64 224.585 214.698 224.147 214.714 223.706C214.802 222.757 214.907 221.561 215.041 220.142C215.208 218.384 215.459 216.636 215.792 214.905C216.231 212.791 216.829 210.719 217.581 208.707C218.32 206.71 219.318 204.832 220.548 203.13C221.55 201.742 222.83 200.61 224.295 199.814C225.291 199.294 226.356 198.941 227.453 198.767C227.866 198.753 228.277 198.691 228.677 198.581C228.263 198.532 227.844 198.532 227.43 198.581C226.29 198.673 225.175 198.981 224.137 199.492C222.596 200.267 221.244 201.41 220.186 202.832C218.901 204.56 217.864 206.482 217.109 208.534C216.357 210.569 215.772 212.669 215.361 214.812C215.044 216.563 214.824 218.332 214.703 220.111C214.598 221.623 214.557 222.85 214.54 223.699C214.496 224.136 214.496 224.576 214.54 225.013Z" fill="#E0E0E0"/>
<path d="M214.773 222.268C214.808 222.063 214.819 221.855 214.808 221.648C214.808 221.195 214.808 220.619 214.808 219.913C214.808 218.413 214.808 216.231 214.878 213.542C215.006 208.162 215.46 202.386 216.282 194.205C217.08 186.533 218.147 177.596 219.277 171.789C219.516 170.469 219.761 169.279 219.994 168.238C220.227 167.196 220.396 166.298 220.577 165.573C220.757 164.848 220.857 164.333 220.956 163.887C221.008 163.684 221.043 163.477 221.061 163.267C220.972 163.447 220.905 163.639 220.862 163.837C220.734 164.271 220.577 164.823 220.385 165.498C220.192 166.174 219.959 167.11 219.714 168.151C219.47 169.192 219.19 170.376 218.928 171.696C217.528 178.564 216.475 185.507 215.775 192.495C214.936 200.675 214.557 208.125 214.522 213.517C214.493 216.213 214.522 218.394 214.609 219.9C214.65 220.607 214.685 221.183 214.709 221.636C214.705 221.848 214.727 222.061 214.773 222.268Z" fill="#E0E0E0"/>
<path d="M214.808 207.902C214.852 207.3 214.852 206.694 214.808 206.092C214.744 204.927 214.592 203.241 214.283 201.184C213.912 198.772 213.412 196.384 212.785 194.032C212.051 191.138 211.11 188.308 209.971 185.566C208.021 180.512 205.223 175.877 201.713 171.888C201.101 171.207 200.451 170.565 199.767 169.967C199.47 169.7 199.184 169.434 198.939 169.223L198.188 168.671C197.734 168.303 197.253 167.976 196.748 167.692C196.667 167.81 198.782 169.13 201.451 172.155C204.846 176.179 207.57 180.79 209.505 185.789C210.618 188.512 211.558 191.311 212.319 194.168C213.059 196.796 213.549 199.213 213.922 201.246C214.295 203.278 214.475 204.964 214.598 206.111C214.622 206.713 214.693 207.312 214.808 207.902Z" fill="#E0E0E0"/>
<path d="M200.845 231.062L202.203 250.783H226.02L227.378 231.062H200.845Z" fill="#EBEBEB"/>
<path d="M230.216 223.29H198.543V231.062H230.216V223.29Z" fill="#EBEBEB"/>
<path d="M198.543 250.026V252.183H200.035H229.697V250.026H198.543Z" fill="#E0E0E0"/>
<path d="M201.492 255.734L200.035 251.948H228.561L226.859 255.734H201.492Z" fill="#E0E0E0"/>
<path d="M226.935 237.507C226.905 237.572 226.868 237.633 226.824 237.687C226.725 237.823 226.608 237.985 226.468 238.189L225.076 240.079L225.017 240.166L224.959 240.073C224.085 238.79 222.919 237.08 221.55 235.059H221.725L218.368 240.117L218.263 240.272L218.147 240.123L214.184 235.072H214.411L214.196 235.363L210.652 240.123L210.53 240.284L210.425 240.117C209.213 238.301 208.094 236.596 207.063 235.066H207.261L203.123 240.079L203.053 240.166L202.995 240.067L201.701 237.755C201.562 237.501 201.457 237.297 201.369 237.136C201.326 237.068 201.291 236.995 201.264 236.919C201.318 236.976 201.365 237.041 201.404 237.111L201.771 237.731L203.129 240.005H203.001L207.08 234.929L207.179 234.805L207.273 234.942L210.664 239.974H210.431L213.986 235.221L214.201 234.923L214.318 234.774L214.435 234.923L218.403 239.968H218.182L221.573 234.935L221.672 234.787L221.766 234.935L225.105 240.005H224.982C225.594 239.224 226.072 238.611 226.428 238.146L226.812 237.669C226.882 237.551 226.929 237.501 226.935 237.507Z" fill="#F5F5F5"/>
<path d="M227.71 230.932C227.71 231.019 221.736 231.087 214.376 231.087C207.016 231.087 201.043 231.019 201.043 230.932C201.043 230.845 207.01 230.777 214.376 230.777C221.742 230.777 227.71 230.845 227.71 230.932Z" fill="#F5F5F5"/>
<path d="M91.8934 25.4962C91.8934 25.4962 91.8409 25.4962 91.7535 25.4528L91.3689 25.2917L89.9004 24.6409L84.5099 22.1619L66.7942 13.9564L66.1765 13.6651H66.3047L48.9445 21.5918L43.6998 23.9344L42.2662 24.5542C42.1028 24.6339 41.9332 24.6982 41.7592 24.7463C41.9139 24.6482 42.0756 24.5633 42.2429 24.4922L43.6531 23.8105L48.8979 21.3625L66.2173 13.3738H66.2814H66.3455L66.9632 13.6589L84.6439 21.9636L89.9878 24.5108L91.433 25.2235L91.806 25.4156C91.838 25.4388 91.8673 25.4658 91.8934 25.4962Z" fill="#E0E0E0"/>
<path d="M119.528 22.7941H5.72174V113.421H119.528V22.7941Z" fill="#E0E0E0"/>
<path d="M115.978 27.0084H9.70187V109.696H115.978V27.0084Z" fill="#FAFAFA"/>
<path d="M33.1753 63.1338C33.1753 63.1338 33.286 77.0101 33.9503 81.2492L50.3198 80.4249C50.3198 80.4249 48.8863 66.7904 49.4399 63.1338H33.1753Z" fill="#E0E0E0"/>
<path d="M41.2405 65.0922H41.4794C41.7073 65.0833 41.9355 65.0957 42.1613 65.1294C42.5199 65.186 42.8692 65.2966 43.1986 65.4579C43.6346 65.6875 44.0199 66.0128 44.3291 66.4123C44.7092 66.8981 44.9785 67.4708 45.1158 68.0856C45.2438 68.8055 45.1854 69.5489 44.9468 70.2362C44.8249 70.6099 44.6708 70.9709 44.4864 71.3146C44.2909 71.6643 44.1157 72.0265 43.962 72.3991C43.6356 73.1895 43.4121 74.0235 43.2976 74.8781V74.9339H43.2452H41.631H39.9351H39.871V74.8719C39.7984 74.0216 39.528 73.2037 39.0843 72.4921C38.8862 72.1326 38.6706 71.8042 38.5016 71.4633C38.29 71.1425 38.0955 70.8094 37.9188 70.4655C37.6199 69.8071 37.5299 69.0634 37.6624 68.3459C37.7575 67.7266 37.9739 67.1354 38.2976 66.6106C38.574 66.1889 38.9366 65.8393 39.3582 65.588C39.8787 65.2944 40.4495 65.1152 41.0365 65.0612H41.2696C41.2696 65.0612 41.2696 65.0612 41.2114 65.0612H41.0365C40.8142 65.0892 40.594 65.1347 40.378 65.1976C40.0334 65.2933 39.7023 65.4371 39.3932 65.6252C38.9808 65.873 38.6278 66.2188 38.3617 66.6354C38.0607 67.1556 37.8624 67.7355 37.779 68.3397C37.6518 69.035 37.7418 69.7554 38.0354 70.3911C38.2138 70.7299 38.4083 71.0588 38.6181 71.3765C38.8221 71.705 39.0377 72.0459 39.2358 72.4053C39.6958 73.1332 39.9745 73.9734 40.0459 74.8471L39.9818 74.779H41.6776H43.2976L43.2335 74.841C43.35 73.9754 43.5775 73.1309 43.9095 72.331C44.0695 71.9553 44.2484 71.5891 44.4457 71.234C44.6266 70.898 44.7788 70.5454 44.9002 70.1804C45.1361 69.5142 45.1985 68.7926 45.0808 68.0918C44.948 67.4918 44.6912 66.9308 44.3291 66.4495C44.0285 66.0549 43.6532 65.7318 43.2277 65.5013C42.9052 65.3354 42.5616 65.2206 42.2079 65.1604C41.986 65.1243 41.7621 65.1036 41.5377 65.0984H41.3571C41.2638 65.0984 41.2405 65.0984 41.2405 65.0922Z" fill="white"/>
<path d="M42.0798 74.7666C42.0786 74.748 42.0786 74.7294 42.0798 74.7108V74.5497C42.0798 74.4071 42.0273 74.1964 41.9924 73.9299C41.9166 73.3845 41.8059 72.6036 41.736 71.6306C41.736 71.3889 41.701 71.1348 41.6952 70.8683C41.6805 70.5897 41.6805 70.3103 41.6952 70.0317C41.7015 69.7327 41.7628 69.4379 41.8758 69.164C42.0018 68.8682 42.2258 68.6321 42.5052 68.5009C42.654 68.4344 42.8179 68.416 42.9764 68.448C43.135 68.4799 43.2812 68.5608 43.3968 68.6806C43.4583 68.7412 43.5069 68.8152 43.539 68.8975C43.5712 68.9799 43.5863 69.0687 43.5833 69.1578C43.5799 69.3373 43.5228 69.511 43.4201 69.6536C43.3147 69.7985 43.1791 69.9152 43.0238 69.9945C42.8698 70.0715 42.7073 70.1277 42.5402 70.1618C41.8575 70.3103 41.1561 70.3354 40.4656 70.2362C40.2947 70.2114 40.128 70.1614 39.9702 70.0874C39.8163 70.0138 39.6777 69.9085 39.5623 69.7776C39.444 69.6464 39.3615 69.4837 39.3234 69.3066C39.2867 69.1331 39.3073 68.9514 39.3816 68.7922C39.4491 68.6317 39.5723 68.5051 39.7255 68.4389C39.7982 68.4057 39.8765 68.3885 39.9556 68.3885C40.0348 68.3885 40.1131 68.4057 40.1858 68.4389C40.3265 68.5068 40.4473 68.6138 40.5355 68.7488C40.6176 68.8812 40.6768 69.0281 40.7103 69.1826C40.7597 69.4773 40.787 69.7757 40.7919 70.075L40.8735 71.6678C40.9143 72.6408 40.9551 73.4279 40.9784 73.9795C40.9784 74.246 40.9784 74.4567 40.9784 74.5992V74.8162C40.9796 74.7976 40.9796 74.7789 40.9784 74.7604C40.9784 74.7232 40.9784 74.6674 40.9784 74.5992C40.9784 74.5311 40.9784 74.2398 40.9434 73.9795C40.9434 73.4279 40.8677 72.6408 40.8152 71.6678C40.8152 71.1844 40.7628 70.6514 40.7336 70.075C40.7299 69.7795 40.7006 69.4849 40.6462 69.195C40.6177 69.0466 40.5623 68.9056 40.483 68.7798C40.3965 68.6535 40.2826 68.5514 40.1509 68.4823C40.0836 68.4518 40.0113 68.436 39.9382 68.436C39.8651 68.436 39.7927 68.4518 39.7255 68.4823C39.5836 68.5451 39.4692 68.6623 39.4049 68.8107C39.3379 68.9613 39.3194 69.1313 39.3525 69.2942C39.3918 69.459 39.47 69.6105 39.5798 69.7342C39.8163 69.9823 40.1239 70.1393 40.4539 70.1804C40.7958 70.2281 41.1408 70.2447 41.4854 70.23C41.83 70.2204 42.1732 70.1789 42.511 70.106C42.6746 70.0728 42.8334 70.0165 42.983 69.9387C43.1307 69.8633 43.2602 69.7531 43.3618 69.6164C43.4581 69.4824 43.513 69.3201 43.5192 69.1516C43.5189 69.0696 43.5032 68.9885 43.4732 68.913C43.4432 68.8374 43.3994 68.769 43.3444 68.7116C43.2347 68.6004 43.0974 68.5249 42.9487 68.4942C42.7999 68.4634 42.646 68.4786 42.5052 68.5381C42.2465 68.6623 42.0392 68.8826 41.9224 69.1578C41.8116 69.4281 41.7503 69.7184 41.7418 70.0131C41.7418 70.2982 41.7418 70.5708 41.7418 70.8373C41.7418 71.1038 41.7418 71.3579 41.7826 71.6058C41.8525 72.5788 41.9574 73.3597 42.0215 73.8989C42.0565 74.1716 42.0856 74.3761 42.1031 74.5187V74.6798C42.0986 74.7096 42.0907 74.7387 42.0798 74.7666Z" fill="white"/>
<path d="M39.906 74.8595C39.9325 75.0504 39.9481 75.2429 39.9526 75.4358C39.9526 75.849 39.9759 76.351 40.0225 76.9418V76.9047L41.1298 78.2743H41.0715L42.3477 78.1999H42.2953L42.9246 77.3819L43.2451 76.9666V77.0224C43.2451 76.2229 43.2102 75.473 43.1985 74.7913L43.2685 74.8595H40.885H39.906C39.9814 74.848 40.0579 74.848 40.1332 74.8595L40.8034 74.8223L43.2277 74.7231H43.2976V74.7975C43.2976 75.4854 43.3384 76.2353 43.3617 77.0286V77.0348C43.2568 77.1711 43.1519 77.3137 43.0412 77.45L42.406 78.2743H42.371L41.0948 78.3425H41.0715L39.9876 76.9728C39.9876 76.3531 39.9876 75.8573 39.9876 75.4234C39.9499 75.2373 39.9227 75.049 39.906 74.8595Z" fill="white"/>
<path d="M43.2161 76.8179C43.2161 76.8179 43.1695 76.818 43.0937 76.7622C42.9853 76.7106 42.8744 76.6651 42.7615 76.6258C42.3874 76.4869 41.9921 76.4239 41.596 76.4399C41.1957 76.4492 40.8005 76.5375 40.4305 76.7002L40.11 76.8613L39.9935 76.9233C40.0235 76.8899 40.0591 76.8626 40.0984 76.8427C40.2017 76.776 40.3087 76.7159 40.4189 76.663C40.7864 76.4895 41.1824 76.3947 41.5844 76.3841C41.9818 76.3685 42.3782 76.4381 42.7499 76.5886C42.8622 76.6313 42.9713 76.6831 43.0762 76.7436L43.2161 76.8179Z" fill="white"/>
<path d="M43.2103 76.2788L43.0937 76.223L42.7615 76.0805C42.3865 75.9452 41.9918 75.8823 41.596 75.8945C41.1964 75.9098 40.8022 75.9978 40.4305 76.1548C40.2907 76.2168 40.1858 76.2726 40.11 76.316L39.9935 76.3779L40.0984 76.2974C40.2007 76.2306 40.3079 76.1726 40.4189 76.1238C40.7859 75.948 41.182 75.8512 41.5844 75.8387C41.9815 75.8292 42.3767 75.8986 42.7499 76.0433C42.8897 76.1052 43.0005 76.161 43.0762 76.2044C43.152 76.2478 43.2161 76.2726 43.2103 76.2788Z" fill="white"/>
<path d="M43.181 75.7581L43.0645 75.7086C42.9829 75.6714 42.8722 75.6156 42.7323 75.566C42.3572 75.431 41.9626 75.3681 41.5668 75.3801C41.1664 75.3885 40.7711 75.4768 40.4013 75.6404C40.2614 75.7024 40.1565 75.7581 40.0808 75.8015L39.9642 75.8635L40.0691 75.7829C40.1717 75.7149 40.2789 75.6548 40.3896 75.6032C40.7581 75.4328 41.1536 75.3382 41.5551 75.3243C41.9522 75.3154 42.3474 75.3847 42.7207 75.5288C42.8328 75.5744 42.9419 75.6283 43.047 75.69C43.0955 75.7031 43.141 75.7262 43.181 75.7581Z" fill="white"/>
<path d="M14.9467 40.4695C14.9467 40.4695 15.0574 54.3519 15.7218 58.5848L32.0913 57.7606C32.0913 57.7606 30.6519 44.126 31.2055 40.4695H14.9467Z" fill="#EBEBEB"/>
<path d="M28.7404 46.2703C26.9235 46.5563 25.0926 46.7301 23.2567 46.7909C21.4262 46.9704 19.5871 47.0304 17.7497 46.9706C19.567 46.6882 21.3978 46.5144 23.2334 46.45C25.0643 46.278 26.903 46.218 28.7404 46.2703Z" fill="white"/>
<path d="M28.7406 49.2079C26.9241 49.4989 25.093 49.6748 23.2569 49.7347C21.4279 49.9068 19.5912 49.9668 17.7557 49.9145C19.5726 49.628 21.4036 49.4542 23.2394 49.3939C25.0682 49.2182 26.905 49.1561 28.7406 49.2079Z" fill="white"/>
<path d="M25.9608 52.096C24.9341 52.3315 23.8876 52.4561 22.8373 52.4679C21.7949 52.5807 20.7444 52.5807 19.7021 52.4679C20.7269 52.2326 21.7714 52.108 22.8198 52.096C23.8641 51.9831 24.9165 51.9831 25.9608 52.096Z" fill="white"/>
<path d="M14.1716 81.2801C14.1716 81.2801 14.2823 95.1564 14.9466 99.3955L31.3162 98.5712C31.3162 98.5712 29.8768 84.9367 30.4304 81.2801H14.1716Z" fill="#EBEBEB"/>
<path d="M27.9654 87.1058C26.1488 87.3959 24.3177 87.5718 22.4817 87.6326C20.6527 87.8046 18.8159 87.8646 16.9805 87.8123C18.7954 87.5257 20.6244 87.3518 22.4583 87.2918C24.2891 87.116 26.1278 87.0539 27.9654 87.1058Z" fill="white"/>
<path d="M27.9654 90.0496C26.1485 90.3365 24.3175 90.5103 22.4817 90.5702C20.6527 90.7423 18.8159 90.8023 16.9805 90.75C18.7973 90.4635 20.6283 90.2897 22.4642 90.2294C24.2931 90.0574 26.1299 89.9974 27.9654 90.0496Z" fill="white"/>
<path d="M25.1857 92.9377C24.1609 93.1726 23.1162 93.2951 22.0679 93.3034C21.0246 93.4266 19.9722 93.4369 18.9269 93.3343C19.9517 93.0991 20.9963 92.9745 22.0446 92.9625C23.0881 92.8393 24.1406 92.831 25.1857 92.9377Z" fill="white"/>
<path d="M58.9095 44.1198L60.5296 84.1558L107.523 84.757L105.413 44.6466L58.9095 44.1198Z" fill="#EBEBEB"/>
<path d="M105.046 43.8346H58.3618V81.3235H105.046V43.8346Z" fill="#F5F5F5"/>
<path d="M105.046 81.3236C105.046 81.3236 105.046 81.0818 105.046 80.6232C105.046 80.1646 105.046 79.4953 105.046 78.6276C105.046 76.8675 105.046 74.2894 105.011 71.0419C105.011 64.5035 104.97 55.1514 104.941 43.8347L105.075 43.9711H58.3969L58.56 43.8037C58.56 57.2833 58.56 70.0502 58.56 81.2926L58.4143 81.1376L92.0858 81.212L101.666 81.2554H104.213H104.871H105.099H104.242L101.678 81.3731L92.1382 81.4165L58.3386 81.4909H58.1929V81.3421C58.1929 70.0998 58.1929 57.3329 58.1929 43.8533V43.6798H58.3561H105.035H105.174V43.8223C105.174 55.17 105.122 64.5592 105.104 71.0914C105.104 74.3451 105.104 76.8923 105.07 78.6462C105.07 79.5015 105.07 80.1584 105.07 80.617C105.058 81.1004 105.046 81.3236 105.046 81.3236Z" fill="#E0E0E0"/>
<path d="M82.919 51.7737H63.997V77.103H82.919V51.7737Z" fill="#F5F5F5"/>
<path d="M82.9191 77.103C82.9127 77.0599 82.9127 77.016 82.9191 76.9728V76.6134C82.9191 76.2787 82.9191 75.8201 82.9191 75.2313C82.9191 73.9918 82.9191 72.2503 82.8841 70.0316C82.8841 65.5756 82.8375 59.2665 82.8084 51.7737L82.9541 51.9286H64.0321C63.9913 51.9286 64.3351 51.6064 64.1894 51.7613V58.6468C64.1894 60.8965 64.1894 63.0904 64.1894 65.2161C64.1894 69.4738 64.1894 73.4589 64.1894 77.0782L64.0612 76.9357L77.7617 77.01L81.6021 77.0472H82.6219H82.9832C82.8726 77.0558 82.7616 77.0558 82.651 77.0472H81.6603L77.8433 77.0844L64.0612 77.1588H63.9272V77.0162C63.9272 73.3969 63.9272 69.4119 63.9272 65.1542C63.9272 63.0284 63.9272 60.8159 63.9272 58.5848V51.7861C63.7815 51.9348 64.1195 51.5692 64.0904 51.6126H83.0123H83.158V51.7675C83.1289 59.2975 83.0997 65.6438 83.0823 70.1246L83.0473 75.2871C83.0473 75.8656 83.0473 76.318 83.0473 76.6444C83.0473 76.7807 83.0473 76.8923 83.0473 76.9852C83.0091 77.0297 82.9661 77.0693 82.9191 77.103Z" fill="#E0E0E0"/>
<path d="M100.984 45.979H64.7195V49.6293H100.984V45.979Z" fill="#F5F5F5"/>
<path d="M100.984 49.6293C100.984 49.6293 100.984 49.5364 100.984 49.3814C100.984 49.2265 100.984 48.9662 100.984 48.6687C100.984 48.049 100.984 47.1379 100.943 45.979L101.008 46.0472C94.8945 46.1091 80.955 46.1525 64.7429 46.1525C65.0634 45.8055 64.8303 46.0534 64.906 45.979V49.6169L64.7487 49.4434L90.4539 49.5178L98.1695 49.5674H100.267H100.821C100.885 49.5623 100.949 49.5623 101.013 49.5674H100.844H100.314H98.2511L90.5704 49.6231L64.7487 49.6913H64.5913V49.524C64.5913 48.9414 64.5913 48.3402 64.5913 47.7329V45.8736L64.7545 45.7001C80.9667 45.7001 94.9061 45.7435 101.019 45.8055H101.089V45.8736C101.089 47.045 101.089 47.9622 101.054 48.6067C101.054 48.898 101.054 49.1211 101.054 49.2947C101.049 49.4097 101.026 49.523 100.984 49.6293Z" fill="#E0E0E0"/>
<path d="M100.984 51.7737H85.2325V67.0382H100.984V51.7737Z" fill="#F5F5F5"/>
<path d="M100.984 67.0382C100.984 67.0382 100.984 66.9329 100.984 66.7469V65.9165C100.984 65.1728 100.984 64.1254 100.949 62.8177C100.949 60.128 100.908 56.3413 100.879 51.7861L101.013 51.9348H85.279L85.4364 51.7675V55.8641C85.4364 57.2027 85.4364 58.5166 85.4364 59.7995C85.4364 62.3591 85.4364 64.7575 85.4364 67.0258L85.2907 66.8771L96.6544 66.9515L99.877 66.9948H100.739C100.84 66.9858 100.942 66.9858 101.042 66.9948C100.951 67.0038 100.86 67.0038 100.769 66.9948H99.9352L96.7476 67.032L85.2907 67.1064H85.1508V66.9515C85.1508 64.7141 85.1508 62.2847 85.1508 59.7251C85.1508 58.4423 85.1508 57.1284 85.1508 55.7897V51.6931C85.0051 51.8419 85.3431 51.4824 85.314 51.5196H101.048H101.188V51.6622C101.159 56.2545 101.136 60.0784 101.118 62.8177C101.118 64.1192 101.089 65.1542 101.083 65.9165C101.083 66.2429 101.083 66.5094 101.083 66.716C101.064 66.8277 101.031 66.9361 100.984 67.0382Z" fill="#E0E0E0"/>
<path d="M100.984 69.4304H85.2325V77.103H100.984V69.4304Z" fill="#F5F5F5"/>
<path d="M100.984 77.103C100.984 77.103 100.984 76.9047 100.984 76.5452L100.955 75.0082C100.955 73.651 100.92 71.7607 100.891 69.4304L101.007 69.5544L85.2732 69.604C85.1275 69.7589 85.4655 69.3933 85.4305 69.4366V73.3845C85.4305 74.6673 85.4305 75.9131 85.4305 77.103L85.2732 76.9418L96.5378 77.0162L99.8245 77.0658H100.71H101.025C100.932 77.0749 100.838 77.0749 100.745 77.0658H99.8886L96.6427 77.1154L85.2732 77.1897H85.1216V77.0286C85.1216 75.8387 85.1216 74.593 85.1216 73.3101V69.3623C85.0867 69.3623 85.4247 69.0338 85.2848 69.1887L101.019 69.2321H101.095V69.3561C101.095 71.7173 101.048 73.6386 101.037 75.0082C101.037 75.628 101.037 76.1424 101.037 76.5204C101.037 76.7159 101.019 76.911 100.984 77.103Z" fill="#E0E0E0"/>
<path d="M82.447 51.8171C76.5845 60.4254 69.8479 68.4946 63.9912 77.103L82.447 51.8171Z" fill="white"/>
<path d="M63.997 77.103C63.997 77.103 64.0378 76.9977 64.1485 76.8179L64.6438 76.0494C65.0751 75.3801 65.7219 74.4319 66.5378 73.2729C68.1637 70.9427 70.4888 67.7943 73.0996 64.3547C75.7103 60.9151 78.0588 57.7915 79.7255 55.5046L81.701 52.7963L82.243 52.0588C82.3712 51.8977 82.4411 51.8109 82.4528 51.8171C82.4105 51.9181 82.3577 52.0137 82.2954 52.1022L81.8001 52.8707C81.3688 53.54 80.722 54.4882 79.9061 55.6534C78.2802 57.9774 75.9551 61.1258 73.3443 64.5654C70.7336 68.005 68.3909 71.1286 66.7184 73.4155L64.7429 76.13L64.2009 76.8613C64.142 76.9501 64.0736 77.0312 63.997 77.103Z" fill="#E0E0E0"/>
<path d="M82.9189 77.103C82.849 77.1588 78.5541 71.5253 73.3326 64.5469C68.1112 57.5684 63.927 51.8357 64.0086 51.7737C64.0902 51.7118 68.3676 57.3515 73.5949 64.3361C78.8222 71.3207 82.9888 77.0349 82.9189 77.103Z" fill="#E0E0E0"/>
<path d="M60.5297 51.8295C60.5297 52.4522 60.356 53.0609 60.0307 53.5786C59.7054 54.0964 59.2431 54.4999 58.7022 54.7382C58.1612 54.9765 57.566 55.0388 56.9917 54.9173C56.4175 54.7959 55.89 54.496 55.476 54.0557C55.0619 53.6154 54.78 53.0544 54.6658 52.4437C54.5515 51.833 54.6102 51.2 54.8342 50.6247C55.0583 50.0494 55.4377 49.5577 55.9246 49.2117C56.4114 48.8658 56.9838 48.6811 57.5693 48.6811C58.3539 48.6828 59.106 49.015 59.6609 49.6051C60.2157 50.1952 60.5281 50.995 60.5297 51.8295Z" fill="#E0E0E0"/>
<path d="M108.95 44.1879C108.95 44.8106 108.777 45.4193 108.452 45.9371C108.126 46.4548 107.664 46.8583 107.123 47.0966C106.582 47.3349 105.987 47.3973 105.412 47.2758C104.838 47.1543 104.311 46.8545 103.897 46.4141C103.483 45.9738 103.201 45.4129 103.087 44.8021C102.972 44.1914 103.031 43.5584 103.255 42.9831C103.479 42.4078 103.859 41.9161 104.345 41.5702C104.832 41.2242 105.405 41.0396 105.99 41.0396C106.775 41.0412 107.527 41.3735 108.082 41.9635C108.636 42.5536 108.949 43.3534 108.95 44.1879Z" fill="#E0E0E0"/>
<path d="M224.755 66.1148H190.641V118.707H224.755V66.1148Z" fill="#E0E0E0"/>
<path d="M223.048 66.1148H188.933V118.707H223.048V66.1148Z" fill="#F5F5F5"/>
<path d="M218.811 71.8103H193.17V113.011H218.811V71.8103Z" fill="white"/>
<path d="M218.811 113.011C218.811 113.011 218.811 112.937 218.811 112.807C218.811 112.677 218.811 112.478 218.811 112.224C218.811 111.704 218.811 110.948 218.811 109.962C218.811 107.991 218.811 105.11 218.811 101.478C218.811 94.2144 218.811 83.9265 218.77 71.8103L218.858 71.9033H193.17L193.263 71.8041C193.263 87.3475 193.263 101.676 193.263 113.005L193.187 112.925L211.835 112.968H216.993H218.345H218.817H218.362H217.022H211.882L193.176 113.005H193.1V112.931C193.1 101.602 193.1 87.2731 193.1 71.7297V71.6306H193.17H218.811H218.893V71.7173C218.893 83.8583 218.863 94.1648 218.852 101.465C218.852 105.091 218.852 107.96 218.852 109.931C218.852 110.904 218.852 111.654 218.852 112.169C218.852 112.423 218.852 112.609 218.852 112.745L218.811 113.011Z" fill="#E0E0E0"/>
<path d="M223.141 66.1148C222.976 66.4485 222.781 66.7641 222.558 67.0568C222.162 67.6208 221.597 68.3831 220.956 69.2135C220.315 70.044 219.714 70.7753 219.271 71.3021C219.045 71.5971 218.794 71.8689 218.52 72.114C218.714 71.7942 218.932 71.4917 219.172 71.2091L220.816 69.0896L222.453 66.97C222.663 66.6675 222.892 66.3816 223.141 66.1148Z" fill="#E0E0E0"/>
<path d="M218.939 112.875C220.212 115.032 221.712 117.028 223.409 118.825L218.939 112.875Z" fill="white"/>
<path d="M223.409 118.825C223.125 118.604 222.865 118.35 222.634 118.069C222.038 117.427 221.474 116.752 220.944 116.048C220.414 115.344 219.918 114.612 219.458 113.854C219.253 113.548 219.079 113.22 218.939 112.875C219.168 113.159 219.379 113.459 219.569 113.774C219.942 114.338 220.472 115.1 221.09 115.924C221.707 116.749 222.296 117.461 222.727 117.976C222.975 118.239 223.203 118.523 223.409 118.825Z" fill="#E0E0E0"/>
<path d="M188.927 118.664L193.397 112.801L188.927 118.664Z" fill="white"/>
<path d="M193.397 112.801C193.432 112.801 192.465 114.177 191.235 115.794C190.506 116.794 189.728 117.752 188.904 118.664C190.296 116.627 191.788 114.67 193.374 112.801H193.397Z" fill="#E0E0E0"/>
<path d="M188.933 66.1148C189.699 66.9948 190.422 67.9153 191.101 68.8727C191.825 69.7929 192.5 70.755 193.123 71.7545C192.355 70.8703 191.632 69.9435 190.955 68.978C190.23 68.0657 189.555 67.1097 188.933 66.1148Z" fill="#E0E0E0"/>
<path d="M210.822 80.177H202.238V106.101H210.822V80.177Z" fill="#E0E0E0"/>
<path d="M216.893 10.2328L212.01 10.2609L212.141 36.1042L217.024 36.0761L216.893 10.2328Z" fill="#E0E0E0"/>
<path d="M182.348 10.3016L169.703 10.3744L169.775 24.6409L182.421 24.5681L182.348 10.3016Z" fill="#EBEBEB"/>
<path d="M194.929 10.2354L182.284 10.3082L182.356 24.5747L195.002 24.5019L194.929 10.2354Z" fill="#F5F5F5"/>
<path d="M169.72 14.3282C178.123 14.4026 186.55 14.3282 194.953 14.2043C194.989 14.2043 195.023 14.1893 195.048 14.1625C195.073 14.1358 195.087 14.0995 195.087 14.0617C195.087 14.0239 195.073 13.9877 195.048 13.9609C195.023 13.9342 194.989 13.9192 194.953 13.9192C186.542 13.8696 178.131 13.9233 169.72 14.0803C169.689 14.0803 169.659 14.0934 169.638 14.1166C169.616 14.1399 169.603 14.1714 169.603 14.2043C169.603 14.2372 169.616 14.2687 169.638 14.2919C169.659 14.3152 169.689 14.3282 169.72 14.3282Z" fill="#E0E0E0"/>
<path d="M184.792 24.3372L161.814 24.4694L161.873 36.0958L184.851 35.9636L184.792 24.3372Z" fill="#EBEBEB"/>
<path d="M207.664 24.2056L184.686 24.3378L184.745 35.9642L207.723 35.8319L207.664 24.2056Z" fill="#F5F5F5"/>
<path d="M161.829 27.7087C177.098 27.8946 192.412 27.7087 207.675 27.467C207.71 27.467 207.744 27.452 207.769 27.4252C207.795 27.3985 207.809 27.3622 207.809 27.3244C207.809 27.2866 207.795 27.2504 207.769 27.2236C207.744 27.1969 207.71 27.1819 207.675 27.1819C192.407 27.0951 177.092 27.1075 161.829 27.4608C161.799 27.4608 161.769 27.4738 161.747 27.4971C161.725 27.5203 161.713 27.5519 161.713 27.5847C161.713 27.6176 161.725 27.6491 161.747 27.6724C161.769 27.6956 161.799 27.7087 161.829 27.7087Z" fill="#E0E0E0"/>
<path d="M242.261 36.1002H153.24V40.2649H242.261V36.1002Z" fill="#E0E0E0"/>
<path d="M171.427 38.102H167.814V52.3129H171.427V38.102Z" fill="#E0E0E0"/>
<path d="M225.373 38.102H221.76V52.3129H225.373V38.102Z" fill="#E0E0E0"/>
<path d="M221.657 0.599227L216.774 0.627327L216.955 36.1696L221.838 36.1415L221.657 0.599227Z" fill="#EBEBEB"/>
<path d="M229.29 7.21773L221.703 7.26139L221.849 36.0671L229.437 36.0234L229.29 7.21773Z" fill="#F5F5F5"/>
<path d="M229.237 12.7727C226.714 12.9622 224.183 12.9622 221.661 12.7727C224.183 12.5915 226.714 12.5915 229.237 12.7727Z" fill="#E0E0E0"/>
<path d="M229.237 11.5641C226.714 11.7536 224.183 11.7536 221.661 11.5641C224.183 11.3829 226.714 11.3829 229.237 11.5641Z" fill="#E0E0E0"/>
<path d="M229.237 31.6937C226.714 31.8832 224.183 31.8832 221.661 31.6937C224.183 31.5125 226.714 31.5125 229.237 31.6937Z" fill="#E0E0E0"/>
<path d="M229.237 30.4852C226.714 30.6747 224.183 30.6747 221.661 30.4852C224.183 30.304 226.714 30.304 229.237 30.4852Z" fill="#E0E0E0"/>
<path d="M225.565 27.845C225.489 27.845 225.431 24.9384 225.431 21.3562C225.431 17.774 225.489 14.8674 225.565 14.8674C225.641 14.8674 225.693 17.774 225.693 21.3562C225.693 24.9384 225.635 27.845 225.565 27.845Z" fill="#E0E0E0"/>
<path d="M237.576 14.2973H229.318V36.0382H237.576V14.2973Z" fill="#EBEBEB"/>
<path d="M233.683 30.4046C233.437 30.4199 233.191 30.3797 232.961 30.2868C232.73 30.1938 232.521 30.0502 232.347 29.8653C232.172 29.6804 232.037 29.4584 231.949 29.2139C231.861 28.9693 231.822 28.7077 231.836 28.4462C231.822 28.1612 231.877 27.8773 231.994 27.6205C232.111 27.3638 232.287 27.1426 232.506 26.9774L232.692 27.2563C232.517 27.3922 232.376 27.5718 232.282 27.7793C232.187 27.9868 232.142 28.2158 232.15 28.4462C232.15 28.8785 232.312 29.2931 232.599 29.5988C232.887 29.9044 233.276 30.0762 233.683 30.0762C234.089 30.0762 234.479 29.9044 234.767 29.5988C235.054 29.2931 235.215 28.8785 235.215 28.4462C235.224 28.2151 235.179 27.9854 235.083 27.7776C234.987 27.5699 234.845 27.3908 234.668 27.2563L234.86 26.9774C235.076 27.1449 235.25 27.3667 235.366 27.623C235.482 27.8793 235.536 28.1621 235.524 28.4462C235.538 28.7072 235.499 28.9682 235.412 29.2123C235.324 29.4564 235.189 29.6781 235.015 29.8629C234.841 30.0477 234.633 30.1914 234.403 30.2848C234.174 30.3781 233.928 30.419 233.683 30.4046Z" fill="#FAFAFA"/>
<path d="M235.058 26.4382L234.784 26.2709C235.071 25.8701 235.224 25.3798 235.221 24.8764C235.221 24.0646 234.948 23.7361 234.54 23.7361C233.479 23.7361 234.26 26.3019 232.832 26.3019C232.284 26.3019 231.836 25.8123 231.836 24.8331C231.828 24.3633 231.952 23.9019 232.191 23.5068L232.471 23.6803C232.251 24.0211 232.137 24.4262 232.144 24.8393C232.144 25.5954 232.436 25.93 232.826 25.93C233.916 25.93 233.147 23.3643 234.534 23.3643C235.117 23.3643 235.524 23.9096 235.524 24.895C235.542 25.4514 235.377 25.997 235.058 26.4382Z" fill="#FAFAFA"/>
<path d="M235.058 22.8995L234.784 22.7321C235.071 22.3314 235.224 21.8411 235.221 21.3377C235.221 20.5258 234.948 20.1974 234.54 20.1974C233.479 20.1974 234.26 22.7569 232.832 22.7569C232.284 22.7569 231.836 22.2735 231.836 21.2943C231.828 20.8246 231.952 20.3631 232.191 19.968L232.471 20.1354C232.252 20.4787 232.138 20.8857 232.144 21.3005C232.144 22.0566 232.436 22.3913 232.826 22.3913C233.916 22.3913 233.147 19.8255 234.534 19.8255C235.117 19.8255 235.524 20.3647 235.524 21.3501C235.543 21.9085 235.378 22.4563 235.058 22.8995Z" fill="#FAFAFA"/>
<path d="M219.143 8.17413C219.919 8.17413 220.548 7.50542 220.548 6.68052C220.548 5.85563 219.919 5.18692 219.143 5.18692C218.368 5.18692 217.739 5.85563 217.739 6.68052C217.739 7.50542 218.368 8.17413 219.143 8.17413Z" fill="#E0E0E0"/>
<path d="M219.574 10.7833H218.706V31.9293H219.574V10.7833Z" fill="#E0E0E0"/>
<path d="M252.5 256.763C252.5 256.85 196.212 256.924 126.794 256.924C57.3769 256.924 1.07718 256.862 1.07718 256.763C1.07718 256.664 57.3536 256.602 126.794 256.602C196.235 256.602 252.5 256.689 252.5 256.763Z" fill="#263238"/>
<path d="M69.1485 43.7168C59.7953 59.3593 60.4072 81.0507 70.6287 96.0673C77.441 106.083 87.6567 112.801 95.7686 121.638C103.881 130.476 110.046 143.522 105.763 155.012C101.404 166.707 88.6357 171.46 79.0786 178.872C68.5339 187.04 61.3754 199.236 59.1065 212.897C56.8376 226.559 59.6348 240.625 66.9107 252.14H166.223C166.223 252.14 183.671 216.783 161.241 189.83C138.811 162.877 126.765 162.443 127.593 144.767C128.42 127.092 140.052 121.359 146.701 114.728C153.35 108.097 185.746 92.6463 166.637 43.7106L69.1485 43.7168Z" fill="#FAFAFA"/>
<path d="M69.1484 43.7168H70.8559H75.8909H95.2732L166.637 43.6611H166.713V43.7354C168.176 47.4407 169.421 51.2388 170.442 55.1079C171.515 59.1588 172.221 63.3093 172.552 67.5029C172.896 71.8866 172.684 76.2994 171.923 80.6231C171.086 85.105 169.571 89.4126 167.435 93.3776C166.329 95.3999 165.078 97.3289 163.694 99.1475C162.281 100.991 160.753 102.73 159.12 104.353C157.465 106.007 155.732 107.568 153.927 109.033C152.121 110.52 150.233 111.921 148.391 113.408C147.47 114.146 146.643 114.976 145.745 115.806C144.848 116.637 143.956 117.412 143.036 118.193C141.2 119.754 139.347 121.291 137.599 123.02C133.95 126.384 131.146 130.661 129.44 135.465C128.62 137.929 128.103 140.495 127.902 143.1C127.849 143.72 127.767 144.402 127.744 145.059C127.721 145.716 127.698 146.373 127.744 147.03C127.757 148.349 127.882 149.664 128.117 150.959C128.579 153.583 129.587 156.065 131.066 158.222C132.588 160.379 134.312 162.367 136.212 164.153C139.982 167.816 143.985 171.318 147.814 175.098C151.643 178.879 155.39 182.82 159.003 186.991C160.847 189.056 162.571 191.237 164.166 193.523C165.771 195.838 167.166 198.31 168.333 200.905C170.691 206.164 172.14 211.832 172.61 217.638C173.086 223.524 172.76 229.452 171.643 235.239C171.1 238.163 170.388 241.048 169.51 243.878C168.647 246.732 167.596 249.518 166.363 252.214L166.322 252.301H66.8291L66.7883 252.233C62.131 244.775 59.2747 236.212 58.4724 227.3C57.6651 218.74 58.8457 210.1 61.9106 202.138C64.8235 194.528 69.3088 187.712 75.0342 182.194C77.8126 179.586 80.8131 177.258 83.9969 175.241C87.0972 173.196 90.2266 171.299 93.1811 169.229C96.1385 167.263 98.8554 164.915 101.27 162.238C103.575 159.61 105.286 156.455 106.27 153.016C107.132 149.661 107.268 146.141 106.666 142.722C106.091 139.423 105.056 136.233 103.595 133.259C102.197 130.395 100.522 127.694 98.5949 125.202C96.7351 122.811 94.7134 120.568 92.5459 118.49C88.3443 114.375 84.0377 110.774 80.1683 107.074C78.2277 105.215 76.392 103.356 74.6962 101.453C73.0526 99.5903 71.5374 97.604 70.1624 95.5096C67.6767 91.6685 65.7604 87.4442 64.4806 82.9844C63.3595 79.133 62.7092 75.1441 62.5458 71.1161C62.4642 70.1989 62.4992 69.294 62.4992 68.4078C62.4992 67.5215 62.4992 66.6601 62.575 65.8234C62.6507 64.9867 62.6915 64.1687 62.7498 63.3444C62.8081 62.5201 62.9654 61.7826 63.0645 61.0327C63.7083 56.4676 65.0219 52.0383 66.9573 47.9064C67.2194 47.2672 67.5191 46.6462 67.8547 46.0471L68.5715 44.7518C68.9503 44.0639 69.1542 43.7168 69.1542 43.7168L68.5715 44.7704L67.878 46.0471C67.5504 46.6488 67.2547 47.2696 66.9922 47.9064C65.0744 52.0483 63.7767 56.4834 63.1461 61.0513C63.047 61.795 62.9304 62.5635 62.843 63.3506C62.7556 64.1377 62.7265 64.962 62.6682 65.7986C62.6099 66.6353 62.6099 67.4967 62.6041 68.3768C62.5983 69.2568 62.575 70.1617 62.6565 71.0789C62.8251 75.0936 63.4813 79.0682 64.6088 82.9038C65.8871 87.3477 67.8015 91.5556 70.2848 95.3794C71.6563 97.4652 73.1697 99.4413 74.8128 101.292C76.5027 103.201 78.3384 105.06 80.279 106.87C84.1485 110.588 88.4375 114.152 92.6683 118.273C94.8526 120.366 96.8899 122.626 98.7639 125.035C100.701 127.545 102.387 130.264 103.793 133.147C105.268 136.14 106.313 139.351 106.893 142.673C107.504 146.128 107.368 149.687 106.497 153.078C105.508 156.557 103.782 159.748 101.45 162.406C99.0242 165.098 96.2958 167.462 93.3268 169.446C90.3606 171.522 87.2312 173.419 84.1368 175.464C80.9664 177.476 77.9778 179.795 75.209 182.393C69.5188 187.881 65.0599 194.659 62.1612 202.225C59.1149 210.146 57.9442 218.742 58.7521 227.257C59.5546 236.117 62.3966 244.631 67.0272 252.047L66.9106 251.979H166.223L166.089 252.065C167.32 249.376 168.368 246.597 169.225 243.748C170.098 240.93 170.806 238.057 171.346 235.146C172.458 229.388 172.782 223.489 172.307 217.632C171.846 211.858 170.407 206.22 168.059 200.992C166.901 198.415 165.518 195.961 163.927 193.66C162.335 191.385 160.619 189.212 158.787 187.152C155.194 182.992 151.47 179.034 147.616 175.278C143.793 171.504 139.801 168.008 136.019 164.327C134.105 162.525 132.365 160.524 130.827 158.353C129.319 156.169 128.286 153.656 127.802 150.996C127.569 149.682 127.442 148.348 127.424 147.011C127.395 146.348 127.424 145.685 127.424 145.022C127.424 144.358 127.529 143.702 127.575 143.045C127.789 140.424 128.318 137.843 129.149 135.366C130.869 130.519 133.699 126.206 137.383 122.816C139.131 121.093 141.002 119.531 142.837 117.976C143.758 117.195 144.661 116.408 145.541 115.602C146.421 114.796 147.29 113.929 148.199 113.185C150.052 111.698 151.934 110.297 153.735 108.816C155.534 107.358 157.264 105.805 158.916 104.161C160.538 102.545 162.059 100.816 163.467 98.9864C164.84 97.174 166.085 95.2558 167.191 93.2475C169.314 89.3099 170.822 85.0316 171.655 80.5797C172.413 76.2912 172.626 71.9139 172.29 67.5649C171.964 63.372 171.264 59.2215 170.198 55.1699C169.191 51.2901 167.961 47.4797 166.515 43.7602L166.614 43.8284L95.2907 43.7726H75.8967H70.85L69.1484 43.7168Z" fill="#263238"/>
<path d="M162.675 72.4052C177.302 74.9647 154.242 102.519 141.183 113.389C133.607 119.68 125.507 126.51 121.917 135.979C117.838 146.726 120.862 158.799 118.892 169.607C118.829 169.98 118.635 170.313 118.35 170.54C118.065 170.767 117.71 170.871 117.356 170.831C117.001 170.791 116.675 170.61 116.441 170.325C116.207 170.039 116.083 169.67 116.095 169.291C116.188 162.195 116.014 155.105 114.93 148.12C113.362 138.204 109.784 128.418 103.275 121.161C97.9423 115.23 90.9551 111.295 85.2733 105.754C76.9749 97.6663 68.4492 87.2358 67.6159 75.2994C67.6159 75.2994 83.5484 61.6648 92.3945 63.3692C102.733 65.3834 112.907 82.346 128.921 80.4062C140.064 79.0489 145.711 69.4427 162.675 72.4052Z" fill="#9667E0"/>
<path d="M163.974 219.875C163.607 215.983 162.628 211.583 159.382 209.749C157.418 208.633 155.023 208.757 152.867 209.358C150.711 209.959 148.688 211.007 146.556 211.682C142.316 213.008 137.788 212.854 133.636 211.242C129.667 209.693 126.264 206.904 122.564 204.685C118.863 202.466 114.568 200.843 110.466 201.927C103.391 203.787 99.7081 212.86 92.7151 215.047C89.6032 216.014 86.264 215.469 83.1055 214.713C79.947 213.957 76.771 212.971 73.5367 213.101C70.9959 213.201 68.3561 214.136 66.5787 215.983L66.532 216.039C66.2361 216.347 65.967 216.683 65.7278 217.043C63.56 220.142 63.2103 224.251 63.8805 228.006C64.6264 232.215 66.4738 236.1 68.4551 239.825C70.7861 244.213 73.4435 248.576 77.3013 251.501C82.0682 255.114 88.0531 252.623 93.8864 253.113C107.482 254.253 122.109 255.028 135.711 253.912C142.896 253.292 149.627 254.148 155.326 249.456C159.335 246.159 161.946 241.189 163.205 235.97C164.464 230.752 164.481 225.236 163.974 219.875Z" fill="#9667E0"/>
<g opacity="0.24">
<path d="M138.31 212.426C137.546 213.665 137.214 215.351 137.954 216.615C138.694 217.88 139.702 219.039 140.017 220.495C140.524 222.776 139.23 225.007 138.269 227.12C136.489 230.899 135.817 235.159 136.34 239.348C136.891 243.551 138.932 247.371 142.045 250.026C143.426 251.16 145.221 252.041 146.888 251.483C148.455 250.962 149.464 249.27 149.802 247.554C150.14 245.837 149.854 244.07 149.65 242.341C148.701 234.283 148.897 226.118 150.233 218.121C150.454 216.789 150.664 215.264 149.872 214.205C149.3 213.587 148.574 213.157 147.779 212.965C144.749 211.893 141.48 213.083 138.339 212.451" fill="black"/>
</g>
<path d="M59.6207 256.937C59.6207 256.937 59.3468 252.09 65.2908 249.388H169.749C169.749 249.388 175.198 252.326 175.868 256.825L59.6207 256.937Z" fill="#263238"/>
<path d="M167.529 44.3056L167.36 44.3861L69.1369 43.7168C69.1369 43.7168 68.7873 43.4813 68.2686 43.0413C67.6563 42.5311 67.2096 41.8299 66.9911 41.036C66.7726 40.242 66.7934 39.3953 67.0506 38.6146C67.3077 37.8339 67.7882 37.1584 68.4248 36.683C69.0613 36.2075 69.8218 35.956 70.5996 35.9637L165.938 36.7818C169.86 36.8189 171.095 42.5207 167.529 44.3056Z" fill="#263238"/>
<g opacity="0.24">
<path d="M151.795 84.1557C151.993 84.5585 151.253 85.3952 149.848 86.7586C148.444 88.1221 146.352 89.9132 143.753 92.1629C140.632 94.9048 137.32 97.391 133.846 99.5999C131.688 100.929 129.416 102.039 127.063 102.916C125.787 103.384 124.485 103.767 123.164 104.062C121.776 104.375 120.367 104.57 118.951 104.645C116.08 104.811 113.205 104.39 110.483 103.405C108.077 102.474 105.79 101.225 103.677 99.6867C101.719 98.3108 100.034 96.9474 98.4319 95.6397C96.8293 94.332 95.4016 93.0739 94.1079 91.884C88.9505 87.1305 86.2349 83.6351 86.7594 82.9595C87.2838 82.284 90.9552 84.4841 96.6661 88.2026L101.328 91.2394C103.001 92.3178 104.79 93.5139 106.62 94.6171C108.435 95.7507 110.36 96.6752 112.36 97.375C114.406 98.0267 116.544 98.2952 118.677 98.1683C123.152 97.9204 127.494 96.247 131.253 94.3134C135.011 92.3798 138.415 90.1239 141.363 88.3638C143.697 86.8992 146.137 85.6351 148.659 84.5833C150.507 83.8953 151.626 83.7652 151.795 84.1557Z" fill="black"/>
</g>
<path d="M116.165 182.554C116.578 182.379 117.039 182.384 117.448 182.568C117.857 182.753 118.182 183.101 118.352 183.538C118.521 183.974 118.522 184.465 118.355 184.902C118.187 185.34 117.864 185.69 117.455 185.876C117.047 186.062 116.586 186.069 116.172 185.897C115.759 185.724 115.426 185.385 115.245 184.953C115.065 184.521 115.052 184.031 115.209 183.589C115.365 183.147 115.68 182.788 116.083 182.591" fill="#9667E0"/>
<path d="M81.0367 101.441C80.909 101.329 80.7919 101.205 80.6871 101.069L79.7372 99.9655C79.3351 99.4759 78.8048 98.9058 78.2628 98.1807L76.4097 95.7016C75.7745 94.7472 75.0577 93.7184 74.3351 92.6029L73.2686 90.7994C73.088 90.4895 72.8957 90.1796 72.7208 89.8512L72.208 88.8472C70.6571 85.9241 69.4421 82.8133 68.5891 79.5819C67.732 76.3531 67.2698 73.0203 67.2138 69.6658C67.2138 68.8911 67.2546 68.1412 67.2663 67.4037C67.2663 67.0381 67.2663 66.6786 67.3129 66.3254C67.3595 65.9721 67.3828 65.625 67.4178 65.2842C67.4936 64.6025 67.5402 63.9393 67.6276 63.3072C67.715 62.675 67.8374 62.0677 67.9365 61.5037C68.0996 60.3448 68.391 59.3346 68.595 58.4049C68.7057 57.9587 68.7931 57.5373 68.9038 57.1654L69.2243 56.1304L69.6731 54.7112C69.7159 54.5422 69.7745 54.3782 69.8479 54.2216C69.8239 54.3945 69.7849 54.5646 69.7313 54.7298C69.6323 55.0892 69.5041 55.5665 69.3351 56.1676L69.0437 57.2026C68.9446 57.5807 68.863 58.0021 68.7581 58.4421C68.5716 59.3408 68.2978 60.3572 68.1754 61.5409C68.0821 62.1111 67.9889 62.7122 67.8898 63.3382C67.7908 63.9641 67.7675 64.6211 67.6975 65.3028C67.6975 65.6436 67.6334 65.9845 67.5985 66.3378C67.5635 66.691 67.5985 67.0505 67.5635 67.4099C67.5635 68.1412 67.5169 68.8849 67.5227 69.6534C67.5796 72.9882 68.0359 76.3016 68.8805 79.5137C69.7289 82.7214 70.9278 85.8123 72.4528 88.7232C72.6218 89.0579 72.7908 89.3926 72.954 89.7272C73.1171 90.0619 73.3211 90.347 73.4959 90.6693L74.5449 92.4727C75.2558 93.6131 75.9609 94.6419 76.5787 95.5715L78.3969 98.0505C78.9213 98.788 79.44 99.3644 79.8246 99.8726L80.7337 101.019C80.8429 101.153 80.9441 101.293 81.0367 101.441Z" fill="#263238"/>
<path d="M75.5063 193.511C75.5352 193.439 75.5703 193.371 75.6112 193.306L75.9609 192.724C76.1182 192.464 76.3105 192.154 76.5436 191.782L76.9108 191.162C77.0565 190.958 77.2255 190.753 77.3945 190.542L78.56 189.055C79.0087 188.541 79.5215 188.008 80.0635 187.425C81.3201 186.138 82.6556 184.942 84.0612 183.843C87.1556 181.364 91.1474 178.885 95.4715 175.978C97.7452 174.488 99.9307 172.851 102.016 171.076C104.253 169.181 106.228 166.961 107.884 164.482C110.915 159.529 112.562 153.763 112.634 147.854C112.707 143.038 111.949 138.248 110.396 133.723C109.367 130.67 108.076 127.724 106.538 124.923C105.996 123.925 105.553 123.169 105.25 122.655L104.906 122.072C104.83 121.942 104.796 121.868 104.796 121.868C104.847 121.923 104.893 121.986 104.93 122.054L105.302 122.624C105.623 123.119 106.083 123.863 106.637 124.861C108.222 127.647 109.549 130.59 110.6 133.649C112.195 138.193 112.985 143.011 112.931 147.86C112.906 149.258 112.799 150.653 112.61 152.037C112.421 153.485 112.135 154.916 111.754 156.32C110.958 159.292 109.72 162.11 108.088 164.668C106.415 167.174 104.418 169.417 102.156 171.33C100.058 173.107 97.861 174.746 95.5763 176.238C91.2348 179.12 87.2372 181.575 84.1427 184.035C82.7375 185.119 81.3984 186.297 80.1334 187.561C79.5914 188.138 79.0728 188.658 78.6182 189.167L77.4527 190.623C77.2779 190.846 77.1089 191.051 76.9632 191.243L76.5844 191.831L76.0017 192.755L75.6287 193.319C75.5928 193.386 75.5519 193.451 75.5063 193.511Z" fill="#263238"/>
<path d="M70.0867 204.462C70.0516 204.563 70.0087 204.66 69.9585 204.753L69.539 205.54C69.3525 205.875 69.131 206.296 68.9037 206.78C68.6765 207.263 68.3851 207.833 68.1403 208.484C68.0121 208.806 67.8723 209.141 67.7324 209.488C67.5926 209.835 67.476 210.22 67.3361 210.604C67.0564 211.372 66.835 212.215 66.5786 213.083C65.5649 216.968 65.2156 221.015 65.5471 225.032C65.6462 225.949 65.7161 226.829 65.8676 227.635C65.9317 228.037 65.9842 228.434 66.0599 228.806C66.1357 229.178 66.2173 229.537 66.293 229.878C66.4212 230.566 66.6135 231.167 66.7534 231.7C66.8933 232.233 67.0331 232.692 67.1613 233.064L67.4352 233.919C67.4745 234.016 67.5 234.118 67.511 234.223C67.4548 234.136 67.4097 234.043 67.3769 233.944C67.2895 233.714 67.1846 233.442 67.0506 233.107C66.8745 232.666 66.7208 232.215 66.5902 231.756C66.4329 231.223 66.2289 230.622 66.0832 229.934C66.0016 229.593 65.9201 229.234 65.8326 228.862C65.7452 228.49 65.6928 228.087 65.617 227.684C65.4539 226.866 65.3723 225.986 65.2674 225.063C64.9026 221.021 65.2544 216.943 66.3047 213.039C66.5669 212.147 66.8 211.298 67.0972 210.529C67.2429 210.145 67.3595 209.767 67.511 209.414L67.9422 208.404C68.1986 207.784 68.525 207.208 68.7522 206.712C68.9576 206.285 69.1852 205.872 69.4341 205.472L69.9003 204.71C70.0168 204.543 70.0751 204.456 70.0867 204.462Z" fill="#263238"/>
<path d="M142.133 219.361L142.016 219.448L141.655 219.689L140.239 220.594L139.213 221.214C138.828 221.443 138.403 221.654 137.948 221.896C137.028 222.367 136.014 222.968 134.813 223.451L132.948 224.263C132.302 224.536 131.596 224.753 130.885 225.013C129.469 225.565 127.896 225.961 126.258 226.414C119.068 228.205 111.61 228.415 104.341 227.033C102.674 226.674 101.089 226.364 99.6441 225.893C98.9215 225.67 98.2105 225.496 97.5462 225.273L95.6464 224.536C94.4285 224.121 93.3795 223.581 92.4413 223.16C91.9751 222.943 91.538 222.751 91.1476 222.54L90.087 221.951L88.6301 221.127L88.2571 220.904L88.1347 220.824C88.1347 220.824 88.1872 220.824 88.2746 220.879L88.6592 221.071L90.1394 221.84L91.2058 222.398C91.6021 222.596 92.045 222.776 92.5112 222.986C93.4494 223.383 94.4984 223.91 95.7222 224.307L97.5986 225.032C98.263 225.267 98.9739 225.434 99.6966 225.651C101.136 226.11 102.715 226.401 104.359 226.755C111.594 228.087 119.007 227.876 126.165 226.135C127.797 225.689 129.364 225.311 130.781 224.771C131.492 224.517 132.191 224.313 132.838 224.04L134.703 223.253C135.903 222.782 136.923 222.199 137.844 221.747C138.298 221.511 138.729 221.307 139.114 221.127L140.151 220.507L141.591 219.652L141.969 219.441C142.086 219.373 142.133 219.355 142.133 219.361Z" fill="#263238"/>
<path d="M148.211 88.1902C148.175 88.2351 148.134 88.2747 148.088 88.308L147.704 88.6426C147.348 88.9463 146.853 89.3739 146.218 89.8821C144.924 90.9729 143.047 92.5533 140.676 94.4373C137.916 96.6844 135.021 98.738 132.01 100.585C130.22 101.651 128.353 102.565 126.427 103.318C124.35 104.122 122.184 104.635 119.982 104.843C115.702 105.098 111.434 104.154 107.604 102.104C105.948 101.209 104.35 100.199 102.82 99.0793C101.398 98.0133 100.099 96.9783 98.9505 95.9805C96.6195 94.0097 94.8363 92.3426 93.5775 91.2022L92.1381 89.8759L91.771 89.5289L91.6486 89.3987C91.6486 89.3987 91.7011 89.3987 91.7885 89.4979L92.1789 89.8264L93.6533 91.1031C94.9353 92.2186 96.7652 93.8548 99.0845 95.8008C100.25 96.7738 101.538 97.7964 102.966 98.85C104.49 99.9502 106.081 100.944 107.727 101.825C111.518 103.834 115.735 104.759 119.965 104.508C122.14 104.303 124.281 103.799 126.334 103.009C128.247 102.265 130.101 101.364 131.882 100.313C134.888 98.4989 137.786 96.4891 140.559 94.2948C142.937 92.4355 144.831 90.8861 146.153 89.8264L147.674 88.5869L148.077 88.277C148.117 88.2411 148.162 88.2118 148.211 88.1902Z" fill="#263238"/>
<g opacity="0.24">
<path d="M95.6522 224.567C98.4145 222.299 102.296 222.844 105.711 223.612C109.125 224.381 112.564 225.614 116.019 225.1C118.624 224.709 121.014 223.352 123.595 222.757C126.177 222.162 129.283 222.602 130.711 224.951C119.299 228.862 107.003 228.727 95.6697 224.567" fill="black"/>
</g>
<path d="M192.005 207.747L179.475 192.805L179.347 210.97L183.123 222.621L145.582 229.544L143.992 198.042L141.288 173.871C141.127 172.43 141.419 170.973 142.119 169.728C142.819 168.482 143.888 167.518 145.157 166.986L155.489 162.648L170.058 165.486L175.915 167.854C178.37 168.848 180.559 170.467 182.29 172.57L199.912 194.001" fill="#9667E0"/>
<path d="M178.601 189.21C179.309 189.2 180.015 189.146 180.717 189.049C182.407 188.775 183.982 187.97 185.239 186.738C186.496 185.505 187.379 183.902 187.774 182.133C187.919 181.394 188.026 180.647 188.094 179.895C188.142 180.098 188.159 180.307 188.147 180.515C188.151 181.078 188.096 181.639 187.984 182.188C187.631 184.029 186.742 185.704 185.445 186.978C184.147 188.251 182.505 189.058 180.752 189.285C180.228 189.357 179.699 189.369 179.172 189.322C178.978 189.317 178.785 189.28 178.601 189.21Z" fill="white"/>
<path d="M179.691 210.195C179.778 210.195 179.802 203.898 179.743 196.139C179.685 188.38 179.563 182.089 179.475 182.089C179.388 182.089 179.365 188.38 179.423 196.145C179.481 203.911 179.604 210.195 179.691 210.195Z" fill="#263238"/>
<path d="M178.316 214.812L155.635 205.101C154.738 204.717 153.96 204.074 153.389 203.245C152.818 202.416 152.475 201.434 152.401 200.409L150.74 177.28C150.74 177.28 150.938 167.438 145.157 166.961L141.888 168.337C137.64 170.735 136.591 177.317 137.168 182.393C137.989 189.607 138.333 199.82 139.248 206.08C140.006 211.205 142.744 215.711 147.476 217.031L175.414 223.464L178.316 214.812Z" fill="#9667E0"/>
<path d="M151.066 180.806C151.104 180.979 151.127 181.156 151.136 181.333C151.171 181.711 151.224 182.219 151.282 182.858C151.398 184.215 151.562 186.124 151.76 188.467C151.958 190.809 152.179 193.666 152.436 196.79C152.494 197.577 152.558 198.376 152.622 199.194C152.667 200.027 152.764 200.855 152.913 201.673C153.072 202.501 153.467 203.257 154.044 203.836C154.665 204.418 155.372 204.886 156.136 205.225C162.389 208.1 168.152 210.48 172.337 212.147L177.308 214.093L178.659 214.62C178.818 214.676 178.972 214.744 179.12 214.825C178.955 214.793 178.793 214.745 178.636 214.682L177.267 214.211C176.101 213.79 174.353 213.164 172.267 212.352C168.053 210.74 162.284 208.398 156.008 205.534C155.214 205.18 154.48 204.69 153.834 204.084C153.214 203.459 152.791 202.645 152.622 201.754C152.472 200.923 152.376 200.083 152.337 199.238C152.272 198.414 152.214 197.614 152.156 196.827C151.929 193.728 151.719 190.877 151.573 188.497C151.427 186.118 151.282 184.24 151.189 182.883C151.148 182.263 151.119 181.73 151.101 181.352C151.075 181.171 151.063 180.989 151.066 180.806Z" fill="#263238"/>
<path d="M138.071 193.381C138.094 193.483 138.108 193.587 138.112 193.691L138.187 194.583C138.257 195.408 138.345 196.517 138.455 197.868C138.566 199.219 138.741 200.899 138.968 202.721C139.191 204.694 139.532 206.65 139.988 208.577C140.203 209.57 140.577 210.516 141.095 211.373C141.601 212.159 142.169 212.899 142.791 213.585C143.852 214.746 145.077 215.722 146.422 216.479C147.675 217.157 149.02 217.625 150.408 217.868C150.309 217.881 150.209 217.881 150.11 217.868C149.829 217.848 149.548 217.808 149.271 217.75C148.246 217.547 147.253 217.19 146.323 216.69C144.94 215.95 143.68 214.974 142.593 213.802C141.949 213.109 141.364 212.356 140.845 211.552C140.301 210.672 139.906 209.696 139.679 208.67C139.217 206.729 138.88 204.755 138.671 202.764C138.461 200.905 138.321 199.281 138.228 197.893C138.135 196.505 138.082 195.377 138.053 194.596C138.053 194.236 138.053 193.939 138.053 193.697C138.043 193.592 138.049 193.485 138.071 193.381Z" fill="#263238"/>
<path d="M147.768 209.563C147.827 209.111 147.968 208.676 148.182 208.28C148.649 207.292 149.297 206.414 150.087 205.695C150.878 204.977 151.795 204.433 152.785 204.097C153.187 203.934 153.614 203.856 154.044 203.867C153.663 204.036 153.274 204.185 152.879 204.314C151.942 204.699 151.073 205.25 150.309 205.944C149.546 206.638 148.898 207.464 148.391 208.385C147.983 209.098 147.814 209.581 147.768 209.563Z" fill="#263238"/>
<path d="M152.232 191.974C152.281 191.99 152.328 192.013 152.372 192.042L152.78 192.272C153.306 192.547 153.847 192.79 154.4 192.997C156.439 193.758 158.626 193.958 160.757 193.579C163.924 192.979 166.752 191.109 168.66 188.355C169.8 186.764 170.514 184.876 170.728 182.889C170.834 181.845 170.731 180.789 170.425 179.79C170.103 178.771 169.541 177.855 168.794 177.131C168.057 176.398 167.128 175.918 166.13 175.755C165.658 175.665 165.172 175.69 164.709 175.829C164.247 175.967 163.82 176.216 163.461 176.555C163.136 176.894 162.948 177.354 162.937 177.838C162.947 178.319 163.102 178.784 163.38 179.164C163.669 179.531 164.024 179.834 164.424 180.054C164.824 180.274 165.262 180.408 165.711 180.447C167.289 180.656 168.891 180.441 170.37 179.82C171.85 179.2 173.159 178.194 174.178 176.896C174.951 175.885 175.532 174.726 175.891 173.481C176.159 172.537 176.304 171.559 176.323 170.574C176.329 169.952 176.286 169.33 176.195 168.715C176.16 168.523 176.13 168.362 176.113 168.238C176.108 168.182 176.108 168.126 176.113 168.07C176.354 168.871 176.472 169.709 176.463 170.549C176.469 171.549 176.339 172.545 176.078 173.506C175.429 175.821 174.029 177.816 172.126 179.136C170.223 180.456 167.941 181.015 165.687 180.713C165.206 180.668 164.738 180.522 164.31 180.284C163.882 180.046 163.502 179.72 163.193 179.325C162.877 178.892 162.701 178.361 162.692 177.813C162.693 177.249 162.902 176.708 163.275 176.307C163.666 175.935 164.132 175.662 164.636 175.507C165.14 175.353 165.671 175.321 166.189 175.414C167.249 175.582 168.235 176.09 169.015 176.871C169.804 177.629 170.394 178.592 170.728 179.666C171.046 180.705 171.153 181.803 171.043 182.889C170.816 184.919 170.077 186.846 168.904 188.466C167.287 190.814 164.99 192.534 162.367 193.362C159.743 194.19 156.936 194.081 154.376 193.053C153.62 192.795 152.899 192.433 152.232 191.974Z" fill="white"/>
<path d="M137.372 185.808C137.47 185.622 137.596 185.455 137.744 185.312C138.117 184.893 138.527 184.513 138.968 184.178C140.456 183.091 142.186 182.439 143.986 182.288C144.973 182.169 145.971 182.213 146.946 182.418C147.738 182.593 148.505 182.88 149.225 183.273C149.708 183.532 150.172 183.83 150.612 184.165C150.782 184.276 150.935 184.414 151.066 184.574C151.031 184.624 150.355 184.079 149.131 183.477C147.536 182.691 145.767 182.39 144.021 182.61C142.267 182.757 140.574 183.359 139.091 184.364C137.966 185.163 137.412 185.851 137.372 185.808Z" fill="white"/>
<path d="M141.002 169.267C141.555 169.82 142.172 170.297 142.838 170.686C143.565 171.082 144.356 171.33 145.169 171.417C146.159 171.523 147.158 171.374 148.083 170.983C148.989 170.572 149.789 169.934 150.414 169.124C150.929 168.448 151.324 167.677 151.579 166.85C151.789 166.073 151.908 165.271 151.935 164.463C151.991 164.677 152.017 164.899 152.01 165.12C152.02 165.728 151.943 166.334 151.783 166.918C151.545 167.789 151.149 168.601 150.617 169.31C149.979 170.199 149.13 170.892 148.157 171.319C147.185 171.745 146.124 171.89 145.081 171.739C144.236 171.638 143.418 171.36 142.675 170.921C142.174 170.629 141.718 170.257 141.323 169.818C141.185 169.657 141.076 169.47 141.002 169.267Z" fill="white"/>
<path d="M160.769 207.301C160.77 207.147 160.786 206.993 160.816 206.842C160.897 206.412 161.032 205.995 161.218 205.603C161.959 204.159 163.162 203.046 164.609 202.467C166.739 201.566 169.097 201.476 171.282 202.213C172.482 202.591 173.858 203.062 174.778 204.307C175.01 204.625 175.156 205.004 175.201 205.404C175.246 205.803 175.189 206.208 175.035 206.576C174.683 207.293 174.114 207.862 173.421 208.193C172.751 208.546 172.017 208.74 171.27 208.763C170.528 208.802 169.798 208.56 169.207 208.082C168.935 207.834 168.712 207.53 168.554 207.188C168.396 206.846 168.305 206.473 168.286 206.092C168.248 205.381 168.354 204.668 168.595 204.004C169.474 201.744 171.146 199.939 173.257 198.971C174.658 198.308 176.192 198.026 177.721 198.153C178.278 198.198 178.827 198.321 179.353 198.519C179.353 198.562 178.77 198.358 177.71 198.277C176.443 198.204 175.176 198.407 173.985 198.872C172.795 199.338 171.707 200.057 170.786 200.985C169.932 201.856 169.266 202.913 168.834 204.084C168.608 204.71 168.511 205.38 168.549 206.049C168.566 206.388 168.648 206.72 168.79 207.023C168.932 207.327 169.132 207.597 169.376 207.815C169.909 208.25 170.57 208.47 171.241 208.435C171.942 208.415 172.63 208.234 173.257 207.902C173.891 207.601 174.412 207.084 174.738 206.433C174.869 206.117 174.917 205.768 174.879 205.425C174.84 205.081 174.714 204.755 174.516 204.481C174.11 203.935 173.589 203.498 172.995 203.204C172.42 202.911 171.821 202.673 171.206 202.491C169.079 201.759 166.78 201.823 164.691 202.671C163.275 203.216 162.084 204.271 161.323 205.652C161.07 206.173 160.884 206.728 160.769 207.301Z" fill="white"/>
<path d="M145.664 216.008C145.664 215.946 146.527 215.872 147.838 215.389C149.55 214.747 151.083 213.661 152.298 212.227C153.514 210.794 154.372 209.06 154.796 207.183C155.128 205.745 155.116 204.809 155.175 204.816C155.215 205.03 155.225 205.249 155.204 205.466C155.19 206.06 155.124 206.652 155.006 207.233C154.628 209.17 153.771 210.965 152.523 212.432C151.276 213.9 149.682 214.987 147.908 215.581C147.376 215.765 146.83 215.895 146.276 215.971C146.075 216.015 145.869 216.027 145.664 216.008Z" fill="white"/>
<path d="M138.31 198.029C138.396 197.978 138.488 197.938 138.584 197.912C138.77 197.85 139.038 197.763 139.394 197.664C140.402 197.381 141.447 197.268 142.488 197.329C143.211 197.387 143.921 197.574 144.586 197.881C145.361 198.236 146.036 198.8 146.544 199.517C147.102 200.33 147.372 201.326 147.307 202.33C147.27 202.865 147.116 203.382 146.859 203.843C146.598 204.328 146.186 204.701 145.693 204.896C145.434 204.99 145.155 205.01 144.886 204.953C144.617 204.897 144.367 204.766 144.161 204.574C143.811 204.164 143.621 203.628 143.63 203.074C143.6 202.087 143.784 201.105 144.166 200.205C144.698 198.922 145.618 197.864 146.779 197.201C147.941 196.537 149.277 196.305 150.577 196.542C150.856 196.588 151.131 196.661 151.398 196.759C151.579 196.833 151.672 196.877 151.666 196.889C151.661 196.901 151.276 196.759 150.559 196.666C149.546 196.535 148.519 196.676 147.57 197.075C146.164 197.675 145.039 198.842 144.44 200.322C144.084 201.182 143.915 202.116 143.945 203.055C143.933 203.53 144.091 203.991 144.388 204.345C144.555 204.496 144.756 204.598 144.972 204.642C145.187 204.685 145.41 204.668 145.617 204.592C146.049 204.423 146.412 204.098 146.643 203.675C146.875 203.257 147.015 202.789 147.051 202.306C147.112 201.375 146.867 200.45 146.358 199.69C145.884 199.008 145.252 198.47 144.522 198.128C143.884 197.821 143.203 197.628 142.506 197.558C141.486 197.477 140.462 197.555 139.464 197.788C138.712 197.943 138.321 198.054 138.31 198.029Z" fill="white"/>
<g opacity="0.3">
<path d="M171.795 212.054C169.37 210.598 166.999 209.476 164.464 208.255C161.929 207.034 159.44 205.454 157.779 203.074C154.65 198.587 155.006 192.111 151.806 187.686C152.016 190.66 152.224 193.637 152.43 196.616C152.622 199.343 152.232 202.045 153.881 203.898C155.274 205.46 157.989 206.656 159.912 207.332C163.776 208.689 167.937 210.703 171.795 212.054Z" fill="black"/>
</g>
<path d="M211.235 246.048C211.235 246.048 230.216 251.625 230.979 251.923C232.145 252.351 231.929 256.807 230.152 256.732C229.307 256.701 215.583 257.278 213.835 257.166C212.086 257.055 206.841 254.854 206.841 254.854L211.235 246.048Z" fill="#9667E0"/>
<path d="M219.12 253.751C219.355 253.009 219.635 252.285 219.959 251.582C220.368 250.932 220.815 250.311 221.299 249.723C220.624 250.116 220.064 250.699 219.679 251.409C219.295 252.118 219.101 252.927 219.12 253.745V253.751Z" fill="#263238"/>
<path d="M217.139 252.797C217.232 252.797 217.424 251.861 217.931 250.807C218.438 249.754 219.033 249.016 218.969 248.948C218.415 249.407 217.963 249.991 217.647 250.657C217.33 251.324 217.157 252.057 217.139 252.803V252.797Z" fill="#263238"/>
<path d="M215.315 252.27C215.408 251.548 215.556 250.835 215.758 250.138C216.055 249.481 216.4 248.849 216.789 248.248C216.187 248.679 215.724 249.295 215.46 250.014C215.197 250.732 215.146 251.52 215.315 252.27Z" fill="#263238"/>
<path d="M215.623 249.661C215.791 249.182 215.86 248.671 215.827 248.161C215.821 247.606 215.757 247.053 215.635 246.513C215.562 246.193 215.467 245.881 215.35 245.577C215.295 245.384 215.189 245.212 215.047 245.081C214.951 245.005 214.833 244.968 214.714 244.975C214.595 244.981 214.482 245.032 214.394 245.118C214.247 245.268 214.157 245.472 214.143 245.688C214.129 245.866 214.129 246.044 214.143 246.221C214.145 246.553 214.184 246.884 214.26 247.207C214.386 247.747 214.582 248.267 214.843 248.75C215.051 249.216 215.34 249.636 215.693 249.989C215.74 249.989 215.419 249.487 215.041 248.663C214.819 248.186 214.653 247.683 214.545 247.163C214.484 246.86 214.453 246.55 214.452 246.24C214.452 245.93 214.452 245.546 214.627 245.397C214.661 245.364 214.706 245.346 214.752 245.346C214.799 245.346 214.843 245.364 214.878 245.397C214.972 245.496 215.044 245.617 215.087 245.75C215.199 246.042 215.294 246.34 215.373 246.643C215.506 247.157 215.59 247.684 215.623 248.217C215.658 249.085 215.571 249.655 215.623 249.661Z" fill="#263238"/>
<path d="M215.6 249.456C215.214 249.285 214.794 249.213 214.376 249.246C213.923 249.246 213.471 249.304 213.03 249.419C212.759 249.485 212.496 249.587 212.249 249.723C212.094 249.807 211.968 249.942 211.892 250.109C211.815 250.276 211.791 250.464 211.824 250.646C211.868 250.82 211.953 250.979 212.073 251.106C212.193 251.234 212.342 251.325 212.506 251.371C212.785 251.446 213.077 251.446 213.357 251.371C213.806 251.262 214.227 251.051 214.592 250.752C214.937 250.506 215.236 250.192 215.472 249.828C215.121 250.046 214.785 250.289 214.464 250.553C214.111 250.811 213.716 250.994 213.298 251.093C213.067 251.154 212.825 251.154 212.593 251.093C212.484 251.063 212.384 251.004 212.303 250.92C212.222 250.836 212.163 250.731 212.133 250.615C212.115 250.502 212.133 250.385 212.183 250.283C212.234 250.181 212.314 250.1 212.413 250.051C212.629 249.925 212.86 249.829 213.1 249.766C213.518 249.639 213.948 249.56 214.382 249.531C215.122 249.432 215.589 249.512 215.6 249.456Z" fill="#263238"/>
<path d="M222.034 253.968C222.115 253.351 222.242 252.742 222.413 252.146C222.679 251.592 222.989 251.064 223.339 250.566C222.786 250.886 222.355 251.4 222.117 252.02C221.879 252.64 221.85 253.328 222.034 253.968Z" fill="#263238"/>
<path d="M208.794 254.904C209.024 255.059 209.27 255.184 209.528 255.276C210.217 255.554 210.921 255.786 211.638 255.97C214.018 256.522 216.452 256.768 218.887 256.701C221.731 256.664 224.295 256.528 226.154 256.447L228.351 256.323C228.621 256.318 228.89 256.289 229.155 256.236C228.887 256.192 228.616 256.177 228.345 256.193H226.148L218.887 256.342C216.474 256.408 214.061 256.2 211.69 255.722C209.872 255.332 208.817 254.836 208.794 254.904Z" fill="#263238"/>
<path d="M208.234 255.363C208.234 255.406 208.776 255.084 209.656 254.675C210.774 254.113 212.018 253.898 213.246 254.055C214.453 254.333 215.543 255.02 216.352 256.013C216.689 256.436 217.053 256.834 217.442 257.203C217.192 256.71 216.88 256.256 216.515 255.852C216.141 255.39 215.719 254.974 215.256 254.613C214.677 254.157 214.004 253.855 213.292 253.733C212.004 253.567 210.7 253.829 209.557 254.483C209.074 254.698 208.628 254.995 208.234 255.363Z" fill="#263238"/>
<path d="M191.066 240.476C191.066 240.476 173.106 252.983 172.465 253.491C171.497 254.266 172.605 257.966 174.283 257.327C175.076 257.024 190.146 252.561 191.766 251.892C193.386 251.223 197.75 247.467 197.75 247.467L191.066 240.476Z" fill="#9667E0"/>
<path d="M185.734 250.367C185.518 249.581 185.102 248.873 184.532 248.321C183.963 247.769 183.262 247.394 182.506 247.238C183.137 247.64 183.743 248.088 184.318 248.576C184.825 249.141 185.298 249.74 185.734 250.367Z" fill="#263238"/>
<path d="M187.343 248.818C187.114 248.111 186.741 247.466 186.25 246.93C185.76 246.394 185.163 245.981 184.505 245.719C184.458 245.806 185.245 246.339 186.02 247.157C186.795 247.975 187.261 248.868 187.343 248.818Z" fill="#263238"/>
<path d="M188.963 247.715C188.96 246.935 188.681 246.185 188.182 245.614C187.764 244.984 187.141 244.542 186.433 244.374C186.974 244.823 187.482 245.314 187.954 245.843C188.337 246.438 188.674 247.064 188.963 247.715Z" fill="#263238"/>
<path d="M187.925 245.341C187.972 245.341 187.727 244.802 187.523 243.91C187.401 243.392 187.328 242.862 187.308 242.329C187.288 242.016 187.288 241.701 187.308 241.387C187.305 241.246 187.34 241.106 187.407 240.984C187.432 240.942 187.472 240.912 187.517 240.901C187.563 240.889 187.611 240.897 187.651 240.922C187.855 241.009 187.96 241.381 188.059 241.678C188.145 241.973 188.203 242.276 188.234 242.583C188.279 243.114 188.264 243.649 188.188 244.176C188.065 245.081 187.896 245.632 187.943 245.651C188.183 245.208 188.341 244.72 188.409 244.213C188.521 243.67 188.56 243.113 188.526 242.558C188.502 242.227 188.445 241.898 188.357 241.579C188.309 241.408 188.25 241.24 188.182 241.077C188.104 240.874 187.959 240.709 187.774 240.612C187.666 240.559 187.543 240.548 187.428 240.581C187.313 240.613 187.213 240.688 187.144 240.792C187.048 240.965 186.998 241.162 186.999 241.362C186.935 242.245 187.029 243.133 187.278 243.978C187.401 244.476 187.622 244.94 187.925 245.341Z" fill="#263238"/>
<path d="M187.861 245.137C187.861 245.186 188.304 244.963 189.027 244.771C189.449 244.663 189.881 244.601 190.315 244.585C190.562 244.567 190.811 244.584 191.055 244.635C191.162 244.65 191.262 244.702 191.339 244.782C191.417 244.863 191.468 244.967 191.486 245.081C191.491 245.204 191.465 245.326 191.411 245.435C191.356 245.544 191.276 245.636 191.177 245.701C190.977 245.835 190.749 245.916 190.513 245.936C190.087 245.98 189.657 245.934 189.248 245.8C188.868 245.649 188.479 245.526 188.083 245.434C188.411 245.713 188.787 245.924 189.19 246.054C189.622 246.23 190.086 246.304 190.548 246.271C190.835 246.255 191.114 246.161 191.358 245.998C191.502 245.904 191.62 245.77 191.699 245.611C191.777 245.452 191.815 245.273 191.806 245.093C191.786 244.909 191.709 244.736 191.588 244.602C191.468 244.468 191.309 244.379 191.136 244.35C190.863 244.298 190.585 244.286 190.309 244.312C189.856 244.345 189.408 244.434 188.974 244.579C188.568 244.671 188.187 244.862 187.861 245.137Z" fill="#263238"/>
<path d="M176.567 256.639C176.567 256.67 176.87 256.447 177.01 255.902C177.15 255.189 177.029 254.447 176.672 253.826C176.5 253.493 176.305 253.174 176.089 252.871C175.914 252.613 175.709 252.38 175.478 252.177C175.312 252.032 175.109 251.943 174.895 251.923C174.743 251.923 174.668 251.954 174.668 251.973C174.668 251.991 174.988 252.004 175.32 252.363C175.516 252.574 175.69 252.806 175.839 253.057C176.048 253.356 176.242 253.666 176.422 253.987C176.744 254.543 176.883 255.197 176.818 255.846C176.749 256.116 176.666 256.38 176.567 256.639Z" fill="#263238"/>
<path d="M183.018 251.514C183.043 251.178 182.998 250.842 182.889 250.526C182.779 250.21 182.607 249.924 182.383 249.686C182.204 249.408 181.969 249.177 181.697 249.006C181.424 248.836 181.119 248.732 180.804 248.7C181.28 249.06 181.727 249.462 182.139 249.903C182.474 250.412 182.768 250.951 183.018 251.514Z" fill="#263238"/>
<path d="M195.903 248.13C195.624 248.295 195.359 248.486 195.111 248.7C194.399 249.226 193.659 249.708 192.896 250.144C191.767 250.781 190.598 251.338 189.4 251.811C188.036 252.351 186.486 252.859 184.901 253.355C181.667 254.346 178.741 255.251 176.632 255.927L174.12 256.763C173.81 256.851 173.508 256.967 173.217 257.11C173.534 257.064 173.848 256.992 174.155 256.893L176.678 256.143C178.805 255.524 181.736 254.656 184.971 253.664C186.585 253.162 188.118 252.642 189.481 252.084C190.695 251.593 191.873 251.009 193.007 250.336C193.768 249.878 194.497 249.36 195.186 248.787C195.442 248.59 195.682 248.37 195.903 248.13Z" fill="#263238"/>
<path d="M196.567 248.384C196.084 248.158 195.571 248.012 195.046 247.95C193.77 247.699 192.451 247.872 191.27 248.446C190.632 248.802 190.084 249.316 189.674 249.946C189.336 250.443 189.052 250.979 188.829 251.545C188.595 252.047 188.428 252.581 188.333 253.132C188.597 252.653 188.831 252.156 189.032 251.644C189.518 250.434 190.361 249.425 191.433 248.768C192.561 248.229 193.809 248.038 195.035 248.217C195.967 248.297 196.556 248.434 196.567 248.384Z" fill="#263238"/>
<path d="M228.392 209.978C228.392 209.978 233.782 212.023 233.8 218.45C233.846 230.752 210.419 244.319 210.419 244.319L179.242 222.355L177.29 221.512C177.29 221.512 219.394 204.704 228.392 209.978Z" fill="#263238"/>
<path d="M195.035 233.448C195.322 233.279 195.595 233.084 195.851 232.866C196.358 232.469 197.086 231.886 197.978 231.149C199.767 229.686 202.191 227.604 204.808 225.218C207.424 222.832 209.72 220.594 211.352 218.94C212.168 218.115 212.82 217.434 213.269 216.957C213.511 216.724 213.734 216.469 213.934 216.194C213.665 216.394 213.414 216.618 213.182 216.864L211.2 218.766C209.528 220.371 207.209 222.584 204.598 224.964C201.987 227.344 199.586 229.451 197.844 230.963L195.775 232.76C195.511 232.968 195.264 233.198 195.035 233.448Z" fill="#455A64"/>
<path d="M219.592 214.577C217.553 214.347 215.512 214.987 213.916 216.355C213.968 216.448 215.081 215.674 216.678 215.19C218.275 214.707 219.592 214.682 219.592 214.577Z" fill="#455A64"/>
<path d="M216.906 212.637C216.184 212.962 215.55 213.472 215.058 214.121C214.566 214.769 214.232 215.537 214.085 216.355C214.178 216.355 214.516 215.358 215.303 214.335C216.09 213.312 216.958 212.724 216.906 212.637Z" fill="#455A64"/>
<path d="M230.105 251.607C230.105 251.57 229.732 251.489 229.301 251.867C228.793 252.371 228.474 253.054 228.403 253.788C228.301 254.511 228.398 255.249 228.683 255.914C228.904 256.416 229.149 256.652 229.178 256.627C229.101 256.351 229.006 256.082 228.893 255.821C228.689 255.184 228.629 254.505 228.718 253.838C228.787 253.174 229.043 252.548 229.452 252.041C229.784 251.675 230.111 251.663 230.105 251.607Z" fill="#263238"/>
<path d="M221.218 189.867L210.116 219.801L162.313 220.632L161.428 217.88L178.182 217.235L186.235 190.679L221.218 189.867Z" fill="#455A64"/>
<path d="M198.893 202.845C199.26 202.649 199.672 202.57 200.081 202.617C200.489 202.664 200.876 202.836 201.195 203.111C201.465 203.382 201.653 203.733 201.733 204.119C201.813 204.505 201.782 204.907 201.643 205.274C201.494 205.64 201.25 205.954 200.942 206.181C200.633 206.408 200.27 206.538 199.895 206.557C199.5 206.584 199.108 206.473 198.778 206.242C198.448 206.01 198.198 205.671 198.065 205.274C197.94 204.831 197.951 204.357 198.096 203.92C198.24 203.484 198.511 203.107 198.869 202.845" fill="#EBEBEB"/>
<path d="M213.368 245.818C213.368 245.818 169.324 215.091 167.529 214.453C165.734 213.814 161.363 210.778 157.01 212.054C152.657 213.331 148.741 217.49 146.789 223.563C145.67 227.034 145.145 232.952 144.895 237.396C144.561 242.71 146.18 247.954 149.411 252.022C150.842 253.921 152.744 255.357 154.901 256.168C155.361 256.323 155.839 256.453 156.328 256.565C164.656 258.486 173.228 254.507 177.89 246.934L178.916 245.273C178.916 245.273 207.733 256.528 208.182 256.373L213.368 245.818Z" fill="#263238"/>
<path d="M158.881 237.359C158.959 237.4 159.038 237.438 159.12 237.47L159.842 237.774L162.634 238.921L173.013 243.079C177.418 244.827 182.698 246.909 188.625 249.202C194.551 251.495 201.113 254.005 208.129 256.528L208.252 256.577L208.316 256.447L211.76 249.456L213.508 245.893L213.572 245.756L213.45 245.676L179.854 222.993L169.761 216.225L167.022 214.403L166.305 213.938C166.142 213.833 166.055 213.79 166.055 213.79L166.288 213.969L166.987 214.459L169.697 216.318L179.767 223.191L213.31 245.961L213.252 245.738C212.698 246.872 212.086 248.08 211.503 249.301L208.065 256.292L208.257 256.212C201.264 253.695 194.679 251.192 188.747 248.917L173.112 242.868L162.675 238.79L159.866 237.7L159.131 237.427L158.881 237.359Z" fill="#455A64"/>
<path d="M163.45 128.251C164.201 126.088 165.862 125.153 167.966 124.613C169.024 124.351 170.126 124.365 171.178 124.653C172.23 124.941 173.201 125.495 174.009 126.268C175.076 127.303 175.856 128.747 177.173 129.367C179.347 130.414 182.127 128.883 184.167 130.166C184.779 130.55 185.248 131.148 185.493 131.858C185.738 132.568 185.745 133.346 185.511 134.06C185.278 134.775 184.819 135.381 184.212 135.776C183.606 136.171 182.89 136.331 182.185 136.228C183.601 136.934 183.863 139.202 182.89 140.504C181.917 141.805 180.116 142.159 178.607 141.706C177.119 141.161 175.8 140.195 174.79 138.911C173.729 137.672 172.797 136.339 171.643 135.193C170.536 133.996 169.066 133.254 167.494 133.098C165.379 133.011 163.415 134.529 162.313 136.444C161.212 138.359 160.786 140.634 160.478 142.865C160.169 145.096 159.936 147.365 159.126 149.447C159.032 149.695 158.893 149.961 158.654 150.017C158.298 150.098 158.042 149.682 157.902 149.329C156.307 145.349 155.464 141.074 155.419 136.748C155.39 134.269 155.658 131.895 157.121 129.931C158.584 127.966 161.958 126.745 163.432 128.22" fill="#263238"/>
<path d="M158.485 138.248L155.244 163.274C155.115 164.284 155.179 165.312 155.435 166.295C155.691 167.279 156.132 168.196 156.731 168.992C157.331 169.788 158.077 170.446 158.923 170.926C159.77 171.406 160.699 171.697 161.655 171.783C163.464 171.95 165.265 171.371 166.684 170.165C168.103 168.96 169.031 167.22 169.277 165.306C169.516 163.447 169.72 161.854 169.761 161.662C169.761 161.662 175.827 161.941 177.074 155.7C177.657 152.682 178.444 146.36 179.079 140.634C179.399 137.671 178.661 134.687 177.009 132.276C175.357 129.865 172.914 128.203 170.163 127.619L169.58 127.501C163.374 126.559 159.178 131.641 158.485 138.248Z" fill="#FFBE9D"/>
<path d="M169.755 161.575C167.027 161.043 164.51 159.66 162.523 157.603C162.523 157.603 163.49 162.486 169.464 163.181L169.755 161.575Z" fill="#EB996E"/>
<path d="M176.544 144.464C176.503 144.697 176.377 144.904 176.194 145.04C176.011 145.175 175.785 145.229 175.565 145.189C175.457 145.176 175.352 145.14 175.257 145.083C175.162 145.026 175.079 144.949 175.012 144.857C174.946 144.765 174.898 144.66 174.871 144.548C174.843 144.435 174.838 144.318 174.854 144.204C174.894 143.969 175.019 143.761 175.202 143.624C175.386 143.487 175.612 143.433 175.833 143.472C175.942 143.486 176.047 143.523 176.142 143.58C176.237 143.638 176.32 143.715 176.386 143.808C176.453 143.9 176.501 144.006 176.528 144.119C176.555 144.232 176.561 144.349 176.544 144.464Z" fill="#263238"/>
<path d="M177.208 143.435C177.08 143.534 176.538 142.896 175.635 142.704C174.732 142.512 173.974 142.859 173.887 142.704C173.799 142.549 173.997 142.456 174.33 142.295C174.772 142.085 175.266 142.031 175.74 142.14C176.21 142.236 176.639 142.49 176.964 142.865C177.214 143.163 177.267 143.398 177.208 143.435Z" fill="#263238"/>
<path d="M167.616 142.902C167.577 143.137 167.451 143.345 167.268 143.482C167.085 143.619 166.858 143.673 166.637 143.634C166.529 143.619 166.424 143.582 166.329 143.524C166.234 143.466 166.151 143.389 166.085 143.297C166.018 143.205 165.969 143.099 165.941 142.987C165.913 142.874 165.906 142.757 165.921 142.642C165.965 142.41 166.091 142.205 166.273 142.068C166.455 141.932 166.679 141.876 166.9 141.911C167.008 141.924 167.114 141.961 167.209 142.019C167.304 142.076 167.388 142.154 167.454 142.246C167.521 142.338 167.57 142.444 167.598 142.557C167.626 142.669 167.632 142.787 167.616 142.902Z" fill="#263238"/>
<path d="M168.287 141.731C168.158 141.824 167.616 141.186 166.713 140.993C165.81 140.801 165.052 141.148 164.965 140.993C164.877 140.839 165.076 140.746 165.408 140.584C165.851 140.378 166.344 140.324 166.818 140.43C167.288 140.531 167.718 140.784 168.048 141.155C168.292 141.489 168.345 141.688 168.287 141.731Z" fill="#263238"/>
<path d="M170.227 149.546C170.733 149.486 171.245 149.496 171.748 149.577C171.987 149.577 172.214 149.577 172.284 149.434C172.358 149.189 172.358 148.924 172.284 148.678C172.179 148.059 172.069 147.364 171.952 146.658C171.503 143.795 171.229 141.464 171.334 141.446C171.439 141.427 171.917 143.733 172.343 146.596C172.447 147.302 172.552 147.972 172.646 148.616C172.737 148.944 172.714 149.296 172.581 149.608C172.532 149.686 172.466 149.752 172.39 149.799C172.313 149.846 172.227 149.874 172.139 149.881C172.005 149.901 171.87 149.901 171.736 149.881C171.222 149.836 170.715 149.724 170.227 149.546Z" fill="#263238"/>
<path d="M167.442 149.658C167.593 149.658 167.395 150.724 168.094 151.641C168.794 152.558 169.842 152.67 169.842 152.818C169.842 152.967 169.574 152.967 169.132 152.887C168.554 152.773 168.033 152.449 167.657 151.969C167.301 151.505 167.128 150.912 167.173 150.315C167.22 149.868 167.377 149.633 167.442 149.658Z" fill="#263238"/>
<path d="M169.225 138.006C169.091 138.254 168.211 137.938 167.121 137.845C166.031 137.752 165.122 137.882 165.023 137.616C164.982 137.492 165.18 137.281 165.571 137.101C166.089 136.884 166.648 136.799 167.203 136.853C167.761 136.899 168.3 137.086 168.776 137.399C169.131 137.647 169.277 137.895 169.225 138.006Z" fill="#263238"/>
<path d="M177.395 140.584C177.197 140.77 176.62 140.411 175.868 140.237C175.116 140.064 174.458 140.095 174.359 139.834C174.312 139.711 174.452 139.512 174.773 139.363C175.19 139.189 175.648 139.156 176.084 139.271C176.523 139.369 176.921 139.614 177.22 139.971C177.436 140.25 177.488 140.491 177.395 140.584Z" fill="#263238"/>
<path d="M158.094 142.983C158.001 142.915 154.289 140.851 153.613 145.158C152.937 149.465 157.144 149.298 157.168 149.174C157.191 149.05 158.094 142.983 158.094 142.983Z" fill="#FFBE9D"/>
<path d="M156.189 147.321C156.189 147.321 156.113 147.365 155.985 147.402C155.805 147.447 155.615 147.419 155.454 147.321C155.218 147.1 155.043 146.815 154.946 146.496C154.85 146.178 154.836 145.838 154.906 145.511C154.953 145.139 155.079 144.783 155.274 144.47C155.329 144.342 155.412 144.229 155.516 144.142C155.621 144.055 155.743 143.995 155.874 143.968C155.959 143.961 156.044 143.985 156.114 144.037C156.185 144.089 156.236 144.166 156.258 144.253C156.293 144.377 156.258 144.464 156.258 144.47C156.258 144.476 156.358 144.414 156.352 144.235C156.346 144.124 156.304 144.02 156.235 143.937C156.188 143.882 156.13 143.837 156.066 143.806C156.002 143.775 155.933 143.759 155.862 143.758C155.691 143.763 155.524 143.815 155.377 143.908C155.23 144.001 155.108 144.133 155.023 144.291C154.791 144.634 154.642 145.031 154.586 145.449C154.475 146.323 154.767 147.21 155.326 147.488C155.43 147.542 155.543 147.569 155.658 147.569C155.773 147.569 155.887 147.542 155.99 147.488C156.165 147.426 156.2 147.334 156.189 147.321Z" fill="#EB996E"/>
<path d="M180.536 139.63C179.167 139.708 177.799 139.44 176.546 138.848C175.293 138.255 174.19 137.355 173.327 136.221C172.162 134.622 171.387 132.534 169.703 131.567C169.123 131.263 168.492 131.085 167.847 131.043C167.201 131 166.555 131.094 165.944 131.319C164.728 131.781 163.614 132.503 162.669 133.439C163.205 136.86 161.777 140.256 160.384 143.355C160.264 143.72 160.032 144.032 159.726 144.241C159.178 144.532 158.525 144.074 158.193 143.522C157.728 142.597 157.525 141.549 157.61 140.504C157.623 138.123 158.078 135.768 158.951 133.575C159.837 131.376 161.31 129.501 163.187 128.183C165.596 126.619 168.481 126.11 171.235 126.764C173.974 127.441 176.443 129.018 178.292 131.269C179.194 132.268 179.848 133.488 180.198 134.821" fill="#263238"/>
<path d="M17.4466 240.557C17.4721 240.466 17.5073 240.379 17.5515 240.296L17.8779 239.546C18.2797 238.577 18.6052 237.574 18.8511 236.547C19.4921 233.882 19.7135 229.81 18.7636 224.976C18.2526 222.339 17.579 219.741 16.7473 217.198C15.8907 214.44 14.9 211.515 14.09 208.348C13.1754 205.045 12.7334 201.615 12.7788 198.172C12.9012 194.571 13.9035 190.976 15.0049 187.4C16.1063 183.824 17.2427 180.317 17.5807 176.796C17.9626 173.409 17.324 169.981 15.7566 167.004C14.2939 164.141 12.4641 161.699 11.0946 159.164C9.81103 156.817 8.8643 154.279 8.28576 151.634C7.46028 147.8 7.40072 143.825 8.11093 139.965C8.37218 138.554 8.76254 137.173 9.27643 135.843C9.26276 135.938 9.24131 136.031 9.21233 136.122L8.97923 136.909C7.60809 141.669 7.46119 146.732 8.55382 151.572C9.13779 154.187 10.0865 156.694 11.3685 159.01C12.738 161.489 14.5795 163.968 16.0655 166.837C17.6571 169.872 18.3077 173.364 17.9245 176.815C17.5807 180.397 16.4326 183.924 15.3371 187.5C14.2415 191.076 13.245 194.627 13.1226 198.166C13.0719 201.574 13.5021 204.97 14.3988 208.243C15.1972 211.391 16.1821 214.316 17.0212 217.087C17.8459 219.644 18.5098 222.257 19.0084 224.908C19.935 229.779 19.6669 233.894 19.0084 236.565C18.7515 237.596 18.4042 238.598 17.9711 239.559C17.8196 239.869 17.6972 240.11 17.6098 240.296C17.5634 240.388 17.5088 240.476 17.4466 240.557Z" fill="#263238"/>
<path d="M12.9537 161.662C12.9537 161.662 10.1623 152.18 15.1681 146.627C15.2069 146.582 15.2566 146.55 15.3116 146.533C15.3667 146.517 15.4249 146.517 15.4799 146.534C15.5349 146.551 15.5844 146.583 15.623 146.628C15.6616 146.673 15.6877 146.728 15.6984 146.788C15.9665 148.356 16.2987 153.128 12.9537 161.662Z" fill="#9667E0"/>
<path d="M14.6261 149.788C14.6167 150.376 14.5523 150.961 14.4338 151.535C14.2531 152.775 14.0375 154.157 13.7986 155.719C13.5597 157.28 13.3557 158.7 13.175 159.902C13.1279 160.489 13.0284 161.07 12.8778 161.637C12.8307 161.048 12.8483 160.456 12.9303 159.871C13.0235 158.786 13.2042 157.299 13.4548 155.663C13.7053 154.027 13.9734 152.564 14.1949 151.492C14.2766 150.908 14.4213 150.336 14.6261 149.788Z" fill="#263238"/>
<path d="M16.2287 184.035C16.2287 184.035 17.9362 174.262 24.801 171.857C24.8551 171.837 24.9134 171.833 24.9693 171.846C25.0253 171.86 25.0767 171.889 25.1178 171.931C25.159 171.974 25.1882 172.028 25.2022 172.087C25.2162 172.146 25.2145 172.208 25.1973 172.266C24.7544 173.766 22.942 178.154 16.2287 184.035Z" fill="#9667E0"/>
<path d="M22.9305 174.367C22.6639 174.882 22.3496 175.368 21.9922 175.817C21.3046 176.796 20.4887 177.937 19.5913 179.201L17.1787 182.591C16.8775 183.084 16.5342 183.547 16.153 183.973C16.3697 183.429 16.6455 182.913 16.9747 182.436C17.5575 181.525 18.3442 180.298 19.3057 178.978C20.2673 177.658 21.1356 176.499 21.7941 175.656C22.1249 175.181 22.5062 174.749 22.9305 174.367Z" fill="#263238"/>
<path d="M14.3755 208.546C14.3755 208.546 13.3382 198.667 19.2473 194.23C19.2939 194.194 19.3488 194.173 19.4061 194.169C19.4633 194.164 19.5205 194.177 19.5714 194.205C19.6222 194.234 19.6646 194.277 19.6938 194.329C19.7231 194.382 19.738 194.442 19.7368 194.503C19.7194 196.089 19.1891 200.843 14.3755 208.546Z" fill="#9667E0"/>
<path d="M18.1459 197.223C18.0351 197.801 17.8671 198.364 17.6447 198.903C17.2484 200.05 16.7881 201.382 16.2694 202.882L14.9116 206.861C14.7672 207.427 14.572 207.977 14.3289 208.503C14.3905 207.916 14.5137 207.338 14.696 206.78C14.9815 205.733 15.4244 204.301 15.9664 202.752C16.5084 201.202 17.0387 199.808 17.4408 198.81C17.6186 198.255 17.8551 197.722 18.1459 197.223Z" fill="#263238"/>
<path d="M19.5446 233.212C19.5446 233.212 18.8395 223.296 24.8943 219.095C24.9416 219.06 24.9971 219.04 25.0545 219.037C25.1118 219.034 25.1689 219.048 25.2191 219.078C25.2694 219.107 25.3109 219.151 25.3389 219.205C25.367 219.258 25.3805 219.319 25.378 219.38C25.3022 220.96 24.6146 225.689 19.5446 233.212Z" fill="#9667E0"/>
<path d="M23.6939 222.057C23.5541 222.631 23.3588 223.187 23.1112 223.718C22.6741 224.846 22.1671 226.197 21.6018 227.635L20.1042 231.564C19.9515 232.111 19.7525 232.642 19.5098 233.151C19.5881 232.567 19.7309 231.995 19.9352 231.446C20.2499 230.411 20.7452 229.004 21.3396 227.474C21.934 225.943 22.5051 224.567 22.9422 223.588C23.1391 223.05 23.3912 222.536 23.6939 222.057Z" fill="#263238"/>
<path d="M8.94439 153.333C8.94439 153.333 0.663473 148.734 0.500302 141.043C0.497762 140.982 0.511281 140.921 0.539341 140.868C0.5674 140.815 0.608888 140.771 0.65914 140.741C0.709391 140.711 0.766415 140.697 0.823801 140.7C0.881187 140.703 0.936661 140.723 0.983986 140.758C2.21359 141.663 5.6227 144.78 8.94439 153.333Z" fill="#9667E0"/>
<path d="M2.21939 143.683C2.60647 144.103 2.9521 144.564 3.25086 145.059L5.58187 148.492L7.91288 151.92C8.26799 152.37 8.58397 152.853 8.85694 153.364C8.41874 152.99 8.02708 152.559 7.69144 152.081C7.03293 151.25 6.16463 150.06 5.25553 148.715C4.34644 147.371 3.55389 146.125 3.00028 145.208C2.68615 144.733 2.42415 144.221 2.21939 143.683Z" fill="#263238"/>
<path d="M17.8373 173.716C17.8373 173.716 9.31165 169.663 8.70559 161.997C8.70075 161.936 8.71164 161.876 8.73706 161.822C8.76247 161.768 8.80143 161.722 8.84963 161.69C8.89784 161.658 8.95342 161.641 9.01026 161.64C9.0671 161.64 9.123 161.656 9.17179 161.687C10.4538 162.486 14.0378 165.381 17.8373 173.716Z" fill="#9667E0"/>
<path d="M10.5759 164.507C10.9851 164.902 11.356 165.34 11.6832 165.814L14.2123 169.093L16.7473 172.359C17.1256 172.776 17.4652 173.23 17.7613 173.716C17.3169 173.352 16.9123 172.937 16.555 172.477C15.8498 171.683 14.9174 170.556 13.9326 169.273C12.9477 167.99 12.0853 166.794 11.485 165.92C11.1327 165.487 10.8278 165.013 10.5759 164.507Z" fill="#263238"/>
<path d="M12.9306 196.424C12.9306 196.424 7.07389 188.677 9.82448 181.55C9.8454 181.494 9.88055 181.444 9.92605 181.408C9.97155 181.372 10.0256 181.349 10.0823 181.344C10.139 181.338 10.1961 181.349 10.2472 181.375C10.2984 181.402 10.3417 181.443 10.3723 181.494C11.159 182.864 13.0995 187.171 12.9306 196.424Z" fill="#9667E0"/>
<path d="M10.4013 184.717C10.5973 185.266 10.7398 185.835 10.8267 186.415C11.0714 187.611 11.357 189.012 11.6775 190.561C11.998 192.11 12.2603 193.505 12.5341 194.695C12.69 195.26 12.7973 195.838 12.8547 196.424C12.5959 195.898 12.4001 195.34 12.2719 194.763C11.9805 193.716 11.6367 192.284 11.3104 190.635C10.984 188.987 10.7276 187.537 10.5644 186.471C10.4499 185.894 10.3952 185.306 10.4013 184.717Z" fill="#263238"/>
<path d="M18.7346 223.16C18.7346 223.16 10.2672 218.958 9.78939 211.273C9.78571 211.214 9.79745 211.154 9.82334 211.101C9.84922 211.048 9.88827 211.003 9.93627 210.972C9.98426 210.94 10.0394 210.924 10.0956 210.923C10.1519 210.923 10.2072 210.939 10.2556 210.97C11.526 211.819 15.0633 214.775 18.7346 223.16Z" fill="#9667E0"/>
<path d="M11.6135 213.833C12.0181 214.234 12.3832 214.679 12.7032 215.159C13.4142 216.12 14.2533 217.241 15.1799 218.481L17.6624 221.797C18.0357 222.23 18.3712 222.699 18.6648 223.197C18.2312 222.835 17.8399 222.419 17.4993 221.958C16.8116 221.158 15.8967 220.012 14.9352 218.71C13.9736 217.409 13.0995 216.207 12.5167 215.32C12.1664 214.86 11.8636 214.362 11.6135 213.833Z" fill="#263238"/>
<path d="M35.5936 184.085C35.6017 184.159 35.6017 184.234 35.5936 184.308C35.5936 184.481 35.5936 184.686 35.5936 184.928C35.5936 185.547 35.5353 186.334 35.4945 187.338C35.3838 189.458 35.2323 192.408 35.0516 195.947C34.4689 199.541 32.7206 203.526 30.3896 207.394C28.6938 210.244 26.8931 212.841 25.3837 215.252C23.9884 217.357 22.7324 219.562 21.625 221.852C20.9009 223.406 20.3156 225.029 19.8767 226.699C19.7252 227.288 19.6145 227.753 19.5504 228.069C19.5247 228.232 19.4837 228.391 19.428 228.546C19.4299 228.381 19.4475 228.217 19.4805 228.056C19.5212 227.734 19.6145 227.263 19.7427 226.662C20.1382 224.953 20.6966 223.292 21.4094 221.704C22.4925 219.386 23.7332 217.155 25.1215 215.029C26.6425 212.6 28.4141 210.003 30.104 207.171C32.435 203.316 34.1134 199.393 34.7661 195.854C34.9992 192.327 35.1915 189.377 35.3488 187.258C35.4246 186.254 35.4887 185.448 35.5295 184.853C35.5295 184.605 35.5761 184.395 35.5936 184.233C35.5886 184.184 35.5886 184.134 35.5936 184.085Z" fill="#263238"/>
<path d="M30.5819 206.687C30.5819 206.687 34.1658 197.509 29.6553 191.497C29.6203 191.449 29.5734 191.412 29.5199 191.39C29.4663 191.369 29.4082 191.363 29.352 191.375C29.2957 191.386 29.2436 191.414 29.2015 191.456C29.1594 191.497 29.1288 191.55 29.1133 191.608C28.6879 193.145 27.9478 197.887 30.5819 206.687Z" fill="#9667E0"/>
<path d="M29.9002 194.701C30.0547 195.267 30.1505 195.849 30.1857 196.436C30.3139 197.515 30.4538 199.008 30.5645 200.663C30.6752 202.318 30.7277 203.818 30.7277 204.902C30.7636 205.491 30.7303 206.082 30.6286 206.662C30.5273 206.086 30.4786 205.501 30.4829 204.915C30.4072 203.675 30.3139 202.268 30.2149 200.688C30.1158 199.108 30.0167 197.676 29.941 196.461C29.873 195.877 29.8594 195.288 29.9002 194.701Z" fill="#263238"/>
<g opacity="0.3">
<path d="M30.5819 206.687C30.5819 206.687 34.1658 197.509 29.6553 191.497C29.6203 191.449 29.5734 191.412 29.5199 191.39C29.4663 191.369 29.4082 191.363 29.352 191.375C29.2957 191.386 29.2436 191.414 29.2015 191.456C29.1594 191.497 29.1288 191.55 29.1133 191.608C28.6879 193.145 27.9478 197.887 30.5819 206.687Z" fill="black"/>
</g>
<path d="M19.4515 228.8C19.4515 228.8 22.3245 219.349 17.3711 213.746C17.3327 213.701 17.2835 213.669 17.2288 213.652C17.1742 213.635 17.1162 213.635 17.0614 213.651C17.0065 213.667 16.9569 213.699 16.918 213.743C16.8791 213.787 16.8523 213.842 16.8408 213.901C16.5552 215.463 16.1823 220.229 19.4515 228.8Z" fill="#9667E0"/>
<path d="M17.8839 216.907C18.0819 217.459 18.2207 218.032 18.2976 218.617C18.5074 219.677 18.7638 221.152 19.0027 222.794C19.2417 224.437 19.4048 225.924 19.4864 227.009C19.5656 227.594 19.5773 228.187 19.5214 228.775C19.3795 228.207 19.2858 227.626 19.2417 227.04C19.0727 225.8 18.8745 224.418 18.6589 222.85C18.4433 221.282 18.2335 219.869 18.0762 218.661C17.958 218.084 17.8936 217.497 17.8839 216.907Z" fill="#263238"/>
<g opacity="0.3">
<path d="M19.4515 228.8C19.4515 228.8 22.3245 219.349 17.3711 213.746C17.3327 213.701 17.2835 213.669 17.2288 213.652C17.1742 213.635 17.1162 213.635 17.0614 213.651C17.0065 213.667 16.9569 213.699 16.918 213.743C16.8791 213.787 16.8523 213.842 16.8408 213.901C16.5552 215.463 16.1823 220.229 19.4515 228.8Z" fill="black"/>
</g>
<path d="M35.1158 195.476C35.1158 195.476 42.7732 189.774 41.9982 182.126C41.9932 182.066 41.9724 182.008 41.9382 181.959C41.9041 181.91 41.8578 181.872 41.8046 181.85C41.7514 181.827 41.6934 181.821 41.637 181.831C41.5806 181.842 41.5281 181.869 41.4853 181.909C40.3781 183.013 37.3711 186.539 35.1158 195.476Z" fill="#9667E0"/>
<g opacity="0.3">
<path d="M35.1158 195.476C35.1158 195.476 42.7732 189.774 41.9982 182.126C41.9932 182.066 41.9724 182.008 41.9382 181.959C41.9041 181.91 41.8578 181.872 41.8046 181.85C41.7514 181.827 41.6934 181.821 41.637 181.831C41.5806 181.842 41.5281 181.869 41.4853 181.909C40.3781 183.013 37.3711 186.539 35.1158 195.476Z" fill="black"/>
</g>
<path d="M40.617 184.983C40.4624 185.548 40.2493 186.092 39.9818 186.607C39.5448 187.592 38.9096 188.931 38.1695 190.394C37.4294 191.856 36.7184 193.152 36.1648 194.069C35.9001 194.587 35.573 195.066 35.1916 195.494C35.4018 194.951 35.6573 194.428 35.955 193.933L37.8606 190.214L39.7604 186.495C39.9962 185.961 40.2833 185.455 40.617 184.983Z" fill="#263238"/>
<path d="M22.5342 219.429C22.5342 219.429 31.7475 217.898 34.2417 210.672C34.2623 210.615 34.2676 210.553 34.2569 210.493C34.2463 210.433 34.2201 210.378 34.1814 210.333C34.1426 210.287 34.0929 210.255 34.0376 210.238C33.9824 210.222 33.9239 210.222 33.8687 210.238C32.4293 210.672 28.251 212.463 22.5342 219.429Z" fill="#9667E0"/>
<g opacity="0.3">
<path d="M22.5342 219.429C22.5342 219.429 31.7475 217.898 34.2417 210.672C34.2623 210.615 34.2676 210.553 34.2569 210.493C34.2463 210.433 34.2201 210.378 34.1814 210.333C34.1426 210.287 34.0929 210.255 34.0376 210.238C33.9824 210.222 33.9239 210.222 33.8687 210.238C32.4293 210.672 28.251 212.463 22.5342 219.429Z" fill="black"/>
</g>
<path d="M31.8173 212.587C31.4451 213.019 31.0309 213.407 30.5819 213.746C29.7835 214.428 28.6588 215.333 27.3884 216.293C26.118 217.254 24.9408 218.091 24.0725 218.661C23.616 218.997 23.1229 219.274 22.604 219.485C23.0161 219.094 23.4608 218.743 23.9326 218.438L27.1902 215.996L30.4362 213.517C30.865 213.157 31.3279 212.845 31.8173 212.587Z" fill="#263238"/>
<path d="M13.7287 237.501L11.0364 256.776H27.8197L25.6402 237.501H13.7287Z" fill="#455A64"/>
<path d="M26.3162 243.469C26.3162 243.575 23.2858 243.655 19.5446 243.655C15.8033 243.655 12.7788 243.575 12.7788 243.469C15.0297 243.286 17.2878 243.224 19.5446 243.283C21.8033 243.224 24.0634 243.286 26.3162 243.469Z" fill="#263238"/>
<path d="M26.6485 244.988C26.6485 245.087 23.5191 245.174 19.6554 245.174C15.7918 245.174 12.6624 245.087 12.6624 244.988C12.6624 244.889 15.7918 244.802 19.6554 244.802C23.5191 244.802 26.6485 244.901 26.6485 244.988Z" fill="#263238"/>
</svg>
