<svg width="241" height="240" viewBox="0 0 241 240" fill="none" xmlns="http://www.w3.org/2000/svg">
<path d="M230.49 7.00591V50.3213H168.277L166.036 7.30553L230.49 7.00591Z" fill="#E0E0E0"/>
<path d="M166.036 7.30561V50.2304L228.248 50.2304V7.30561L166.036 7.30561Z" fill="white"/>
<path d="M228.548 50.5247H165.741V7.01138H228.548V50.5247ZM166.33 49.9362H227.954V7.5999H166.33V49.9362Z" fill="#E0E0E0"/>
<path d="M221.512 12.6399H172.777V44.8963H221.512V12.6399Z" fill="white"/>
<path d="M221.512 12.6398H221.271H220.581H217.906L207.864 12.6772L172.782 12.7468L172.921 12.6077C172.921 22.4628 172.921 33.3826 172.921 44.8588L172.772 44.7036L221.507 44.7357L221.384 44.8588C221.41 35.0411 221.432 26.9944 221.448 21.3874C221.448 18.5892 221.475 16.401 221.48 14.8976C221.48 14.1592 221.48 13.5921 221.48 13.1962C221.48 12.8056 221.48 12.6023 221.48 12.6023C221.48 12.6023 221.48 12.7896 221.48 13.1695C221.48 13.5493 221.48 14.1218 221.48 14.8494C221.48 16.3475 221.48 18.525 221.512 21.3125C221.512 26.9356 221.55 35.009 221.576 44.8534V44.9765H221.453L172.718 45.0086H172.563V44.8534C172.563 33.3772 172.563 22.4574 172.563 12.6023V12.4632H172.707L207.981 12.5702L217.992 12.6077H220.64H221.314L221.512 12.6398Z" fill="#E0E0E0"/>
<path d="M166.036 7.18782C166.419 7.37284 166.779 7.60467 167.106 7.878C167.742 8.33811 168.609 8.99084 169.545 9.73987C170.482 10.4889 171.306 11.1951 171.883 11.7302C172.219 11.9937 172.519 12.2994 172.777 12.6397C171.591 11.806 170.449 10.9132 169.353 9.96458C168.191 9.1081 167.083 8.18075 166.036 7.18782Z" fill="#E0E0E0"/>
<path d="M228.253 7.30566C227.229 8.31032 226.134 9.24177 224.979 10.0931C223.884 11.022 222.726 11.873 221.512 12.6398C222.536 11.6337 223.63 10.7022 224.786 9.85236C225.881 8.92345 227.04 8.07246 228.253 7.30566Z" fill="#E0E0E0"/>
<path d="M228.2 50.2357L221.245 44.6126L228.2 50.2357Z" fill="white"/>
<path d="M221.266 44.6126C222.513 45.423 223.703 46.3168 224.829 47.2877C226.019 48.1866 227.145 49.1662 228.2 50.2196C226.953 49.4092 225.763 48.5155 224.637 47.5445C223.447 46.6457 222.321 45.6661 221.266 44.6126Z" fill="#E0E0E0"/>
<path d="M166.036 50.2305C167.049 49.234 168.133 48.3114 169.278 47.4698C170.358 46.5486 171.504 45.7082 172.707 44.9552C171.694 45.9506 170.611 46.8714 169.465 47.7106C168.384 48.6323 167.238 49.4745 166.036 50.2305Z" fill="#E0E0E0"/>
<path d="M182.669 22.6875V33.4896H213.337V22.6875H182.669Z" fill="#E0E0E0"/>
<path d="M185.339 239.147H240.5L240.5 79.0415H185.339L185.339 239.147Z" fill="#E0E0E0"/>
<path d="M155.731 239.147H216.124L216.124 79.0415H155.731L155.731 239.147Z" fill="#F5F5F5"/>
<path d="M192.808 201.786H176.672C176.367 201.786 176.074 201.665 175.858 201.449C175.643 201.233 175.522 200.941 175.522 200.636V199.678H193.958V200.636C193.958 200.941 193.837 201.233 193.622 201.449C193.406 201.665 193.113 201.786 192.808 201.786Z" fill="#E0E0E0"/>
<path d="M158.401 199.678C158.401 199.678 158.401 199.871 158.401 200.256C158.401 200.641 158.401 201.224 158.401 201.973C158.401 203.498 158.401 205.718 158.369 208.581C158.369 214.332 158.331 222.604 158.305 232.732V232.855H158.428L212.246 232.887H212.427V232.732C212.427 221.036 212.427 209.881 212.427 199.726V199.587H212.262L173.43 199.619L162.349 199.646H159.412H158.658H158.412H158.679H159.444H162.408L173.526 199.694L212.262 199.801L212.117 199.657C212.117 209.822 212.117 220.966 212.117 232.662L212.272 232.512H212.24L158.422 232.544L158.54 232.662C158.513 222.566 158.492 214.316 158.476 208.586C158.476 205.718 158.476 203.482 158.449 201.952C158.449 201.192 158.449 200.614 158.449 200.213C158.449 199.812 158.401 199.678 158.401 199.678Z" fill="#E0E0E0"/>
<path d="M176.249 212.085H192.273V207.757H176.249V212.085Z" fill="#E0E0E0"/>
<path d="M193.541 163.265H177.41C177.105 163.265 176.813 163.143 176.597 162.928C176.381 162.712 176.26 162.419 176.26 162.114V161.157H194.692V162.114C194.692 162.419 194.57 162.712 194.355 162.928C194.139 163.143 193.846 163.265 193.541 163.265Z" fill="#E0E0E0"/>
<path d="M158.551 161.151C158.551 161.151 158.551 161.344 158.551 161.729C158.551 162.114 158.551 162.703 158.551 163.446C158.551 164.971 158.551 167.191 158.519 170.054C158.519 175.805 158.481 184.077 158.454 194.21V194.328H158.578L212.395 194.36H212.577V194.21C212.577 182.509 212.577 171.354 212.577 161.204V161.06H212.438L173.606 161.092L162.526 161.124H159.589H158.834H158.588H158.856H159.621H162.585L173.703 161.178L212.438 161.279L212.294 161.14C212.294 171.306 212.294 182.445 212.294 194.146L212.449 193.991H212.417L158.599 194.023L158.717 194.146C158.69 184.045 158.668 175.8 158.652 170.07C158.652 167.202 158.652 164.966 158.652 163.436C158.652 162.681 158.652 162.098 158.652 161.697C158.652 161.295 158.551 161.151 158.551 161.151Z" fill="#E0E0E0"/>
<path d="M177.458 173.302H193.482V168.973H177.458V173.302Z" fill="#E0E0E0"/>
<path d="M192.84 85.5204H176.704C176.399 85.5204 176.106 85.3992 175.891 85.1835C175.675 84.9678 175.554 84.6752 175.554 84.3701V83.4125H193.991V84.3701C193.991 84.5212 193.961 84.6708 193.903 84.8103C193.845 84.9499 193.76 85.0767 193.654 85.1835C193.547 85.2903 193.42 85.3751 193.28 85.4329C193.141 85.4907 192.991 85.5204 192.84 85.5204Z" fill="#E0E0E0"/>
<path d="M158.428 83.4071C158.428 83.4071 158.428 83.5997 158.428 83.985C158.428 84.3702 158.428 84.9587 158.428 85.7024C158.428 87.2272 158.428 89.4475 158.401 92.3099C158.401 98.0614 158.363 106.333 158.337 116.466V116.584H158.454L212.278 116.621H212.459V116.466C212.459 104.765 212.459 93.61 212.459 83.4606V83.3162H212.262L173.435 83.3483L162.349 83.3804H159.412H158.663H158.412C158.501 83.3851 158.59 83.3851 158.679 83.3804H159.444H162.414L173.526 83.4285L212.262 83.5302L212.117 83.3911C212.117 93.5565 212.117 104.696 212.117 116.397L212.272 116.241L158.449 116.274L158.572 116.397C158.545 106.295 158.524 98.0507 158.508 92.3206C158.508 89.4529 158.481 87.2165 158.476 85.6863C158.476 84.932 158.476 84.3488 158.476 83.9475C158.476 83.5462 158.428 83.4071 158.428 83.4071Z" fill="#E0E0E0"/>
<path d="M177.046 94.7818H193.07V90.4534H177.046V94.7818Z" fill="#E0E0E0"/>
<path d="M192.84 124.379H176.704C176.399 124.379 176.106 124.258 175.891 124.042C175.675 123.826 175.554 123.534 175.554 123.229V122.239H193.991V123.197C193.995 123.35 193.968 123.503 193.912 123.647C193.856 123.79 193.772 123.921 193.665 124.031C193.558 124.141 193.43 124.229 193.288 124.289C193.146 124.348 192.994 124.379 192.84 124.379Z" fill="#E0E0E0"/>
<path d="M158.428 122.25C158.428 122.25 158.428 122.442 158.428 122.827C158.428 123.213 158.428 123.796 158.428 124.545C158.428 126.07 158.428 128.29 158.401 131.152C158.401 136.904 158.363 145.175 158.337 155.303V155.421H158.454L212.278 155.453H212.459V155.298C212.459 143.602 212.459 132.447 212.459 122.292V122.153H212.262L173.435 122.185H162.349H159.412H158.663H158.412H158.679H159.444H162.414L173.526 122.234L212.262 122.341L212.117 122.196C212.117 132.362 212.117 143.506 212.117 155.202L212.272 155.052L158.449 155.084L158.572 155.202C158.545 145.106 158.524 136.856 158.508 131.126C158.508 128.258 158.481 126.022 158.476 124.491C158.476 123.732 158.476 123.154 158.476 122.753C158.476 122.351 158.428 122.25 158.428 122.25Z" fill="#E0E0E0"/>
<path d="M177.046 133.63H193.07V129.301H177.046V133.63Z" fill="#E0E0E0"/>
<path d="M70.8178 5.92521H12.9873V57.6618H70.8178V5.92521Z" fill="#FAFAFA"/>
<path d="M70.8178 57.662C70.8178 57.662 70.8178 57.3302 70.8178 56.6989C70.8178 56.0676 70.8178 55.1367 70.8178 53.9275C70.8178 51.4985 70.8178 47.9513 70.7804 43.425C70.7804 34.3885 70.7429 21.4891 70.7162 5.92536L70.8446 6.05376H13.0194L13.1746 5.89861C13.1746 24.7207 13.1746 42.4299 13.1746 57.6352L13.0355 57.4961L54.8635 57.5657L66.6607 57.6031H69.7852H70.5878H70.866H70.6038H69.812H66.7196L54.9491 57.6352L13.0355 57.7048H12.9017V57.571C12.9017 42.3657 12.9017 24.6565 12.9017 5.8344V5.67925H13.0622H70.8874H71.0211V5.813C70.989 21.3928 70.9676 34.335 70.9516 43.3983C70.9516 47.9085 70.9248 51.4236 70.9195 53.8687C70.9195 55.0671 70.9195 56.0087 70.9195 56.6187C70.9195 57.2286 70.8178 57.662 70.8178 57.662Z" fill="#E0E0E0"/>
<path d="M35.1694 15.1169C35.1694 15.2025 32.1251 15.2721 28.3692 15.2721C24.6134 15.2721 21.5745 15.2025 21.5745 15.1169C21.5745 15.0313 24.6134 14.9618 28.3692 14.9618C32.1251 14.9618 35.1694 15.0313 35.1694 15.1169Z" fill="#E0E0E0"/>
<path d="M59.668 18.9904C59.668 19.0761 51.3056 19.1456 40.9904 19.1456C30.6752 19.1456 22.3289 19.0868 22.3289 18.9904C22.3289 18.8941 30.6912 18.8353 41.0065 18.8353C51.3217 18.8353 59.668 18.9155 59.668 18.9904Z" fill="#E0E0E0"/>
<path d="M24.0998 25.5819H21.6654V28.0162H24.0998V25.5819Z" fill="#E0E0E0"/>
<path d="M30.0973 25.5819H27.663V28.0162H30.0973V25.5819Z" fill="#E0E0E0"/>
<path d="M36.2074 25.4697H33.7731V27.9041H36.2074V25.4697Z" fill="#E0E0E0"/>
<path d="M42.0926 25.5819H39.6582V28.0162H42.0926V25.5819Z" fill="#E0E0E0"/>
<path d="M48.0901 25.5819H45.6558V28.0162H48.0901V25.5819Z" fill="#E0E0E0"/>
<path d="M54.0878 25.5819H51.6534V28.0162H54.0878V25.5819Z" fill="#E0E0E0"/>
<path d="M60.0854 25.5819H57.651V28.0162H60.0854V25.5819Z" fill="#EBEBEB"/>
<path d="M24.0998 30.7609H21.6654V33.1952H24.0998V30.7609Z" fill="#EBEBEB"/>
<path d="M30.0973 30.7609H27.663V33.1952H30.0973V30.7609Z" fill="#E0E0E0"/>
<path d="M36.095 30.7609H33.6606V33.1952H36.095V30.7609Z" fill="#EBEBEB"/>
<path d="M42.0926 30.7609H39.6582V33.1952H42.0926V30.7609Z" fill="#E0E0E0"/>
<path d="M48.0901 30.7609H45.6558V33.1952H48.0901V30.7609Z" fill="#E0E0E0"/>
<path d="M54.1948 30.6487H51.7605V33.0831H54.1948V30.6487Z" fill="#E0E0E0"/>
<path d="M60.0854 30.7609H57.651V33.1952H60.0854V30.7609Z" fill="#E0E0E0"/>
<path d="M24.0998 35.9401H21.6654V38.3744H24.0998V35.9401Z" fill="#E0E0E0"/>
<path d="M30.2097 35.8277H27.7754V38.262H30.2097V35.8277Z" fill="#E0E0E0"/>
<path d="M36.095 35.9401H33.6606V38.3744H36.095V35.9401Z" fill="#E0E0E0"/>
<path d="M42.0926 35.9401H39.6582V38.3744H42.0926V35.9401Z" fill="#EBEBEB"/>
<path d="M48.0901 35.9401H45.6558V38.3744H48.0901V35.9401Z" fill="#E0E0E0"/>
<path d="M54.0878 35.9401H51.6534V38.3744H54.0878V35.9401Z" fill="#E0E0E0"/>
<path d="M60.0854 35.9401H57.651V38.3744H60.0854V35.9401Z" fill="#E0E0E0"/>
<path d="M24.0998 41.1191H21.6654V43.5534H24.0998V41.1191Z" fill="#E0E0E0"/>
<path d="M30.0973 41.1191H27.663V43.5534H30.0973V41.1191Z" fill="#E0E0E0"/>
<path d="M36.095 41.1191H33.6606V43.5534H36.095V41.1191Z" fill="#E0E0E0"/>
<path d="M42.205 41.0119H39.7706V43.4463H42.205V41.0119Z" fill="#E0E0E0"/>
<path d="M48.0901 41.1191H45.6558V43.5534H48.0901V41.1191Z" fill="#E0E0E0"/>
<path d="M54.0878 41.1191H51.6534V43.5534H54.0878V41.1191Z" fill="#EBEBEB"/>
<path d="M60.0854 41.1191H57.651V43.5534H60.0854V41.1191Z" fill="#E0E0E0"/>
<path d="M24.0998 46.298H21.6654V48.7324H24.0998V46.298Z" fill="#E0E0E0"/>
<path d="M30.0973 46.298H27.663V48.7324H30.0973V46.298Z" fill="#EBEBEB"/>
<path d="M36.095 46.298H33.6606V48.7324H36.095V46.298Z" fill="#E0E0E0"/>
<path d="M42.0926 46.298H39.6582V48.7324H42.0926V46.298Z" fill="#E0E0E0"/>
<path d="M48.0901 46.298H45.6558V48.7324H48.0901V46.298Z" fill="#E0E0E0"/>
<path d="M54.1948 46.1909H51.7605V48.6253H54.1948V46.1909Z" fill="#E0E0E0"/>
<path d="M60.0854 46.298H57.651V48.7324H60.0854V46.298Z" fill="#E0E0E0"/>
<path d="M119.429 82.9582L99.4855 90.4664L104.547 103.911L124.49 96.4024L119.429 82.9582Z" fill="#EBEBEB"/>
<path d="M119.553 83.1074C119.524 83.1955 119.484 83.2799 119.435 83.3589L119.066 84.0544C118.724 84.6697 118.248 85.5364 117.664 86.5957C116.455 88.7358 114.797 91.6998 112.967 94.9688L112.929 95.0384H112.849L112.667 94.9795L103.422 91.946L100.624 91.0043L99.8696 90.7422C99.7787 90.7156 99.6909 90.6798 99.6074 90.6351C99.6998 90.6523 99.791 90.6755 99.8803 90.7047L100.651 90.9348L103.465 91.8175L112.748 94.7709L112.929 94.8297L112.812 94.8779C114.668 91.6196 116.338 88.677 117.563 86.5315L119.013 84.0169L119.419 83.3375C119.457 83.2569 119.502 83.1799 119.553 83.1074Z" fill="#E0E0E0"/>
<path d="M104.669 104.059C104.621 104.059 105.423 101.635 106.472 98.6819C107.52 95.7286 108.403 93.3317 108.451 93.3692C108.499 93.4066 107.697 95.7982 106.654 98.7194C105.61 101.641 104.722 104.059 104.669 104.059Z" fill="#E0E0E0"/>
<path d="M115.021 90.7102C115.048 90.662 117.22 91.9354 119.869 93.5458C122.517 95.1562 124.641 96.5044 124.614 96.5526C124.588 96.6007 122.415 95.3274 119.767 93.7116C117.119 92.0959 114.995 90.753 115.021 90.7102Z" fill="#E0E0E0"/>
<path d="M145.255 40.5251C145.765 40.216 146.314 39.9766 146.887 39.8135L147.224 38.2084L149.953 38.1603L150.349 39.7654C150.927 39.9066 151.483 40.1262 152.002 40.4181L153.382 39.5139L155.346 41.4079L154.49 42.8203C154.799 43.3207 155.038 43.8606 155.201 44.4254L156.807 44.7571L156.855 47.4911L155.25 47.8816C155.107 48.4603 154.889 49.0179 154.602 49.5402L155.506 50.9152L153.607 52.8787L152.2 52.0281C151.689 52.3334 151.14 52.5708 150.568 52.7343L150.231 54.3394L147.502 54.3875L147.107 52.7824C146.529 52.6388 145.973 52.4194 145.453 52.1297L144.073 53.0339L142.109 51.1346L142.966 49.7275C142.655 49.2183 142.416 48.6694 142.254 48.0956L140.649 47.7586L140.601 45.03L142.206 44.6341C142.347 44.0568 142.565 43.5009 142.853 42.9808L141.949 41.6005L143.848 39.637L145.255 40.493V40.5251ZM146.711 44.1579C146.307 44.5745 146.036 45.1015 145.932 45.6723C145.828 46.243 145.895 46.8318 146.126 47.3642C146.357 47.8965 146.74 48.3484 147.228 48.6627C147.715 48.977 148.285 49.1396 148.865 49.1299C149.445 49.1201 150.01 48.9385 150.486 48.608C150.963 48.2775 151.331 47.8129 151.544 47.2732C151.757 46.7334 151.804 46.1426 151.681 45.5757C151.558 45.0088 151.269 44.4912 150.852 44.0883C150.577 43.8194 150.251 43.6072 149.895 43.4641C149.538 43.3209 149.156 43.2495 148.771 43.254C148.387 43.2585 148.007 43.3387 147.653 43.4902C147.3 43.6416 146.979 43.8612 146.711 44.1365V44.1579Z" fill="#E0E0E0"/>
<path d="M146.711 44.1366C146.863 43.9507 147.043 43.79 147.246 43.6605C147.598 43.4318 147.995 43.2806 148.411 43.2171C148.826 43.1535 149.25 43.179 149.655 43.2918C150.06 43.4046 150.436 43.6022 150.758 43.8715C151.081 44.1407 151.343 44.4755 151.526 44.8536C151.791 45.3865 151.889 45.9866 151.809 46.5763C151.723 47.2115 151.439 47.8033 150.996 48.267C150.55 48.7269 149.969 49.0325 149.338 49.1391C149.04 49.1871 148.737 49.1871 148.439 49.1391C148.15 49.1031 147.869 49.0238 147.604 48.9037C147.116 48.6821 146.695 48.335 146.384 47.8978C146.118 47.5152 145.946 47.0753 145.881 46.6138C145.78 45.9464 145.916 45.2647 146.267 44.6877C146.389 44.4861 146.542 44.3055 146.721 44.1527C146.721 44.1527 146.545 44.3453 146.32 44.7465C146.006 45.3189 145.893 45.9802 145.999 46.6245C146.069 47.0649 146.241 47.4828 146.502 47.8443C146.801 48.257 147.203 48.5836 147.668 48.7913C147.918 48.9023 148.183 48.9762 148.455 49.0107C148.738 49.056 149.027 49.056 149.311 49.0107C149.908 48.909 150.456 48.6205 150.879 48.1867C151.297 47.7457 151.567 47.1842 151.649 46.5817C151.716 46.0326 151.625 45.4758 151.387 44.9766C151.165 44.5165 150.825 44.1234 150.402 43.837C150.032 43.59 149.609 43.4341 149.166 43.3822C148.52 43.2986 147.865 43.4342 147.305 43.7675C146.898 43.9761 146.727 44.1741 146.711 44.1366Z" fill="#E0E0E0"/>
<path d="M145.256 40.525L145.165 40.4769L144.897 40.3217L143.827 39.6904H143.859L141.976 41.67V41.6165L142.885 42.9915C142.6 43.5096 142.386 44.0639 142.249 44.6394V44.6715H142.217L140.612 45.0727L140.654 45.0139C140.654 45.8699 140.692 46.7848 140.708 47.7425L140.66 47.6783L142.265 48.01H142.302V48.0474C142.465 48.6114 142.703 49.1511 143.008 49.6525V49.69V49.7274L142.174 51.2094V51.1131L144.143 53.0071H144.046L145.421 52.0976L145.464 52.0708L145.507 52.0976C146.022 52.3831 146.572 52.599 147.144 52.7396H147.192V52.7877L147.583 54.3928L147.503 54.334L150.231 54.2858L150.151 54.35C150.258 53.815 150.376 53.28 150.488 52.7449V52.6968H150.536C151.101 52.5385 151.641 52.3026 152.141 51.9959H152.189H152.232L153.639 52.8519H153.538L155.432 50.8884V50.9901C155.127 50.5246 154.822 50.0645 154.527 49.6097L154.501 49.5669V49.5241C154.789 49.0097 155.006 48.4591 155.148 47.8869V47.8388H155.196L156.801 47.4482L156.742 47.5285C156.742 46.5975 156.726 45.688 156.694 44.7999L156.758 44.8748L155.153 44.5324H155.111V44.4842C154.951 43.9206 154.717 43.3808 154.415 42.8791V42.8417V42.8042L155.271 41.3918V41.4774L153.313 39.5781H153.393L152.013 40.4769H151.981H151.949C151.432 40.1897 150.88 39.972 150.306 39.8295H150.274V39.7974C150.135 39.2142 150.007 38.6899 149.883 38.1923L149.937 38.2298L147.203 38.2619H147.24C147.101 38.9039 146.989 39.4336 146.893 39.867C146.462 39.9844 146.044 40.1458 145.646 40.3485L145.352 40.4983L145.25 40.5518C145.278 40.5265 145.308 40.5049 145.341 40.4876L145.63 40.3217C146.027 40.1101 146.445 39.9398 146.877 39.8135C146.962 39.3747 147.069 38.8451 147.198 38.2084V38.1763H147.23L149.958 38.1174H150.001V38.1549C150.124 38.6525 150.258 39.1768 150.402 39.76L150.36 39.7225C150.944 39.8642 151.508 40.0838 152.034 40.3752H151.97L153.35 39.4711L153.393 39.439L153.431 39.4764L155.394 41.3704L155.437 41.4078L155.405 41.456L154.554 42.8684V42.7935C154.867 43.3076 155.108 43.862 155.271 44.4414L155.218 44.3879L156.823 44.7196H156.882V44.7785C156.882 45.6666 156.919 46.5761 156.935 47.5071V47.5713H156.871L155.266 47.9672L155.325 47.9083C155.181 48.4933 154.959 49.0565 154.667 49.583V49.4867L155.576 50.867L155.608 50.9205L155.565 50.9687L153.666 52.9322L153.623 52.9803L153.564 52.9482L152.152 52.0922H152.238C151.723 52.4047 151.169 52.6459 150.59 52.8091L150.649 52.7449C150.531 53.28 150.418 53.8524 150.311 54.35V54.4196H150.247L147.519 54.4624H147.454V54.3982C147.315 53.8631 147.182 53.296 147.059 52.7931L147.117 52.8519C146.533 52.706 145.97 52.4848 145.443 52.1939H145.528L144.148 53.0981L144.095 53.1302L144.052 53.0874L142.088 51.188L142.045 51.1506L142.077 51.0971C142.377 50.6048 142.666 50.1233 142.934 49.69V49.7649C142.623 49.2484 142.383 48.6923 142.222 48.1117L142.27 48.1598L140.665 47.8227H140.612V47.7692C140.612 46.8115 140.579 45.902 140.569 45.0406V44.9925H140.612L142.217 44.6019L142.174 44.6715C142.318 44.0882 142.539 43.5268 142.832 43.0022V43.0557C142.506 42.5581 142.206 42.0927 141.933 41.67L143.838 39.7172L144.908 40.3592L145.17 40.5304C145.229 40.4983 145.256 40.5197 145.256 40.525Z" fill="#E0E0E0"/>
<path d="M12.966 233.705C11.9869 232.871 9.80936 230.212 11.4893 227.125C12.1046 225.996 13.4154 225.434 14.5978 224.936C15.7802 224.439 17.0268 224.005 18.0059 223.171C19.8571 221.598 20.3653 218.987 21.5905 216.89C23.003 214.482 25.6299 212.674 28.4067 212.802C31.6168 212.947 34.2384 215.547 35.4422 218.505C36.646 221.464 36.6888 224.755 36.7102 227.954C36.7102 229.725 36.646 231.699 35.3459 232.914C34.1528 234.016 32.3498 234.026 30.7287 233.984L13.3458 233.449" fill="#F5F5F5"/>
<path d="M46.2069 185.917H0.5L8.73398 235.011C8.90314 236.034 9.35957 236.988 10.0501 237.762C10.7406 238.536 11.6368 239.098 12.6343 239.382L12.7948 239.43C12.9286 239.462 13.0623 239.51 13.2014 239.532C13.508 239.595 13.8195 239.63 14.1323 239.639V239.687L14.3571 239.65H34.736C35.1113 239.65 35.4858 239.614 35.8542 239.543C37.0464 239.357 38.1447 238.786 38.9807 237.916C39.8168 237.046 40.3442 235.926 40.4822 234.727L44.4467 200.898L44.6286 199.55L46.2015 186.174L46.2069 185.917ZM37.5877 217.227H32.8956L33.3664 202.979H38.8022L37.5877 217.227ZM39.257 202.979H43.7297L42.0551 217.227H38.0425L39.257 202.979ZM25.8814 233.026L25.5979 220.646H32.3284L31.9165 233.026H25.8814ZM18.5516 220.646H25.1163L25.3999 233.026H19.5147L18.5516 220.646ZM19.0866 233.026H13.5599C13.0249 229.682 12.3561 225.338 11.6177 220.646H18.0969L19.0866 233.026ZM18.3162 217.227L17.2087 202.979H24.7097L25.0361 217.227H18.3162ZM25.5176 217.227L25.1912 202.979H32.9116L32.4408 217.227H25.5176ZM25.111 199.571L24.806 186.377H33.468L33.0293 199.56L25.111 199.571ZM24.6562 199.571H16.9145L15.9086 186.367H24.3299L24.6562 199.571ZM16.4436 199.56H8.29526C8.00635 197.741 7.73349 196.013 7.48203 194.462C6.63135 189.111 6.31033 187.121 6.13378 186.367H15.4325L16.4436 199.56ZM16.7112 202.979L17.8186 217.227H11.0934C10.8634 215.782 10.6333 214.322 10.4032 212.856L8.84634 202.979H16.7112ZM10.6226 217.227H6.20868L3.82248 202.979H8.37552C9.07104 207.382 9.84683 212.283 10.6226 217.227ZM11.1576 220.646C11.8318 224.926 12.4898 229.152 13.0998 233.026H8.86239L6.78115 220.646H11.1576ZM32.3712 233.026L32.7832 220.646H37.3095L36.2394 233.026H32.3712ZM33.4787 199.56L33.9174 186.367H40.22L39.0965 199.56H33.4787ZM5.70041 186.367C5.88232 187.319 6.71695 192.514 7.8405 199.56H3.25001L1.03502 186.367H5.70041ZM40.2254 233.026H36.6889L37.7589 220.646H41.686L40.2254 233.026ZM44.1524 199.56H39.5512L40.6801 186.367H45.6986L44.1524 199.56Z" fill="#E0E0E0"/>
<path d="M232.325 239.147C232.325 239.227 183.338 239.286 122.918 239.286C62.4983 239.286 13.501 239.227 13.501 239.147C13.501 239.066 62.4769 239.008 122.918 239.008C183.36 239.008 232.325 239.072 232.325 239.147Z" fill="#263238"/>
<path d="M185.719 117.344C185.719 117.344 192.038 110.073 194.424 102.796C196.81 95.5201 195.676 96.3762 195.676 96.3762C195.676 96.3762 192.466 103.438 190.015 106.852C187.565 110.265 183.215 115.273 183.215 115.273L185.719 117.344Z" fill="#455A64"/>
<path d="M184.44 97.4889C184.483 97.4151 184.551 97.3585 184.631 97.3287C184.711 97.2989 184.799 97.2978 184.879 97.3256C184.96 97.3534 185.029 97.4083 185.074 97.481C185.119 97.5537 185.137 97.6397 185.125 97.7244C184.74 100.282 183.905 106.285 183.938 110.164C183.98 115.214 183.938 117.167 183.938 117.167H181.305C181.305 117.167 181.776 106.723 182.375 103.54C182.764 101.433 183.46 99.394 184.44 97.4889Z" fill="#455A64"/>
<path d="M183.028 116.322C181.924 113.824 181.194 111.178 180.861 108.468C180.647 106.606 181.032 104.091 181.605 100.742C181.827 99.5059 181.94 98.2527 181.942 96.9968C181.939 96.8582 181.89 96.7245 181.804 96.6162C181.717 96.5079 181.598 96.4311 181.463 96.3977C181.329 96.3642 181.187 96.3759 181.06 96.431C180.933 96.4861 180.827 96.5815 180.759 96.7025C180.123 97.8767 179.631 99.1234 179.294 100.416C178.657 103.727 177.935 105.381 178.486 108.527C179.037 111.672 181.075 116.504 181.075 116.504L183.028 116.322Z" fill="#455A64"/>
<path d="M180.658 116.53C180.658 116.53 173.702 101.619 173.237 99.4098C172.772 97.2002 171.124 92.096 170.931 92.385C170.738 92.6739 170.45 95.3704 171.702 98.4468C172.953 101.523 178.288 116.985 178.288 116.985H180.658" fill="#455A64"/>
<path d="M183.788 115.867C183.788 115.867 183.857 115.824 183.98 115.733C184.103 115.642 184.291 115.508 184.515 115.321C185.163 114.803 185.785 114.253 186.377 113.673C188.325 111.75 190.013 109.578 191.396 107.216C192.786 104.854 193.943 102.364 194.852 99.7789C195.205 98.7891 195.457 97.9812 195.622 97.4141C195.708 97.1358 195.767 96.9165 195.804 96.7667C195.831 96.6922 195.849 96.615 195.858 96.5366C195.858 96.5366 195.826 96.6115 195.778 96.756L195.569 97.398C195.387 97.933 195.114 98.7623 194.756 99.7468C193.827 102.313 192.666 104.79 191.289 107.146C189.908 109.502 188.234 111.673 186.308 113.609C185.569 114.347 184.933 114.909 184.483 115.289L183.948 115.717C183.89 115.762 183.837 115.812 183.788 115.867Z" fill="#263238"/>
<path d="M183.028 108.714C183.062 108.57 183.084 108.423 183.092 108.275C183.124 107.965 183.167 107.564 183.215 107.077C183.328 106.071 183.499 104.68 183.75 103.15C184.002 101.619 184.285 100.244 184.483 99.2546L184.735 98.0776C184.773 97.9358 184.798 97.7907 184.81 97.6442C184.757 97.7825 184.713 97.9236 184.676 98.0669C184.601 98.3398 184.499 98.7357 184.376 99.2332C184.141 100.218 183.841 101.593 183.606 103.128C183.37 104.664 183.204 106.055 183.119 107.066C183.076 107.574 183.049 107.986 183.039 108.27C183.02 108.417 183.016 108.566 183.028 108.714Z" fill="#263238"/>
<path d="M181.402 96.6116C181.369 96.6716 181.343 96.7342 181.321 96.7989L181.113 97.3339C181.022 97.5746 180.915 97.8689 180.813 98.222C180.711 98.5751 180.578 98.9657 180.476 99.4151C180.422 99.6398 180.364 99.8752 180.305 100.116C180.246 100.357 180.208 100.619 180.155 100.886C180.037 101.421 179.968 101.989 179.887 102.588C179.735 103.9 179.679 105.221 179.722 106.542C179.774 107.863 179.92 109.179 180.16 110.479C180.289 111.073 180.401 111.64 180.551 112.159C180.626 112.421 180.685 112.694 180.759 112.914L180.979 113.604C181.113 114.043 181.273 114.428 181.402 114.77C181.53 115.113 181.653 115.402 181.765 115.632L182.011 116.167C182.038 116.23 182.07 116.291 182.108 116.349C182.108 116.349 182.108 116.279 182.038 116.151C181.969 116.022 181.91 115.83 181.813 115.616C181.717 115.402 181.599 115.081 181.482 114.743C181.364 114.406 181.204 114.016 181.081 113.577L180.867 112.887C180.797 112.652 180.738 112.395 180.669 112.133C180.524 111.598 180.417 111.063 180.294 110.458C180.064 109.165 179.92 107.859 179.861 106.547C179.823 105.234 179.875 103.92 180.016 102.615C180.096 102.015 180.16 101.443 180.267 100.919C180.321 100.651 180.358 100.384 180.412 100.153C180.465 99.9234 180.524 99.6719 180.572 99.4526C180.669 99.0032 180.792 98.6072 180.888 98.2541C180.984 97.901 181.081 97.6067 181.161 97.3606L181.343 96.7989C181.37 96.739 181.39 96.6762 181.402 96.6116Z" fill="#263238"/>
<path d="M171.011 92.6845C171.011 92.6845 171.011 92.6845 171.011 92.7541V92.9467C171.044 93.1179 171.081 93.3693 171.151 93.6904C171.284 94.3324 171.509 95.2526 171.857 96.3655C172.205 97.4783 172.675 98.7945 173.237 100.239C173.799 101.684 174.446 103.257 175.062 104.931C175.677 106.606 176.169 108.232 176.624 109.714C177.079 111.196 177.496 112.523 177.908 113.625C178.218 114.493 178.575 115.343 178.978 116.172C179.117 116.466 179.245 116.707 179.331 116.841L179.427 117.012C179.438 117.031 179.45 117.049 179.465 117.065C179.458 117.043 179.449 117.022 179.438 117.001L179.358 116.825C179.283 116.67 179.165 116.445 179.031 116.151C178.631 115.315 178.274 114.46 177.961 113.588C177.56 112.486 177.148 111.159 176.704 109.677C176.26 108.195 175.779 106.558 175.153 104.862C174.527 103.166 173.879 101.614 173.317 100.175C172.756 98.7356 172.247 97.4302 171.905 96.3173C171.563 95.2045 171.311 94.2842 171.156 93.6422C171.081 93.3265 171.033 93.0751 170.995 92.9092L170.947 92.7166L171.011 92.6845Z" fill="#263238"/>
<path d="M192.407 89.3941C192.503 89.3036 192.626 89.2473 192.758 89.234C192.889 89.2208 193.021 89.2513 193.133 89.3208C193.246 89.3904 193.332 89.4951 193.379 89.6186C193.425 89.7422 193.43 89.8777 193.391 90.0041C193.15 90.7695 192.858 91.5183 192.519 92.2458C191.562 94.2735 188.774 101.544 187.447 105.541C186.12 109.538 184.291 116.985 184.291 116.985L181.487 116.53C181.487 116.53 184.05 104.289 186.554 99.8752C188.565 96.328 190.577 91.2186 192.407 89.3941Z" fill="#455A64"/>
<path d="M186.682 108.04C186.622 108.144 186.573 108.256 186.538 108.371C186.457 108.591 186.345 108.906 186.217 109.313C185.96 110.11 185.644 111.228 185.323 112.47C185.002 113.711 184.74 114.834 184.558 115.653C184.473 116.044 184.403 116.365 184.349 116.627C184.316 116.744 184.297 116.864 184.291 116.985C184.341 116.874 184.379 116.757 184.403 116.637C184.473 116.386 184.558 116.06 184.66 115.68L185.468 112.507C185.783 111.266 186.083 110.148 186.318 109.345C186.425 108.965 186.522 108.644 186.591 108.393C186.635 108.279 186.666 108.16 186.682 108.04Z" fill="#263238"/>
<path d="M182.883 116.76V116.686L182.916 116.466C182.942 116.268 182.969 115.985 183.028 115.616C183.13 114.877 183.317 113.818 183.616 112.528C183.974 111.014 184.411 109.519 184.927 108.05C185.5 106.392 186.222 104.599 187.041 102.743C188.688 99.0352 190.331 95.7502 191.412 93.3158C191.947 92.1067 192.385 91.1169 192.664 90.4267C192.803 90.079 192.904 89.8115 192.979 89.6295C193.011 89.5439 193.033 89.4744 193.054 89.4209C193.076 89.3674 193.081 89.346 193.054 89.346L193.022 89.4155C192.995 89.469 192.969 89.5332 192.931 89.6188C192.846 89.8061 192.733 90.0683 192.589 90.4C192.295 91.0848 191.856 92.0692 191.299 93.273C190.192 95.6913 188.533 98.971 186.88 102.684C186.062 104.541 185.345 106.338 184.777 108.008C184.264 109.48 183.835 110.98 183.493 112.502C183.263 113.528 183.084 114.566 182.958 115.61C182.91 115.974 182.894 116.268 182.873 116.461V116.68C182.876 116.734 182.88 116.76 182.883 116.76Z" fill="#263238"/>
<path d="M181.487 116.53C181.532 116.376 181.564 116.219 181.583 116.06C181.637 115.733 181.712 115.3 181.803 114.776C181.995 113.706 182.29 112.191 182.712 110.565C183.135 108.938 183.606 107.489 183.97 106.451C184.146 105.948 184.296 105.536 184.408 105.22C184.469 105.073 184.517 104.921 184.553 104.765C184.476 104.905 184.41 105.05 184.355 105.199C184.232 105.482 184.061 105.894 183.868 106.413C183.365 107.762 182.931 109.135 182.568 110.528C182.145 112.133 181.867 113.663 181.696 114.754C181.616 115.289 181.557 115.744 181.525 116.054C181.5 116.212 181.487 116.371 181.487 116.53Z" fill="#263238"/>
<path d="M175.741 129.451H186.671V116.129H175.741V129.451Z" fill="#9667E0"/>
<g opacity="0.3">
<path d="M175.741 129.451H186.671V116.129H175.741V129.451Z" fill="black"/>
</g>
<path d="M179.224 129.451H188.924V116.129H179.224V129.451Z" fill="#9667E0"/>
<path d="M88.4334 6.41332L68.1379 12.91L72.5174 26.5914L92.8129 20.0948L88.4334 6.41332Z" fill="#9667E0"/>
<path d="M88.5539 6.54597C88.5169 6.63188 88.4721 6.71425 88.4202 6.79208C88.3185 6.96329 88.1848 7.188 88.0136 7.46621L86.4887 9.93801L81.3793 18.065L81.3365 18.1292H81.2616L81.085 18.0596L71.9897 14.5713L69.245 13.5013L68.5013 13.2016C68.4124 13.1702 68.3264 13.1308 68.2445 13.0839C68.336 13.1021 68.4256 13.1289 68.512 13.1642L69.2717 13.4317L72.0378 14.4536L81.1332 17.8938L81.3151 17.958L81.1974 18.0008L86.3603 9.90056C87.0184 8.88402 87.5534 8.05473 87.9387 7.46621L88.372 6.80813C88.4246 6.7154 88.4855 6.62766 88.5539 6.54597Z" fill="#263238"/>
<path d="M72.6209 26.727C72.5728 26.727 73.4984 24.3408 74.6861 21.4463C75.8739 18.5518 76.8851 16.2191 76.9332 16.2405C76.9814 16.2619 76.0611 18.6267 74.868 21.5212C73.6749 24.4157 72.6851 26.7484 72.6209 26.727Z" fill="#263238"/>
<path d="M83.6423 13.9079C83.6744 13.8651 85.7824 15.2454 88.3398 16.9896C90.8972 18.7338 92.9624 20.1997 92.9303 20.1997C92.8982 20.1997 90.7902 18.8675 88.2328 17.1234C85.6754 15.3792 83.6102 13.956 83.6423 13.9079Z" fill="#263238"/>
<path d="M178.106 36.0738L163.002 29.6909C162.508 29.4745 162.12 29.0728 161.92 28.5724C161.719 28.072 161.724 27.513 161.932 27.0158L170.792 6.1072C171.007 5.61266 171.409 5.22297 171.91 5.02265C172.411 4.82233 172.97 4.82754 173.467 5.03715L183.049 9.09262L187.223 19.8787L180.802 35.0358C180.58 35.529 180.172 35.9146 179.667 36.1089C179.162 36.3032 178.601 36.2906 178.106 36.0738Z" fill="#9667E0"/>
<path d="M183.044 9.03941L180.551 14.9247C180.452 15.1554 180.4 15.4033 180.398 15.6542C180.395 15.9051 180.442 16.1541 180.536 16.3868C180.63 16.6194 180.769 16.8313 180.945 17.01C181.121 17.1888 181.331 17.3311 181.562 17.4286L187.217 19.8254L183.044 9.03941Z" fill="#9667E0"/>
<g opacity="0.2">
<path d="M180.406 15.4755C180.225 15.923 180.2 16.4187 180.336 16.8821C180.472 17.3454 180.761 17.7491 181.155 18.0276C181.208 18.0716 181.264 18.1127 181.321 18.1507C182.006 18.5947 186.5 21.5213 186.548 21.4089L187.217 19.8039L181.562 17.407C181.562 17.407 180.16 16.781 180.406 15.4755Z" fill="black"/>
</g>
<g opacity="0.3">
<path d="M183.044 9.03941L180.551 14.9247C180.452 15.1554 180.4 15.4033 180.398 15.6542C180.395 15.9051 180.442 16.1541 180.536 16.3868C180.63 16.6194 180.769 16.8313 180.945 17.01C181.121 17.1888 181.331 17.3311 181.562 17.4286L187.217 19.8254L183.044 9.03941Z" fill="white"/>
</g>
<path d="M179.384 14.1755C178.167 13.8211 176.979 13.3721 175.832 12.8326C174.646 12.385 173.496 11.8484 172.392 11.2275C173.612 11.5784 174.802 12.0275 175.95 12.5704C177.135 13.0146 178.283 13.5512 179.384 14.1755Z" fill="#FAFAFA"/>
<path d="M182.488 19.3867C182.455 19.4616 179.855 18.4344 176.677 17.0861C173.499 15.7379 170.952 14.5929 170.985 14.5127C171.017 14.4324 173.617 15.4704 176.795 16.8133C179.973 18.1562 182.52 19.3118 182.488 19.3867Z" fill="#FAFAFA"/>
<path d="M182.348 22.6075C182.316 22.6824 179.481 21.5375 176.019 20.0876C172.558 18.6377 169.775 17.3857 169.808 17.2948C169.84 17.2038 172.67 18.3648 176.137 19.8147C179.604 21.2646 182.381 22.5273 182.348 22.6075Z" fill="#FAFAFA"/>
<path d="M181.23 25.2289C181.198 25.3039 178.368 24.1589 174.906 22.709C171.445 21.2591 168.663 19.9911 168.689 19.9162C168.716 19.8413 171.557 20.9862 175.019 22.4361C178.48 23.886 181.268 25.1487 181.23 25.2289Z" fill="#FAFAFA"/>
<path d="M180.128 27.8452C180.096 27.9255 177.26 26.7752 173.799 25.3306C170.337 23.8861 167.555 22.6127 167.587 22.5378C167.619 22.4629 170.45 23.6079 173.916 25.0578C177.383 26.5077 180.16 27.7703 180.128 27.8452Z" fill="#FAFAFA"/>
<path d="M179.015 30.4669C178.983 30.5471 176.148 29.3968 172.686 27.9523C169.224 26.5077 166.442 25.2344 166.474 25.1594C166.506 25.0845 169.342 26.2295 172.804 27.6741C176.265 29.1186 179.047 30.392 179.015 30.4669Z" fill="#FAFAFA"/>
<path d="M127.311 40.5091C138.347 40.5091 147.294 31.5624 147.294 20.5261C147.294 9.48971 138.347 0.542991 127.311 0.542991C116.274 0.542991 107.328 9.48971 107.328 20.5261C107.328 31.5624 116.274 40.5091 127.311 40.5091Z" fill="white"/>
<path d="M147.294 20.526C147.294 20.526 147.294 20.419 147.262 20.205C147.23 19.991 147.224 19.67 147.198 19.2527C147.198 19.044 147.171 18.814 147.155 18.5571C147.139 18.3003 147.075 18.0221 147.032 17.7225C146.942 17.0268 146.803 16.3384 146.615 15.6627C146.148 13.7937 145.401 12.0062 144.4 10.3606C142.949 7.94325 141.002 5.86053 138.689 4.24952C136.375 2.63852 133.746 1.53575 130.976 1.01379C130.147 0.859715 129.309 0.76318 128.467 0.724875C128.039 0.724875 127.605 0.666021 127.172 0.671372L125.856 0.740925C125.636 0.740925 125.412 0.740926 125.192 0.783728L124.529 0.885381C124.09 0.960284 123.641 1.01379 123.197 1.10474C121.375 1.51387 119.614 2.1577 117.959 3.02012C117.541 3.24483 117.14 3.51234 116.723 3.75845C116.52 3.88685 116.306 3.99921 116.108 4.14366L115.524 4.58238C113.905 5.75879 112.488 7.1919 111.33 8.8251L110.875 9.43503L110.474 10.0878L110.073 10.7191C109.931 10.9341 109.806 11.1595 109.698 11.3932C109.479 11.8587 109.254 12.3241 109.024 12.795L108.489 14.2609C107.836 16.2864 107.49 18.3981 107.462 20.526C107.49 22.6522 107.836 24.7621 108.489 26.7858C108.665 27.278 108.847 27.7702 109.024 28.2571C109.2 28.744 109.473 29.1934 109.698 29.6535C109.805 29.8896 109.93 30.1168 110.073 30.333L110.474 30.991L110.87 31.6438L111.33 32.2537C111.923 33.0645 112.572 33.8332 113.272 34.5543C113.98 35.2418 114.732 35.8817 115.524 36.4697L116.108 36.9084C116.306 37.0528 116.52 37.1652 116.723 37.2936C117.14 37.5397 117.541 37.8286 117.959 38.0319C119.614 38.8943 121.375 39.5382 123.197 39.9473C123.641 40.0436 124.09 40.0918 124.534 40.1667L125.192 40.2683C125.417 40.2683 125.636 40.2683 125.856 40.3111L127.193 40.3914C127.627 40.3914 128.06 40.3539 128.488 40.3432C129.33 40.3032 130.169 40.2048 130.997 40.049C133.768 39.5289 136.398 38.427 138.712 36.8158C141.026 35.2046 142.972 33.1208 144.421 30.7021C145.414 29.0586 146.153 27.2748 146.615 25.4108C146.803 24.735 146.942 24.0467 147.032 23.3509C147.075 23.0513 147.128 22.7731 147.155 22.5163C147.182 22.2595 147.187 22.0294 147.198 21.8208C147.226 21.407 147.248 21.0914 147.262 20.8738C147.262 20.6598 147.294 20.5474 147.294 20.5474C147.294 20.5474 147.294 20.6598 147.294 20.8738C147.294 21.0878 147.294 21.4088 147.262 21.8208C147.262 22.0348 147.262 22.2648 147.23 22.527C147.198 22.7892 147.16 23.062 147.117 23.3616C147.035 24.0533 146.903 24.7382 146.722 25.4108C146.268 27.295 145.53 29.0991 144.533 30.761C143.084 33.213 141.129 35.3284 138.799 36.9667C136.469 38.605 133.816 39.7286 131.019 40.263C130.181 40.4203 129.334 40.5204 128.483 40.5626C128.049 40.5626 127.611 40.6214 127.172 40.6161L125.84 40.5519C125.615 40.5519 125.39 40.5519 125.165 40.5091L124.518 40.3914C124.069 40.3165 123.614 40.2683 123.165 40.172C122.256 39.9731 121.362 39.7121 120.489 39.3909C119.589 39.0695 118.711 38.687 117.862 38.2459C117.44 38.0159 117.028 37.7484 116.61 37.4969C116.402 37.3632 116.182 37.2508 115.985 37.1063L115.396 36.6623C114.593 36.0672 113.83 35.4202 113.111 34.7255C112.401 33.9938 111.741 33.2144 111.137 32.3928L110.672 31.7775L110.265 31.1141L109.864 30.4453C109.719 30.2279 109.592 29.9988 109.484 29.7605C109.259 29.2897 109.029 28.8189 108.805 28.3427L108.27 26.85C107.61 24.7982 107.26 22.6596 107.232 20.5046C107.248 18.3568 107.585 16.2235 108.232 14.1753L108.767 12.688L109.452 11.2648C109.559 11.0271 109.684 10.7982 109.826 10.58L110.233 9.91655L110.634 9.25312L111.1 8.63249C111.705 7.81367 112.365 7.03617 113.074 6.30515C113.792 5.61041 114.556 4.96343 115.359 4.36837L115.947 3.9243C116.145 3.77985 116.364 3.66749 116.573 3.53374C116.99 3.28763 117.402 2.99872 117.825 2.79006C119.504 1.92023 121.287 1.27104 123.132 0.85863C123.582 0.767677 124.037 0.714175 124.486 0.639272L125.155 0.537616C125.38 0.537616 125.604 0.537617 125.829 0.494816L127.161 0.430614C127.6 0.430614 128.033 0.468064 128.467 0.484115C129.319 0.528621 130.168 0.628705 131.008 0.783728C133.806 1.31805 136.458 2.44169 138.788 4.07998C141.118 5.71828 143.073 7.83371 144.523 10.2857C145.52 11.9476 146.257 13.7517 146.711 15.6359C146.891 16.3174 147.022 17.0112 147.101 17.7118C147.144 18.0168 147.192 18.295 147.214 18.5518L147.246 19.2527C147.246 19.6646 147.273 19.9803 147.278 20.205C147.283 20.4297 147.294 20.526 147.294 20.526Z" fill="#263238"/>
<path d="M136.786 19.9644C136.525 20.0606 136.256 20.1375 135.984 20.1945L133.753 20.7295C131.864 21.1682 129.242 21.7621 126.31 22.4041L126.145 22.4416V21.6658C126.145 18.5359 126.145 15.7003 126.182 13.6405C126.182 12.656 126.219 11.8374 126.23 11.2115C126.222 10.9144 126.24 10.6173 126.284 10.3233C126.324 10.6176 126.342 10.9145 126.337 11.2115C126.337 11.8374 126.364 12.656 126.38 13.6405C126.38 15.695 126.423 18.5306 126.423 21.6658V22.249L126.252 22.1099C129.183 21.4732 131.81 20.9114 133.71 20.5048L135.957 20.0607C136.23 20.003 136.507 19.9708 136.786 19.9644Z" fill="#263238"/>
<path d="M148.722 28.7654C148.742 28.6539 148.772 28.5445 148.813 28.4391C148.872 28.2304 148.995 27.9041 149.102 27.5295C149.447 26.4071 149.708 25.2608 149.883 24.1001C150.495 20.2646 150.129 16.3368 148.82 12.6802C147.511 9.02362 145.3 5.75634 142.393 3.1807C141.522 2.40163 140.596 1.68641 139.622 1.04062C139.279 0.799858 138.996 0.639352 138.819 0.505596C138.721 0.449112 138.628 0.384693 138.541 0.312988C138.649 0.345359 138.752 0.394071 138.846 0.457444C139.033 0.564449 139.328 0.708903 139.681 0.938963C140.686 1.5576 141.638 2.25913 142.527 3.03625C145.496 5.60507 147.75 8.89823 149.07 12.5957C150.39 16.2932 150.731 20.2692 150.06 24.1375C149.87 25.2967 149.586 26.4383 149.209 27.5509C149.081 27.9469 148.942 28.2465 148.867 28.4498C148.831 28.5602 148.783 28.6661 148.722 28.7654Z" fill="#263238"/>
<path d="M152.553 18.9317C152.51 18.9317 152.484 18.1345 152.323 16.8612C152.109 15.2054 151.733 13.5747 151.2 11.9925C150.662 10.4169 149.968 8.89886 149.129 7.46086C148.476 6.35337 148.006 5.71134 148.059 5.68459C148.203 5.80512 148.329 5.94565 148.434 6.10191C148.653 6.39082 148.969 6.81349 149.311 7.35386C150.221 8.77662 150.958 10.3034 151.505 11.9015C152.055 13.4995 152.415 15.1572 152.575 16.8398C152.634 17.4818 152.65 18.0061 152.65 18.37C152.647 18.5611 152.615 18.7507 152.553 18.9317Z" fill="#263238"/>
<path d="M107.36 8.9536C107.328 9.06035 107.283 9.16277 107.226 9.25856C107.13 9.45652 106.964 9.73473 106.793 10.1146C104.778 14.1173 103.965 18.6176 104.452 23.0722C104.939 27.5267 106.705 31.7451 109.537 35.2178C110.275 36.1295 111.076 36.9877 111.934 37.7859C112.234 38.0748 112.469 38.2781 112.646 38.4279C112.732 38.5004 112.812 38.579 112.887 38.6634C112.786 38.611 112.693 38.5463 112.608 38.4707C112.437 38.337 112.175 38.1444 111.865 37.8662C110.971 37.0938 110.143 36.2492 109.388 35.3409C106.863 32.3335 105.16 28.7235 104.444 24.8625C103.729 21.0015 104.026 17.021 105.305 13.3087C105.683 12.1904 106.153 11.1059 106.713 10.0664C106.9 9.69193 107.082 9.41907 107.189 9.23181C107.238 9.13449 107.295 9.04143 107.36 8.9536Z" fill="#263238"/>
<path d="M102.015 18.0542C102.063 18.0542 101.962 18.8514 101.919 20.1354C101.862 21.8029 101.975 23.4719 102.256 25.1165C102.542 26.7628 102.994 28.376 103.604 29.9317C104.07 31.1248 104.433 31.8364 104.391 31.8578C104.27 31.7129 104.169 31.5528 104.091 31.3816C103.914 31.0659 103.679 30.6005 103.422 30.0066C102.75 28.4648 102.265 26.8483 101.978 25.1914C101.694 23.5274 101.607 21.8357 101.721 20.1515C101.769 19.5041 101.833 18.9852 101.892 18.6267C101.907 18.4312 101.948 18.2386 102.015 18.0542Z" fill="#263238"/>
<path d="M143.854 23.8057C143.099 23.6506 142.49 23.5168 142.49 23.5115C142.49 23.5061 143.105 23.6238 143.859 23.779C144.614 23.9341 145.223 24.0626 145.218 24.0679C145.213 24.0733 144.603 23.9823 143.854 23.8057Z" fill="#263238"/>
<path d="M141.917 28.8618C141.254 28.4712 140.719 28.1502 140.719 28.1449C140.719 28.1395 141.254 28.4498 141.928 28.8404C142.602 29.231 143.126 29.552 143.121 29.5573C143.115 29.5627 142.575 29.2524 141.917 28.8618Z" fill="#263238"/>
<path d="M138.429 32.9922C137.926 32.4037 137.524 31.9221 137.53 31.9221C137.535 31.9221 137.947 32.3876 138.445 32.9922C138.942 33.5967 139.349 34.0622 139.338 34.0622C139.328 34.0622 138.964 33.5753 138.429 32.9922Z" fill="#263238"/>
<path d="M133.822 35.7741C133.539 35.0572 133.314 34.474 133.319 34.474C133.325 34.474 133.56 35.0465 133.854 35.7634C134.148 36.4803 134.362 37.0582 134.352 37.0635C134.341 37.0689 134.106 36.4857 133.822 35.7741Z" fill="#263238"/>
<path d="M128.547 36.9031C128.515 36.1327 128.493 35.5121 128.499 35.5121C128.504 35.5121 128.541 36.1327 128.574 36.9031C128.606 37.6736 128.632 38.2942 128.627 38.2942C128.622 38.2942 128.584 37.6736 128.547 36.9031Z" fill="#263238"/>
<path d="M123.191 36.2557C123.405 35.5174 123.582 34.9235 123.592 34.9235C123.603 34.9235 123.432 35.5281 123.218 36.2664C123.004 37.0048 122.822 37.5986 122.811 37.5986C122.801 37.5986 122.972 36.9941 123.191 36.2557Z" fill="#263238"/>
<path d="M118.328 33.9123C118.772 33.2809 119.136 32.778 119.146 32.7834C119.157 32.7887 118.793 33.3184 118.349 33.9283C117.905 34.5382 117.563 35.0412 117.563 35.0412C117.563 35.0412 117.884 34.5382 118.328 33.9123Z" fill="#263238"/>
<path d="M114.502 30.1137C115.123 29.6589 115.631 29.3005 115.637 29.3058C115.642 29.3112 115.139 29.6803 114.513 30.1351C113.887 30.5899 113.384 30.943 113.379 30.9376C113.374 30.9323 113.877 30.5631 114.502 30.1137Z" fill="#263238"/>
<path d="M112.106 25.2771C112.844 25.0524 113.443 24.8758 113.443 24.8812C113.443 24.8865 112.849 25.0791 112.111 25.3038C111.373 25.5285 110.779 25.6997 110.779 25.6944C110.779 25.689 111.373 25.5018 112.106 25.2771Z" fill="#263238"/>
<path d="M111.415 19.9269C112.186 19.9269 112.806 19.9804 112.806 19.9911C112.806 20.0018 112.18 19.9911 111.415 19.9536C110.65 19.9162 110.019 19.8948 110.024 19.8894C110.03 19.8841 110.645 19.8948 111.415 19.9269Z" fill="#263238"/>
<path d="M112.496 14.6354C113.218 14.9137 113.796 15.1384 113.796 15.1705C113.796 15.2026 113.208 14.9565 112.485 14.6836C111.763 14.4107 111.191 14.1807 111.191 14.1753C111.191 14.17 111.779 14.3626 112.496 14.6354Z" fill="#263238"/>
<path d="M115.241 9.9862C115.829 10.4838 116.311 10.8904 116.311 10.8957C116.311 10.9011 115.824 10.5052 115.241 10.0076C114.658 9.51003 114.171 9.10877 114.171 9.10342C114.171 9.09807 114.647 9.49398 115.241 9.9862Z" fill="#263238"/>
<path d="M119.339 6.48715C119.735 7.14523 120.056 7.68025 120.051 7.6856C120.045 7.69095 119.714 7.15058 119.318 6.49785C118.922 5.84512 118.601 5.30475 118.606 5.2994C118.611 5.29405 118.943 5.82907 119.339 6.48715Z" fill="#263238"/>
<path d="M124.352 4.49694C124.513 5.25132 124.641 5.86125 124.636 5.86125C124.63 5.86125 124.491 5.25667 124.325 4.50229C124.16 3.74791 124.036 3.14334 124.047 3.13799C124.058 3.13263 124.192 3.74791 124.352 4.49694Z" fill="#263238"/>
<path d="M129.74 4.2508C129.649 5.01588 129.569 5.63116 129.563 5.63116C129.558 5.63116 129.622 5.01053 129.718 4.24545C129.815 3.48037 129.89 2.8651 129.895 2.8651C129.9 2.8651 129.836 3.47502 129.74 4.2508Z" fill="#263238"/>
<path d="M134.924 5.76491C134.592 6.45509 134.314 7.01686 134.309 7.01151C134.304 7.00616 134.566 6.44439 134.897 5.74886C135.229 5.05333 135.507 4.49691 135.518 4.50226C135.529 4.50761 135.256 5.08008 134.924 5.76491Z" fill="#263238"/>
<path d="M139.327 8.87868C138.792 9.4137 138.343 9.86312 138.338 9.85777C138.332 9.85242 138.771 9.403 139.311 8.85728C139.852 8.31156 140.296 7.87284 140.301 7.87819C140.307 7.88354 139.873 8.33296 139.327 8.87868Z" fill="#263238"/>
<path d="M142.484 13.2497C141.794 13.5921 141.232 13.865 141.232 13.8597C141.232 13.8543 141.767 13.5707 142.473 13.2283C143.18 12.8859 143.725 12.6131 143.725 12.6184C143.725 12.6238 143.174 12.9073 142.484 13.2497Z" fill="#263238"/>
<path d="M144.057 18.4127L142.671 18.5785C142.671 18.5785 143.287 18.4822 144.052 18.3859C144.817 18.2896 145.432 18.2094 145.432 18.2147C145.432 18.2201 144.817 18.311 144.057 18.4127Z" fill="#263238"/>
<path d="M153.944 16.5669C153.648 17.4702 153.264 18.3428 152.799 19.1724L152.767 19.2313L152.66 19.4506L152.526 19.2473C151.988 18.496 151.526 17.6931 151.146 16.8504C151.763 17.5409 152.312 18.2899 152.783 19.0868H152.543L152.575 19.0226C152.951 18.1616 153.409 17.3392 153.944 16.5669Z" fill="#263238"/>
<path d="M163.04 61.7495H100.158C98.6813 61.7495 97.2647 62.3363 96.2202 63.3808C95.1757 64.4253 94.5889 65.842 94.5889 67.3191C94.5889 68.7963 95.1757 70.2129 96.2202 71.2574C97.2647 72.3019 98.6813 72.8887 100.158 72.8887H129.585L136.171 79.1645V72.8887H163.04C163.771 72.8887 164.495 72.7446 165.171 72.4647C165.847 72.1848 166.461 71.7746 166.978 71.2574C167.495 70.7402 167.905 70.1262 168.185 69.4505C168.465 68.7748 168.609 68.0505 168.609 67.3191C168.609 66.5877 168.465 65.8635 168.185 65.1877C167.905 64.512 167.495 63.898 166.978 63.3808C166.461 62.8637 165.847 62.4534 165.171 62.1735C164.495 61.8936 163.771 61.7495 163.04 61.7495Z" fill="#FAFAFA"/>
<path d="M163.04 61.7494H163.243C163.447 61.7515 163.651 61.7676 163.853 61.7976C164.647 61.9041 165.409 62.1835 166.084 62.6162C166.729 63.0272 167.284 63.566 167.713 64.1994C168.143 64.8328 168.438 65.5474 168.581 66.2992C168.724 67.0511 168.711 67.8242 168.544 68.5709C168.377 69.3177 168.058 70.0224 167.609 70.6415C167.001 71.4879 166.171 72.1505 165.212 72.5569C164.697 72.765 164.158 72.9036 163.607 72.9688C163.034 73.0116 162.467 72.9956 161.879 73.0009H154.303H136.16L136.283 72.8779C136.283 74.8468 136.283 76.9761 136.283 79.1537V79.4479L136.069 79.2446L129.478 72.9688L129.569 73.0063H104.562H100.196C98.7385 73.0215 97.3306 72.4781 96.2612 71.4878C95.1918 70.4975 94.5422 69.1353 94.4456 67.681C94.3491 66.2267 94.813 64.7907 95.7421 63.6677C96.6711 62.5447 97.9949 61.82 99.4415 61.6424C100.137 61.5675 100.806 61.605 101.48 61.5943H111.271L138.215 61.6264L156.405 61.6692L161.344 61.6959H162.628C162.917 61.6959 163.066 61.6959 163.066 61.6959H162.628H161.344L156.405 61.7227L138.215 61.7708H111.271H101.48C100.811 61.7708 100.126 61.7708 99.479 61.819C98.1388 61.9855 96.9096 62.6479 96.0335 63.6755C95.3586 64.4674 94.9252 65.4363 94.7847 66.4672C94.6441 67.4981 94.8024 68.5476 95.2407 69.4912C95.679 70.4348 96.3789 71.2328 97.2572 71.7905C98.1356 72.3481 99.1555 72.642 100.196 72.6371H104.562H129.569H129.622L129.66 72.6692L136.246 78.9504L136.032 79.0413C136.032 76.8638 136.032 74.7344 136.032 72.7655V72.6478H136.149H154.292H161.868C162.451 72.6478 163.029 72.6478 163.58 72.6478C164.118 72.5881 164.645 72.4567 165.148 72.2573C166.257 71.7905 167.183 70.9744 167.786 69.9331C168.389 68.8917 168.636 67.682 168.489 66.4877C168.342 65.2933 167.809 64.1796 166.971 63.3157C166.134 62.4519 165.037 61.885 163.847 61.7013C163.318 61.7548 163.04 61.7922 163.04 61.7494Z" fill="#263238"/>
<path d="M127.659 71.2569H100.121C99.6037 71.2576 99.0913 71.1562 98.6132 70.9585C98.1352 70.7609 97.7008 70.4709 97.335 70.1051C96.9692 69.7393 96.6792 69.3049 96.4815 68.8268C96.2839 68.3488 96.1825 67.8364 96.1832 67.3191C96.1861 66.2771 96.6024 65.2788 97.3407 64.5435C98.079 63.8082 99.079 63.396 100.121 63.3974H127.659C128.175 63.3967 128.687 63.4979 129.165 63.6952C129.643 63.8925 130.077 64.182 130.443 64.5473C130.808 64.9125 131.099 65.3462 131.296 65.8237C131.494 66.3011 131.596 66.8129 131.596 67.3298C131.596 67.8462 131.493 68.3574 131.295 68.8343C131.097 69.3111 130.806 69.7442 130.441 70.1089C130.075 70.4735 129.641 70.7626 129.164 70.9596C128.686 71.1565 128.175 71.2576 127.659 71.2569Z" fill="#9667E0"/>
<path d="M129.965 56.0087L129.034 58.855H128.327L127.701 56.9289L127.054 58.855H126.353L125.417 56.0087H126.123L126.765 58.0096L127.434 56.0087H128.044L128.697 58.0257L129.355 56.0087H129.965Z" fill="#263238"/>
<path d="M130.12 57.4319C130.103 57.1209 130.179 56.8119 130.339 56.5449C130.5 56.2778 130.737 56.065 131.019 55.9339C131.302 55.8029 131.617 55.7596 131.924 55.8096C132.232 55.8597 132.517 56.0008 132.744 56.2147C132.97 56.4286 133.127 56.7056 133.194 57.0097C133.262 57.3138 133.236 57.6311 133.121 57.9206C133.006 58.2101 132.807 58.4585 132.55 58.6337C132.292 58.8088 131.988 58.9027 131.677 58.9032C131.476 58.9149 131.276 58.8855 131.087 58.8168C130.899 58.7481 130.726 58.6415 130.58 58.5037C130.435 58.3659 130.318 58.1998 130.239 58.0154C130.16 57.8311 130.119 57.6325 130.12 57.4319ZM132.565 57.4319C132.561 57.2572 132.505 57.0876 132.405 56.9444C132.305 56.8012 132.165 56.6907 132.002 56.6268C131.839 56.5628 131.661 56.5483 131.491 56.5849C131.32 56.6216 131.163 56.7078 131.041 56.8328C130.919 56.9578 130.837 57.1161 130.804 57.2877C130.772 57.4594 130.79 57.6369 130.858 57.7979C130.926 57.959 131.04 58.0964 131.185 58.1931C131.331 58.2898 131.502 58.3414 131.677 58.3414C131.794 58.3416 131.91 58.3178 132.018 58.2716C132.127 58.2254 132.224 58.1577 132.305 58.0726C132.386 57.9876 132.449 57.8869 132.49 57.7767C132.531 57.6666 132.549 57.5493 132.543 57.4319H132.565Z" fill="#263238"/>
<path d="M135.545 58.855L135.01 58.0631H134.405V58.855H133.747V56.0087H134.978C135.737 56.0087 136.214 56.4046 136.214 57.0413C136.222 57.2338 136.17 57.4242 136.064 57.5855C135.958 57.7467 135.805 57.8708 135.625 57.9401L136.267 58.855H135.545ZM134.924 56.5437H134.389V57.5388H134.924C135.325 57.5388 135.529 57.3516 135.529 57.0413C135.529 56.7309 135.325 56.5437 134.924 56.5437Z" fill="#263238"/>
<path d="M137.754 57.7368L137.369 58.1327V58.855H136.716V56.0087H137.358V57.3355L138.621 56.0087H139.354L138.172 57.2767L139.424 58.855H138.653L137.754 57.7368Z" fill="#263238"/>
<path d="M155.828 68.3624H155.014L154.816 69.3896H154.238L154.447 68.3624H152.136L152.211 67.9504L154.854 65.2271H155.549L153.019 67.8541H154.586L154.768 66.9499H155.303L155.121 67.8541H155.913L155.828 68.3624Z" fill="#263238"/>
<path d="M157.539 65.746L157.197 66.8856H157.598C158.668 66.8856 159.145 67.3243 159.145 67.9984C159.145 68.8598 158.438 69.4323 157.374 69.4323C157.107 69.4478 156.841 69.4083 156.59 69.3163C156.34 69.2242 156.111 69.0816 155.918 68.8972L156.234 68.4371C156.388 68.5916 156.573 68.7119 156.777 68.7902C156.981 68.8686 157.198 68.9032 157.416 68.8919C158.133 68.8919 158.551 68.5762 158.551 68.0466C158.551 67.6346 158.256 67.3885 157.481 67.3885H156.475L157.122 65.2109H159.466L159.369 65.746H157.539Z" fill="#263238"/>
<path d="M159.829 66.5539C159.812 66.3893 159.827 66.2228 159.876 66.0643C159.924 65.9059 160.004 65.7589 160.11 65.632C160.216 65.5051 160.347 65.401 160.495 65.3259C160.643 65.2508 160.804 65.2063 160.969 65.195C161.086 65.1903 161.202 65.211 161.311 65.2558C161.419 65.3005 161.516 65.3683 161.595 65.4542C161.675 65.5402 161.734 65.6424 161.77 65.7538C161.806 65.8652 161.818 65.983 161.804 66.0992C161.822 66.2635 161.807 66.4299 161.759 66.5883C161.712 66.7467 161.633 66.8939 161.527 67.0208C161.421 67.1478 161.29 67.252 161.143 67.3272C160.995 67.4023 160.834 67.4469 160.669 67.4581C160.552 67.4627 160.436 67.442 160.327 67.3972C160.219 67.3525 160.121 67.2849 160.042 67.199C159.962 67.1131 159.902 67.011 159.865 66.8997C159.828 66.7884 159.816 66.6704 159.829 66.5539ZM163.521 65.2271H163.997L160.364 69.3896H159.878L163.521 65.2271ZM161.434 66.1313C161.434 65.7354 161.253 65.5321 160.953 65.5321C160.471 65.5321 160.236 66.0671 160.236 66.5218C160.236 66.9766 160.418 67.1211 160.718 67.1211C161.194 67.1425 161.434 66.6074 161.434 66.1313ZM162.093 68.5175C162.074 68.353 162.089 68.1864 162.137 68.028C162.185 67.8696 162.265 67.7225 162.372 67.5959C162.478 67.4693 162.61 67.3657 162.757 67.2914C162.905 67.2171 163.067 67.1737 163.232 67.1639C163.349 67.159 163.465 67.1797 163.573 67.2245C163.681 67.2693 163.778 67.3371 163.857 67.4233C163.936 67.5094 163.995 67.6117 164.03 67.723C164.066 67.8344 164.076 67.9522 164.061 68.068C164.08 68.2321 164.065 68.3983 164.017 68.5563C163.969 68.7144 163.89 68.8612 163.784 68.9878C163.678 69.1143 163.548 69.218 163.4 69.2926C163.253 69.3672 163.092 69.4111 162.927 69.4217C162.81 69.4281 162.692 69.4086 162.583 69.3645C162.474 69.3204 162.375 69.2529 162.295 69.1666C162.215 69.0803 162.155 68.9774 162.119 68.8652C162.083 68.753 162.072 68.6343 162.087 68.5175H162.093ZM163.698 68.0948C163.698 67.7042 163.51 67.4956 163.216 67.4956C162.74 67.4956 162.494 68.0306 162.494 68.4907C162.494 68.9508 162.686 69.0899 162.975 69.0899C163.43 69.0899 163.671 68.5496 163.671 68.0948H163.698Z" fill="#263238"/>
<g opacity="0.3">
<path d="M101.186 63.3867L98.6337 71.2568H101.186L103.583 63.3867H101.186Z" fill="white"/>
</g>
<g opacity="0.3">
<path d="M107.488 63.3867L104.936 71.2568H107.488L109.885 63.3867H107.488Z" fill="white"/>
</g>
<g opacity="0.3">
<path d="M113.785 63.3867L111.239 71.2568H113.785L116.188 63.3867H113.785Z" fill="white"/>
</g>
<g opacity="0.3">
<path d="M120.088 63.3867L117.541 71.2568H120.088L122.49 63.3867H120.088Z" fill="white"/>
</g>
<g opacity="0.3">
<path d="M126.391 63.3867L123.839 71.2568H126.391L128.793 63.3867H126.391Z" fill="white"/>
</g>
<path d="M30.8893 174.778C30.8893 174.778 44.4414 180.883 58.5553 180.883C71.6205 180.883 85.4508 174.307 85.4508 174.307L30.8893 174.778Z" fill="#E0E0E0"/>
<path d="M60.0265 174.896H54.4302V233.518H60.0265V174.896Z" fill="#E0E0E0"/>
<path d="M82.0586 230.078H32.3872V233.513H82.0586V230.078Z" fill="#E0E0E0"/>
<path d="M38.4651 234.642C38.4673 235.393 38.2464 236.127 37.8307 236.753C37.4149 237.378 36.8229 237.866 36.1297 238.154C35.4364 238.443 34.6731 238.519 33.9364 238.374C33.1997 238.228 32.5228 237.867 31.9915 237.337C31.4601 236.806 31.0982 236.13 30.9516 235.393C30.8049 234.657 30.8802 233.893 31.1678 233.2C31.4554 232.506 31.9424 231.913 32.5672 231.497C33.1919 231.08 33.9263 230.858 34.6772 230.859C35.6804 230.861 36.6423 231.259 37.3522 231.968C38.0621 232.677 38.4623 233.638 38.4651 234.642Z" fill="#263238"/>
<path d="M60.5401 234.642C60.5401 235.392 60.3176 236.125 59.9008 236.749C59.484 237.373 58.8916 237.859 58.1984 238.146C57.5053 238.433 56.7426 238.509 56.0068 238.362C55.2709 238.216 54.595 237.854 54.0645 237.324C53.534 236.793 53.1727 236.118 53.0264 235.382C52.88 234.646 52.9551 233.883 53.2422 233.19C53.5293 232.497 54.0155 231.905 54.6393 231.488C55.2632 231.071 55.9966 230.848 56.7468 230.848C57.7528 230.848 58.7177 231.248 59.4291 231.959C60.1404 232.671 60.5401 233.636 60.5401 234.642Z" fill="#263238"/>
<path d="M86.1088 234.642C86.1088 235.392 85.8864 236.125 85.4695 236.749C85.0527 237.373 84.4603 237.859 83.7672 238.146C83.074 238.433 82.3113 238.509 81.5755 238.362C80.8397 238.216 80.1638 237.854 79.6333 237.324C79.1028 236.793 78.7415 236.118 78.5951 235.382C78.4487 234.646 78.5239 233.883 78.811 233.19C79.0981 232.497 79.5843 231.905 80.2081 231.488C80.8319 231.071 81.5653 230.848 82.3155 230.848C83.3216 230.848 84.2864 231.248 84.9978 231.959C85.7092 232.671 86.1088 233.636 86.1088 234.642Z" fill="#263238"/>
<path d="M58.5499 195.992H50.9365V199.143H58.5499V195.992Z" fill="#E0E0E0"/>
<path d="M52.3222 193.788H49.5508V201.348H52.3222V193.788Z" fill="#E0E0E0"/>
<path d="M29.5625 85.5528H52.2902V167.32H23.3562V91.7537C23.359 90.109 24.014 88.5326 25.1774 87.3702C26.3409 86.2078 27.9178 85.5542 29.5625 85.5528Z" fill="#455A64"/>
<path d="M29.7549 166.079C29.68 166.079 29.6158 148.338 29.6158 126.455C29.6158 104.573 29.68 86.8261 29.7549 86.8261C29.8299 86.8261 29.8941 104.567 29.8941 126.455C29.8941 148.343 29.8192 166.079 29.7549 166.079Z" fill="#263238"/>
<path d="M23.3561 167.154H94.9473V176.046H27.6095C26.4743 176.046 25.3857 175.595 24.583 174.793C23.7803 173.99 23.3293 172.901 23.3293 171.766V167.133L23.3561 167.154Z" fill="#455A64"/>
<path d="M63.8787 53.232L60.7756 82.8133C60.2405 87.8479 60.5027 95.3435 68.4959 95.8143C75.4512 95.702 77.8909 89.3406 78.3778 84.6484C78.6132 82.4174 78.8058 80.5609 78.8486 80.3362C78.8486 80.3362 86.4512 80.4164 87.7781 73.0171C88.4201 69.4431 89.1371 61.9742 89.7095 55.2115C90.0057 51.7069 88.9711 48.2194 86.8117 45.4433C84.6522 42.6672 81.5265 40.8062 78.0568 40.2309L77.3398 40.1079C69.5553 39.2625 64.494 45.4099 63.8787 53.232Z" fill="#FFBE9D"/>
<path d="M78.8486 80.3202C75.426 79.7418 72.2414 78.1931 69.673 75.8581C69.673 75.8581 71.1229 81.6631 78.6292 82.2302L78.8486 80.3202Z" fill="#EB996E"/>
<path d="M76.6817 57.0735C76.5212 57.2073 75.7241 56.4368 74.4774 56.287C73.2308 56.1372 72.2411 56.6669 72.1234 56.4957C72.0645 56.4154 72.2464 56.1533 72.6584 55.9072C73.2392 55.5888 73.9062 55.4633 74.5631 55.5487C75.2132 55.6303 75.8204 55.9171 76.2965 56.3673C76.6657 56.715 76.762 57.0093 76.6817 57.0735Z" fill="#263238"/>
<path d="M76.5587 59.9359C76.5177 60.1974 76.3762 60.4327 76.1643 60.5916C75.9525 60.7505 75.6871 60.8204 75.4244 60.7865C75.2959 60.7752 75.1708 60.7383 75.0566 60.6782C74.9424 60.6181 74.8413 60.5358 74.7591 60.4363C74.677 60.3367 74.6154 60.2218 74.5781 60.0982C74.5408 59.9747 74.5284 59.8449 74.5417 59.7165C74.5839 59.4555 74.7257 59.2211 74.9373 59.0625C75.1488 58.9038 75.4135 58.8333 75.6759 58.8658C75.8045 58.8772 75.9295 58.914 76.0437 58.9741C76.158 59.0343 76.2591 59.1165 76.3412 59.2161C76.4234 59.3157 76.4849 59.4306 76.5222 59.5541C76.5596 59.6777 76.572 59.8075 76.5587 59.9359Z" fill="#263238"/>
<path d="M79.009 66.0726C79.6404 65.9857 80.2801 65.9767 80.9137 66.0458C81.208 66.0458 81.4969 66.0458 81.5771 65.8639C81.6502 65.5658 81.6315 65.2525 81.5236 64.9651L81.0368 62.611C80.3626 59.2564 79.9293 56.5225 80.0684 56.4957C80.2075 56.469 80.8549 59.1708 81.5236 62.5147C81.6841 63.344 81.8339 64.1198 81.9784 64.8849C82.1026 65.2665 82.0874 65.6797 81.9356 66.0512C81.8784 66.1453 81.8005 66.225 81.7078 66.2844C81.615 66.3437 81.51 66.3811 81.4006 66.3936C81.2319 66.4156 81.061 66.4156 80.8923 66.3936C80.2538 66.3642 79.6213 66.2564 79.009 66.0726Z" fill="#263238"/>
<path d="M76.5854 52.3278C76.4356 52.5953 75.4565 52.2904 74.2527 52.2422C73.0489 52.1941 72.0431 52.3653 71.9254 52.0871C71.8772 51.9533 72.0859 51.7179 72.5193 51.5092C73.0815 51.2506 73.6994 51.1366 74.3169 51.1775C74.9351 51.21 75.5358 51.3937 76.0664 51.7126C76.4677 51.9426 76.6496 52.1994 76.5854 52.3278Z" fill="#263238"/>
<path d="M88.2329 55.736C88.0831 55.95 87.1308 55.6076 85.9538 55.4631C84.7767 55.3187 83.7816 55.3775 83.6746 55.1314C83.6318 55.0137 83.8458 54.8318 84.2738 54.6874C84.85 54.5189 85.4556 54.4751 86.0501 54.559C86.65 54.636 87.2274 54.8364 87.7461 55.1475C88.1366 55.3989 88.3025 55.6343 88.2329 55.736Z" fill="#263238"/>
<path d="M63.5683 58.8071C63.4506 58.7268 58.7263 56.453 58.0469 61.5464C57.3674 66.6398 62.6213 66.2706 62.648 66.1262C62.6748 65.9817 63.5683 58.8071 63.5683 58.8071Z" fill="#FFBE9D"/>
<path d="M61.3534 63.9914C61.3534 63.9914 61.2518 64.0395 61.0966 64.0877C60.8724 64.1497 60.6328 64.1229 60.4278 64.0128C59.8928 63.7453 59.5772 62.8304 59.6788 61.9101C59.7229 61.4703 59.8656 61.046 60.0961 60.6689C60.1648 60.516 60.27 60.3824 60.4025 60.2797C60.535 60.1771 60.6907 60.1086 60.8559 60.0804C60.9605 60.0667 61.0667 60.0903 61.1557 60.147C61.2447 60.2037 61.3109 60.29 61.3427 60.3907C61.3962 60.5405 61.3427 60.6421 61.3748 60.6528C61.4069 60.6635 61.4979 60.5833 61.4818 60.3639C61.4732 60.2348 61.4181 60.1131 61.3267 60.0215C61.1998 59.896 61.029 59.825 60.8505 59.8236C60.6358 59.8382 60.4283 59.9073 60.2477 60.0243C60.067 60.1413 59.9191 60.3024 59.8179 60.4923C59.5414 60.9027 59.3705 61.375 59.3203 61.8673C59.2187 62.8999 59.6146 63.9325 60.3208 64.2428C60.4522 64.3008 60.595 64.3286 60.7385 64.3239C60.8821 64.3193 61.0227 64.2824 61.1501 64.2161C61.3267 64.1144 61.3855 64.0021 61.3534 63.9914Z" fill="#EB996E"/>
<path d="M77.4736 69.4807C77.5431 69.3576 76.5694 68.9457 75.9488 67.9559C75.6951 67.5175 75.4991 67.0481 75.3656 66.5595C75.2532 66.1743 75.1623 65.9281 75.1034 65.9389C75.0446 65.9496 75.0392 66.2064 75.1034 66.6183C75.167 67.1699 75.3495 67.7011 75.6384 68.1752C75.9323 68.6529 76.3527 69.0399 76.8529 69.2934C77.1954 69.486 77.4361 69.5235 77.4736 69.4807Z" fill="#263238"/>
<path d="M57.5333 49.8989C58.7692 48.1922 59.2133 46.0628 59.9837 44.1047C60.7542 42.1465 62.065 40.1669 64.1034 39.6426L64.1462 39.6693C65.9813 39.1343 68.1642 39.3109 69.4964 40.6752C70.101 38.0482 72.6263 36.1596 75.2854 35.7209C77.9444 35.2822 82.0641 36.0686 84.461 37.3259C86.3122 38.2783 88.0242 40.0332 90.068 42.5745C90.9345 43.6428 91.7111 44.7809 92.39 45.9772L93.9951 53.1519L91.7266 56.6242C91.5888 56.867 91.4388 57.1027 91.2772 57.3304L88.8268 64.8689C88.907 62.7609 89.7363 55.4739 89.8166 53.3605C88.2424 53.1679 86.7233 52.6591 85.3507 51.8648C83.978 51.0704 82.78 50.0069 81.8287 48.738C80.8014 47.3629 80.0471 45.6883 78.5811 44.7895C76.6978 43.6285 74.3009 44.1207 72.1234 44.6557L72.2197 44.5808C71.0855 44.9844 70.0393 45.6019 69.138 46.3999C69.2215 50.5861 68.4022 54.7412 66.7357 58.5823C66.4843 59.1602 65.8422 60.3372 65.2323 60.5138C64.0446 60.8508 63.8413 59.6524 63.2099 58.9676C62.7445 58.4646 61.9954 58.3309 61.1661 58.2613C60.7566 56.4688 60.4529 54.6537 60.2566 52.8255C59.5483 52.9715 58.8158 52.9513 58.1165 52.7667L58.9244 51.2472C58.6319 51.4236 58.3056 51.5366 57.9667 51.5789C57.7899 51.6011 57.6106 51.5657 57.4555 51.478C57.3003 51.3903 57.1775 51.255 57.1053 51.092C56.9716 50.6801 57.2765 50.2574 57.5333 49.8989Z" fill="#263238"/>
<path d="M71.7756 41.7452C71.4904 41.931 71.2186 42.1366 70.9623 42.3605C70.308 43.0184 69.836 43.8352 69.5927 44.7306C69.4067 45.3426 69.283 45.9717 69.2235 46.6085C69.1593 47.2987 69.1486 48.0371 69.1272 48.8182C69.1212 49.6378 69.064 50.4561 68.956 51.2686C68.8922 51.6993 68.7974 52.1249 68.6724 52.5419C68.564 52.9912 68.3431 53.4054 68.0304 53.7457C67.8888 53.8763 67.7161 53.9684 67.5288 54.0133C67.3415 54.0583 67.1458 54.0546 66.9604 54.0025C66.6 53.9016 66.2836 53.6831 66.0615 53.3819C65.7106 52.7871 65.5259 52.109 65.5265 51.4184L65.6763 51.4505C65.3933 51.9937 65.0328 52.4929 64.6063 52.9325C64.2011 53.3384 63.6548 53.5722 63.0815 53.5852C62.8162 53.5872 62.5554 53.5169 62.3271 53.3819C62.1161 53.2461 61.9503 53.0506 61.8509 52.8201C61.7588 52.6063 61.7255 52.3717 61.7546 52.1407C61.7885 51.9339 61.8924 51.745 62.0489 51.6057L62.1184 51.6859C61.5026 52.2849 60.7318 52.7 59.8927 52.8844C59.8339 52.9027 59.7725 52.9118 59.7108 52.9111C59.7662 52.8883 59.8235 52.8704 59.882 52.8576C59.9997 52.8201 60.1709 52.772 60.3849 52.6864C61.0036 52.4439 61.5676 52.0801 62.0435 51.6163L62.1184 51.6966C61.9817 51.8417 61.8933 52.0256 61.8655 52.223C61.8377 52.4204 61.8719 52.6216 61.9633 52.7987C62.0544 53.0044 62.2054 53.1778 62.3966 53.2963C62.6037 53.4192 62.8407 53.4822 63.0815 53.4782C63.6164 53.4572 64.1233 53.2334 64.4993 52.8522C64.9057 52.4201 65.2481 51.9318 65.5158 51.4023L65.6442 51.1723V51.4344C65.6559 52.0963 65.8403 52.7437 66.1792 53.3124C66.3829 53.5717 66.6641 53.7592 66.9818 53.8474C67.1418 53.8941 67.3113 53.8984 67.4735 53.86C67.6358 53.8215 67.7853 53.7416 67.9074 53.628C68.1956 53.3087 68.3997 52.9225 68.5012 52.5045C68.6261 52.0946 68.7209 51.6762 68.7848 51.2525C68.8924 50.4472 68.9514 49.636 68.9613 48.8235C68.9613 48.0424 69.0041 47.3041 69.0737 46.6085C69.141 45.9619 69.2737 45.3238 69.4696 44.7039C69.7302 43.7956 70.2289 42.9736 70.9142 42.323C71.1667 42.0832 71.4579 41.8878 71.7756 41.7452Z" fill="#455A64"/>
<path d="M94.1769 51.1347L94.1127 51.1775L93.9148 51.2952C93.8086 51.362 93.6977 51.421 93.5831 51.4718C93.4439 51.5306 93.2888 51.6109 93.1069 51.6697C92.0637 52.028 90.9482 52.1236 89.8593 51.948C88.2396 51.6898 86.729 50.9689 85.5096 49.8721C84.0436 48.5186 82.8693 46.8801 82.0587 45.0569C81.5986 44.1045 81.2401 43.1361 80.8335 42.2373C80.4676 41.3624 79.9755 40.5458 79.3729 39.8137C78.8358 39.1483 78.1379 38.6309 77.3451 38.3103C76.987 38.1739 76.6097 38.0945 76.227 38.0748C75.8673 38.0608 75.5075 38.095 75.1569 38.1765C74.0981 38.4313 73.1749 39.0774 72.5728 39.9849C72.3709 40.3222 72.2076 40.6811 72.0859 41.0549C72.0824 41.0301 72.0824 41.0049 72.0859 40.98C72.0859 40.9158 72.118 40.8463 72.1394 40.7553C72.2248 40.4679 72.3471 40.1927 72.5032 39.9367C72.7521 39.5294 73.0688 39.1675 73.4395 38.8667C73.9306 38.4704 74.502 38.1856 75.1141 38.032C75.8607 37.8395 76.6481 37.8787 77.3719 38.1444C78.189 38.4717 78.9104 38.9998 79.4692 39.6799C80.0828 40.4221 80.5856 41.2493 80.9619 42.1357C81.3739 43.0452 81.7323 44.0082 82.1871 44.9552C82.9922 46.7552 84.1491 48.376 85.5898 49.7223C86.7888 50.8092 88.2742 51.5296 89.87 51.7982C90.9425 51.9837 92.044 51.9066 93.0801 51.5734C93.8078 51.3541 94.1662 51.0919 94.1769 51.1347Z" fill="#455A64"/>
<path d="M88.0241 58.5822C87.8636 58.7213 87.0665 57.9455 85.8199 57.8011C84.5733 57.6566 83.5835 58.1756 83.4711 58.0044C83.4123 57.9241 83.5888 57.6673 84.0061 57.4159C84.5878 57.1001 85.2546 56.9764 85.9108 57.0627C86.5614 57.1392 87.1696 57.4245 87.6443 57.876C88.0081 58.2344 88.1044 58.5341 88.0241 58.5822Z" fill="#263238"/>
<path d="M86.9648 60.9043C86.9251 61.1665 86.7839 61.4027 86.5718 61.5618C86.3596 61.7209 86.0934 61.7903 85.8306 61.755C85.7022 61.7437 85.5774 61.7068 85.4634 61.6466C85.3495 61.5864 85.2487 61.5041 85.167 61.4044C85.0852 61.3048 85.0242 61.1898 84.9875 61.0663C84.9508 60.9427 84.9391 60.8131 84.9531 60.685C84.9942 60.4244 85.1349 60.19 85.3455 60.0313C85.5562 59.8726 85.8203 59.8019 86.082 59.8343C86.2106 59.8457 86.3357 59.8825 86.4499 59.9426C86.5641 60.0028 86.6652 60.085 86.7474 60.1846C86.8295 60.2842 86.891 60.3991 86.9284 60.5226C86.9657 60.6462 86.9781 60.7759 86.9648 60.9043Z" fill="#263238"/>
<path d="M91.8816 45.0302C92.4167 45.9344 93.3208 46.8011 94.3748 46.8011C94.7612 46.7606 95.144 46.6909 95.5198 46.5924C95.8622 46.8492 95.6482 48.0905 95.3593 48.4062C95.0919 48.6733 94.8019 48.9167 94.4925 49.1338C95.6482 49.9203 96.7985 49.7116 98.1521 49.3745C97.9052 50.4739 97.3748 51.4895 96.6135 52.3202C95.8523 53.1509 94.8868 53.7678 93.8131 54.1095C93.4795 54.2458 93.1182 54.3009 92.7592 54.2702C92.4001 54.2395 92.0535 54.1239 91.7479 53.9329C91.303 53.475 91.0421 52.8694 91.0149 52.2316C90.6619 49.9302 90.5954 47.594 90.8169 45.2763L91.8816 45.0302Z" fill="#263238"/>
<path d="M78.0621 87.2594C78.0621 87.2594 82.7703 89.1694 85.4508 95.686C87.3341 100.266 97.8098 114.722 97.8098 114.722L125.663 120.907L126.615 129.794L82.0641 129.424L75.8739 109.709L78.0621 87.2594Z" fill="#9667E0"/>
<path d="M59.3042 79.0468L54.3606 81.1227C49.7862 83.0381 43.9331 87.452 41.9695 92.0104C37.256 102.989 32.9865 117.098 31.3493 129.58C29.6961 142.169 32.9865 160.798 32.9865 160.798L74.7931 136.909L72.3481 135.203L80.2717 92.1014L78.7951 86.8849L79.7795 82.471C79.7795 82.471 68.6885 78.0196 60.6097 74.8255L59.3042 79.0468Z" fill="#9667E0"/>
<g opacity="0.3">
<path d="M55.3129 148.343C55.4663 146.203 55.6197 144.05 55.773 141.885C55.2827 142.352 54.6409 142.627 53.9647 142.661C55.0105 141.663 55.9386 140.548 56.7307 139.338L54.826 140.157C55.4978 139.64 56.0461 138.981 56.4311 138.226C55.4092 137.428 53.97 137.562 52.686 137.691C46.0784 138.359 39.4121 137.915 32.7778 137.471C32.1133 137.433 31.4651 137.251 30.8785 136.936C30.8785 136.936 30.7447 135.117 31.039 134.438C31.3332 133.758 31.7934 133.956 32.4889 133.705C33.195 133.49 33.9284 133.378 34.6664 133.373C42.7399 132.945 50.8294 133.608 58.8869 134.277C59.3893 134.27 59.8826 134.411 60.3047 134.684C60.9627 135.219 60.9039 136.225 60.7915 137.065C60.3778 140.082 59.9676 143.098 59.561 146.112" fill="black"/>
</g>
<path d="M79.7794 90.368C79.7789 90.5043 79.7663 90.6404 79.7419 90.7746L79.5707 91.9249C79.4209 92.92 79.1802 94.3646 78.8645 96.1408C78.2332 99.6987 77.2862 104.594 76.1894 109.987C75.0926 115.38 73.9798 120.254 73.1826 123.775C72.7813 125.514 72.455 126.931 72.2195 127.943C72.1072 128.413 72.0162 128.788 71.9467 129.071C71.9218 129.206 71.8823 129.336 71.829 129.462C71.8429 129.327 71.8644 129.193 71.8932 129.061C71.9467 128.772 72.0216 128.392 72.1179 127.921C72.3265 126.899 72.6529 125.481 72.99 123.732L75.8898 109.944C77.0133 104.551 77.9924 99.6613 78.6719 96.1141C78.9983 94.3646 79.2711 92.9361 79.4637 91.9142C79.5547 91.4433 79.6296 91.0635 79.6831 90.7746C79.7014 90.6361 79.7337 90.4999 79.7794 90.368Z" fill="#263238"/>
<path d="M41.9695 151.558C42.0443 151.466 42.1286 151.382 42.2209 151.307L42.97 150.617C43.291 150.317 43.6976 149.959 44.1845 149.547C44.6713 149.135 45.2064 148.675 45.8377 148.198C47.0736 147.209 48.5984 146.101 50.3372 144.94C52.076 143.779 54.0824 142.602 56.185 141.468C58.2876 140.334 60.4224 139.392 62.3592 138.595C64.2959 137.798 66.0722 137.182 67.5863 136.722C68.3353 136.471 69.0309 136.289 69.6355 136.118C70.24 135.947 70.7643 135.813 71.1924 135.711L72.1875 135.486C72.3003 135.451 72.4171 135.429 72.5353 135.422C72.4272 135.473 72.3143 135.512 72.1982 135.54L71.2191 135.818C70.7965 135.936 70.2775 136.08 69.6783 136.268C69.079 136.455 68.3942 136.647 67.6452 136.91C66.1471 137.396 64.3815 138.044 62.4555 138.836C60.5294 139.627 58.4481 140.596 56.3188 141.714C54.1894 142.832 52.2258 144.02 50.4763 145.154C48.7268 146.288 47.202 147.391 45.9554 148.364C45.3187 148.83 44.773 149.29 44.2808 149.675C43.7886 150.06 43.3766 150.413 43.0395 150.697L42.2584 151.344C42.17 151.426 42.0732 151.498 41.9695 151.558Z" fill="#263238"/>
<path d="M63.4293 135.781C63.4668 135.85 59.4006 138.135 54.3339 140.885C49.2673 143.635 45.1583 145.812 45.1209 145.743C45.0834 145.673 49.1496 143.394 54.2162 140.639C59.2829 137.883 63.3919 135.716 63.4293 135.781Z" fill="#263238"/>
<g opacity="0.3">
<path d="M48.7375 102.759C51.3324 113.994 59.2668 124.021 69.8281 128.595C62.2303 120.462 55.1845 111.831 48.7375 102.759Z" fill="black"/>
</g>
<g opacity="0.3">
<path d="M79.116 94.2201C80.1379 98.971 79.3782 104.92 76.976 109.131L76.3821 107.901C77.2221 104.332 78.4259 98.0027 79.0946 94.2201" fill="black"/>
</g>
<path d="M101.341 207.591L96.3277 222.668C96.3277 222.668 109.976 232.833 109.318 235.706L79.7313 227.039L86.5743 203.22L101.341 207.591Z" fill="#455A64"/>
<g opacity="0.3">
<path d="M101.341 207.591L96.3277 222.668C96.3277 222.668 109.976 232.833 109.318 235.706L79.7313 227.039L86.5743 203.22L101.341 207.591Z" fill="black"/>
</g>
<path d="M87.5534 218.709C87.2436 218.712 86.9457 218.829 86.7174 219.039C86.4891 219.248 86.3467 219.535 86.3175 219.843C86.3084 220.153 86.419 220.454 86.6262 220.684C86.8335 220.914 87.1215 221.056 87.4304 221.079C87.7591 221.075 88.0746 220.949 88.3158 220.726C88.557 220.502 88.7067 220.197 88.7358 219.87C88.7111 219.546 88.5618 219.245 88.3193 219.03C88.0767 218.814 87.76 218.701 87.4357 218.714" fill="#E0E0E0"/>
<g opacity="0.6">
<path d="M79.7313 227.039L80.5125 224.664L108.59 233.861C108.59 233.861 109.741 234.818 109.318 235.707L79.7313 227.039Z" fill="white"/>
</g>
<path d="M96.852 222.657C96.8038 222.802 96.0655 222.657 95.2148 222.914C94.3641 223.171 93.8131 223.663 93.6954 223.567C93.5777 223.471 94.0378 222.7 95.0704 222.411C96.103 222.122 96.9215 222.534 96.852 222.657Z" fill="#263238"/>
<path d="M99.5806 224.851C99.5806 225.001 98.8744 225.065 98.2056 225.53C97.5369 225.996 97.2051 226.6 97.0607 226.552C96.9162 226.504 97.0607 225.664 97.9114 225.097C98.7621 224.53 99.6181 224.712 99.5806 224.851Z" fill="#263238"/>
<path d="M100.255 229.083C100.116 229.083 100.126 228.296 100.726 227.612C101.325 226.927 102.101 226.809 102.122 226.948C102.143 227.087 101.587 227.387 101.122 227.954C100.656 228.521 100.405 229.11 100.255 229.083Z" fill="#263238"/>
<path d="M97.6118 219.089C97.5155 219.206 96.911 218.81 96.0763 218.629C95.2417 218.447 94.5301 218.516 94.4713 218.366C94.4124 218.217 95.1935 217.885 96.1726 218.115C97.1517 218.345 97.7188 219.003 97.6118 219.089Z" fill="#263238"/>
<path d="M109.971 214.322L109.345 230.201C109.345 230.201 125.278 236.167 125.444 239.115L94.6157 239.008L94.5569 214.226L109.971 214.322Z" fill="#455A64"/>
<path d="M99.816 228.831C99.5186 228.92 99.2645 229.116 99.1025 229.38C98.9405 229.645 98.8821 229.96 98.9386 230.265C99.0172 230.566 99.2082 230.824 99.4721 230.988C99.736 231.151 100.053 231.206 100.356 231.143C100.67 231.048 100.938 230.84 101.107 230.559C101.276 230.279 101.334 229.945 101.271 229.623C101.159 229.319 100.932 229.07 100.64 228.929C100.347 228.789 100.012 228.767 99.7037 228.869" fill="#E0E0E0"/>
<g opacity="0.6">
<path d="M94.6157 239.008L94.7067 236.509L124.235 237.542C124.235 237.542 125.604 238.146 125.444 239.115L94.6157 239.008Z" fill="white"/>
</g>
<path d="M109.848 230.046C109.848 230.196 109.088 230.26 108.344 230.742C107.601 231.223 107.205 231.854 107.066 231.812C106.926 231.769 107.156 230.881 108.066 230.313C108.976 229.746 109.88 229.907 109.848 230.046Z" fill="#263238"/>
<path d="M113.074 231.394C113.106 231.539 112.453 231.79 111.94 232.427C111.426 233.063 111.276 233.738 111.126 233.727C110.977 233.716 110.886 232.871 111.538 232.09C112.191 231.309 113.074 231.25 113.074 231.394Z" fill="#263238"/>
<path d="M114.888 235.268C114.749 235.3 114.545 234.546 114.931 233.727C115.316 232.908 116.027 232.577 116.091 232.7C116.156 232.823 115.717 233.267 115.407 233.946C115.096 234.626 115.048 235.257 114.888 235.268Z" fill="#263238"/>
<path d="M109.586 226.408C109.521 226.547 108.831 226.338 107.98 226.408C107.13 226.478 106.466 226.729 106.375 226.601C106.284 226.472 106.91 225.937 107.943 225.884C108.976 225.83 109.66 226.29 109.586 226.408Z" fill="#263238"/>
<path d="M73.0382 136.562C73.0382 136.562 109.992 146.192 114.583 152.564C118.456 157.973 98.1147 213.204 98.1147 213.204L82.0641 211.818L88.9872 165.603L47.5819 152.441L53.8363 136.54L73.0382 136.562Z" fill="#263238"/>
<path d="M75.6866 145.218C75.6866 145.218 113.465 154.394 117.285 160.916C119.066 163.96 117.895 173.954 117.231 178.673C116.782 181.851 110.105 226.322 110.105 226.322H93.7704L94.1288 176.094L54.8797 168.181C54.8797 168.181 33.8105 169.786 32.9866 160.798L41.7823 148.878L62.5412 138.621L75.6866 145.218Z" fill="#263238"/>
<path d="M72.8082 144.063C72.8082 144.063 72.9954 144.106 73.3432 144.207L74.9483 144.651L81.1117 146.374C83.7868 147.123 87.0612 148.038 90.8438 149.162C94.6264 150.285 98.9119 151.644 103.561 153.404C105.89 154.275 108.294 155.266 110.773 156.379L112.646 157.224C113.277 157.532 113.891 157.874 114.486 158.246C115.095 158.627 115.67 159.061 116.204 159.541C116.759 160.029 117.224 160.61 117.579 161.258C118.852 167.047 118.082 173.377 117.135 179.845C116.723 183.103 116.193 186.426 115.696 189.823C115.198 193.221 114.668 196.698 114.139 200.229C113.069 207.297 111.999 214.616 110.864 222.106C110.65 223.524 110.442 224.937 110.228 226.338V226.461H93.6419V226.322C93.7864 207.286 93.9201 190.048 94.0271 176.1L94.1127 176.202L66.2007 170.525L58.5873 168.963L56.6077 168.551C56.1583 168.454 55.9336 168.396 55.9336 168.396L56.6131 168.519L58.6034 168.904L66.2488 170.402L94.1502 175.977H94.2358V176.068C94.1448 190.016 94.0325 207.254 93.9094 226.296L93.7703 226.157H110.099L109.965 226.274C110.174 224.867 110.388 223.46 110.597 222.042L113.876 200.165C114.411 196.627 114.932 193.158 115.439 189.759C115.942 186.362 116.477 183.039 116.894 179.781C117.115 178.154 117.331 176.549 117.541 174.966C117.767 173.407 117.906 171.837 117.959 170.263C118.012 168.711 118.012 167.183 117.959 165.678C117.927 164.923 117.884 164.18 117.82 163.441C117.813 162.717 117.666 162.001 117.386 161.333C117.046 160.709 116.599 160.149 116.065 159.68C115.543 159.209 114.981 158.785 114.385 158.412C113.798 158.039 113.191 157.7 112.566 157.396L110.704 156.545C108.232 155.437 105.83 154.437 103.508 153.565C98.8691 151.794 94.5836 150.44 90.8117 149.285C87.0398 148.129 83.7654 147.219 81.0957 146.454L74.9429 144.721L73.3378 144.25C72.9901 144.127 72.8082 144.063 72.8082 144.063Z" fill="#455A64"/>
<path d="M125.128 121.346C125.369 120.982 128.488 117.381 129.328 117.381C130.168 117.381 131.131 118.344 131.131 118.344C131.693 118.086 132.319 118.003 132.929 118.103C133.651 118.344 137.011 121.223 137.011 122.303V124.106C137.087 124.583 137.087 125.069 137.011 125.546C136.893 126.386 134.871 127.825 134.871 127.825H123.33C123.33 127.825 121.131 126.343 121.404 124.946C121.677 123.55 125.128 121.346 125.128 121.346Z" fill="#FFBE9D"/>
<path d="M131.131 118.344C131.381 118.459 131.621 118.595 131.848 118.751L133.752 119.955C133.973 120.083 134.183 120.226 134.384 120.383C134.596 120.579 134.756 120.826 134.849 121.1C134.922 121.39 134.956 121.689 134.951 121.988L134.999 122.908C135.063 124.165 135.127 125.546 135.197 126.99L135.229 127.643V127.761L135.117 127.787L134.411 127.959H134.378C134.048 127.949 133.73 127.83 133.474 127.622C133.238 127.426 133.041 127.188 132.891 126.921C132.62 126.433 132.416 125.911 132.286 125.369C132.062 124.463 131.929 123.536 131.891 122.603L131.955 122.689L129.938 121.897C129.688 121.809 129.446 121.7 129.215 121.57C129.475 121.623 129.729 121.698 129.975 121.795L132.019 122.507H132.078V122.571C132.14 123.489 132.288 124.399 132.522 125.289C132.653 125.805 132.853 126.302 133.116 126.766C133.231 127.01 133.407 127.22 133.627 127.377C133.848 127.533 134.104 127.631 134.373 127.659H134.341L135.047 127.482L134.94 127.627L134.908 126.969C134.849 125.524 134.785 124.149 134.732 122.887C134.732 122.571 134.732 122.266 134.699 121.966C134.705 121.688 134.678 121.41 134.619 121.137C134.545 120.898 134.411 120.683 134.229 120.511C134.039 120.358 133.84 120.215 133.635 120.083L131.778 118.81C131.55 118.673 131.333 118.518 131.131 118.344Z" fill="#EB996E"/>
<path d="M123.33 127.413C123.584 127.358 123.842 127.324 124.101 127.311L126.203 127.145H126.235C127.018 127.329 127.809 127.472 128.606 127.573C129.065 127.636 129.528 127.674 129.991 127.686C130.216 127.723 130.447 127.709 130.666 127.646C130.886 127.583 131.088 127.473 131.259 127.322C131.403 127.117 131.473 126.87 131.457 126.621C131.457 126.359 131.42 126.086 131.409 125.808C131.378 125.581 131.269 125.373 131.099 125.219C130.93 125.05 130.737 124.905 130.526 124.791C129.763 124.407 128.904 124.254 128.055 124.353C127.75 124.381 127.444 124.337 127.16 124.223C126.876 124.11 126.623 123.93 126.423 123.7C126.171 123.341 126.193 123.079 126.209 123.085C126.279 123.278 126.38 123.458 126.508 123.62C126.709 123.82 126.952 123.972 127.22 124.065C127.488 124.158 127.773 124.188 128.055 124.155C128.941 124.023 129.846 124.165 130.649 124.561C130.883 124.685 131.097 124.842 131.286 125.027C131.509 125.228 131.65 125.504 131.682 125.802C131.682 126.049 131.736 126.337 131.736 126.616C131.75 126.929 131.658 127.239 131.473 127.493C131.287 127.709 131.032 127.854 130.751 127.905C130.499 127.952 130.242 127.969 129.986 127.953C129.494 127.953 129.023 127.889 128.574 127.83C127.768 127.714 126.969 127.552 126.182 127.343H126.214L124.111 127.418C123.852 127.444 123.59 127.442 123.33 127.413Z" fill="#EB996E"/>
<path d="M135.074 127.365C135.341 126.649 135.652 125.951 136.005 125.273C136.276 124.553 136.636 123.871 137.075 123.24C136.891 123.982 136.62 124.701 136.267 125.38C135.994 126.109 135.59 126.782 135.074 127.365Z" fill="#EB996E"/>
<path d="M110.072 129.799L151.638 130.334L165.014 92.8076C165.157 92.4319 165.15 92.0159 164.996 91.6448C164.842 91.2737 164.551 90.9757 164.185 90.8119C163.987 90.7202 163.772 90.6706 163.555 90.6661C163.337 90.6616 163.121 90.7024 162.919 90.7859C162.718 90.8694 162.537 90.9937 162.386 91.1511C162.235 91.3085 162.119 91.4954 162.044 91.7001L148.856 127.236L110.035 127.621C109.751 127.621 109.479 127.734 109.278 127.935C109.078 128.136 108.965 128.408 108.965 128.691C108.96 128.838 108.985 128.985 109.039 129.121C109.092 129.258 109.174 129.382 109.278 129.486C109.382 129.59 109.506 129.672 109.642 129.725C109.779 129.779 109.926 129.804 110.072 129.799Z" fill="#263238"/>
<path d="M48.133 101.919C48.133 101.919 68.4639 129.558 71.6151 129.558H101.282V118.323L78.8486 113.031C78.8486 113.031 67.8058 90.186 65.3554 87.2594C62.905 84.3328 56.3724 80.3897 51.4876 84.7983C46.6029 89.2069 48.133 101.919 48.133 101.919Z" fill="#9667E0"/>
<path d="M101.261 119.43L106.124 119.04C106.124 119.04 106.226 117.237 107.29 116.6C108.355 115.963 108.243 114.583 108.895 114.69C109.249 114.76 109.612 114.76 109.965 114.69L113.994 111.298L117.392 109.072L120.067 108.537C120.067 108.537 121.672 108.96 120.067 110.442L118.365 111.4L116.883 112.887L120.275 111.218C120.431 111.142 120.602 111.103 120.776 111.103C120.949 111.103 121.12 111.142 121.276 111.218C122.194 111.614 123.068 112.104 123.887 112.678C123.96 112.747 124.018 112.83 124.058 112.922C124.098 113.014 124.119 113.113 124.119 113.213C124.119 113.314 124.098 113.413 124.058 113.505C124.018 113.597 123.96 113.68 123.887 113.748L125.369 115.022C125.369 115.022 125.69 116.723 123.988 116.295L122.613 115.979L120.773 117.766C120.773 117.766 126.931 116.493 127.354 116.696C127.776 116.9 128.311 117.863 127.354 118.708C126.396 119.553 122.683 119.345 121.838 120.195C120.992 121.046 115.374 126.172 113.994 126.487C112.614 126.803 101.293 129.569 101.293 129.569L101.261 119.43Z" fill="#FFBE9D"/>
<path d="M125.326 115.006C125.035 114.828 124.756 114.631 124.491 114.417C124.24 114.23 123.956 114.01 123.592 113.775C123.421 113.657 123.243 113.54 123.057 113.422C122.891 113.298 122.696 113.219 122.49 113.192C122.069 113.283 121.668 113.452 121.308 113.689C120.944 113.887 120.623 114.075 120.35 114.224C120.07 114.422 119.768 114.587 119.451 114.717C119.676 114.457 119.942 114.237 120.238 114.064C120.5 113.882 120.816 113.673 121.179 113.459C121.361 113.352 121.554 113.245 121.757 113.138C121.978 113.011 122.225 112.934 122.48 112.914C122.554 112.899 122.63 112.899 122.704 112.914C122.767 112.934 122.827 112.959 122.886 112.989C122.995 113.041 123.1 113.1 123.202 113.165C123.4 113.288 123.582 113.411 123.737 113.54C124.074 113.786 124.368 114.026 124.609 114.235C125.096 114.674 125.358 114.979 125.326 115.006Z" fill="#EB996E"/>
<path d="M110.426 114.278C110.468 114.342 109.965 114.781 109.355 115.348C108.746 115.915 108.285 116.386 108.227 116.327C108.452 115.871 108.771 115.469 109.163 115.145C109.506 114.756 109.94 114.459 110.426 114.278Z" fill="#EB996E"/>
<path d="M65.3554 87.2594C65.7916 87.7968 66.1852 88.3674 66.5324 88.9661C67.2333 90.1271 68.2231 91.8606 69.4108 94.1023C71.8024 98.5858 75.0928 105.086 78.9503 112.999L78.8754 112.935L101.314 118.21H101.421V129.74H99.9392H74.7236H71.8559C71.7312 129.748 71.6061 129.748 71.4814 129.74C71.3552 129.715 71.2329 129.674 71.1176 129.617C70.8934 129.499 70.6803 129.361 70.4809 129.205C70.108 128.927 69.7508 128.629 69.4108 128.312C68.1113 127.088 66.8773 125.797 65.7138 124.443C63.4347 121.854 61.4337 119.355 59.5878 117.065C55.939 112.475 53.0873 108.682 51.1292 106.06L48.8874 103.021C48.6413 102.673 48.454 102.411 48.3149 102.224C48.1758 102.037 48.1277 101.946 48.1277 101.946C48.1277 101.946 48.2026 102.031 48.3417 102.208L48.9356 102.989L51.2201 105.985C53.205 108.591 56.0835 112.363 59.7484 116.937C61.5835 119.216 63.6112 121.704 65.8904 124.288C67.054 125.63 68.2862 126.91 69.5821 128.124C69.9216 128.436 70.2789 128.727 70.6521 128.996C70.8347 129.128 71.028 129.245 71.2299 129.344C71.4278 129.44 71.6481 129.478 71.8666 129.457H74.7343H99.9499H101.293L101.154 129.596C101.154 125.744 101.154 121.977 101.154 118.36L101.255 118.494L78.8219 113.154H78.7684L78.7416 113.106C74.9109 105.183 71.6472 98.6607 69.2931 94.1719C68.1214 91.9195 67.1531 90.1806 66.4682 89.0089C66.1205 88.4311 65.8583 87.9817 65.6496 87.7035C65.441 87.4253 65.3554 87.2594 65.3554 87.2594Z" fill="#263238"/>
<path d="M62.402 85.4512C62.402 85.4993 61.7065 85.2211 60.5722 84.9643C59.9059 84.8166 59.2301 84.7147 58.5498 84.6593C57.7182 84.5954 56.8829 84.5954 56.0513 84.6593C55.2221 84.7464 54.401 84.8985 53.5955 85.1141C52.9369 85.2939 52.2916 85.5192 51.6641 85.7882C50.5941 86.2537 49.9841 86.6496 49.9574 86.6068C50.0781 86.4853 50.2149 86.3809 50.364 86.2965C50.7539 86.0396 51.1615 85.8107 51.5839 85.6117C52.2102 85.3104 52.8596 85.06 53.526 84.8626C54.3428 84.6289 55.179 84.4696 56.0245 84.3865C56.8717 84.3088 57.7241 84.3088 58.5712 84.3865C59.2627 84.4572 59.9477 84.5806 60.6204 84.7556C61.0711 84.8734 61.5128 85.0236 61.9419 85.2051C62.2468 85.3335 62.4127 85.4298 62.402 85.4512Z" fill="#263238"/>
<path d="M74.761 118.162C75.0923 117.202 75.6065 116.316 76.2751 115.551C76.8699 114.727 77.6206 114.027 78.4847 113.492C78.5382 113.556 77.511 114.433 76.4891 115.723C75.4672 117.012 74.8412 118.2 74.761 118.162Z" fill="#263238"/>
<path d="M74.0815 114.717C75.2186 113.71 76.6995 113.179 78.2173 113.235C78.2173 113.32 77.2382 113.422 76.0772 113.839C74.9162 114.257 74.1297 114.786 74.0815 114.717Z" fill="#263238"/>
<path d="M93.1443 172.414C92.7163 171.52 91.6784 171.13 90.7314 170.808C72.0431 164.784 51.9905 161.895 32.6708 165.405C30.3488 165.827 27.9519 166.379 26.1061 167.855C24.2603 169.332 23.1528 172.007 24.1372 174.147L28.1018 175.42C47.8841 173.218 67.8573 173.358 87.6069 175.838C88.9391 176.009 90.3408 176.175 91.5714 175.65C92.8019 175.126 93.7275 173.612 93.1443 172.414Z" fill="#455A64"/>
<path d="M71.46 166.234C71.4176 166.242 71.374 166.242 71.3316 166.234L70.9731 166.186L69.5874 165.983C68.389 165.79 66.6501 165.512 64.4887 165.266C58.8682 164.601 53.2081 164.331 47.5499 164.458C45.8967 164.49 44.2809 164.57 42.7347 164.698C41.1885 164.827 39.6797 164.902 38.2405 165.03C38.0624 165.045 37.8835 165.045 37.7055 165.03C37.5382 165.014 37.3698 165.014 37.2025 165.03C36.8638 165.053 36.5275 165.104 36.1967 165.18L34.2599 165.587C33.0133 165.865 31.8684 166.17 30.8358 166.512C29.2047 167.021 27.647 167.74 26.2025 168.652C25.6675 168.979 25.3144 169.262 25.0629 169.46L24.774 169.68C24.7098 169.728 24.6723 169.754 24.667 169.749L24.7526 169.658L25.0255 169.417C25.3813 169.111 25.7547 168.825 26.1436 168.561C27.5769 167.601 29.1361 166.843 30.7769 166.309C31.9032 165.93 33.0478 165.609 34.2064 165.346L36.1486 164.929C36.4994 164.84 36.8576 164.785 37.2186 164.763C37.3966 164.747 37.5756 164.747 37.7536 164.763C37.9314 164.783 38.1109 164.783 38.2886 164.763C39.7065 164.629 41.2259 164.538 42.7828 164.415C44.3397 164.292 45.993 164.201 47.598 164.169C53.2513 164.04 58.9063 164.335 64.5154 165.052C66.6555 165.324 68.4104 165.635 69.6035 165.859L70.9838 166.116L71.3369 166.191L71.46 166.234Z" fill="#263238"/>
<path d="M24.6241 135.781L56.4793 136.893C56.5903 136.897 56.6991 136.925 56.7988 136.974C56.8985 137.023 56.9868 137.092 57.0579 137.177C57.1291 137.263 57.1815 137.362 57.2118 137.469C57.242 137.576 57.2495 137.688 57.2337 137.798L52.6485 175.998H59.8285L63.5309 133.945C63.5726 133.606 63.5434 133.262 63.445 132.934C63.3466 132.607 63.1813 132.304 62.9594 132.044C62.7375 131.783 62.464 131.572 62.1562 131.424C61.8484 131.275 61.5131 131.192 61.1714 131.179L23.7681 129.842L24.6241 135.781Z" fill="#455A64"/>
<path d="M193.921 132.998H188.929V134.106L199.919 239.147H205.044L193.921 132.998Z" fill="#455A64"/>
<path d="M82.4761 132.998H87.4678V134.127L77.2222 239.114H72.0967L82.4761 132.998Z" fill="#455A64"/>
<path d="M82.476 132.998C82.476 132.998 82.476 133.186 82.4332 133.533C82.3904 133.881 82.3476 134.437 82.2834 135.138C82.1497 136.545 81.9571 138.621 81.7056 141.286C81.1706 146.636 80.4483 154.356 79.5334 163.933C77.6715 183.066 75.0981 209.576 72.2304 239.109L72.0966 238.954H77.2221L77.083 239.082C81.941 189.764 86.0553 147.984 87.425 134.106C87.425 133.571 87.425 133.271 87.425 132.977L87.4624 133.014H83.7173H82.797H82.4921H82.7863H83.6959L87.4838 132.988H87.5213V133.03C87.5213 133.325 87.5213 133.635 87.5213 134.159C86.1784 148.038 82.139 189.802 77.3559 239.152V239.28H71.9521V239.125C74.8627 209.56 77.4789 183.017 79.3675 163.864C80.3252 154.303 81.0903 146.588 81.6253 141.254C81.8929 138.579 82.1015 136.545 82.2406 135.138C82.3155 134.448 82.369 133.918 82.4065 133.533C82.4439 133.148 82.476 132.998 82.476 132.998Z" fill="#263238"/>
<path d="M213.326 129.58H70.4647V134.1H213.326V129.58Z" fill="#455A64"/>
<path d="M198.116 134.106C198.116 134.181 169.642 134.245 134.528 134.245C99.4147 134.245 70.9302 134.181 70.9302 134.106C70.9302 134.031 99.3987 133.967 134.528 133.967C169.658 133.967 198.116 134.02 198.116 134.106Z" fill="#263238"/>
</svg>
