<svg width="51" height="48" viewBox="0 0 51 48" fill="none" xmlns="http://www.w3.org/2000/svg">
<path d="M25.2161 3.63578C19.4361 3.7007 13.9125 5.86704 9.82521 9.67206C5.73787 13.4771 3.4108 18.6191 3.34106 23.9999C3.4108 29.3806 5.73787 34.5227 9.82521 38.3277C13.9125 42.1327 19.4361 44.2991 25.2161 44.364C30.996 44.2991 36.5196 42.1327 40.6069 38.3277C44.6943 34.5227 47.0213 29.3806 47.0911 23.9999C47.0213 18.6191 44.6943 13.4771 40.6069 9.67206C36.5196 5.86704 30.996 3.7007 25.2161 3.63578ZM37.7161 25.4545H26.7786V35.6365H23.6536V25.4545H12.7161V22.5453H23.6536V12.3633H26.7786V22.5453H37.7161V25.4545Z" fill="#9667E0"/>
</svg>
