<svg width="156" height="72" viewBox="0 0 156 72" fill="none" xmlns="http://www.w3.org/2000/svg">
<path d="M23.9167 19.3333H16.0833C14.35 19.3333 12.9333 20.7333 12.9333 22.4667V24.0333C12.9333 25.7667 14.3333 27.1667 16.0667 27.1667H23.9167C25.65 27.1667 27.05 25.7667 27.05 24.0333V22.4667C27.0667 20.7333 25.65 19.3333 23.9167 19.3333Z" fill="white"/>
<path d="M28.7334 24.0333C28.7334 26.6833 26.5667 28.85 23.9167 28.85H16.0834C13.4334 28.85 11.2667 26.6833 11.2667 24.0333C11.2667 23.1 10.2667 22.5167 9.4334 22.95C7.0834 24.2 5.4834 26.6833 5.4834 29.5333V45.2167C5.4834 49.3167 8.8334 52.6667 12.9334 52.6667H27.0667C31.1667 52.6667 34.5167 49.3167 34.5167 45.2167V29.5333C34.5167 26.6833 32.9167 24.2 30.5667 22.95C29.7334 22.5167 28.7334 23.1 28.7334 24.0333ZM25.5667 37.2167L18.9001 43.8833C18.6501 44.1333 18.3334 44.25 18.0167 44.25C17.7001 44.25 17.3834 44.1333 17.1334 43.8833L14.6334 41.3833C14.1501 40.9 14.1501 40.1 14.6334 39.6167C15.1167 39.1333 15.9167 39.1333 16.4001 39.6167L18.0167 41.2333L23.8001 35.45C24.2834 34.9667 25.0834 34.9667 25.5667 35.45C26.0501 35.9333 26.0501 36.7333 25.5667 37.2167Z" fill="white"/>
<path d="M53.0698 54.288C51.5338 54.288 50.2858 53.808 49.3258 52.848C48.3978 51.888 47.9338 50.448 47.9338 48.528C47.9338 47.728 48.0618 46.688 48.3178 45.408L51.1978 31.92H49.6138L49.9978 30H51.5818L53.0218 23.376L60.1258 22.416L58.4938 30H61.3738L60.9898 31.92H58.1098L55.0378 46.32C54.9098 46.8 54.8458 47.312 54.8458 47.856C54.8458 48.496 54.9898 48.96 55.2778 49.248C55.5978 49.504 56.1098 49.632 56.8138 49.632C57.7418 49.632 58.6058 49.248 59.4058 48.48C60.2058 47.68 60.7818 46.656 61.1338 45.408H63.1498C61.9658 48.864 60.4458 51.216 58.5898 52.464C56.7338 53.68 54.8938 54.288 53.0698 54.288ZM69.6107 27.408C68.5547 27.408 67.6587 27.04 66.9227 26.304C66.1867 25.568 65.8187 24.672 65.8187 23.616C65.8187 22.56 66.1867 21.664 66.9227 20.928C67.6587 20.16 68.5547 19.776 69.6107 19.776C70.6667 19.776 71.5627 20.16 72.2987 20.928C73.0667 21.664 73.4507 22.56 73.4507 23.616C73.4507 24.672 73.0667 25.568 72.2987 26.304C71.5627 27.04 70.6667 27.408 69.6107 27.408ZM66.3467 54.288C64.8107 54.288 63.5627 53.808 62.6027 52.848C61.6747 51.888 61.2107 50.448 61.2107 48.528C61.2107 47.728 61.3387 46.688 61.5947 45.408L64.8587 30H71.7707L68.3147 46.32C68.1867 46.8 68.1227 47.312 68.1227 47.856C68.1227 48.496 68.2667 48.96 68.5547 49.248C68.8747 49.504 69.3867 49.632 70.0907 49.632C71.0187 49.632 71.8827 49.248 72.6827 48.48C73.4827 47.68 74.0587 46.656 74.4107 45.408H76.4267C75.2427 48.864 73.7227 51.216 71.8667 52.464C70.0107 53.68 68.1707 54.288 66.3467 54.288ZM81.7356 54.288C79.3676 54.288 77.5276 53.68 76.2156 52.464C74.9036 51.216 74.2476 49.28 74.2476 46.656C74.2476 44.448 74.6796 42.016 75.5436 39.36C76.4396 36.704 77.8476 34.416 79.7676 32.496C81.7196 30.544 84.1836 29.568 87.1596 29.568C89.0796 29.568 90.4396 29.984 91.2396 30.816C92.0716 31.648 92.4876 32.704 92.4876 33.984C92.4876 35.104 92.2476 35.968 91.7676 36.576C91.2876 37.184 90.6796 37.488 89.9436 37.488C89.3996 37.488 88.8396 37.296 88.2636 36.912C88.6476 35.856 88.8396 34.912 88.8396 34.08C88.8396 33.472 88.7276 32.992 88.5036 32.64C88.2796 32.288 87.9436 32.112 87.4956 32.112C86.5356 32.112 85.5756 32.896 84.6156 34.464C83.6556 36.032 82.8716 37.936 82.2636 40.176C81.6556 42.416 81.3516 44.432 81.3516 46.224C81.3516 47.792 81.6236 48.864 82.1676 49.44C82.7116 49.984 83.5916 50.256 84.8076 50.256C86.5356 50.256 88.0076 49.856 89.2236 49.056C90.4716 48.256 91.8316 47.04 93.3036 45.408H94.9356C91.3836 51.328 86.9836 54.288 81.7356 54.288ZM111.821 54.288C109.837 54.288 108.333 53.824 107.309 52.896C106.285 51.936 105.773 50.576 105.773 48.816C105.773 48.048 105.869 47.216 106.061 46.32L106.445 44.448C106.573 43.904 106.637 43.312 106.637 42.672C106.637 41.136 106.061 40.368 104.909 40.368C104.397 40.368 103.853 40.512 103.277 40.8C102.733 41.088 102.093 41.536 101.357 42.144L98.8614 54H91.9494L98.9094 21.36L106.013 20.4L102.413 37.296L111.677 30H116.429L106.829 36.672C107.309 36.544 107.837 36.48 108.413 36.48C110.141 36.48 111.453 37.008 112.349 38.064C113.245 39.12 113.693 40.464 113.693 42.096C113.693 42.768 113.629 43.376 113.501 43.92L112.973 46.32C112.813 46.896 112.733 47.408 112.733 47.856C112.733 49.04 113.357 49.632 114.605 49.632C115.309 49.632 115.757 49.584 115.949 49.488C116.141 49.392 116.253 49.344 116.285 49.344C116.221 50.4 115.917 51.296 115.373 52.032C114.861 52.768 114.253 53.328 113.549 53.712C112.877 54.096 112.301 54.288 111.821 54.288ZM122.174 54.192C121.118 54.192 120.222 53.824 119.486 53.088C118.75 52.352 118.382 51.456 118.382 50.4C118.382 49.344 118.75 48.448 119.486 47.712C120.222 46.944 121.118 46.56 122.174 46.56C123.23 46.56 124.126 46.944 124.862 47.712C125.63 48.448 126.014 49.344 126.014 50.4C126.014 51.456 125.63 52.352 124.862 53.088C124.126 53.824 123.23 54.192 122.174 54.192ZM135.263 54.192C134.207 54.192 133.311 53.824 132.575 53.088C131.839 52.352 131.471 51.456 131.471 50.4C131.471 49.344 131.839 48.448 132.575 47.712C133.311 46.944 134.207 46.56 135.263 46.56C136.319 46.56 137.215 46.944 137.951 47.712C138.719 48.448 139.103 49.344 139.103 50.4C139.103 51.456 138.719 52.352 137.951 53.088C137.215 53.824 136.319 54.192 135.263 54.192ZM148.353 54.192C147.297 54.192 146.401 53.824 145.665 53.088C144.929 52.352 144.561 51.456 144.561 50.4C144.561 49.344 144.929 48.448 145.665 47.712C146.401 46.944 147.297 46.56 148.353 46.56C149.409 46.56 150.305 46.944 151.041 47.712C151.809 48.448 152.193 49.344 152.193 50.4C152.193 51.456 151.809 52.352 151.041 53.088C150.305 53.824 149.409 54.192 148.353 54.192Z" fill="white"/>
</svg>
