<svg width="13" height="11" viewBox="0 0 13 11" fill="none" xmlns="http://www.w3.org/2000/svg">
<path d="M11.7992 4.73594C11.9292 4.64657 12.0256 4.5219 12.0749 4.37941C12.1242 4.23692 12.124 4.08375 12.0742 3.94139C12.0245 3.79902 11.9277 3.67459 11.7975 3.58555C11.6673 3.49651 11.5102 3.44731 11.3481 3.44487L8.20117 3.33513C8.18569 3.33414 8.17086 3.32905 8.15845 3.32046C8.14604 3.31187 8.13659 3.30015 8.13123 3.28672L7.04378 0.575477C6.98914 0.437539 6.8899 0.318431 6.7595 0.234279C6.6291 0.150127 6.47384 0.104996 6.31473 0.104996C6.15562 0.104996 6.00036 0.150127 5.86996 0.234279C5.73956 0.318431 5.64032 0.437539 5.58568 0.575477L4.50172 3.2964C4.49637 3.30983 4.48691 3.32155 4.47451 3.33014C4.4621 3.33873 4.44726 3.34383 4.43179 3.34481L1.28482 3.45455C1.12279 3.457 0.965644 3.50619 0.835427 3.59523C0.705211 3.68427 0.608449 3.8087 0.558709 3.95107C0.508969 4.09344 0.508746 4.2466 0.558071 4.3891C0.607396 4.53159 0.703795 4.65625 0.833751 4.74562L3.30238 6.53697C3.31473 6.54595 3.32397 6.55807 3.32894 6.57184C3.33391 6.58561 3.3344 6.60042 3.33035 6.61444L2.48067 9.39346C2.43664 9.53497 2.4409 9.68557 2.49288 9.82477C2.54487 9.96397 2.64204 10.085 2.77118 10.1714C2.90033 10.2578 3.05518 10.3054 3.21467 10.3077C3.37415 10.31 3.53053 10.2669 3.66253 10.1842L6.27102 8.5704C6.28387 8.56221 6.29912 8.55783 6.31473 8.55783C6.33034 8.55783 6.34559 8.56221 6.35844 8.5704L8.96693 10.1842C9.09714 10.2697 9.25296 10.3156 9.41275 10.3156C9.57254 10.3156 9.72836 10.2697 9.85857 10.1842C9.98775 10.0986 10.085 9.97819 10.137 9.83947C10.189 9.70075 10.1931 9.55057 10.1488 9.4096L9.29212 6.62089C9.28758 6.60689 9.28783 6.59194 9.29283 6.57808C9.29784 6.56422 9.30736 6.55212 9.32009 6.54343L11.7992 4.73594Z" fill="white"/>
</svg>
